<?xml version="1.0" encoding="UTF-8"?><svg viewBox="-1.4541531616944383 -2.9421479048374626 11.134087731883602 11.357480846421547" xmlns="http://www.w3.org/2000/svg"><line x1="0" y1="0" x2="0.08715574274765817" y2="-0.9961946980917455" stroke="black" stroke-width="0.03340435543065161" stroke-linecap="round"/><line x1="0.08715574274765817" y1="-0.9961946980917455" x2="2.0795451389311492" y2="-1.1705061835870618" stroke="black" stroke-width="0.03340435543065161" stroke-linecap="round"/><line x1="2.0795451389311492" y1="-1.1705061835870618" x2="2.8560022742387123" y2="1.7272712952801428" stroke="black" stroke-width="0.03340435543065161" stroke-linecap="round"/><line x1="2.8560022742387123" y1="1.7272712952801428" x2="-0.7692288739078865" y2="3.4177443422429423" stroke="black" stroke-width="0.03340435543065161" stroke-linecap="round"/><line x1="-0.7692288739078865" y1="3.4177443422429423" x2="-1.342805310258933" y2="2.598592297953951" stroke="black" stroke-width="0.03340435543065161" stroke-linecap="round"/><line x1="-1.342805310258933" y1="2.598592297953951" x2="0.07140825211416191" y2="1.1843787355808557" stroke="black" stroke-width="0.03340435543065161" stroke-linecap="round"/><line x1="0.07140825211416191" y1="1.1843787355808557" x2="2.528864384981138" y2="2.905108044633993" stroke="black" stroke-width="0.03340435543065161" stroke-linecap="round"/><line x1="2.528864384981138" y1="2.905108044633993" x2="0.838391338018341" y2="6.530339192780593" stroke="black" stroke-width="0.03340435543065161" stroke-linecap="round"/><line x1="0.838391338018341" y1="6.530339192780593" x2="-0.12753448827072722" y2="6.271520147678072" stroke="black" stroke-width="0.03340435543065161" stroke-linecap="round"/><line x1="-0.12753448827072722" y1="6.271520147678072" x2="0.04677699722458911" y2="4.279130751494581" stroke="black" stroke-width="0.03340435543065161" stroke-linecap="round"/><line x1="0.04677699722458911" y1="4.279130751494581" x2="3.035361091499826" y2="4.017663523251606" stroke="black" stroke-width="0.03340435543065161" stroke-linecap="round"/><line x1="3.035361091499826" y1="4.017663523251606" x2="4.07063727190991" y2="7.881366828407879" stroke="black" stroke-width="0.03340435543065161" stroke-linecap="round"/><line x1="4.07063727190991" y1="7.881366828407879" x2="3.1643294848732606" y2="8.30398509014858" stroke="black" stroke-width="0.03340435543065161" stroke-linecap="round"/><line x1="3.1643294848732606" y1="8.30398509014858" x2="2.0171766121711676" y2="6.665681001570596" stroke="black" stroke-width="0.03340435543065161" stroke-linecap="round"/><line x1="2.0171766121711676" y1="6.665681001570596" x2="4.13849695573081" y2="4.5443606580109535" stroke="black" stroke-width="0.03340435543065161" stroke-linecap="round"/><line x1="4.13849695573081" y1="4.5443606580109535" x2="7.415105132886778" y2="6.838666403415137" stroke="black" stroke-width="0.03340435543065161" stroke-linecap="round"/><line x1="7.415105132886778" y1="6.838666403415137" x2="6.992486871146078" y2="7.744974190451787" stroke="black" stroke-width="0.03340435543065161" stroke-linecap="round"/><line x1="6.992486871146078" y1="7.744974190451787" x2="5.060635218567942" y2="7.227336100246744" stroke="black" stroke-width="0.03340435543065161" stroke-linecap="round"/><line x1="5.060635218567942" y1="7.227336100246744" x2="5.322102446810916" y2="4.238752005971508" stroke="black" stroke-width="0.03340435543065161" stroke-linecap="round"/><line x1="5.322102446810916" y1="4.238752005971508" x2="9.306881239177898" y2="3.890129034980875" stroke="black" stroke-width="0.03340435543065161" stroke-linecap="round"/><line x1="9.306881239177898" y1="3.890129034980875" x2="9.56570028428042" y2="4.856054861269943" stroke="black" stroke-width="0.03340435543065161" stroke-linecap="round"/><line x1="9.56570028428042" y1="4.856054861269943" x2="7.75308471020712" y2="5.701291384751343" stroke="black" stroke-width="0.03340435543065161" stroke-linecap="round"/><line x1="7.75308471020712" y1="5.701291384751343" x2="6.03235540115398" y2="3.2438352518843683" stroke="black" stroke-width="0.03340435543065161" stroke-linecap="round"/><line x1="6.03235540115398" y1="3.2438352518843683" x2="8.86078252590017" y2="0.415408127138178" stroke="black" stroke-width="0.03340435543065161" stroke-linecap="round"/><line x1="8.86078252590017" y1="0.415408127138178" x2="9.679934570189163" y2="0.9889845634892238" stroke="black" stroke-width="0.03340435543065161" stroke-linecap="round"/><line x1="9.679934570189163" y1="0.9889845634892238" x2="8.834698046707764" y2="2.8016001375625237" stroke="black" stroke-width="0.03340435543065161" stroke-linecap="round"/><line x1="8.834698046707764" y1="2.8016001375625237" x2="5.936920567840559" y2="2.0251430022549606" stroke="black" stroke-width="0.03340435543065161" stroke-linecap="round"/><line x1="5.936920567840559" y1="2.0251430022549606" x2="6.285543538831192" y2="-1.9596357901120216" stroke="black" stroke-width="0.03340435543065161" stroke-linecap="round"/><line x1="6.285543538831192" y1="-1.9596357901120216" x2="7.281738236922937" y2="-2.0467915328596797" stroke="black" stroke-width="0.03340435543065161" stroke-linecap="round"/><line x1="7.281738236922937" y1="-2.0467915328596797" x2="7.7993763271279795" y2="-0.11493988028154334" stroke="black" stroke-width="0.03340435543065161" stroke-linecap="round"/><line x1="7.7993763271279795" y1="-0.11493988028154334" x2="5.08045296601803" y2="1.1529149049405565" stroke="black" stroke-width="0.03340435543065161" stroke-linecap="round"/><line x1="5.08045296601803" y1="1.1529149049405565" x2="2.7861472206138442" y2="-2.1236932722154096" stroke="black" stroke-width="0.03340435543065161" stroke-linecap="round"/><line x1="2.7861472206138442" y1="-2.1236932722154096" x2="3.4932540018003917" y2="-2.830800053401957" stroke="black" stroke-width="0.03340435543065161" stroke-linecap="round"/><line x1="3.4932540018003917" y1="-2.830800053401957" x2="5.131558090378376" y2="-1.6836471806998654" stroke="black" stroke-width="0.03340435543065161" stroke-linecap="round"/><line x1="5.131558090378376" y1="-1.6836471806998654" x2="3.863703305156278" y2="1.0352761804100847" stroke="black" stroke-width="0.03340435543065161" stroke-linecap="round"/><line x1="3.863703305156278" y1="1.0352761804100847" x2="5.329070518200751e-15" y2="2.220446049250313e-16" stroke="black" stroke-width="0.03340435543065161" stroke-linecap="round"/></svg>