<?xml version="1.0" encoding="UTF-8"?><svg viewBox="-0.2799772173388086 -2.101536870768734 4.470994640544508 4.515261914213255" xmlns="http://www.w3.org/2000/svg"><line x1="0" y1="0" x2="0.08715574274765817" y2="-0.9961946980917455" stroke="black" stroke-width="0.01328018210062722" stroke-linecap="round"/><line x1="0.08715574274765817" y1="-0.9961946980917455" x2="2.0822838432673065" y2="-0.8566817506034949" stroke="black" stroke-width="0.01328018210062722" stroke-linecap="round"/><line x1="2.0822838432673065" y1="-0.8566817506034949" x2="1.9252759745384758" y2="2.1392068536602267" stroke="black" stroke-width="0.01328018210062722" stroke-linecap="round"/><line x1="1.9252759745384758" y1="2.1392068536602267" x2="0.92588514751938" y2="2.1043073569577255" stroke="black" stroke-width="0.01328018210062722" stroke-linecap="round"/><line x1="0.92588514751938" y1="2.1043073569577255" x2="0.960789960393947" y2="0.10461196664494299" stroke="black" stroke-width="0.01328018210062722" stroke-linecap="round"/><line x1="0.960789960393947" y1="0.10461196664494299" x2="3.960789960393947" y2="0.10461196664494281" stroke="black" stroke-width="0.01328018210062722" stroke-linecap="round"/><line x1="3.960789960393947" y1="0.10461196664494281" x2="3.9782423668312306" y2="1.104459661801334" stroke="black" stroke-width="0.01328018210062722" stroke-linecap="round"/><line x1="3.9782423668312306" y1="1.104459661801334" x2="1.9794607127930393" y2="1.1742586552063374" stroke="black" stroke-width="0.01328018210062722" stroke-linecap="round"/><line x1="1.9794607127930393" y1="1.1742586552063374" x2="1.8224528440642063" y2="-1.8216299490573842" stroke="black" stroke-width="0.01328018210062722" stroke-linecap="round"/><line x1="1.8224528440642063" y1="-1.8216299490573842" x2="2.8200168943240307" y2="-1.8913864228015096" stroke="black" stroke-width="0.01328018210062722" stroke-linecap="round"/><line x1="2.8200168943240307" y1="-1.8913864228015096" x2="2.994328379819348" y2="0.1010029733819815" stroke="black" stroke-width="0.01328018210062722" stroke-linecap="round"/><line x1="2.994328379819348" y1="0.1010029733819815" x2="0.01076269371452776" y2="0.4145883631849416" stroke="black" stroke-width="0.01328018210062722" stroke-linecap="round"/><line x1="0.01076269371452776" y1="0.4145883631849416" x2="-0.11110664969062035" y2="-0.5779577884563805" stroke="black" stroke-width="0.01328018210062722" stroke-linecap="round"/><line x1="-0.11110664969062035" y1="-0.5779577884563805" x2="1.8694294877925202" y2="-0.8563039903765118" stroke="black" stroke-width="0.01328018210062722" stroke-linecap="round"/><line x1="1.8694294877925202" y1="-0.8563039903765118" x2="2.338732882913213" y2="2.106761031408901" stroke="black" stroke-width="0.01328018210062722" stroke-linecap="round"/><line x1="2.338732882913213" y1="2.106761031408901" x2="1.3539251299010049" y2="2.2804092090758314" stroke="black" stroke-width="0.01328018210062722" stroke-linecap="round"/><line x1="1.3539251299010049" y1="2.2804092090758314" x2="0.9723071391479156" y2="0.3171548421805035" stroke="black" stroke-width="0.01328018210062722" stroke-linecap="round"/><line x1="0.9723071391479156" y1="0.3171548421805035" x2="3.9067499413493323" y2="-0.3065802302727749" stroke="black" stroke-width="0.01328018210062722" stroke-linecap="round"/><line x1="3.9067499413493323" y1="-0.3065802302727749" x2="4.131700995693197" y2="0.6677898345124603" stroke="black" stroke-width="0.01328018210062722" stroke-linecap="round"/><line x1="4.131700995693197" y1="0.6677898345124603" x2="2.191109543141204" y2="1.1516336257117958" stroke="black" stroke-width="0.01328018210062722" stroke-linecap="round"/><line x1="2.191109543141204" y1="1.1516336257117958" x2="1.414652407833642" y2="-1.7461438531554092" stroke="black" stroke-width="0.01328018210062722" stroke-linecap="round"/><line x1="1.414652407833642" y1="-1.7461438531554092" x2="2.3759141037719607" y2="-2.0217812089724085" stroke="black" stroke-width="0.01328018210062722" stroke-linecap="round"/><line x1="2.3759141037719607" y1="-2.0217812089724085" x2="2.9606575132174346" y2="-0.10917169704633767" stroke="black" stroke-width="0.01328018210062722" stroke-linecap="round"/><line x1="2.9606575132174346" y1="-0.10917169704633767" x2="0.10748796433197416" y2="0.817879286078505" stroke="black" stroke-width="0.01328018210062722" stroke-linecap="round"/><line x1="0.10748796433197416" y1="0.817879286078505" x2="-0.21808019012518337" y2="-0.1276392895208115" stroke="black" stroke-width="0.01328018210062722" stroke-linecap="round"/><line x1="-0.21808019012518337" y1="-0.1276392895208115" x2="1.6613050514466332" y2="-0.8116795761721491" stroke="black" stroke-width="0.01328018210062722" stroke-linecap="round"/><line x1="1.6613050514466332" y1="-0.8116795761721491" x2="2.736408900082534" y2="1.9890617033194562" stroke="black" stroke-width="0.01328018210062722" stroke-linecap="round"/><line x1="2.736408900082534" y1="1.9890617033194562" x2="1.8092250455157464" y2="2.3636682967353684" stroke="black" stroke-width="0.01328018210062722" stroke-linecap="round"/><line x1="1.8092250455157464" y1="2.3636682967353684" x2="1.027762788537197" y2="0.5226585898304885" stroke="black" stroke-width="0.01328018210062722" stroke-linecap="round"/><line x1="1.027762788537197" y1="0.5226585898304885" x2="3.7683991614649996" y2="-0.6975513393969119" stroke="black" stroke-width="0.01328018210062722" stroke-linecap="round"/><line x1="3.7683991614649996" y1="-0.6975513393969119" x2="4.191017423205699" y2="0.208756447639738" stroke="black" stroke-width="0.01328018210062722" stroke-linecap="round"/><line x1="4.191017423205699" y1="0.208756447639738" x2="2.3934293306073657" y2="1.0854987412178936" stroke="black" stroke-width="0.01328018210062722" stroke-linecap="round"/><line x1="2.3934293306073657" y1="1.0854987412178936" x2="1.0314578313887248" y2="-1.5875208313472098" stroke="black" stroke-width="0.01328018210062722" stroke-linecap="round"/><line x1="1.0314578313887248" y1="-1.5875208313472098" x2="1.9144054242476516" y2="-2.0569923941331005" stroke="black" stroke-width="0.01328018210062722" stroke-linecap="round"/><line x1="1.9144054242476516" y1="-2.0569923941331005" x2="2.884024664740326" y2="-0.30775297985430905" stroke="black" stroke-width="0.01328018210062722" stroke-linecap="round"/><line x1="2.884024664740326" y1="-0.30775297985430905" x2="0.28594845338701047" y2="1.1922470201456923" stroke="black" stroke-width="0.01328018210062722" stroke-linecap="round"/><line x1="0.28594845338701047" y1="1.1922470201456923" x2="-0.22908962152304402" y2="0.33507971944358017" stroke="black" stroke-width="0.01328018210062722" stroke-linecap="round"/><line x1="-0.22908962152304402" y1="0.33507971944358017" x2="1.4670065707898081" y2="-0.7247588090228296" stroke="black" stroke-width="0.01328018210062722" stroke-linecap="round"/><line x1="1.4670065707898081" y1="-0.7247588090228296" x2="3.1009236758348884" y2="1.791252894813443" stroke="black" stroke-width="0.01328018210062722" stroke-linecap="round"/><line x1="3.1009236758348884" y1="1.791252894813443" x2="2.271886103279847" y2="2.3504457982841904" stroke="black" stroke-width="0.01328018210062722" stroke-linecap="round"/><line x1="2.271886103279847" y1="2.3504457982841904" x2="1.1247332305777542" y2="0.7121417097062073" stroke="black" stroke-width="0.01328018210062722" stroke-linecap="round"/><line x1="1.1247332305777542" y1="0.7121417097062073" x2="3.5517842137025966" y2="-1.0512140471712121" stroke="black" stroke-width="0.01328018210062722" stroke-linecap="round"/><line x1="3.5517842137025966" y1="-1.0512140471712121" x2="4.153599236854645" y2="-0.2525785371239192" stroke="black" stroke-width="0.01328018210062722" stroke-linecap="round"/><line x1="4.153599236854645" y1="-0.2525785371239192" x2="2.5775777296412006" y2="0.9787444135273969" stroke="black" stroke-width="0.01328018210062722" stroke-linecap="round"/><line x1="2.5775777296412006" y1="0.9787444135273969" x2="0.689616556491687" y2="-1.3526934708435148" stroke="black" stroke-width="0.01328018210062722" stroke-linecap="round"/><line x1="0.689616556491687" y1="-1.3526934708435148" x2="1.4556609996106649" y2="-1.995481080530054" stroke="black" stroke-width="0.01328018210062722" stroke-linecap="round"/><line x1="1.4556609996106649" y1="-1.995481080530054" x2="2.7677790575916794" y2="-0.48606192008451" stroke="black" stroke-width="0.01328018210062722" stroke-linecap="round"/><line x1="2.7677790575916794" y1="-0.48606192008451" x2="0.5383445811594973" y2="1.5213298989920656" stroke="black" stroke-width="0.01328018210062722" stroke-linecap="round"/><line x1="0.5383445811594973" y1="1.5213298989920656" x2="-0.1436537789030009" y2="0.7899761973728949" stroke="black" stroke-width="0.01328018210062722" stroke-linecap="round"/><line x1="-0.1436537789030009" y1="0.7899761973728949" x2="1.2950258217743014" y2="-0.5993405435450998" stroke="black" stroke-width="0.01328018210062722" stroke-linecap="round"/><line x1="1.2950258217743014" y1="-0.5993405435450998" x2="3.416346165333944" y2="1.5219798000145426" stroke="black" stroke-width="0.01328018210062722" stroke-linecap="round"/><line x1="3.416346165333944" y1="1.5219798000145426" x2="2.721687794874947" y2="2.2413196003531937" stroke="black" stroke-width="0.01328018210062722" stroke-linecap="round"/><line x1="2.721687794874947" y1="2.2413196003531937" x2="1.258980391636605" y2="0.8773228802281976" stroke="black" stroke-width="0.01328018210062722" stroke-linecap="round"/><line x1="1.258980391636605" y1="0.8773228802281976" x2="3.26637221071318" y2="-1.3521115962039854" stroke="black" stroke-width="0.01328018210062722" stroke-linecap="round"/><line x1="3.26637221071318" y1="-1.3521115962039854" x2="4.021081790935952" y2="-0.6960525672134779" stroke="black" stroke-width="0.01328018210062722" stroke-linecap="round"/><line x1="4.021081790935952" y1="-0.6960525672134779" x2="2.7355065715628735" y2="0.8360363190244784" stroke="black" stroke-width="0.01328018210062722" stroke-linecap="round"/><line x1="2.7355065715628735" y1="0.8360363190244784" x2="0.4040686871919612" y2="-1.0519248541250341" stroke="black" stroke-width="0.01328018210062722" stroke-linecap="round"/><line x1="0.4040686871919612" y1="-1.0519248541250341" x2="1.0197301625176194" y2="-1.8399356077317561" stroke="black" stroke-width="0.01328018210062722" stroke-linecap="round"/><line x1="1.0197301625176194" y1="-1.8399356077317561" x2="2.6170011826122046" y2="-0.6363055614276594" stroke="black" stroke-width="0.01328018210062722" stroke-linecap="round"/><line x1="2.6170011826122046" y1="-0.6363055614276594" x2="0.8536454257347854" y2="1.790745421697183" stroke="black" stroke-width="0.01328018210062722" stroke-linecap="round"/><line x1="0.8536454257347854" y1="1.790745421697183" x2="0.034493381445793614" y2="1.217168985346137" stroke="black" stroke-width="0.01328018210062722" stroke-linecap="round"/><line x1="0.034493381445793614" y1="1.217168985346137" x2="1.1528791883872875" y2="-0.4409061597639463" stroke="black" stroke-width="0.01328018210062722" stroke-linecap="round"/><line x1="1.1528791883872875" y1="-0.4409061597639463" x2="3.6688908922235597" y2="1.193010945281135" stroke="black" stroke-width="0.01328018210062722" stroke-linecap="round"/><line x1="3.6688908922235597" y1="1.193010945281135" x2="3.138971627990355" y2="2.041059041437561" stroke="black" stroke-width="0.01328018210062722" stroke-linecap="round"/><line x1="3.138971627990355" y1="2.041059041437561" x2="1.4246370265861303" y2="1.0109828916174528" stroke="black" stroke-width="0.01328018210062722" stroke-linecap="round"/><line x1="1.4246370265861303" y1="1.0109828916174528" x2="2.9246370265861303" y2="-1.5870933197358632" stroke="black" stroke-width="0.01328018210062722" stroke-linecap="round"/><line x1="2.9246370265861303" y1="-1.5870933197358632" x2="3.7992567337255263" y2="-1.1022836994895262" stroke="black" stroke-width="0.01328018210062722" stroke-linecap="round"/><line x1="3.7992567337255263" y1="-1.1022836994895262" x2="2.860313608153745" y2="0.6636114862283276" stroke="black" stroke-width="0.01328018210062722" stroke-linecap="round"/><line x1="2.860313608153745" y1="0.6636114862283276" x2="0.187294035588641" y2="-0.6983600129903123" stroke="black" stroke-width="0.01328018210062722" stroke-linecap="round"/><line x1="0.187294035588641" y1="-0.6983600129903123" x2="0.6256651823777184" y2="-1.5971540592894793" stroke="black" stroke-width="0.01328018210062722" stroke-linecap="round"/><line x1="0.6256651823777184" y1="-1.5971540592894793" x2="2.4382807564510185" y2="-0.7519175358080806" stroke="black" stroke-width="0.01328018210062722" stroke-linecap="round"/><line x1="2.4382807564510185" y1="-0.7519175358080806" x2="1.218070827223619" y2="1.9887188371197224" stroke="black" stroke-width="0.01328018210062722" stroke-linecap="round"/><line x1="1.218070827223619" y1="1.9887188371197224" x2="0.29756597377117844" y2="1.5979877086304488" stroke="black" stroke-width="0.01328018210062722" stroke-linecap="round"/><line x1="0.29756597377117844" y1="1.5979877086304488" x2="1.0467791606030024" y2="-0.25638000050312604" stroke="black" stroke-width="0.01328018210062722" stroke-linecap="round"/><line x1="1.0467791606030024" y1="-0.25638000050312604" x2="3.8475204400946077" y2="0.8187238481327748" stroke="black" stroke-width="0.01328018210062722" stroke-linecap="round"/><line x1="3.8475204400946077" y1="0.8187238481327748" x2="3.505500296768939" y2="1.7584164689186832" stroke="black" stroke-width="0.01328018210062722" stroke-linecap="round"/><line x1="3.505500296768939" y1="1.7584164689186832" x2="1.614463145570305" y2="1.1072801600043705" stroke="black" stroke-width="0.01328018210062722" stroke-linecap="round"/><line x1="1.614463145570305" y1="1.1072801600043705" x2="2.5415141286951473" y2="-1.74588938888109" stroke="black" stroke-width="0.01328018210062722" stroke-linecap="round"/><line x1="2.5415141286951473" y1="-1.74588938888109" x2="3.497818884658183" y2="-1.4535176841583533" stroke="black" stroke-width="0.01328018210062722" stroke-linecap="round"/><line x1="3.497818884658183" y1="-1.4535176841583533" x2="2.9465441730241846" y2="0.46900570771828454" stroke="black" stroke-width="0.01328018210062722" stroke-linecap="round"/><line x1="2.9465441730241846" y1="0.46900570771828454" x2="0.048766694156979984" y2="-0.3074514275892788" stroke="black" stroke-width="0.01328018210062722" stroke-linecap="round"/><line x1="0.048766694156979984" y1="-0.3074514275892788" x2="0.2906885897566477" y2="-1.2777471538652754" stroke="black" stroke-width="0.01328018210062722" stroke-linecap="round"/><line x1="0.2906885897566477" y1="-1.2777471538652754" x2="2.239428719327118" y2="-0.8278450451775458" stroke="black" stroke-width="0.01328018210062722" stroke-linecap="round"/><line x1="2.239428719327118" y1="-0.8278450451775458" x2="1.615693646873841" y2="2.1065977570238714" stroke="black" stroke-width="0.01328018210062722" stroke-linecap="round"/><line x1="1.615693646873841" y1="2.1065977570238714" x2="0.6340664634261769" y2="1.9157887616473273" stroke="black" stroke-width="0.01328018210062722" stroke-linecap="round"/><line x1="0.6340664634261769" y1="1.9157887616473273" x2="0.9813628187600376" y2="-0.05382674437708879" stroke="black" stroke-width="0.01328018210062722" stroke-linecap="round"/><line x1="0.9813628187600376" y1="-0.05382674437708879" x2="3.9444278405454503" y2="0.4154766507436043" stroke="black" stroke-width="0.01328018210062722" stroke-linecap="round"/><line x1="3.9444278405454503" y1="0.4154766507436043" x2="3.8052547395853846" y2="1.4057447194851744" stroke="black" stroke-width="0.01328018210062722" stroke-linecap="round"/><line x1="3.8052547395853846" y1="1.4057447194851744" x2="1.8201624363027407" y2="1.1620060326748791" stroke="black" stroke-width="0.01328018210062722" stroke-linecap="round"/><line x1="1.8201624363027407" y1="1.1620060326748791" x2="2.133747826105701" y2="-1.8215596534299405" stroke="black" stroke-width="0.01328018210062722" stroke-linecap="round"/><line x1="2.133747826105701" y1="-1.8215596534299405" x2="3.129942524197446" y2="-1.7344039106822824" stroke="black" stroke-width="0.01328018210062722" stroke-linecap="round"/><line x1="3.129942524197446" y1="-1.7344039106822824" x2="2.9904295767091966" y2="0.2607241898373662" stroke="black" stroke-width="0.01328018210062722" stroke-linecap="round"/><line x1="2.9904295767091966" y1="0.2607241898373662" x2="-0.005459027554524987" y2="0.1037163211085344" stroke="black" stroke-width="0.01328018210062722" stroke-linecap="round"/><line x1="-0.005459027554524987" y1="0.1037163211085344" x2="0.029440469147975983" y2="-0.8956745059105613" stroke="black" stroke-width="0.01328018210062722" stroke-linecap="round"/><line x1="0.029440469147975983" y1="-0.8956745059105613" x2="2.0291358594607587" y2="-0.8607696930359944" stroke="black" stroke-width="0.01328018210062722" stroke-linecap="round"/><line x1="2.0291358594607587" y1="-0.8607696930359944" x2="2.029135859460759" y2="2.1392303069640057" stroke="black" stroke-width="0.01328018210062722" stroke-linecap="round"/><line x1="2.029135859460759" y1="2.1392303069640057" x2="1.0292881643043679" y2="2.156682713401289" stroke="black" stroke-width="0.01328018210062722" stroke-linecap="round"/><line x1="1.0292881643043679" y1="2.156682713401289" x2="0.9594891708993663" y2="0.15790105936309762" stroke="black" stroke-width="0.01328018210062722" stroke-linecap="round"/><line x1="0.9594891708993663" y1="0.15790105936309762" x2="3.955377775163088" y2="0.0008931906342657114" stroke="black" stroke-width="0.01328018210062722" stroke-linecap="round"/><line x1="3.955377775163088" y1="0.0008931906342657114" x2="4.0251342489072135" y2="0.9984572408940899" stroke="black" stroke-width="0.01328018210062722" stroke-linecap="round"/><line x1="4.0251342489072135" y1="0.9984572408940899" x2="2.0327448527237224" y2="1.1727687263894064" stroke="black" stroke-width="0.01328018210062722" stroke-linecap="round"/><line x1="2.0327448527237224" y1="1.1727687263894064" x2="1.719159462920762" y2="-1.8107969597154132" stroke="black" stroke-width="0.01328018210062722" stroke-linecap="round"/><line x1="1.719159462920762" y1="-1.8107969597154132" x2="2.711705614562084" y2="-1.9326663031205606" stroke="black" stroke-width="0.01328018210062722" stroke-linecap="round"/><line x1="2.711705614562084" y1="-1.9326663031205606" x2="2.9900518164822154" y2="0.047869834362579855" stroke="black" stroke-width="0.01328018210062722" stroke-linecap="round"/><line x1="2.9900518164822154" y1="0.047869834362579855" x2="0.02698679469680254" y2="0.5171732294832729" stroke="black" stroke-width="0.01328018210062722" stroke-linecap="round"/><line x1="0.02698679469680254" y1="0.5171732294832729" x2="-0.14666138297012873" y2="-0.467634523528935" stroke="black" stroke-width="0.01328018210062722" stroke-linecap="round"/><line x1="-0.14666138297012873" y1="-0.467634523528935" x2="1.8165929839251993" y2="-0.8492525142820249" stroke="black" stroke-width="0.01328018210062722" stroke-linecap="round"/><line x1="1.8165929839251993" y1="-0.8492525142820249" x2="2.440328056378477" y2="2.085190287919392" stroke="black" stroke-width="0.01328018210062722" stroke-linecap="round"/><line x1="2.440328056378477" y1="2.085190287919392" x2="1.465957991593242" y2="2.3101413422632575" stroke="black" stroke-width="0.01328018210062722" stroke-linecap="round"/><line x1="1.465957991593242" y1="2.3101413422632575" x2="0.9821142003939062" y2="0.36954988971126457" stroke="black" stroke-width="0.01328018210062722" stroke-linecap="round"/><line x1="0.9821142003939062" y1="0.36954988971126457" x2="3.879891679261111" y2="-0.40690724559629765" stroke="black" stroke-width="0.01328018210062722" stroke-linecap="round"/><line x1="3.879891679261111" y1="-0.40690724559629765" x2="4.155529035078111" y2="0.554354450342021" stroke="black" stroke-width="0.01328018210062722" stroke-linecap="round"/><line x1="4.155529035078111" y1="0.554354450342021" x2="2.24291952315204" y2="1.1390978597874952" stroke="black" stroke-width="0.01328018210062722" stroke-linecap="round"/><line x1="2.24291952315204" y1="1.1390978597874952" x2="1.3158685400271972" y2="-1.7140716890979653" stroke="black" stroke-width="0.01328018210062722" stroke-linecap="round"/><line x1="1.3158685400271972" y1="-1.7140716890979653" x2="2.2613871156265137" y2="-2.039639843555122" stroke="black" stroke-width="0.01328018210062722" stroke-linecap="round"/><line x1="2.2613871156265137" y1="-2.039639843555122" x2="2.9454274022778515" y2="-0.16025460198330532" stroke="black" stroke-width="0.01328018210062722" stroke-linecap="round"/><line x1="2.9454274022778515" y1="-0.16025460198330532" x2="0.1446861227862466" y2="0.9148492466525968" stroke="black" stroke-width="0.01328018210062722" stroke-linecap="round"/><line x1="0.1446861227862466" y1="0.9148492466525968" x2="-0.22992047062966575" y2="-0.012334607914190499" stroke="black" stroke-width="0.01328018210062722" stroke-linecap="round"/><line x1="-0.22992047062966575" y1="-0.012334607914190499" x2="1.6110892362752147" y2="-0.7937968648927384" stroke="black" stroke-width="0.01328018210062722" stroke-linecap="round"/><line x1="1.6110892362752147" y1="-0.7937968648927384" x2="2.831299165502616" y2="1.946839508035064" stroke="black" stroke-width="0.01328018210062722" stroke-linecap="round"/><line x1="2.831299165502616" y1="1.946839508035064" x2="1.9249913784659665" y2="2.3694577697757637" stroke="black" stroke-width="0.01328018210062722" stroke-linecap="round"/><line x1="1.9249913784659665" y1="2.3694577697757637" x2="1.0482490848878125" y2="0.5718696771774294" stroke="black" stroke-width="0.01328018210062722" stroke-linecap="round"/><line x1="1.0482490848878125" y1="0.5718696771774294" x2="3.721268657452916" y2="-0.7901018220412113" stroke="black" stroke-width="0.01328018210062722" stroke-linecap="round"/><line x1="3.721268657452916" y1="-0.7901018220412113" x2="4.190740220238807" y2="0.0928457708177155" stroke="black" stroke-width="0.01328018210062722" stroke-linecap="round"/><line x1="4.190740220238807" y1="0.0928457708177155" x2="2.4415008059600147" y2="1.062465011310389" stroke="black" stroke-width="0.01328018210062722" stroke-linecap="round"/><line x1="2.4415008059600147" y1="1.062465011310389" x2="0.9415008059600134" y2="-1.535611200042926" stroke="black" stroke-width="0.01328018210062722" stroke-linecap="round"/><line x1="0.9415008059600134" y1="-1.535611200042926" x2="1.7986681066621255" y2="-2.0506492749529803" stroke="black" stroke-width="0.01328018210062722" stroke-linecap="round"/><line x1="1.7986681066621255" y1="-2.0506492749529803" x2="2.8585066351285353" y2="-0.3545530826401284" stroke="black" stroke-width="0.01328018210062722" stroke-linecap="round"/><line x1="2.8585066351285353" y1="-0.3545530826401284" x2="0.34249493129226316" y2="1.2793640224049525" stroke="black" stroke-width="0.01328018210062722" stroke-linecap="round"/><line x1="0.34249493129226316" y1="1.2793640224049525" x2="-0.2166979721784842" y2="0.4503264498499111" stroke="black" stroke-width="0.01328018210062722" stroke-linecap="round"/><line x1="-0.2166979721784842" y1="0.4503264498499111" x2="1.4216061163994995" y2="-0.696826422852181" stroke="black" stroke-width="0.01328018210062722" stroke-linecap="round"/><line x1="1.4216061163994995" y1="-0.696826422852181" x2="3.184961873276919" y2="1.730224560272661" stroke="black" stroke-width="0.01328018210062722" stroke-linecap="round"/><line x1="3.184961873276919" y1="1.730224560272661" x2="2.3863263632296263" y2="2.3320395834247094" stroke="black" stroke-width="0.01328018210062722" stroke-linecap="round"/><line x1="2.3863263632296263" y1="2.3320395834247094" x2="1.1550034125783086" y2="0.7560180762112663" stroke="black" stroke-width="0.01328018210062722" stroke-linecap="round"/><line x1="1.1550034125783086" y1="0.7560180762112663" x2="3.486441296949221" y2="-1.1319430969382462" stroke="black" stroke-width="0.01328018210062722" stroke-linecap="round"/><line x1="3.486441296949221" y1="-1.1319430969382462" x2="4.129228906635761" y2="-0.36589865381926834" stroke="black" stroke-width="0.01328018210062722" stroke-linecap="round"/><line x1="4.129228906635761" y1="-0.36589865381926834" x2="2.6198097461902172" y2="0.9462194041617471" stroke="black" stroke-width="0.01328018210062722" stroke-linecap="round"/><line x1="2.6198097461902172" y1="0.9462194041617471" x2="0.612417927113643" y2="-1.2832150722704359" stroke="black" stroke-width="0.01328018210062722" stroke-linecap="round"/><line x1="0.612417927113643" y1="-1.2832150722704359" x2="1.3437716287328134" y2="-1.9652134323329342" stroke="black" stroke-width="0.01328018210062722" stroke-linecap="round"/><line x1="1.3437716287328134" y1="-1.9652134323329342" x2="2.7330883696508077" y2="-0.5265338316556316" stroke="black" stroke-width="0.01328018210062722" stroke-linecap="round"/><line x1="2.7330883696508077" y1="-0.5265338316556316" x2="0.6117680260911653" y2="1.5947865119040112" stroke="black" stroke-width="0.01328018210062722" stroke-linecap="round"/><line x1="0.6117680260911653" y1="1.5947865119040112" x2="-0.10757177424748643" y2="0.9001281414450146" stroke="black" stroke-width="0.01328018210062722" stroke-linecap="round"/><line x1="-0.10757177424748643" y1="0.9001281414450146" x2="1.2564249458775105" y2="-0.5625792617933265" stroke="black" stroke-width="0.01328018210062722" stroke-linecap="round"/><line x1="1.2564249458775105" y1="-0.5625792617933265" x2="3.4858594223096935" y2="1.4448125572832482" stroke="black" stroke-width="0.01328018210062722" stroke-linecap="round"/><line x1="3.4858594223096935" y1="1.4448125572832482" x2="2.829800393319186" y2="2.19952213750602" stroke="black" stroke-width="0.01328018210062722" stroke-linecap="round"/><line x1="2.829800393319186" y1="2.19952213750602" x2="1.29771150708123" y2="0.9139469181329414" stroke="black" stroke-width="0.01328018210062722" stroke-linecap="round"/><line x1="1.29771150708123" y1="0.9139469181329414" x2="3.1856726802307422" y2="-1.4174909662379713" stroke="black" stroke-width="0.01328018210062722" stroke-linecap="round"/><line x1="3.1856726802307422" y1="-1.4174909662379713" x2="3.973683433837464" y2="-0.801829490912313" stroke="black" stroke-width="0.01328018210062722" stroke-linecap="round"/><line x1="3.973683433837464" y1="-0.801829490912313" x2="2.770053387533368" y2="0.7954415291822731" stroke="black" stroke-width="0.01328018210062722" stroke-linecap="round"/><line x1="2.770053387533368" y1="0.7954415291822731" x2="0.34300240440852514" y2="-0.9679142276951457" stroke="black" stroke-width="0.01328018210062722" stroke-linecap="round"/><line x1="0.34300240440852514" y1="-0.9679142276951457" x2="0.9165788407595712" y2="-1.7870662719841375" stroke="black" stroke-width="0.01328018210062722" stroke-linecap="round"/><line x1="0.9165788407595712" y1="-1.7870662719841375" x2="2.574653985869655" y2="-0.6686804650426441" stroke="black" stroke-width="0.01328018210062722" stroke-linecap="round"/><line x1="2.574653985869655" y1="-0.6686804650426441" x2="0.9407368808245735" y2="1.847331238793628" stroke="black" stroke-width="0.01328018210062722" stroke-linecap="round"/><line x1="0.9407368808245735" y1="1.847331238793628" x2="0.09268878466814745" y2="1.3174119745604234" stroke="black" stroke-width="0.01328018210062722" stroke-linecap="round"/><line x1="0.09268878466814745" y1="1.3174119745604234" x2="1.1227649344882558" y2="-0.3969226268438013" stroke="black" stroke-width="0.01328018210062722" stroke-linecap="round"/><line x1="1.1227649344882558" y1="-0.3969226268438013" x2="3.7208411458415718" y2="1.103077373156198" stroke="black" stroke-width="0.01328018210062722" stroke-linecap="round"/><line x1="3.7208411458415718" y1="1.103077373156198" x2="3.236031525595235" y2="1.9776970802955938" stroke="black" stroke-width="0.01328018210062722" stroke-linecap="round"/><line x1="3.236031525595235" y1="1.9776970802955938" x2="1.4701363398773808" y2="1.038753954723813" stroke="black" stroke-width="0.01328018210062722" stroke-linecap="round"/><line x1="1.4701363398773808" y1="1.038753954723813" x2="2.8321078390960213" y2="-1.6342656178412909" stroke="black" stroke-width="0.01328018210062722" stroke-linecap="round"/><line x1="2.8321078390960213" y1="-1.6342656178412909" x2="3.730901885395188" y2="-1.1958944710522132" stroke="black" stroke-width="0.01328018210062722" stroke-linecap="round"/><line x1="3.730901885395188" y1="-1.1958944710522132" x2="2.8856653619137895" y2="0.6167211030210868" stroke="black" stroke-width="0.01328018210062722" stroke-linecap="round"/><line x1="2.8856653619137895" y1="0.6167211030210868" x2="0.14502898898598726" y2="-0.6034888262063147" stroke="black" stroke-width="0.01328018210062722" stroke-linecap="round"/><line x1="0.14502898898598726" y1="-0.6034888262063147" x2="0.535760117475261" y2="-1.523993679658755" stroke="black" stroke-width="0.01328018210062722" stroke-linecap="round"/><line x1="0.535760117475261" y1="-1.523993679658755" x2="2.3901278266088357" y2="-0.7747804928269308" stroke="black" stroke-width="0.01328018210062722" stroke-linecap="round"/><line x1="2.3901278266088357" y1="-0.7747804928269308" x2="1.3150239779729345" y2="2.0259607866646743" stroke="black" stroke-width="0.01328018210062722" stroke-linecap="round"/><line x1="1.3150239779729345" y1="2.0259607866646743" x2="0.3753313571870259" y2="1.683940643339006" stroke="black" stroke-width="0.01328018210062722" stroke-linecap="round"/><line x1="0.3753313571870259" y1="1.683940643339006" x2="1.0264676661013392" y2="-0.20709650785962763" stroke="black" stroke-width="0.01328018210062722" stroke-linecap="round"/><line x1="1.0264676661013392" y1="-0.20709650785962763" x2="3.8796372149868" y2="0.7199544752652144" stroke="black" stroke-width="0.01328018210062722" stroke-linecap="round"/><line x1="3.8796372149868" y1="0.7199544752652144" x2="3.587265510264064" y2="1.6762592312282498" stroke="black" stroke-width="0.01328018210062722" stroke-linecap="round"/><line x1="3.587265510264064" y1="1.6762592312282498" x2="1.6647421183874263" y2="1.1249845195942512" stroke="black" stroke-width="0.01328018210062722" stroke-linecap="round"/><line x1="1.6647421183874263" y1="1.1249845195942512" x2="2.4411992536949887" y2="-1.7727929592729539" stroke="black" stroke-width="0.01328018210062722" stroke-linecap="round"/><line x1="2.4411992536949887" y1="-1.7727929592729539" x2="3.411494979970985" y2="-1.530871063673286" stroke="black" stroke-width="0.01328018210062722" stroke-linecap="round"/><line x1="3.411494979970985" y1="-1.530871063673286" x2="2.961592871283255" y2="0.4178690658971844" stroke="black" stroke-width="0.01328018210062722" stroke-linecap="round"/><line x1="2.961592871283255" y1="0.4178690658971844" x2="0.02715006908183737" y2="-0.20586600655609133" stroke="black" stroke-width="0.01328018210062722" stroke-linecap="round"/><line x1="0.02715006908183737" y1="-0.20586600655609133" x2="0.21795906445838217" y2="-1.1874931900037553" stroke="black" stroke-width="0.01328018210062722" stroke-linecap="round"/><line x1="0.21795906445838217" y1="-1.1874931900037553" x2="2.187574570482798" y2="-0.8401968346698947" stroke="black" stroke-width="0.01328018210062722" stroke-linecap="round"/><line x1="2.187574570482798" y1="-0.8401968346698947" x2="1.7182711753621058" y2="2.1228681871155186" stroke="black" stroke-width="0.01328018210062722" stroke-linecap="round"/><line x1="1.7182711753621058" y1="2.1228681871155186" x2="0.7280031066205355" y2="1.9836950861554532" stroke="black" stroke-width="0.01328018210062722" stroke-linecap="round"/><line x1="0.7280031066205355" y1="1.9836950861554532" x2="0.9717417934308304" y2="-0.001397217127190764" stroke="black" stroke-width="0.01328018210062722" stroke-linecap="round"/><line x1="0.9717417934308304" y1="-0.001397217127190764" x2="3.9553074795356506" y2="0.31218817267576926" stroke="black" stroke-width="0.01328018210062722" stroke-linecap="round"/><line x1="3.9553074795356506" y1="0.31218817267576926" x2="3.8681517367879925" y2="1.308382870767515" stroke="black" stroke-width="0.01328018210062722" stroke-linecap="round"/><line x1="3.8681517367879925" y1="1.308382870767515" x2="1.873023636268344" y2="1.1688699232792645" stroke="black" stroke-width="0.01328018210062722" stroke-linecap="round"/><line x1="1.873023636268344" y1="1.1688699232792645" x2="2.0300315049971753" y2="-1.827018680984457" stroke="black" stroke-width="0.01328018210062722" stroke-linecap="round"/><line x1="2.0300315049971753" y1="-1.827018680984457" x2="3.029422332016271" y2="-1.7921191842819564" stroke="black" stroke-width="0.01328018210062722" stroke-linecap="round"/><line x1="3.029422332016271" y1="-1.7921191842819564" x2="2.994517519141705" y2="0.20757620603082616" stroke="black" stroke-width="0.01328018210062722" stroke-linecap="round"/><line x1="2.994517519141705" y1="0.20757620603082616" x2="-0.005482480858295169" y2="0.20757620603082672" stroke="black" stroke-width="0.01328018210062722" stroke-linecap="round"/><line x1="-0.005482480858295169" y1="0.20757620603082672" x2="-0.022934887295579617" y2="-0.7922714891255646" stroke="black" stroke-width="0.01328018210062722" stroke-linecap="round"/><line x1="-0.022934887295579617" y1="-0.7922714891255646" x2="1.9758467667426118" y2="-0.8620704825305667" stroke="black" stroke-width="0.01328018210062722" stroke-linecap="round"/><line x1="1.9758467667426118" y1="-0.8620704825305667" x2="2.1328546354714435" y2="2.133818121733155" stroke="black" stroke-width="0.01328018210062722" stroke-linecap="round"/><line x1="2.1328546354714435" y1="2.133818121733155" x2="1.1352905852116193" y2="2.2035745954772805" stroke="black" stroke-width="0.01328018210062722" stroke-linecap="round"/><line x1="1.1352905852116193" y1="2.2035745954772805" x2="0.9609790997163027" y2="0.21118519929378943" stroke="black" stroke-width="0.01328018210062722" stroke-linecap="round"/><line x1="0.9609790997163027" y1="0.21118519929378943" x2="3.9445447858211224" y2="-0.10240019050917093" stroke="black" stroke-width="0.01328018210062722" stroke-linecap="round"/><line x1="3.9445447858211224" y1="-0.10240019050917093" x2="4.06641412922627" y2="0.890145961132151" stroke="black" stroke-width="0.01328018210062722" stroke-linecap="round"/><line x1="4.06641412922627" y1="0.890145961132151" x2="2.085877991743129" y2="1.1684921630522809" stroke="black" stroke-width="0.01328018210062722" stroke-linecap="round"/><line x1="2.085877991743129" y1="1.1684921630522809" x2="1.6165745966224356" y2="-1.794572858733132" stroke="black" stroke-width="0.01328018210062722" stroke-linecap="round"/><line x1="1.6165745966224356" y1="-1.794572858733132" x2="2.6013823496346435" y2="-1.9682210364000623" stroke="black" stroke-width="0.01328018210062722" stroke-linecap="round"/><line x1="2.6013823496346435" y1="-1.9682210364000623" x2="2.9830003403877337" y2="-0.0049666695047343445" stroke="black" stroke-width="0.01328018210062722" stroke-linecap="round"/><line x1="2.9830003403877337" y1="-0.0049666695047343445" x2="0.04855753818631703" y2="0.618768402948545" stroke="black" stroke-width="0.01328018210062722" stroke-linecap="round"/><line x1="0.04855753818631703" y1="0.618768402948545" x2="-0.1763935161575483" y2="-0.3556016618366902" stroke="black" stroke-width="0.01328018210062722" stroke-linecap="round"/><line x1="-0.1763935161575483" y1="-0.3556016618366902" x2="1.7641979363944447" y2="-0.839445453036026" stroke="black" stroke-width="0.01328018210062722" stroke-linecap="round"/><line x1="1.7641979363944447" y1="-0.839445453036026" x2="2.540655071702008" y2="2.0583320258311786" stroke="black" stroke-width="0.01328018210062722" stroke-linecap="round"/><line x1="2.540655071702008" y1="2.0583320258311786" x2="1.579393375763689" y2="2.3339693816481777" stroke="black" stroke-width="0.01328018210062722" stroke-linecap="round"/><line x1="1.579393375763689" y1="2.3339693816481777" x2="0.9946499663182166" y2="0.4213598697221064" stroke="black" stroke-width="0.01328018210062722" stroke-linecap="round"/><line x1="0.9946499663182166" y1="0.4213598697221064" x2="3.847819515203677" y2="-0.505691113402736" stroke="black" stroke-width="0.01328018210062722" stroke-linecap="round"/><line x1="3.847819515203677" y1="-0.505691113402736" x2="4.173387669660834" y2="0.43982746219658075" stroke="black" stroke-width="0.01328018210062722" stroke-linecap="round"/><line x1="4.173387669660834" y1="0.43982746219658075" x2="2.294002428089018" y2="1.1238677488479194" stroke="black" stroke-width="0.01328018210062722" stroke-linecap="round"/><line x1="2.294002428089018" y1="1.1238677488479194" x2="1.2188985794531155" y2="-1.676873530643685" stroke="black" stroke-width="0.01328018210062722" stroke-linecap="round"/><line x1="1.2188985794531155" y1="-1.676873530643685" x2="2.146082434019903" y2="-2.051480124059597" stroke="black" stroke-width="0.01328018210062722" stroke-linecap="round"/><line x1="2.146082434019903" y1="-2.051480124059597" x2="2.9275446909984515" y2="-0.2104704171547167" stroke="black" stroke-width="0.01328018210062722" stroke-linecap="round"/><line x1="2.9275446909984515" y1="-0.2104704171547167" x2="0.18690831807064878" y2="1.0097395120726835" stroke="black" stroke-width="0.01328018210062722" stroke-linecap="round"/><line x1="0.18690831807064878" y1="1.0097395120726835" x2="-0.23570994367005121" y2="0.10343172503603382" stroke="black" stroke-width="0.01328018210062722" stroke-linecap="round"/><line x1="-0.23570994367005121" y1="0.10343172503603382" x2="1.561878148928283" y2="-0.7733105685421211" stroke="black" stroke-width="0.01328018210062722" stroke-linecap="round"/><line x1="1.561878148928283" y1="-0.7733105685421211" x2="2.9238496481469234" y2="1.8997090040229823" stroke="black" stroke-width="0.01328018210062722" stroke-linecap="round"/><line x1="2.9238496481469234" y1="1.8997090040229823" x2="2.0409020552879964" y2="2.369180566808873" stroke="black" stroke-width="0.01328018210062722" stroke-linecap="round"/><line x1="2.0409020552879964" y1="2.369180566808873" x2="1.0712828147953226" y2="0.6199411525300811" stroke="black" stroke-width="0.01328018210062722" stroke-linecap="round"/><line x1="1.0712828147953226" y1="0.6199411525300811" x2="3.669359026148639" y2="-0.8800588474699194" stroke="black" stroke-width="0.01328018210062722" stroke-linecap="round"/><line x1="3.669359026148639" y1="-0.8800588474699194" x2="4.184397101058694" y2="-0.022891546767807136" stroke="black" stroke-width="0.01328018210062722" stroke-linecap="round"/><line x1="4.184397101058694" y1="-0.022891546767807136" x2="2.488300908745842" y2="1.0369469816986028" stroke="black" stroke-width="0.01328018210062722" stroke-linecap="round"/><line x1="2.488300908745842" y1="1.0369469816986028" x2="0.854383803700761" y2="-1.4790647221376694" stroke="black" stroke-width="0.01328018210062722" stroke-linecap="round"/><line x1="0.854383803700761" y1="-1.4790647221376694" x2="1.6834213762558026" y2="-2.0382576256084164" stroke="black" stroke-width="0.01328018210062722" stroke-linecap="round"/><line x1="1.6834213762558026" y1="-2.0382576256084164" x2="2.8305742489578956" y2="-0.39995353703043324" stroke="black" stroke-width="0.01328018210062722" stroke-linecap="round"/><line x1="2.8305742489578956" y1="-0.39995353703043324" x2="0.40352326583305365" y2="1.3634022198469864" stroke="black" stroke-width="0.01328018210062722" stroke-linecap="round"/><line x1="0.40352326583305365" y1="1.3634022198469864" x2="-0.19829175731899462" y2="0.5647667097996936" stroke="black" stroke-width="0.01328018210062722" stroke-linecap="round"/><line x1="-0.19829175731899462" y1="0.5647667097996936" x2="1.3777297498944494" y2="-0.666556240851623" stroke="black" stroke-width="0.01328018210062722" stroke-linecap="round"/><line x1="1.3777297498944494" y1="-0.666556240851623" x2="3.2656909230439624" y2="1.6648816435192888" stroke="black" stroke-width="0.01328018210062722" stroke-linecap="round"/><line x1="3.2656909230439624" y1="1.6648816435192888" x2="2.4996464799249845" y2="2.3076692532058285" stroke="black" stroke-width="0.01328018210062722" stroke-linecap="round"/><line x1="2.4996464799249845" y1="2.3076692532058285" x2="1.1875284219439697" y2="0.7982500927602847" stroke="black" stroke-width="0.01328018210062722" stroke-linecap="round"/><line x1="1.1875284219439697" y1="0.7982500927602847" x2="3.416962898376153" y2="-1.20914172631629" stroke="black" stroke-width="0.01328018210062722" stroke-linecap="round"/><line x1="3.416962898376153" y1="-1.20914172631629" x2="4.098961258438651" y2="-0.47778802469711956" stroke="black" stroke-width="0.01328018210062722" stroke-linecap="round"/><line x1="4.098961258438651" y1="-0.47778802469711956" x2="2.6602816577613493" y2="0.9115287162208754" stroke="black" stroke-width="0.01328018210062722" stroke-linecap="round"/><line x1="2.6602816577613493" y1="0.9115287162208754" x2="0.5389613142017065" y2="-1.2097916273387666" stroke="black" stroke-width="0.01328018210062722" stroke-linecap="round"/><line x1="0.5389613142017065" y1="-1.2097916273387666" x2="1.2336196846607037" y2="-1.9291314276774179" stroke="black" stroke-width="0.01328018210062722" stroke-linecap="round"/><line x1="1.2336196846607037" y1="-1.9291314276774179" x2="2.6963270878990446" y2="-0.5651347075524211" stroke="black" stroke-width="0.01328018210062722" stroke-linecap="round"/><line x1="2.6963270878990446" y1="-0.5651347075524211" x2="0.6889352688224699" y2="1.6642997688797618" stroke="black" stroke-width="0.01328018210062722" stroke-linecap="round"/><line x1="0.6889352688224699" y1="1.6642997688797618" x2="-0.06577431140030221" y2="1.0082407398892548" stroke="black" stroke-width="0.01328018210062722" stroke-linecap="round"/><line x1="-0.06577431140030221" y1="1.0082407398892548" x2="1.2198009079727763" y2="-0.5238481463487012" stroke="black" stroke-width="0.01328018210062722" stroke-linecap="round"/><line x1="1.2198009079727763" y1="-0.5238481463487012" x2="3.5512387923436894" y2="1.3641130268008106" stroke="black" stroke-width="0.01328018210062722" stroke-linecap="round"/><line x1="3.5512387923436894" y1="1.3641130268008106" x2="2.9355773170180317" y2="2.152123780407533" stroke="black" stroke-width="0.01328018210062722" stroke-linecap="round"/><line x1="2.9355773170180317" y1="2.152123780407533" x2="1.3383062969234456" y2="0.948493734103437" stroke="black" stroke-width="0.01328018210062722" stroke-linecap="round"/><line x1="1.3383062969234456" y1="0.948493734103437" x2="3.1016620538008652" y2="-1.4785572490214054" stroke="black" stroke-width="0.01328018210062722" stroke-linecap="round"/><line x1="3.1016620538008652" y1="-1.4785572490214054" x2="3.920814098089857" y2="-0.9049808126703596" stroke="black" stroke-width="0.01328018210062722" stroke-linecap="round"/><line x1="3.920814098089857" y1="-0.9049808126703596" x2="2.802428291148364" y2="0.7530943324397241" stroke="black" stroke-width="0.01328018210062722" stroke-linecap="round"/><line x1="2.802428291148364" y1="0.7530943324397241" x2="0.2864165873120914" y2="-0.8808227726053559" stroke="black" stroke-width="0.01328018210062722" stroke-linecap="round"/><line x1="0.2864165873120914" y1="-0.8808227726053559" x2="0.8163358515452963" y2="-1.7288708687617818" stroke="black" stroke-width="0.01328018210062722" stroke-linecap="round"/><line x1="0.8163358515452963" y1="-1.7288708687617818" x2="2.530670452949521" y2="-0.6987947189416732" stroke="black" stroke-width="0.01328018210062722" stroke-linecap="round"/><line x1="2.530670452949521" y1="-0.6987947189416732" x2="1.0306704529495208" y2="1.8992814924116428" stroke="black" stroke-width="0.01328018210062722" stroke-linecap="round"/><line x1="1.0306704529495208" y1="1.8992814924116428" x2="0.15605074581012468" y2="1.4144718721653062" stroke="black" stroke-width="0.01328018210062722" stroke-linecap="round"/><line x1="0.15605074581012468" y1="1.4144718721653062" x2="1.0949938713819063" y2="-0.35142331355254774" stroke="black" stroke-width="0.01328018210062722" stroke-linecap="round"/><line x1="1.0949938713819063" y1="-0.35142331355254774" x2="3.76801344394701" y2="1.0105481856660925" stroke="black" stroke-width="0.01328018210062722" stroke-linecap="round"/><line x1="3.76801344394701" y1="1.0105481856660925" x2="3.329642297157933" y2="1.9093422319652595" stroke="black" stroke-width="0.01328018210062722" stroke-linecap="round"/><line x1="3.329642297157933" y1="1.9093422319652595" x2="1.5170267230846335" y2="1.0641057084838603" stroke="black" stroke-width="0.01328018210062722" stroke-linecap="round"/><line x1="1.5170267230846335" y1="1.0641057084838603" x2="2.737236652312034" y2="-1.6765306644439424" stroke="black" stroke-width="0.01328018210062722" stroke-linecap="round"/><line x1="2.737236652312034" y1="-1.6765306644439424" x2="3.6577415057644744" y2="-1.2857995359546688" stroke="black" stroke-width="0.01328018210062722" stroke-linecap="round"/><line x1="3.6577415057644744" y1="-1.2857995359546688" x2="2.9085283189326505" y2="0.5685681731789061" stroke="black" stroke-width="0.01328018210062722" stroke-linecap="round"/><line x1="2.9085283189326505" y1="0.5685681731789061" x2="0.10778703944104429" y2="-0.5065356754569925" stroke="black" stroke-width="0.01328018210062722" stroke-linecap="round"/><line x1="0.10778703944104429" y1="-0.5065356754569925" x2="0.449807182766713" y2="-1.446228296242901" stroke="black" stroke-width="0.01328018210062722" stroke-linecap="round"/><line x1="0.449807182766713" y1="-1.446228296242901" x2="2.3408443339653466" y2="-0.7950919873285881" stroke="black" stroke-width="0.01328018210062722" stroke-linecap="round"/><line x1="2.3408443339653466" y1="-0.7950919873285881" x2="1.4137933508405034" y2="2.0580775615568725" stroke="black" stroke-width="0.01328018210062722" stroke-linecap="round"/><line x1="1.4137933508405034" y1="2.0580775615568725" x2="0.45748859487746796" y2="1.7657058568341357" stroke="black" stroke-width="0.01328018210062722" stroke-linecap="round"/><line x1="0.45748859487746796" y1="1.7657058568341357" x2="1.0087633065114663" y2="-0.15681753504250207" stroke="black" stroke-width="0.01328018210062722" stroke-linecap="round"/><line x1="1.0087633065114663" y1="-0.15681753504250207" x2="3.906540785378671" y2="0.6196396002650605" stroke="black" stroke-width="0.01328018210062722" stroke-linecap="round"/><line x1="3.906540785378671" y1="0.6196396002650605" x2="3.6646188897790037" y2="1.589935326541057" stroke="black" stroke-width="0.01328018210062722" stroke-linecap="round"/><line x1="3.6646188897790037" y1="1.589935326541057" x2="1.7158787602085332" y2="1.1400332178533272" stroke="black" stroke-width="0.01328018210062722" stroke-linecap="round"/><line x1="1.7158787602085332" y1="1.1400332178533272" x2="2.3396138326618114" y2="-1.7944095843480898" stroke="black" stroke-width="0.01328018210062722" stroke-linecap="round"/><line x1="2.3396138326618114" y1="-1.7944095843480898" x2="3.321241016109475" y2="-1.603600588971545" stroke="black" stroke-width="0.01328018210062722" stroke-linecap="round"/><line x1="3.321241016109475" y1="-1.603600588971545" x2="2.973944660775614" y2="0.36601491705287104" stroke="black" stroke-width="0.01328018210062722" stroke-linecap="round"/><line x1="2.973944660775614" y1="0.36601491705287104" x2="0.010879638990200835" y2="-0.10328847806782099" stroke="black" stroke-width="0.01328018210062722" stroke-linecap="round"/><line x1="0.010879638990200835" y1="-0.10328847806782099" x2="0.15005273995026627" y2="-1.0935565468093913" stroke="black" stroke-width="0.01328018210062722" stroke-linecap="round"/><line x1="0.15005273995026627" y1="-1.0935565468093913" x2="2.1351450432329107" y2="-0.8498178599990965" stroke="black" stroke-width="0.01328018210062722" stroke-linecap="round"/><line x1="2.1351450432329107" y1="-0.8498178599990965" x2="1.8215596534299516" y2="2.1337478261057234" stroke="black" stroke-width="0.01328018210062722" stroke-linecap="round"/><line x1="1.8215596534299516" y1="2.1337478261057234" x2="0.8253649553382061" y2="2.0465920833580658" stroke="black" stroke-width="0.01328018210062722" stroke-linecap="round"/><line x1="0.8253649553382061" y1="2.0465920833580658" x2="0.9648779028264567" y2="0.051463982838417355" stroke="black" stroke-width="0.01328018210062722" stroke-linecap="round"/><line x1="0.9648779028264567" y1="0.051463982838417355" x2="3.9607665070901783" y2="0.2084718515672482" stroke="black" stroke-width="0.01328018210062722" stroke-linecap="round"/><line x1="3.9607665070901783" y1="0.2084718515672482" x2="3.9258670103876776" y2="1.207862678586344" stroke="black" stroke-width="0.01328018210062722" stroke-linecap="round"/><line x1="3.9258670103876776" y1="1.207862678586344" x2="1.926171620074895" y2="1.1729578657117776" stroke="black" stroke-width="0.01328018210062722" stroke-linecap="round"/><line x1="1.926171620074895" y1="1.1729578657117776" x2="1.926171620074895" y2="-1.8270421342882224" stroke="black" stroke-width="0.01328018210062722" stroke-linecap="round"/><line x1="1.926171620074895" y1="-1.8270421342882224" x2="2.9260193152312866" y2="-1.8444945407255058" stroke="black" stroke-width="0.01328018210062722" stroke-linecap="round"/><line x1="2.9260193152312866" y1="-1.8444945407255058" x2="2.995818308636288" y2="0.15428711331268574" stroke="black" stroke-width="0.01328018210062722" stroke-linecap="round"/><line x1="2.995818308636288" y1="0.15428711331268574" x2="-0.00007029562743365858" y2="0.3112949820415187" stroke="black" stroke-width="0.01328018210062722" stroke-linecap="round"/><line x1="-0.00007029562743365858" y1="0.3112949820415187" x2="-0.06982676937155842" y2="-0.6862690682183057" stroke="black" stroke-width="0.01328018210062722" stroke-linecap="round"/><line x1="-0.06982676937155842" y1="-0.6862690682183057" x2="1.9225626268119327" y2="-0.860580553713622" stroke="black" stroke-width="0.01328018210062722" stroke-linecap="round"/><line x1="1.9225626268119327" y1="-0.860580553713622" x2="2.236148016614894" y2="2.1229851323911975" stroke="black" stroke-width="0.01328018210062722" stroke-linecap="round"/><line x1="2.236148016614894" y1="2.1229851323911975" x2="1.2436018649735718" y2="2.2448544757963447" stroke="black" stroke-width="0.01328018210062722" stroke-linecap="round"/><line x1="1.2436018649735718" y1="2.2448544757963447" x2="0.9652556630534401" y2="0.26431833831320417" stroke="black" stroke-width="0.01328018210062722" stroke-linecap="round"/><line x1="0.9652556630534401" y1="0.26431833831320417" x2="3.9283206848388534" y2="-0.20498505680748857" stroke="black" stroke-width="0.01328018210062722" stroke-linecap="round"/><line x1="3.9283206848388534" y1="-0.20498505680748857" x2="4.1019688625057835" y2="0.7798226962047194" stroke="black" stroke-width="0.01328018210062722" stroke-linecap="round"/><line x1="4.1019688625057835" y1="0.7798226962047194" x2="2.138714495610456" y2="1.1614406869578104" stroke="black" stroke-width="0.01328018210062722" stroke-linecap="round"/><line x1="2.138714495610456" y1="1.1614406869578104" x2="1.5149794231571763" y2="-1.7730021152436062" stroke="black" stroke-width="0.01328018210062722" stroke-linecap="round"/><line x1="1.5149794231571763" y1="-1.7730021152436062" x2="2.4893494879424116" y2="-1.997953169587471" stroke="black" stroke-width="0.01328018210062722" stroke-linecap="round"/><line x1="2.4893494879424116" y1="-1.997953169587471" x2="2.9731932791417472" y2="-0.0573617170354781" stroke="black" stroke-width="0.01328018210062722" stroke-linecap="round"/><line x1="2.9731932791417472" y1="-0.0573617170354781" x2="0.0754158002745422" y2="0.7190954182720838" stroke="black" stroke-width="0.01328018210062722" stroke-linecap="round"/><line x1="0.0754158002745422" y1="0.7190954182720838" x2="-0.20022155554245757" y2="-0.24216627766623489" stroke="black" stroke-width="0.01328018210062722" stroke-linecap="round"/><line x1="-0.20022155554245757" y1="-0.24216627766623489" x2="1.7123879563836133" y2="-0.8269096871117084" stroke="black" stroke-width="0.01328018210062722" stroke-linecap="round"/><line x1="1.7123879563836133" y1="-0.8269096871117084" x2="2.639438939508456" y2="2.026259861773752" stroke="black" stroke-width="0.01328018210062722" stroke-linecap="round"/><line x1="2.639438939508456" y1="2.026259861773752" x2="1.6939203639091391" y2="2.3518280162309084" stroke="black" stroke-width="0.01328018210062722" stroke-linecap="round"/><line x1="1.6939203639091391" y1="2.3518280162309084" x2="1.0098800772578018" y2="0.47244277465909157" stroke="black" stroke-width="0.01328018210062722" stroke-linecap="round"/><line x1="1.0098800772578018" y1="0.47244277465909157" x2="3.810621356749407" y2="-0.6026610739768095" stroke="black" stroke-width="0.01328018210062722" stroke-linecap="round"/><line x1="3.810621356749407" y1="-0.6026610739768095" x2="4.185227950165319" y2="0.32452278058997786" stroke="black" stroke-width="0.01328018210062722" stroke-linecap="round"/><line x1="4.185227950165319" y1="0.32452278058997786" x2="2.3442182432604386" y2="1.1059850375685256" stroke="black" stroke-width="0.01328018210062722" stroke-linecap="round"/><line x1="2.3442182432604386" y1="1.1059850375685256" x2="1.1240083140330381" y2="-1.634651335359277" stroke="black" stroke-width="0.01328018210062722" stroke-linecap="round"/><line x1="1.1240083140330381" y1="-1.634651335359277" x2="2.030316101069688" y2="-2.0572695970999764" stroke="black" stroke-width="0.01328018210062722" stroke-linecap="round"/><line x1="2.030316101069688" y1="-2.0572695970999764" x2="2.9070583946478425" y2="-0.2596815045016423" stroke="black" stroke-width="0.01328018210062722" stroke-linecap="round"/><line x1="2.9070583946478425" y1="-0.2596815045016423" x2="0.23403882208273918" y2="1.1022899947169984" stroke="black" stroke-width="0.01328018210062722" stroke-linecap="round"/><line x1="0.23403882208273918" y1="1.1022899947169984" x2="-0.23543274070315162" y2="0.2193424018580714" stroke="black" stroke-width="0.01328018210062722" stroke-linecap="round"/><line x1="-0.23543274070315162" y1="0.2193424018580714" x2="1.51380667357564" y2="-0.7502768386346028" stroke="black" stroke-width="0.01328018210062722" stroke-linecap="round"/><line x1="1.51380667357564" y1="-0.7502768386346028" x2="3.0138066735756395" y2="1.8477993727187132" stroke="black" stroke-width="0.01328018210062722" stroke-linecap="round"/><line x1="3.0138066735756395" y1="1.8477993727187132" x2="2.1566393728735274" y2="2.3628374476287677" stroke="black" stroke-width="0.01328018210062722" stroke-linecap="round"/><line x1="2.1566393728735274" y1="2.3628374476287677" x2="1.0968008444071158" y2="0.6667412553159169" stroke="black" stroke-width="0.01328018210062722" stroke-linecap="round"/><line x1="1.0968008444071158" y1="0.6667412553159169" x2="3.6128125482433875" y2="-0.9671758497291647" stroke="black" stroke-width="0.01328018210062722" stroke-linecap="round"/><line x1="3.6128125482433875" y1="-0.9671758497291647" x2="4.172005451714134" y2="-0.13813827717412308" stroke="black" stroke-width="0.01328018210062722" stroke-linecap="round"/><line x1="4.172005451714134" y1="-0.13813827717412308" x2="2.533701363136151" y2="1.0090145955279697" stroke="black" stroke-width="0.01328018210062722" stroke-linecap="round"/><line x1="2.533701363136151" y1="1.0090145955279697" x2="0.770345606258731" y2="-1.4180363875968722" stroke="black" stroke-width="0.01328018210062722" stroke-linecap="round"/><line x1="0.770345606258731" y1="-1.4180363875968722" x2="1.5689811163060239" y2="-2.0198514107489207" stroke="black" stroke-width="0.01328018210062722" stroke-linecap="round"/><line x1="1.5689811163060239" y1="-2.0198514107489207" x2="2.8003040669573407" y2="-0.4438299035354769" stroke="black" stroke-width="0.01328018210062722" stroke-linecap="round"/><line x1="2.8003040669573407" y1="-0.4438299035354769" x2="0.4688661825864271" y2="1.4441312696140343" stroke="black" stroke-width="0.01328018210062722" stroke-linecap="round"/><line x1="0.4688661825864271" y1="1.4441312696140343" x2="-0.1739214271001125" y2="0.6780868264950565" stroke="black" stroke-width="0.01328018210062722" stroke-linecap="round"/><line x1="-0.1739214271001125" y1="0.6780868264950565" x2="1.3354977333454316" y2="-0.6340312314859581" stroke="black" stroke-width="0.01328018210062722" stroke-linecap="round"/><line x1="1.3354977333454316" y1="-0.6340312314859581" x2="3.3428895524220072" y2="1.5954032449462243" stroke="black" stroke-width="0.01328018210062722" stroke-linecap="round"/><line x1="3.3428895524220072" y1="1.5954032449462243" x2="2.611535850802837" y2="2.2774016050087234" stroke="black" stroke-width="0.01328018210062722" stroke-linecap="round"/><line x1="2.611535850802837" y1="2.2774016050087234" x2="1.2222191098848418" y2="0.8387220043314216" stroke="black" stroke-width="0.01328018210062722" stroke-linecap="round"/><line x1="1.2222191098848418" y1="0.8387220043314216" x2="3.3435394534444844" y2="-1.2825983392282212" stroke="black" stroke-width="0.01328018210062722" stroke-linecap="round"/><line x1="3.3435394534444844" y1="-1.2825983392282212" x2="4.0628792537831355" y2="-0.5879399687692242" stroke="black" stroke-width="0.01328018210062722" stroke-linecap="round"/><line x1="4.0628792537831355" y1="-0.5879399687692242" x2="2.698882533658139" y2="0.874767434469117" stroke="black" stroke-width="0.01328018210062722" stroke-linecap="round"/><line x1="2.698882533658139" y1="0.874767434469117" x2="0.46944805722595495" y2="-1.1326243846074564" stroke="black" stroke-width="0.01328018210062722" stroke-linecap="round"/><line x1="0.46944805722595495" y1="-1.1326243846074564" x2="1.1255070862164622" y2="-1.8873339648302285" stroke="black" stroke-width="0.01328018210062722" stroke-linecap="round"/><line x1="1.1255070862164622" y1="-1.8873339648302285" x2="2.657595972454418" y2="-0.6017587454571498" stroke="black" stroke-width="0.01328018210062722" stroke-linecap="round"/><line x1="2.657595972454418" y1="-0.6017587454571498" x2="0.7696347993049053" y2="1.7296791389137625" stroke="black" stroke-width="0.01328018210062722" stroke-linecap="round"/><line x1="0.7696347993049053" y1="1.7296791389137625" x2="-0.01837595430181649" y2="1.114017663588104" stroke="black" stroke-width="0.01328018210062722" stroke-linecap="round"/><line x1="-0.01837595430181649" y1="1.114017663588104" x2="1.18525409200228" y2="-0.4832533565064816" stroke="black" stroke-width="0.01328018210062722" stroke-linecap="round"/><line x1="1.18525409200228" y1="-0.4832533565064816" x2="3.6123050751271224" y2="1.2801024003709376" stroke="black" stroke-width="0.01328018210062722" stroke-linecap="round"/><line x1="3.6123050751271224" y1="1.2801024003709376" x2="3.0387286387760764" y2="2.0992544446599295" stroke="black" stroke-width="0.01328018210062722" stroke-linecap="round"/><line x1="3.0387286387760764" y1="2.0992544446599295" x2="1.3806534936659922" y2="0.980868637718437" stroke="black" stroke-width="0.01328018210062722" stroke-linecap="round"/><line x1="1.3806534936659922" y1="0.980868637718437" x2="3.0145705987110736" y2="-1.5351430661178351" stroke="black" stroke-width="0.01328018210062722" stroke-linecap="round"/><line x1="3.0145705987110736" y1="-1.5351430661178351" x2="3.8626186948675" y2="-1.0052238018846302" stroke="black" stroke-width="0.01328018210062722" stroke-linecap="round"/><line x1="3.8626186948675" y1="-1.0052238018846302" x2="2.8325425450473913" y2="0.7091107995195944" stroke="black" stroke-width="0.01328018210062722" stroke-linecap="round"/><line x1="2.8325425450473913" y1="0.7091107995195944" x2="0.23446633369407532" y2="-0.790889200480406" stroke="black" stroke-width="0.01328018210062722" stroke-linecap="round"/><line x1="0.23446633369407532" y1="-0.790889200480406" x2="0.7192759539404123" y2="-1.6655089076198017" stroke="black" stroke-width="0.01328018210062722" stroke-linecap="round"/><line x1="0.7192759539404123" y1="-1.6655089076198017" x2="2.4851711396582665" y2="-0.7265657820480207" stroke="black" stroke-width="0.01328018210062722" stroke-linecap="round"/><line x1="2.4851711396582665" y1="-0.7265657820480207" x2="1.1231996404396278" y2="1.9464537905170836" stroke="black" stroke-width="0.01328018210062722" stroke-linecap="round"/><line x1="1.1231996404396278" y1="1.9464537905170836" x2="0.2244055941404608" y2="1.5080826437280062" stroke="black" stroke-width="0.01328018210062722" stroke-linecap="round"/><line x1="0.2244055941404608" y1="1.5080826437280062" x2="1.0696421176218598" y2="-0.3045329303452937" stroke="black" stroke-width="0.01328018210062722" stroke-linecap="round"/><line x1="1.0696421176218598" y1="-0.3045329303452937" x2="3.8102784905496625" y2="0.9156769988821065" stroke="black" stroke-width="0.01328018210062722" stroke-linecap="round"/><line x1="3.8102784905496625" y1="0.9156769988821065" x2="3.419547362060389" y2="1.8361818523345468" stroke="black" stroke-width="0.01328018210062722" stroke-linecap="round"/><line x1="3.419547362060389" y1="1.8361818523345468" x2="1.565179652926814" y2="1.0869686655027229" stroke="black" stroke-width="0.01328018210062722" stroke-linecap="round"/><line x1="1.565179652926814" y1="1.0869686655027229" x2="2.640283501562715" y2="-1.7137726139888825" stroke="black" stroke-width="0.01328018210062722" stroke-linecap="round"/><line x1="2.640283501562715" y1="-1.7137726139888825" x2="3.5799761223486235" y2="-1.3717524706632138" stroke="black" stroke-width="0.01328018210062722" stroke-linecap="round"/><line x1="3.5799761223486235" y1="-1.3717524706632138" x2="2.92883981343431" y2="0.5192846805354197" stroke="black" stroke-width="0.01328018210062722" stroke-linecap="round"/><line x1="2.92883981343431" y1="0.5192846805354197" x2="0.07567026454884918" y2="-0.40776630258942204" stroke="black" stroke-width="0.01328018210062722" stroke-linecap="round"/><line x1="0.07567026454884918" y1="-0.40776630258942204" x2="0.36804196927158594" y2="-1.3640710585524576" stroke="black" stroke-width="0.01328018210062722" stroke-linecap="round"/><line x1="0.36804196927158594" y1="-1.3640710585524576" x2="2.2905653611482237" y2="-0.8127963469184595" stroke="black" stroke-width="0.01328018210062722" stroke-linecap="round"/><line x1="2.2905653611482237" y1="-0.8127963469184595" x2="1.5141082258406626" y2="2.0849811319487457" stroke="black" stroke-width="0.01328018210062722" stroke-linecap="round"/><line x1="1.5141082258406626" y1="2.0849811319487457" x2="0.543812499564666" y2="1.8430592363490783" stroke="black" stroke-width="0.01328018210062722" stroke-linecap="round"/><line x1="0.543812499564666" y1="1.8430592363490783" x2="0.993714608252396" y2="-0.10568089322139218" stroke="black" stroke-width="0.01328018210062722" stroke-linecap="round"/><line x1="0.993714608252396" y1="-0.10568089322139218" x2="3.928157410453813" y2="0.5180541792318851" stroke="black" stroke-width="0.01328018210062722" stroke-linecap="round"/><line x1="3.928157410453813" y1="0.5180541792318851" x2="3.737348415077268" y2="1.499681362679549" stroke="black" stroke-width="0.01328018210062722" stroke-linecap="round"/><line x1="3.737348415077268" y1="1.499681362679549" x2="1.7677329090528517" y2="1.1523850073456892" stroke="black" stroke-width="0.01328018210062722" stroke-linecap="round"/><line x1="1.7677329090528517" y1="1.1523850073456892" x2="2.2370363041735444" y2="-1.8106800144397242" stroke="black" stroke-width="0.01328018210062722" stroke-linecap="round"/><line x1="2.2370363041735444" y1="-1.8106800144397242" x2="3.227304372915115" y2="-1.6715069134796587" stroke="black" stroke-width="0.01328018210062722" stroke-linecap="round"/><line x1="3.227304372915115" y1="-1.6715069134796587" x2="2.9835656861048196" y2="0.3135853898029852" stroke="black" stroke-width="0.01328018210062722" stroke-linecap="round"/><line x1="2.9835656861048196" y1="0.3135853898029852" x2="-4.440892098500626e-16" y2="2.6256774532384952e-14" stroke="black" stroke-width="0.01328018210062722" stroke-linecap="round"/></svg>