<?xml version="1.0" encoding="UTF-8"?><svg viewBox="-0.15615957348737344 -2.4215578446961157 4.673065665277708 4.71933364216163" xmlns="http://www.w3.org/2000/svg"><line x1="0" y1="0" x2="0.08715574274765817" y2="-0.9961946980917455" stroke="black" stroke-width="0.013880393065181266" stroke-linecap="round"/><line x1="0.08715574274765817" y1="-0.9961946980917455" x2="1.8847438353459922" y2="-1.8729369916699006" stroke="black" stroke-width="0.013880393065181266" stroke-linecap="round"/><line x1="1.8847438353459922" y1="-1.8729369916699006" x2="4.400755539182264" y2="-0.2390198866248192" stroke="black" stroke-width="0.013880393065181266" stroke-linecap="round"/><line x1="4.400755539182264" y1="-0.2390198866248192" x2="4.365856042479764" y2="0.7603709403942766" stroke="black" stroke-width="0.013880393065181266" stroke-linecap="round"/><line x1="4.365856042479764" y1="0.7603709403942766" x2="2.6166166282009717" y2="1.7299901808869502" stroke="black" stroke-width="0.013880393065181266" stroke-linecap="round"/><line x1="2.6166166282009717" y1="1.7299901808869502" x2="0.018540416847655727" y2="0.22999018088694978" stroke="black" stroke-width="0.013880393065181266" stroke-linecap="round"/><line x1="0.018540416847655727" y1="0.22999018088694978" x2="0.001088010410371279" y2="-0.7698575142694415" stroke="black" stroke-width="0.013880393065181266" stroke-linecap="round"/><line x1="0.001088010410371279" y1="-0.7698575142694415" x2="1.6971842027232233" y2="-1.8296960427358513" stroke="black" stroke-width="0.013880393065181266" stroke-linecap="round"/><line x1="1.6971842027232233" y1="-1.8296960427358513" x2="4.370203775288327" y2="-0.46772454351721104" stroke="black" stroke-width="0.013880393065181266" stroke-linecap="round"/><line x1="4.370203775288327" y1="-0.46772454351721104" x2="4.439960249032453" y2="0.5298395067426132" stroke="black" stroke-width="0.013880393065181266" stroke-linecap="round"/><line x1="4.439960249032453" y1="0.5298395067426132" x2="2.8016561604544696" y2="1.676992379444706" stroke="black" stroke-width="0.013880393065181266" stroke-linecap="round"/><line x1="2.8016561604544696" y1="1.676992379444706" x2="0.06101978752666737" y2="0.45678245021730435" stroke="black" stroke-width="0.013880393065181266" stroke-linecap="round"/><line x1="0.06101978752666737" y1="0.45678245021730435" x2="-0.060849555878480746" y2="-0.5357637014240176" stroke="black" stroke-width="0.013880393065181266" stroke-linecap="round"/><line x1="-0.060849555878480746" y1="-0.5357637014240176" x2="1.5151719513349633" y2="-1.767086652075334" stroke="black" stroke-width="0.013880393065181266" stroke-linecap="round"/><line x1="1.5151719513349633" y1="-1.767086652075334" x2="4.315913230826569" y2="-0.6919828034394333" stroke="black" stroke-width="0.013880393065181266" stroke-linecap="round"/><line x1="4.315913230826569" y1="-0.6919828034394333" x2="4.489561408493499" y2="0.2928249495727747" stroke="black" stroke-width="0.013880393065181266" stroke-linecap="round"/><line x1="4.489561408493499" y1="0.2928249495727747" x2="2.9801422480479554" y2="1.60494300755379" stroke="black" stroke-width="0.013880393065181266" stroke-linecap="round"/><line x1="2.9801422480479554" y1="1.60494300755379" x2="0.12697269916249443" y2="0.6778920244289484" stroke="black" stroke-width="0.013880393065181266" stroke-linecap="round"/><line x1="0.12697269916249443" y1="0.6778920244289484" x2="-0.09797835518137091" y2="-0.2964780403562868" stroke="black" stroke-width="0.013880393065181266" stroke-linecap="round"/><line x1="-0.09797835518137091" y1="-0.2964780403562868" x2="1.3407012454959313" y2="-1.6857947812742815" stroke="black" stroke-width="0.013880393065181266" stroke-linecap="round"/><line x1="1.3407012454959313" y1="-1.6857947812742815" x2="4.238478724363136" y2="-0.909337645966719" stroke="black" stroke-width="0.013880393065181266" stroke-linecap="round"/><line x1="4.238478724363136" y1="-0.909337645966719" x2="4.514116080180136" y2="0.05192404997159972" stroke="black" stroke-width="0.013880393065181266" stroke-linecap="round"/><line x1="4.514116080180136" y1="0.05192404997159972" x2="3.150119360055139" y2="1.5146314532099407" stroke="black" stroke-width="0.013880393065181266" stroke-linecap="round"/><line x1="3.150119360055139" y1="1.5146314532099407" x2="0.21567655785372164" y2="0.890896380756665" stroke="black" stroke-width="0.013880393065181266" stroke-linecap="round"/><line x1="0.21567655785372164" y1="0.890896380756665" x2="-0.10989159660343589" y2="-0.05462219484265152" stroke="black" stroke-width="0.013880393065181266" stroke-linecap="round"/><line x1="-0.10989159660343589" y1="-0.05462219484265152" x2="1.1756836227696426" y2="-1.5867110810806075" stroke="black" stroke-width="0.013880393065181266" stroke-linecap="round"/><line x1="1.1756836227696426" y1="-1.5867110810806075" x2="4.138748644555055" y2="-1.1174076859599145" stroke="black" stroke-width="0.013880393065181266" stroke-linecap="round"/><line x1="4.138748644555055" y1="-1.1174076859599145" x2="4.513355237970967" y2="-0.19022383139312715" stroke="black" stroke-width="0.013880393065181266" stroke-linecap="round"/><line x1="4.513355237970967" y1="-0.19022383139312715" x2="3.309725191666871" y2="1.4070471887014588" stroke="black" stroke-width="0.013880393065181266" stroke-linecap="round"/><line x1="3.309725191666871" y1="1.4070471887014588" x2="0.326159505562051" y2="1.0934617988984998" stroke="black" stroke-width="0.013880393065181266" stroke-linecap="round"/><line x1="0.326159505562051" y1="1.0934617988984998" x2="-0.09645875617864902" y2="0.1871540118618501" stroke="black" stroke-width="0.013880393065181266" stroke-linecap="round"/><line x1="-0.09645875617864902" y1="0.1871540118618501" x2="1.0219270507628448" y2="-1.470921133248233" stroke="black" stroke-width="0.013880393065181266" stroke-linecap="round"/><line x1="1.0219270507628448" y1="-1.470921133248233" x2="4.017815655026567" y2="-1.3139132645194023" stroke="black" stroke-width="0.013880393065181266" stroke-linecap="round"/><line x1="4.017815655026567" y1="-1.3139132645194023" x2="4.487287217812458" y2="-0.4309656716604755" stroke="black" stroke-width="0.013880393065181266" stroke-linecap="round"/><line x1="4.487287217812458" y1="-0.4309656716604755" x2="3.4572110679923496" y2="1.2833689297437492" stroke="black" stroke-width="0.013880393065181266" stroke-linecap="round"/><line x1="3.4572110679923496" y1="1.2833689297437492" x2="0.45721106799234956" y2="1.2833689297437496" stroke="black" stroke-width="0.013880393065181266" stroke-linecap="round"/><line x1="0.45721106799234956" y1="1.2833689297437496" x2="-0.057827006917704926" y2="0.4262016290416375" stroke="black" stroke-width="0.013880393065181266" stroke-linecap="round"/><line x1="-0.057827006917704926" y1="0.4262016290416375" x2="0.8811161186540767" y2="-1.3396935566762165" stroke="black" stroke-width="0.013880393065181266" stroke-linecap="round"/><line x1="0.8811161186540767" y1="-1.3396935566762165" x2="3.8770047229177984" y2="-1.4967014254050484" stroke="black" stroke-width="0.013880393065181266" stroke-linecap="round"/><line x1="3.8770047229177984" y1="-1.4967014254050484" x2="4.436197626388545" y2="-0.6676638528500067" stroke="black" stroke-width="0.013880393065181266" stroke-linecap="round"/><line x1="4.436197626388545" y1="-0.6676638528500067" x2="3.590961102907147" y2="1.1449517212232934" stroke="black" stroke-width="0.013880393065181266" stroke-linecap="round"/><line x1="3.590961102907147" y1="1.1449517212232934" x2="0.6073954168023268" y2="1.4585371110262535" stroke="black" stroke-width="0.013880393065181266" stroke-linecap="round"/><line x1="0.6073954168023268" y1="1.4585371110262535" x2="0.0055803936502785145" y2="0.6599016009789607" stroke="black" stroke-width="0.013880393065181266" stroke-linecap="round"/><line x1="0.0055803936502785145" y1="0.6599016009789607" x2="0.7547935804821025" y2="-1.1944661081546142" stroke="black" stroke-width="0.013880393065181266" stroke-linecap="round"/><line x1="0.7547935804821025" y1="-1.1944661081546142" x2="3.717858602267516" y2="-1.663769503275307" stroke="black" stroke-width="0.013880393065181266" stroke-linecap="round"/><line x1="3.717858602267516" y1="-1.663769503275307" x2="4.360646211954055" y2="-0.8977250601563291" stroke="black" stroke-width="0.013880393065181266" stroke-linecap="round"/><line x1="4.360646211954055" y1="-0.8977250601563291" x2="3.709509903039742" y2="0.9933120910423043" stroke="black" stroke-width="0.013880393065181266" stroke-linecap="round"/><line x1="3.709509903039742" y1="0.9933120910423043" x2="0.7750671008383252" y2="1.6170471634955836" stroke="black" stroke-width="0.013880393065181266" stroke-linecap="round"/><line x1="0.7750671008383252" y1="1.6170471634955836" x2="0.09306874077582694" y2="0.885693461876413" stroke="black" stroke-width="0.013880393065181266" stroke-linecap="round"/><line x1="0.09306874077582694" y1="0.885693461876413" x2="0.6443434524098253" y2="-1.0368299300002248" stroke="black" stroke-width="0.013880393065181266" stroke-linecap="round"/><line x1="0.6443434524098253" y1="-1.0368299300002248" x2="3.5421209312770303" y2="-1.813287065307787" stroke="black" stroke-width="0.013880393065181266" stroke-linecap="round"/><line x1="3.5421209312770303" y1="-1.813287065307787" x2="4.261460731615681" y2="-1.11862869484879" stroke="black" stroke-width="0.013880393065181266" stroke-linecap="round"/><line x1="4.261460731615681" y1="-1.11862869484879" x2="3.8115586229279517" y2="0.8301114347216805" stroke="black" stroke-width="0.013880393065181266" stroke-linecap="round"/><line x1="3.8115586229279517" y1="0.8301114347216805" x2="0.9583890740424912" y2="1.7571624178465233" stroke="black" stroke-width="0.013880393065181266" stroke-linecap="round"/><line x1="0.9583890740424912" y1="1.7571624178465233" x2="0.20367949381971906" y2="1.1011033888560162" stroke="black" stroke-width="0.013880393065181266" stroke-linecap="round"/><line x1="0.20367949381971906" y1="1.1011033888560162" x2="0.5509758491535797" y2="-0.8685121171683998" stroke="black" stroke-width="0.013880393065181266" stroke-linecap="round"/><line x1="0.5509758491535797" y1="-0.8685121171683998" x2="3.351717128645185" y2="-1.9436159658043008" stroke="black" stroke-width="0.013880393065181266" stroke-linecap="round"/><line x1="3.351717128645185" y1="-1.9436159658043008" x2="4.139727882251907" y2="-1.3279544904786427" stroke="black" stroke-width="0.013880393065181266" stroke-linecap="round"/><line x1="4.139727882251907" y1="-1.3279544904786427" x2="3.8959891954416115" y2="0.6571378128040013" stroke="black" stroke-width="0.013880393065181266" stroke-linecap="round"/><line x1="3.8959891954416115" y1="0.6571378128040013" x2="1.1553528225138088" y2="1.8773477420314015" stroke="black" stroke-width="0.013880393065181266" stroke-linecap="round"/><line x1="1.1553528225138088" y1="1.8773477420314015" x2="0.336200778224817" y2="1.3037713056803555" stroke="black" stroke-width="0.013880393065181266" stroke-linecap="round"/><line x1="0.336200778224817" y1="1.3037713056803555" x2="0.4757137257130676" y2="-0.6913567948392929" stroke="black" stroke-width="0.013880393065181266" stroke-linecap="round"/><line x1="0.4757137257130676" y1="-0.6913567948392929" x2="3.148733298278171" y2="-2.0533282940579336" stroke="black" stroke-width="0.013880393065181266" stroke-linecap="round"/><line x1="3.148733298278171" y1="-2.0533282940579336" x2="3.9967813944345973" y2="-1.523409029824729" stroke="black" stroke-width="0.013880393065181266" stroke-linecap="round"/><line x1="3.9967813944345973" y1="-1.523409029824729" x2="3.961876581560031" y2="0.4762863604880536" stroke="black" stroke-width="0.013880393065181266" stroke-linecap="round"/><line x1="3.961876581560031" y1="0.4762863604880536" x2="1.3638003702067154" y2="1.976286360488055" stroke="black" stroke-width="0.013880393065181266" stroke-linecap="round"/><line x1="1.3638003702067154" y1="1.976286360488055" x2="0.48918066306731933" y2="1.4914767402417184" stroke="black" stroke-width="0.013880393065181266" stroke-linecap="round"/><line x1="0.48918066306731933" y1="1.4914767402417184" x2="0.4193816696623177" y2="-0.5073049137964731" stroke="black" stroke-width="0.013880393065181266" stroke-linecap="round"/><line x1="0.4193816696623177" y1="-0.5073049137964731" x2="2.9353933734985893" y2="-2.141222018841555" stroke="black" stroke-width="0.013880393065181266" stroke-linecap="round"/><line x1="2.9353933734985893" y1="-2.141222018841555" x2="3.834187419797756" y2="-1.7028508720524775" stroke="black" stroke-width="0.013880393065181266" stroke-linecap="round"/><line x1="3.834187419797756" y1="-1.7028508720524775" x2="4.008498905293074" y2="0.28953852413101355" stroke="black" stroke-width="0.013880393065181266" stroke-linecap="round"/><line x1="4.008498905293074" y1="0.28953852413101355" x2="1.5814479221682318" y2="2.052894281008433" stroke="black" stroke-width="0.013880393065181266" stroke-linecap="round"/><line x1="1.5814479221682318" y1="2.052894281008433" x2="0.6609430687157913" y2="1.6621631525191596" stroke="black" stroke-width="0.013880393065181266" stroke-linecap="round"/><line x1="0.6609430687157913" y1="1.6621631525191596" x2="0.3825968667956596" y2="-0.3183729849639809" stroke="black" stroke-width="0.013880393065181266" stroke-linecap="round"/><line x1="0.3825968667956596" y1="-0.3183729849639809" x2="2.714034751166572" y2="-2.2063341581134934" stroke="black" stroke-width="0.013880393065181266" stroke-linecap="round"/><line x1="2.714034751166572" y1="-2.2063341581134934" x2="3.6537273719524803" y2="-1.8643140147878248" stroke="black" stroke-width="0.013880393065181266" stroke-linecap="round"/><line x1="3.6537273719524803" y1="-1.8643140147878248" x2="4.03534536270557" y2="0.09894035210750318" stroke="black" stroke-width="0.013880393065181266" stroke-linecap="round"/><line x1="4.03534536270557" y1="0.09894035210750318" x2="1.805910886273388" y2="2.1063321711840786" stroke="black" stroke-width="0.013880393065181266" stroke-linecap="round"/><line x1="1.805910886273388" y1="2.1063321711840786" x2="0.8496061303103525" y2="1.8139604664613418" stroke="black" stroke-width="0.013880393065181266" stroke-linecap="round"/><line x1="0.8496061303103525" y1="1.8139604664613418" x2="0.36576233911101674" y2="-0.12663098609065115" stroke="black" stroke-width="0.013880393065181266" stroke-linecap="round"/><line x1="0.36576233911101674" y1="-0.12663098609065115" x2="2.487082682670659" y2="-2.247951329650294" stroke="black" stroke-width="0.013880393065181266" stroke-linecap="round"/><line x1="2.487082682670659" y1="-2.247951329650294" x2="3.4573784089466555" y2="-2.0060294340506264" stroke="black" stroke-width="0.013880393065181266" stroke-linecap="round"/><line x1="3.4573784089466555" y1="-2.0060294340506264" x2="4.04212181839213" y2="-0.09341992212455552" stroke="black" stroke-width="0.013880393065181266" stroke-linecap="round"/><line x1="4.04212181839213" y1="-0.09341992212455552" x2="2.034729999315555" y2="2.1360145543076277" stroke="black" stroke-width="0.013880393065181266" stroke-linecap="round"/><line x1="2.034729999315555" y1="2.1360145543076277" x2="1.053102815867891" y2="1.9452055589310835" stroke="black" stroke-width="0.013880393065181266" stroke-linecap="round"/><line x1="1.053102815867891" y1="1.9452055589310835" x2="0.3690625292165538" y2="0.06582031735926663" stroke="black" stroke-width="0.013880393065181266" stroke-linecap="round"/><line x1="0.3690625292165538" y1="0.06582031735926663" x2="2.257023702366066" y2="-2.2656175670116463" stroke="black" stroke-width="0.013880393065181266" stroke-linecap="round"/><line x1="2.257023702366066" y1="-2.2656175670116463" x2="3.247291771107636" y2="-2.126444466051581" stroke="black" stroke-width="0.013880393065181266" stroke-linecap="round"/><line x1="3.247291771107636" y1="-2.126444466051581" x2="4.028754028086184" y2="-0.2854347591467008" stroke="black" stroke-width="0.013880393065181266" stroke-linecap="round"/><line x1="4.028754028086184" y1="-0.2854347591467008" x2="2.265398271208765" y2="2.1416162239781418" stroke="black" stroke-width="0.013880393065181266" stroke-linecap="round"/><line x1="2.265398271208765" y1="2.1416162239781418" x2="1.2692035731170195" y2="2.054460481230484" stroke="black" stroke-width="0.013880393065181266" stroke-linecap="round"/><line x1="1.2692035731170195" y1="2.054460481230484" x2="0.39246127953886545" y2="0.2568723886321498" stroke="black" stroke-width="0.013880393065181266" stroke-linecap="round"/><line x1="0.39246127953886545" y1="0.2568723886321498" x2="2.0263783845839467" y2="-2.2591393152041226" stroke="black" stroke-width="0.013880393065181266" stroke-linecap="round"/><line x1="2.0263783845839467" y1="-2.2591393152041226" x2="3.0257692116030426" y2="-2.224239818501622" stroke="black" stroke-width="0.013880393065181266" stroke-linecap="round"/><line x1="3.0257692116030426" y1="-2.224239818501622" x2="3.995388452095717" y2="-0.4750004042228304" stroke="black" stroke-width="0.013880393065181266" stroke-linecap="round"/><line x1="3.995388452095717" y1="-0.4750004042228304" x2="2.4953884520957166" y2="2.1230758071304856" stroke="black" stroke-width="0.013880393065181266" stroke-linecap="round"/><line x1="2.4953884520957166" y1="2.1230758071304856" x2="1.4955407569393253" y2="2.140528213567769" stroke="black" stroke-width="0.013880393065181266" stroke-linecap="round"/><line x1="1.4955407569393253" y1="2.140528213567769" x2="0.43570222847291373" y2="0.4444320212549182" stroke="black" stroke-width="0.013880393065181266" stroke-linecap="round"/><line x1="0.43570222847291373" y1="0.4444320212549182" x2="1.7976737276915542" y2="-2.2285875513101856" stroke="black" stroke-width="0.013880393065181266" stroke-linecap="round"/><line x1="1.7976737276915542" y1="-2.2285875513101856" x2="2.795237777951378" y2="-2.2983440250543112" stroke="black" stroke-width="0.013880393065181266" stroke-linecap="round"/><line x1="2.795237777951378" y1="-2.2983440250543112" x2="3.942390650653471" y2="-0.6600399364763281" stroke="black" stroke-width="0.013880393065181266" stroke-linecap="round"/><line x1="3.942390650653471" y1="-0.6600399364763281" x2="2.7221807214260716" y2="2.080596436451475" stroke="black" stroke-width="0.013880393065181266" stroke-linecap="round"/><line x1="2.7221807214260716" y1="2.080596436451475" x2="1.7296345697847495" y2="2.202465779856622" stroke="black" stroke-width="0.013880393065181266" stroke-linecap="round"/><line x1="1.7296345697847495" y1="2.202465779856622" x2="0.4983116191334318" y2="0.6264442726431789" stroke="black" stroke-width="0.013880393065181266" stroke-linecap="round"/><line x1="0.4983116191334318" y1="0.6264442726431789" x2="1.5734154677693326" y2="-2.1742970068484264" stroke="black" stroke-width="0.013880393065181266" stroke-linecap="round"/><line x1="1.5734154677693326" y1="-2.1742970068484264" x2="2.5582232207815405" y2="-2.347945184515357" stroke="black" stroke-width="0.013880393065181266" stroke-linecap="round"/><line x1="2.5582232207815405" y1="-2.347945184515357" x2="3.870341278762555" y2="-0.8385260240698129" stroke="black" stroke-width="0.013880393065181266" stroke-linecap="round"/><line x1="3.870341278762555" y1="-0.8385260240698129" x2="2.943290295637712" y2="2.0146435248156473" stroke="black" stroke-width="0.013880393065181266" stroke-linecap="round"/><line x1="2.943290295637712" y1="2.0146435248156473" x2="1.9689202308524767" y2="2.2395945791595127" stroke="black" stroke-width="0.013880393065181266" stroke-linecap="round"/><line x1="1.9689202308524767" y1="2.2395945791595127" x2="0.5796034899344815" y2="0.8009149784822109" stroke="black" stroke-width="0.013880393065181266" stroke-linecap="round"/><line x1="0.5796034899344815" y1="0.8009149784822109" x2="1.3560606252420437" y2="-2.096862500384994" stroke="black" stroke-width="0.013880393065181266" stroke-linecap="round"/><line x1="1.3560606252420437" y1="-2.096862500384994" x2="2.3173223211803626" y2="-2.372499856201993" stroke="black" stroke-width="0.013880393065181266" stroke-linecap="round"/><line x1="2.3173223211803626" y1="-2.372499856201993" x2="3.7800297244187036" y2="-1.0085031360769965" stroke="black" stroke-width="0.013880393065181266" stroke-linecap="round"/><line x1="3.7800297244187036" y1="-1.0085031360769965" x2="3.1562946519654265" y2="1.9259396661244206" stroke="black" stroke-width="0.013880393065181266" stroke-linecap="round"/><line x1="3.1562946519654265" y1="1.9259396661244206" x2="2.2107760763661095" y2="2.251507820581577" stroke="black" stroke-width="0.013880393065181266" stroke-linecap="round"/><line x1="2.2107760763661095" y1="2.251507820581577" x2="0.6786871901281533" y2="0.9659326012084986" stroke="black" stroke-width="0.013880393065181266" stroke-linecap="round"/><line x1="0.6786871901281533" y1="0.9659326012084986" x2="1.147990585248846" y2="-1.9971324205769148" stroke="black" stroke-width="0.013880393065181266" stroke-linecap="round"/><line x1="1.147990585248846" y1="-1.9971324205769148" x2="2.0751744398156333" y2="-2.3717390139928267" stroke="black" stroke-width="0.013880393065181266" stroke-linecap="round"/><line x1="2.0751744398156333" y1="-2.3717390139928267" x2="3.672445459910219" y2="-1.16810896768873" stroke="black" stroke-width="0.013880393065181266" stroke-linecap="round"/><line x1="3.672445459910219" y1="-1.16810896768873" x2="3.35886007010726" y2="1.8154567184160901" stroke="black" stroke-width="0.013880393065181266" stroke-linecap="round"/><line x1="3.35886007010726" y1="1.8154567184160901" x2="2.4525522830706104" y2="2.23807498015679" stroke="black" stroke-width="0.013880393065181266" stroke-linecap="round"/><line x1="2.4525522830706104" y1="2.23807498015679" x2="0.7944771379605262" y2="1.1196891732152976" stroke="black" stroke-width="0.013880393065181266" stroke-linecap="round"/><line x1="0.7944771379605262" y1="1.1196891732152976" x2="0.9514850066893576" y2="-1.876199431048424" stroke="black" stroke-width="0.013880393065181266" stroke-linecap="round"/><line x1="0.9514850066893576" y1="-1.876199431048424" x2="1.8344325995482844" y2="-2.345670993834315" stroke="black" stroke-width="0.013880393065181266" stroke-linecap="round"/><line x1="1.8344325995482844" y1="-2.345670993834315" x2="3.548767200952509" y2="-1.3155948440142065" stroke="black" stroke-width="0.013880393065181266" stroke-linecap="round"/><line x1="3.548767200952509" y1="-1.3155948440142065" x2="3.5487672009525095" y2="1.6844051559857935" stroke="black" stroke-width="0.013880393065181266" stroke-linecap="round"/><line x1="3.5487672009525095" y1="1.6844051559857935" x2="2.6915999002503974" y2="2.199443230895848" stroke="black" stroke-width="0.013880393065181266" stroke-linecap="round"/><line x1="2.6915999002503974" y1="2.199443230895848" x2="0.9257047145325432" y2="1.260500105324067" stroke="black" stroke-width="0.013880393065181266" stroke-linecap="round"/><line x1="0.9257047145325432" y1="1.260500105324067" x2="0.7686968458037101" y2="-1.7353884989396546" stroke="black" stroke-width="0.013880393065181266" stroke-linecap="round"/><line x1="0.7686968458037101" y1="-1.7353884989396546" x2="1.5977344183587519" y2="-2.2945814024104014" stroke="black" stroke-width="0.013880393065181266" stroke-linecap="round"/><line x1="1.5977344183587519" y1="-2.2945814024104014" x2="3.410349992432052" y2="-1.4493448789290029" stroke="black" stroke-width="0.013880393065181266" stroke-linecap="round"/><line x1="3.410349992432052" y1="-1.4493448789290029" x2="3.7239353822350134" y2="1.5342208071758168" stroke="black" stroke-width="0.013880393065181266" stroke-linecap="round"/><line x1="3.7239353822350134" y1="1.5342208071758168" x2="2.9252998721877206" y2="2.136035830327865" stroke="black" stroke-width="0.013880393065181266" stroke-linecap="round"/><line x1="2.9252998721877206" y1="2.136035830327865" x2="1.0709321630541457" y2="1.386822643496041" stroke="black" stroke-width="0.013880393065181266" stroke-linecap="round"/><line x1="1.0709321630541457" y1="1.386822643496041" x2="0.6016287679334524" y2="-1.576242378289372" stroke="black" stroke-width="0.013880393065181266" stroke-linecap="round"/><line x1="0.6016287679334524" y1="-1.576242378289372" x2="1.3676732110524306" y2="-2.2190299879759112" stroke="black" stroke-width="0.013880393065181266" stroke-linecap="round"/><line x1="1.3676732110524306" y1="-2.2190299879759112" x2="3.2587103622510645" y2="-1.5678936790615983" stroke="black" stroke-width="0.013880393065181266" stroke-linecap="round"/><line x1="3.2587103622510645" y1="-1.5678936790615983" x2="3.8824454347043424" y2="1.3665491231398188" stroke="black" stroke-width="0.013880393065181266" stroke-linecap="round"/><line x1="3.8824454347043424" y1="1.3665491231398188" x2="3.151091733085172" y2="2.048547483202318" stroke="black" stroke-width="0.013880393065181266" stroke-linecap="round"/><line x1="3.151091733085172" y1="2.048547483202318" x2="1.2285683412085346" y2="1.4972727715683192" stroke="black" stroke-width="0.013880393065181266" stroke-linecap="round"/><line x1="1.2285683412085346" y1="1.4972727715683192" x2="0.45211120590097265" y2="-1.4005047072988859" stroke="black" stroke-width="0.013880393065181266" stroke-linecap="round"/><line x1="0.45211120590097265" y1="-1.4005047072988859" x2="1.14676957635997" y2="-2.119844507637537" stroke="black" stroke-width="0.013880393065181266" stroke-linecap="round"/><line x1="1.14676957635997" y1="-2.119844507637537" x2="3.09550970593044" y2="-1.6699423989498072" stroke="black" stroke-width="0.013880393065181266" stroke-linecap="round"/><line x1="3.09550970593044" y1="-1.6699423989498072" x2="4.0225606890552825" y2="1.1832271499356533" stroke="black" stroke-width="0.013880393065181266" stroke-linecap="round"/><line x1="4.0225606890552825" y1="1.1832271499356533" x2="3.3665016600647752" y2="1.9379367301584252" stroke="black" stroke-width="0.013880393065181266" stroke-linecap="round"/><line x1="3.3665016600647752" y1="1.9379367301584252" x2="1.396886154040359" y2="1.5906403748245652" stroke="black" stroke-width="0.013880393065181266" stroke-linecap="round"/><line x1="1.396886154040359" y1="1.5906403748245652" x2="0.3217823054044566" y2="-1.2101009046670392" stroke="black" stroke-width="0.013880393065181266" stroke-linecap="round"/><line x1="0.3217823054044566" y1="-1.2101009046670392" x2="0.9374437807301148" y2="-1.9981116582737612" stroke="black" stroke-width="0.013880393065181266" stroke-linecap="round"/><line x1="0.9374437807301148" y1="-1.9981116582737612" x2="2.922536084012759" y2="-1.7543729714634666" stroke="black" stroke-width="0.013880393065181266" stroke-linecap="round"/><line x1="2.922536084012759" y1="-1.7543729714634666" x2="4.14274601324016" y2="0.9862634014643357" stroke="black" stroke-width="0.013880393065181266" stroke-linecap="round"/><line x1="4.14274601324016" y1="0.9862634014643357" x2="3.569169576889114" y2="1.8054154457533276" stroke="black" stroke-width="0.013880393065181266" stroke-linecap="round"/><line x1="3.569169576889114" y1="1.8054154457533276" x2="1.5740414763694652" y2="1.6659024982650772" stroke="black" stroke-width="0.013880393065181266" stroke-linecap="round"/><line x1="1.5740414763694652" y1="1.6659024982650772" x2="0.21206997715082432" y2="-1.0071170743000262" stroke="black" stroke-width="0.013880393065181266" stroke-linecap="round"/><line x1="0.21206997715082432" y1="-1.0071170743000262" x2="0.7419892413840292" y2="-1.855165170456452" stroke="black" stroke-width="0.013880393065181266" stroke-linecap="round"/><line x1="0.7419892413840292" y1="-1.855165170456452" x2="2.7416846316968115" y2="-1.820260357581885" stroke="black" stroke-width="0.013880393065181266" stroke-linecap="round"/><line x1="2.7416846316968115" y1="-1.820260357581885" x2="4.2416846316968115" y2="0.777815853771431" stroke="black" stroke-width="0.013880393065181266" stroke-linecap="round"/><line x1="4.2416846316968115" y1="0.777815853771431" x2="3.7568750114504748" y2="1.6524355609108268" stroke="black" stroke-width="0.013880393065181266" stroke-linecap="round"/><line x1="3.7568750114504748" y1="1.6524355609108268" x2="1.7580933574122835" y2="1.7222345543158302" stroke="black" stroke-width="0.013880393065181266" stroke-linecap="round"/><line x1="1.7580933574122835" y1="1.7222345543158302" x2="0.12417625236720253" y2="-0.793777149520442" stroke="black" stroke-width="0.013880393065181266" stroke-linecap="round"/><line x1="0.12417625236720253" y1="-0.793777149520442" x2="0.5625473991562799" y2="-1.692571195819609" stroke="black" stroke-width="0.013880393065181266" stroke-linecap="round"/><line x1="0.5625473991562799" y1="-1.692571195819609" x2="2.554936795339771" y2="-1.8668826813149253" stroke="black" stroke-width="0.013880393065181266" stroke-linecap="round"/><line x1="2.554936795339771" y1="-1.8668826813149253" x2="4.318292552217191" y2="0.5601683018099166" stroke="black" stroke-width="0.013880393065181266" stroke-linecap="round"/><line x1="4.318292552217191" y1="0.5601683018099166" x2="3.927561423727917" y2="1.480673155262357" stroke="black" stroke-width="0.013880393065181266" stroke-linecap="round"/><line x1="3.927561423727917" y1="1.480673155262357" x2="1.9470252862447763" y2="1.759019357182487" stroke="black" stroke-width="0.013880393065181266" stroke-linecap="round"/><line x1="1.9470252862447763" y1="1.759019357182487" x2="0.059064113095262716" y2="-0.5724185271884248" stroke="black" stroke-width="0.013880393065181266" stroke-linecap="round"/><line x1="0.059064113095262716" y1="-0.5724185271884248" x2="0.40108425642093143" y2="-1.5121111479743332" stroke="black" stroke-width="0.013880393065181266" stroke-linecap="round"/><line x1="0.40108425642093143" y1="-1.5121111479743332" x2="2.3643386233162595" y2="-1.893729138727423" stroke="black" stroke-width="0.013880393065181266" stroke-linecap="round"/><line x1="2.3643386233162595" y1="-1.893729138727423" x2="4.371730442392835" y2="0.3357053377047594" stroke="black" stroke-width="0.013880393065181266" stroke-linecap="round"/><line x1="4.371730442392835" y1="0.3357053377047594" x2="4.079358737670098" y2="1.292010093667795" stroke="black" stroke-width="0.013880393065181266" stroke-linecap="round"/><line x1="4.079358737670098" y1="1.292010093667795" x2="2.1387672851181057" y2="1.7758538848671306" stroke="black" stroke-width="0.013880393065181266" stroke-linecap="round"/><line x1="2.1387672851181057" y1="1.7758538848671306" x2="0.017446941558462825" y2="-0.34546645869251136" stroke="black" stroke-width="0.013880393065181266" stroke-linecap="round"/><line x1="0.017446941558462825" y1="-0.34546645869251136" x2="0.2593688371581305" y2="-1.315762184968508" stroke="black" stroke-width="0.013880393065181266" stroke-linecap="round"/><line x1="0.2593688371581305" y1="-1.315762184968508" x2="2.1719783490842013" y2="-1.9005055944139815" stroke="black" stroke-width="0.013880393065181266" stroke-linecap="round"/><line x1="2.1719783490842013" y1="-1.9005055944139815" x2="4.401412825516385" y2="0.10688622466259323" stroke="black" stroke-width="0.013880393065181266" stroke-linecap="round"/><line x1="4.401412825516385" y1="0.10688622466259323" x2="4.21060383013984" y2="1.0885134081102572" stroke="black" stroke-width="0.013880393065181266" stroke-linecap="round"/><line x1="4.21060383013984" y1="1.0885134081102572" x2="2.331218588568024" y2="1.772553694761596" stroke="black" stroke-width="0.013880393065181266" stroke-linecap="round"/><line x1="2.331218588568024" y1="1.772553694761596" x2="-0.00021929580288837514" y2="-0.11540747838791643" stroke="black" stroke-width="0.013880393065181266" stroke-linecap="round"/><line x1="-0.00021929580288837514" y1="-0.11540747838791643" x2="0.13895380515717706" y2="-1.1056755471294868" stroke="black" stroke-width="0.013880393065181266" stroke-linecap="round"/><line x1="0.13895380515717706" y1="-1.1056755471294868" x2="1.9799635120620576" y2="-1.8871378041080347" stroke="black" stroke-width="0.013880393065181266" stroke-linecap="round"/><line x1="1.9799635120620576" y1="-1.8871378041080347" x2="4.4070144951869" y2="-0.12378204723061548" stroke="black" stroke-width="0.013880393065181266" stroke-linecap="round"/><line x1="4.4070144951869" y1="-0.12378204723061548" x2="4.319858752439242" y2="0.8724126508611301" stroke="black" stroke-width="0.013880393065181266" stroke-linecap="round"/><line x1="4.319858752439242" y1="0.8724126508611301" x2="2.522270659840908" y2="1.7491549444392855" stroke="black" stroke-width="0.013880393065181266" stroke-linecap="round"/><line x1="2.522270659840908" y1="1.7491549444392855" x2="0.00625895600463533" y2="0.11523783939420551" stroke="black" stroke-width="0.013880393065181266" stroke-linecap="round"/><line x1="0.00625895600463533" y1="0.11523783939420551" x2="0.0411584527071363" y2="-0.8841529876248903" stroke="black" stroke-width="0.013880393065181266" stroke-linecap="round"/><line x1="0.0411584527071363" y1="-0.8841529876248903" x2="1.7903978669859277" y2="-1.8537722281175646" stroke="black" stroke-width="0.013880393065181266" stroke-linecap="round"/><line x1="1.7903978669859277" y1="-1.8537722281175646" x2="4.388474078339244" y2="-0.35377222811756526" stroke="black" stroke-width="0.013880393065181266" stroke-linecap="round"/><line x1="4.388474078339244" y1="-0.35377222811756526" x2="4.405926484776527" y2="0.646075467038826" stroke="black" stroke-width="0.013880393065181266" stroke-linecap="round"/><line x1="4.405926484776527" y1="0.646075467038826" x2="2.7098302924636757" y2="1.705913995505236" stroke="black" stroke-width="0.013880393065181266" stroke-linecap="round"/><line x1="2.7098302924636757" y1="1.705913995505236" x2="0.036810719898571875" y2="0.34394249628659623" stroke="black" stroke-width="0.013880393065181266" stroke-linecap="round"/><line x1="0.036810719898571875" y1="0.34394249628659623" x2="-0.032945753845552886" y2="-0.6536215539732281" stroke="black" stroke-width="0.013880393065181266" stroke-linecap="round"/><line x1="-0.032945753845552886" y1="-0.6536215539732281" x2="1.6053583347324307" y2="-1.80077442667532" stroke="black" stroke-width="0.013880393065181266" stroke-linecap="round"/><line x1="1.6053583347324307" y1="-1.80077442667532" x2="4.345994707660234" y2="-0.5805644974479198" stroke="black" stroke-width="0.013880393065181266" stroke-linecap="round"/><line x1="4.345994707660234" y1="-0.5805644974479198" x2="4.467864051065381" y2="0.41198165419340216" stroke="black" stroke-width="0.013880393065181266" stroke-linecap="round"/><line x1="4.467864051065381" y1="0.41198165419340216" x2="2.8918425438519364" y2="1.6433046048447184" stroke="black" stroke-width="0.013880393065181266" stroke-linecap="round"/><line x1="2.8918425438519364" y1="1.6433046048447184" x2="0.09110126436033017" y2="0.5682007562088198" stroke="black" stroke-width="0.013880393065181266" stroke-linecap="round"/><line x1="0.09110126436033017" y1="0.5682007562088198" x2="-0.0825469133066011" y2="-0.4166069968033881" stroke="black" stroke-width="0.013880393065181266" stroke-linecap="round"/><line x1="-0.0825469133066011" y1="-0.4166069968033881" x2="1.426872247138943" y2="-1.7287250547844026" stroke="black" stroke-width="0.013880393065181266" stroke-linecap="round"/><line x1="1.426872247138943" y1="-1.7287250547844026" x2="4.280041796024404" y2="-0.8016740716595606" stroke="black" stroke-width="0.013880393065181266" stroke-linecap="round"/><line x1="4.280041796024404" y1="-0.8016740716595606" x2="4.504992850368269" y2="0.17269599312567463" stroke="black" stroke-width="0.013880393065181266" stroke-linecap="round"/><line x1="4.504992850368269" y1="0.17269599312567463" x2="3.066313249690967" y2="1.5620127340436696" stroke="black" stroke-width="0.013880393065181266" stroke-linecap="round"/><line x1="3.066313249690967" y1="1.5620127340436696" x2="0.16853577082376248" y2="0.7855555987361063" stroke="black" stroke-width="0.013880393065181266" stroke-linecap="round"/><line x1="0.16853577082376248" y1="0.7855555987361063" x2="-0.1071015849932373" y2="-0.17570609720221242" stroke="black" stroke-width="0.013880393065181266" stroke-linecap="round"/><line x1="-0.1071015849932373" y1="-0.17570609720221242" x2="1.2568951351317597" y2="-1.6384135004405536" stroke="black" stroke-width="0.013880393065181266" stroke-linecap="round"/><line x1="1.2568951351317597" y1="-1.6384135004405536" x2="4.191337937333177" y2="-1.0146784279872763" stroke="black" stroke-width="0.013880393065181266" stroke-linecap="round"/><line x1="4.191337937333177" y1="-1.0146784279872763" x2="4.516906091790334" y2="-0.06915985238795952" stroke="black" stroke-width="0.013880393065181266" stroke-linecap="round"/><line x1="4.516906091790334" y1="-0.06915985238795952" x2="3.2313308724172556" y2="1.4629290338499967" stroke="black" stroke-width="0.013880393065181266" stroke-linecap="round"/><line x1="3.2313308724172556" y1="1.4629290338499967" x2="0.2682658506318423" y2="0.9936256387293048" stroke="black" stroke-width="0.013880393065181266" stroke-linecap="round"/><line x1="0.2682658506318423" y1="0.9936256387293048" x2="-0.10634074278407007" y2="0.06644178416251745" stroke="black" stroke-width="0.013880393065181266" stroke-linecap="round"/><line x1="-0.10634074278407007" y1="0.06644178416251745" x2="1.0972893035200264" y2="-1.5308292359320683" stroke="black" stroke-width="0.013880393065181266" stroke-linecap="round"/><line x1="1.0972893035200264" y1="-1.5308292359320683" x2="4.0808549896248465" y2="-1.2172438461291084" stroke="black" stroke-width="0.013880393065181266" stroke-linecap="round"/><line x1="4.0808549896248465" y1="-1.2172438461291084" x2="4.503473251365546" y2="-0.31093605909245847" stroke="black" stroke-width="0.013880393065181266" stroke-linecap="round"/><line x1="4.503473251365546" y1="-0.31093605909245847" x2="3.3850874444240526" y2="1.3471390860176253" stroke="black" stroke-width="0.013880393065181266" stroke-linecap="round"/><line x1="3.3850874444240526" y1="1.3471390860176253" x2="0.389198840160331" y2="1.1901312172887935" stroke="black" stroke-width="0.013880393065181266" stroke-linecap="round"/><line x1="0.389198840160331" y1="1.1901312172887935" x2="-0.08027272262555979" y2="0.30718362442986646" stroke="black" stroke-width="0.013880393065181266" stroke-linecap="round"/><line x1="-0.08027272262555979" y1="0.30718362442986646" x2="0.9498034271945486" y2="-1.4071509769743582" stroke="black" stroke-width="0.013880393065181266" stroke-linecap="round"/><line x1="0.9498034271945486" y1="-1.4071509769743582" x2="3.9498034271945484" y2="-1.4071509769743584" stroke="black" stroke-width="0.013880393065181266" stroke-linecap="round"/><line x1="3.9498034271945484" y1="-1.4071509769743584" x2="4.464841502104603" y2="-0.5499836762722462" stroke="black" stroke-width="0.013880393065181266" stroke-linecap="round"/><line x1="4.464841502104603" y1="-0.5499836762722462" x2="3.5258983765328216" y2="1.2159115094456077" stroke="black" stroke-width="0.013880393065181266" stroke-linecap="round"/><line x1="3.5258983765328216" y1="1.2159115094456077" x2="0.5300097722691" y2="1.3729193781744407" stroke="black" stroke-width="0.013880393065181266" stroke-linecap="round"/><line x1="0.5300097722691" y1="1.3729193781744407" x2="-0.029183131201647394" y2="0.5438818056193993" stroke="black" stroke-width="0.013880393065181266" stroke-linecap="round"/><line x1="-0.029183131201647394" y1="0.5438818056193993" x2="0.8160533922797515" y2="-1.2687337684539006" stroke="black" stroke-width="0.013880393065181266" stroke-linecap="round"/><line x1="0.8160533922797515" y1="-1.2687337684539006" x2="3.799619078384571" y2="-1.582319158256861" stroke="black" stroke-width="0.013880393065181266" stroke-linecap="round"/><line x1="3.799619078384571" y1="-1.582319158256861" x2="4.401434101536619" y2="-0.783683648209568" stroke="black" stroke-width="0.013880393065181266" stroke-linecap="round"/><line x1="4.401434101536619" y1="-0.783683648209568" x2="3.6522209147047953" y2="1.0706840609240067" stroke="black" stroke-width="0.013880393065181266" stroke-linecap="round"/><line x1="3.6522209147047953" y1="1.0706840609240067" x2="0.6891558929193824" y2="1.5399874560446998" stroke="black" stroke-width="0.013880393065181266" stroke-linecap="round"/><line x1="0.6891558929193824" y1="1.5399874560446998" x2="0.04636828323284281" y2="0.773943012925722" stroke="black" stroke-width="0.013880393065181266" stroke-linecap="round"/><line x1="0.04636828323284281" y1="0.773943012925722" x2="0.6975045921471561" y2="-1.1170941382729116" stroke="black" stroke-width="0.013880393065181266" stroke-linecap="round"/><line x1="0.6975045921471561" y1="-1.1170941382729116" x2="3.6319473943485727" y2="-1.74082921072619" stroke="black" stroke-width="0.013880393065181266" stroke-linecap="round"/><line x1="3.6319473943485727" y1="-1.74082921072619" x2="4.313945754411071" y2="-1.0094755091070196" stroke="black" stroke-width="0.013880393065181266" stroke-linecap="round"/><line x1="4.313945754411071" y1="-1.0094755091070196" x2="3.7626710427770726" y2="0.9130478827696182" stroke="black" stroke-width="0.013880393065181266" stroke-linecap="round"/><line x1="3.7626710427770726" y1="0.9130478827696182" x2="0.8648935639098676" y2="1.6895050180771802" stroke="black" stroke-width="0.013880393065181266" stroke-linecap="round"/><line x1="0.8648935639098676" y1="1.6895050180771802" x2="0.14555376357121586" y2="0.9948466476181836" stroke="black" stroke-width="0.013880393065181266" stroke-linecap="round"/><line x1="0.14555376357121586" y1="0.9948466476181836" x2="0.5954558722589458" y2="-0.9538934819522868" stroke="black" stroke-width="0.013880393065181266" stroke-linecap="round"/><line x1="0.5954558722589458" y1="-0.9538934819522868" x2="3.4486254211444063" y2="-1.8809444650771292" stroke="black" stroke-width="0.013880393065181266" stroke-linecap="round"/><line x1="3.4486254211444063" y1="-1.8809444650771292" x2="4.203335001367178" y2="-1.2248854360866217" stroke="black" stroke-width="0.013880393065181266" stroke-linecap="round"/><line x1="4.203335001367178" y1="-1.2248854360866217" x2="3.8560386460333174" y2="0.7447300699377943" stroke="black" stroke-width="0.013880393065181266" stroke-linecap="round"/><line x1="3.8560386460333174" y1="0.7447300699377943" x2="1.0552973665417125" y2="1.8198339185736965" stroke="black" stroke-width="0.013880393065181266" stroke-linecap="round"/><line x1="1.0552973665417125" y1="1.8198339185736965" x2="0.2672866129349907" y2="1.204172443248038" stroke="black" stroke-width="0.013880393065181266" stroke-linecap="round"/><line x1="0.2672866129349907" y1="1.204172443248038" x2="0.5110252997452857" y2="-0.7809198600346059" stroke="black" stroke-width="0.013880393065181266" stroke-linecap="round"/><line x1="0.5110252997452857" y1="-0.7809198600346059" x2="3.2516616726730883" y2="-2.0011297892620066" stroke="black" stroke-width="0.013880393065181266" stroke-linecap="round"/><line x1="3.2516616726730883" y1="-2.0011297892620066" x2="4.07081371696208" y2="-1.4275533529109607" stroke="black" stroke-width="0.013880393065181266" stroke-linecap="round"/><line x1="4.07081371696208" y1="-1.4275533529109607" x2="3.9313007694738307" y2="0.5675747476086879" stroke="black" stroke-width="0.013880393065181266" stroke-linecap="round"/><line x1="3.9313007694738307" y1="0.5675747476086879" x2="1.2582811969087273" y2="1.9295462468273286" stroke="black" stroke-width="0.013880393065181266" stroke-linecap="round"/><line x1="1.2582811969087273" y1="1.9295462468273286" x2="0.41023310075230124" y2="1.3996269825941239" stroke="black" stroke-width="0.013880393065181266" stroke-linecap="round"/><line x1="0.41023310075230124" y1="1.3996269825941239" x2="0.4451379136268683" y2="-0.6000684077186587" stroke="black" stroke-width="0.013880393065181266" stroke-linecap="round"/><line x1="0.4451379136268683" y1="-0.6000684077186587" x2="3.0432141249801843" y2="-2.100068407718659" stroke="black" stroke-width="0.013880393065181266" stroke-linecap="round"/><line x1="3.0432141249801843" y1="-2.100068407718659" x2="3.9178338321195803" y2="-1.615258787472322" stroke="black" stroke-width="0.013880393065181266" stroke-linecap="round"/><line x1="3.9178338321195803" y1="-1.615258787472322" x2="3.9876328255245816" y2="0.3835228665658694" stroke="black" stroke-width="0.013880393065181266" stroke-linecap="round"/><line x1="3.9876328255245816" y1="0.3835228665658694" x2="1.4716211216883095" y2="2.0174399716109503" stroke="black" stroke-width="0.013880393065181266" stroke-linecap="round"/><line x1="1.4716211216883095" y1="2.0174399716109503" x2="0.5728270753891425" y2="1.579068824821873" stroke="black" stroke-width="0.013880393065181266" stroke-linecap="round"/><line x1="0.5728270753891425" y1="1.579068824821873" x2="0.39851558989382585" y2="-0.41332057136161815" stroke="black" stroke-width="0.013880393065181266" stroke-linecap="round"/><line x1="0.39851558989382585" y1="-0.41332057136161815" x2="2.8255665730186683" y2="-2.1766763282390373" stroke="black" stroke-width="0.013880393065181266" stroke-linecap="round"/><line x1="2.8255665730186683" y1="-2.1766763282390373" x2="3.746071426471109" y2="-1.7859451997497637" stroke="black" stroke-width="0.013880393065181266" stroke-linecap="round"/><line x1="3.746071426471109" y1="-1.7859451997497637" x2="4.02441762839124" y2="0.19459093773337677" stroke="black" stroke-width="0.013880393065181266" stroke-linecap="round"/><line x1="4.02441762839124" y1="0.19459093773337677" x2="1.6929797440203265" y2="2.082552110882888" stroke="black" stroke-width="0.013880393065181266" stroke-linecap="round"/><line x1="1.6929797440203265" y1="2.082552110882888" x2="0.7532871232344179" y2="1.7405319675572197" stroke="black" stroke-width="0.013880393065181266" stroke-linecap="round"/><line x1="0.7532871232344179" y1="1.7405319675572197" x2="0.3716691324813286" y2="-0.22272239933810822" stroke="black" stroke-width="0.013880393065181266" stroke-linecap="round"/><line x1="0.3716691324813286" y1="-0.22272239933810822" x2="2.6011036089135118" y2="-2.230114218414683" stroke="black" stroke-width="0.013880393065181266" stroke-linecap="round"/><line x1="2.6011036089135118" y1="-2.230114218414683" x2="3.5574083648765473" y2="-1.9377425136919464" stroke="black" stroke-width="0.013880393065181266" stroke-linecap="round"/><line x1="3.5574083648765473" y1="-1.9377425136919464" x2="4.041252156075883" y2="0.002848938860046557" stroke="black" stroke-width="0.013880393065181266" stroke-linecap="round"/><line x1="4.041252156075883" y1="0.002848938860046557" x2="1.9199318125162406" y2="2.1241692824196896" stroke="black" stroke-width="0.013880393065181266" stroke-linecap="round"/><line x1="1.9199318125162406" y1="2.1241692824196896" x2="0.949636086240244" y2="1.8822473868200222" stroke="black" stroke-width="0.013880393065181266" stroke-linecap="round"/><line x1="0.949636086240244" y1="1.8822473868200222" x2="0.36489267679477144" y2="-0.030362125106049076" stroke="black" stroke-width="0.013880393065181266" stroke-linecap="round"/><line x1="0.36489267679477144" y1="-0.030362125106049076" x2="2.3722844958713463" y2="-2.2597966015382323" stroke="black" stroke-width="0.013880393065181266" stroke-linecap="round"/><line x1="2.3722844958713463" y1="-2.2597966015382323" x2="3.35391167931901" y2="-2.0689876061616874" stroke="black" stroke-width="0.013880393065181266" stroke-linecap="round"/><line x1="3.35391167931901" y1="-2.0689876061616874" x2="4.037951965970348" y2="-0.1896023645898708" stroke="black" stroke-width="0.013880393065181266" stroke-linecap="round"/><line x1="4.037951965970348" y1="-0.1896023645898708" x2="2.149990792820835" y2="2.1418355197810417" stroke="black" stroke-width="0.013880393065181266" stroke-linecap="round"/><line x1="2.149990792820835" y1="2.1418355197810417" x2="1.1597227240792647" y2="2.002662418820976" stroke="black" stroke-width="0.013880393065181266" stroke-linecap="round"/><line x1="1.1597227240792647" y1="2.002662418820976" x2="0.37826046710071526" y2="0.1616527119160962" stroke="black" stroke-width="0.013880393065181266" stroke-linecap="round"/><line x1="0.37826046710071526" y1="0.1616527119160962" x2="2.1416162239781347" y2="-2.2653982712087464" stroke="black" stroke-width="0.013880393065181266" stroke-linecap="round"/><line x1="2.1416162239781347" y1="-2.2653982712087464" x2="3.13781092206988" y2="-2.1782425284610882" stroke="black" stroke-width="0.013880393065181266" stroke-linecap="round"/><line x1="3.13781092206988" y1="-2.1782425284610882" x2="4.014553215648035" y2="-0.38065443586275416" stroke="black" stroke-width="0.013880393065181266" stroke-linecap="round"/><line x1="4.014553215648035" y1="-0.38065443586275416" x2="2.3806361106029534" y2="2.135357267973518" stroke="black" stroke-width="0.013880393065181266" stroke-linecap="round"/><line x1="2.3806361106029534" y1="2.135357267973518" x2="1.3812452835838576" y2="2.100457771271017" stroke="black" stroke-width="0.013880393065181266" stroke-linecap="round"/><line x1="1.3812452835838576" y1="2.100457771271017" x2="0.4116260430911838" y2="0.35121835699222514" stroke="black" stroke-width="0.013880393065181266" stroke-linecap="round"/><line x1="0.4116260430911838" y1="0.35121835699222514" x2="1.9116260430911836" y2="-2.2468578543610906" stroke="black" stroke-width="0.013880393065181266" stroke-linecap="round"/><line x1="1.9116260430911836" y1="-2.2468578543610906" x2="2.911473738247575" y2="-2.264310260798374" stroke="black" stroke-width="0.013880393065181266" stroke-linecap="round"/><line x1="2.911473738247575" y1="-2.264310260798374" x2="3.971312266713985" y2="-0.5682140684855221" stroke="black" stroke-width="0.013880393065181266" stroke-linecap="round"/><line x1="3.971312266713985" y1="-0.5682140684855221" x2="2.609340767495346" y2="2.1048055040795823" stroke="black" stroke-width="0.013880393065181266" stroke-linecap="round"/><line x1="2.609340767495346" y1="2.1048055040795823" x2="1.6117767172355217" y2="2.174561977823708" stroke="black" stroke-width="0.013880393065181266" stroke-linecap="round"/><line x1="1.6117767172355217" y1="2.174561977823708" x2="0.46462384453342875" y2="0.5362578892457248" stroke="black" stroke-width="0.013880393065181266" stroke-linecap="round"/><line x1="0.46462384453342875" y1="0.5362578892457248" x2="1.6848337737608292" y2="-2.2043784836820777" stroke="black" stroke-width="0.013880393065181266" stroke-linecap="round"/><line x1="1.6848337737608292" y1="-2.2043784836820777" x2="2.677379925402151" y2="-2.3262478270872253" stroke="black" stroke-width="0.013880393065181266" stroke-linecap="round"/><line x1="2.677379925402151" y1="-2.3262478270872253" x2="3.908702876053468" y2="-0.7502263198737815" stroke="black" stroke-width="0.013880393065181266" stroke-linecap="round"/><line x1="3.908702876053468" y1="-0.7502263198737815" x2="2.8335990274175664" y2="2.050514959617824" stroke="black" stroke-width="0.013880393065181266" stroke-linecap="round"/><line x1="2.8335990274175664" y1="2.050514959617824" x2="1.8487912744053583" y2="2.2241631372847546" stroke="black" stroke-width="0.013880393065181266" stroke-linecap="round"/><line x1="1.8487912744053583" y1="2.2241631372847546" x2="0.5366732164243435" y2="0.7147439768392108" stroke="black" stroke-width="0.013880393065181266" stroke-linecap="round"/><line x1="0.5366732164243435" y1="0.7147439768392108" x2="1.4637241995491856" y2="-2.1384255720462497" stroke="black" stroke-width="0.013880393065181266" stroke-linecap="round"/><line x1="1.4637241995491856" y1="-2.1384255720462497" x2="2.438094264334421" y2="-2.3633766263901146" stroke="black" stroke-width="0.013880393065181266" stroke-linecap="round"/><line x1="2.438094264334421" y1="-2.3633766263901146" x2="3.827411005252415" y2="-0.924697025712812" stroke="black" stroke-width="0.013880393065181266" stroke-linecap="round"/><line x1="3.827411005252415" y1="-0.924697025712812" x2="3.0509538699448537" y2="1.973080453154393" stroke="black" stroke-width="0.013880393065181266" stroke-linecap="round"/><line x1="3.0509538699448537" y1="1.973080453154393" x2="2.089692174006535" y2="2.248717808971392" stroke="black" stroke-width="0.013880393065181266" stroke-linecap="round"/><line x1="2.089692174006535" y1="2.248717808971392" x2="0.6269847707681928" y2="0.8847210888463961" stroke="black" stroke-width="0.013880393065181266" stroke-linecap="round"/><line x1="0.6269847707681928" y1="0.8847210888463961" x2="1.2507198432214708" y2="-2.049721713355021" stroke="black" stroke-width="0.013880393065181266" stroke-linecap="round"/><line x1="1.2507198432214708" y1="-2.049721713355021" x2="2.1962384188207875" y2="-2.375289867812178" stroke="black" stroke-width="0.013880393065181266" stroke-linecap="round"/><line x1="2.1962384188207875" y1="-2.375289867812178" x2="3.7283273050587438" y2="-1.0897146484390994" stroke="black" stroke-width="0.013880393065181266" stroke-linecap="round"/><line x1="3.7283273050587438" y1="-1.0897146484390994" x2="3.2590239099380516" y2="1.873350373346314" stroke="black" stroke-width="0.013880393065181266" stroke-linecap="round"/><line x1="3.2590239099380516" y1="1.873350373346314" x2="2.331840055371264" y2="2.247956966762226" stroke="black" stroke-width="0.013880393065181266" stroke-linecap="round"/><line x1="2.331840055371264" y1="2.247956966762226" x2="0.734569035276678" y2="1.0443269204581302" stroke="black" stroke-width="0.013880393065181266" stroke-linecap="round"/><line x1="0.734569035276678" y1="1.0443269204581302" x2="1.0481544250796384" y2="-1.9392387656466894" stroke="black" stroke-width="0.013880393065181266" stroke-linecap="round"/><line x1="1.0481544250796384" y1="-1.9392387656466894" x2="1.9544622121162885" y2="-2.361857027387389" stroke="black" stroke-width="0.013880393065181266" stroke-linecap="round"/><line x1="1.9544622121162885" y1="-2.361857027387389" x2="3.6125373572263717" y2="-1.2434712204458955" stroke="black" stroke-width="0.013880393065181266" stroke-linecap="round"/><line x1="3.6125373572263717" y1="-1.2434712204458955" x2="3.455529488497541" y2="1.752417383817826" stroke="black" stroke-width="0.013880393065181266" stroke-linecap="round"/><line x1="3.455529488497541" y1="1.752417383817826" x2="2.572581895638614" y2="2.221888946603717" stroke="black" stroke-width="0.013880393065181266" stroke-linecap="round"/><line x1="2.572581895638614" y1="2.221888946603717" x2="0.8582472942343893" y2="1.1918127967836087" stroke="black" stroke-width="0.013880393065181266" stroke-linecap="round"/><line x1="0.8582472942343893" y1="1.1918127967836087" x2="0.8582472942343893" y2="-1.8081872032163913" stroke="black" stroke-width="0.013880393065181266" stroke-linecap="round"/><line x1="0.8582472942343893" y1="-1.8081872032163913" x2="1.7154145949365014" y2="-2.3232252781264457" stroke="black" stroke-width="0.013880393065181266" stroke-linecap="round"/><line x1="1.7154145949365014" y1="-2.3232252781264457" x2="3.481309780654356" y2="-1.3842821525546647" stroke="black" stroke-width="0.013880393065181266" stroke-linecap="round"/><line x1="3.481309780654356" y1="-1.3842821525546647" x2="3.638317649383187" y2="1.611606451709057" stroke="black" stroke-width="0.013880393065181266" stroke-linecap="round"/><line x1="3.638317649383187" y1="1.611606451709057" x2="2.809280076828146" y2="2.1707993551798044" stroke="black" stroke-width="0.013880393065181266" stroke-linecap="round"/><line x1="2.809280076828146" y1="2.1707993551798044" x2="0.9966645027548462" y2="1.3255628316984052" stroke="black" stroke-width="0.013880393065181266" stroke-linecap="round"/><line x1="0.9966645027548462" y1="1.3255628316984052" x2="0.683079112951886" y2="-1.6580028544064145" stroke="black" stroke-width="0.013880393065181266" stroke-linecap="round"/><line x1="0.683079112951886" y1="-1.6580028544064145" x2="1.4817146229991787" y2="-2.2598178775584628" stroke="black" stroke-width="0.013880393065181266" stroke-linecap="round"/><line x1="1.4817146229991787" y1="-2.2598178775584628" x2="3.3360823321327535" y2="-1.5106046907266386" stroke="black" stroke-width="0.013880393065181266" stroke-linecap="round"/><line x1="3.3360823321327535" y1="-1.5106046907266386" x2="3.8053857272534466" y2="1.4524603310587743" stroke="black" stroke-width="0.013880393065181266" stroke-linecap="round"/><line x1="3.8053857272534466" y1="1.4524603310587743" x2="3.0393412841344687" y2="2.0952479407453137" stroke="black" stroke-width="0.013880393065181266" stroke-linecap="round"/><line x1="3.0393412841344687" y1="2.0952479407453137" x2="1.1483041329358348" y2="1.4441116318310012" stroke="black" stroke-width="0.013880393065181266" stroke-linecap="round"/><line x1="1.1483041329358348" y1="1.4441116318310012" x2="0.5245690604825551" y2="-1.4903311703704154" stroke="black" stroke-width="0.013880393065181266" stroke-linecap="round"/><line x1="0.5245690604825551" y1="-1.4903311703704154" x2="1.2559227621017257" y2="-2.172329530432914" stroke="black" stroke-width="0.013880393065181266" stroke-linecap="round"/><line x1="1.2559227621017257" y1="-2.172329530432914" x2="3.1784461539783635" y2="-1.6210548187989158" stroke="black" stroke-width="0.013880393065181266" stroke-linecap="round"/><line x1="3.1784461539783635" y1="-1.6210548187989158" x2="3.9549032892859266" y2="1.2767226600682888" stroke="black" stroke-width="0.013880393065181266" stroke-linecap="round"/><line x1="3.9549032892859266" y1="1.2767226600682888" x2="3.2602449188269294" y2="1.99606246040694" stroke="black" stroke-width="0.013880393065181266" stroke-linecap="round"/><line x1="3.2602449188269294" y1="1.99606246040694" x2="1.3115047892564589" y2="1.5461603517192102" stroke="black" stroke-width="0.013880393065181266" stroke-linecap="round"/><line x1="1.3115047892564589" y1="1.5461603517192102" x2="0.38445380613161606" y2="-1.3070091971662503" stroke="black" stroke-width="0.013880393065181266" stroke-linecap="round"/><line x1="0.38445380613161606" y1="-1.3070091971662503" x2="1.0405128351221231" y2="-2.0617187773890224" stroke="black" stroke-width="0.013880393065181266" stroke-linecap="round"/><line x1="1.0405128351221231" y1="-2.0617187773890224" x2="3.0101283411465394" y2="-1.7144224220551618" stroke="black" stroke-width="0.013880393065181266" stroke-linecap="round"/><line x1="3.0101283411465394" y1="-1.7144224220551618" x2="4.08523218978244" y2="1.0863188574364435" stroke="black" stroke-width="0.013880393065181266" stroke-linecap="round"/><line x1="4.08523218978244" y1="1.0863188574364435" x2="3.4695707144567822" y2="1.8743296110431658" stroke="black" stroke-width="0.013880393065181266" stroke-linecap="round"/><line x1="3.4695707144567822" y1="1.8743296110431658" x2="1.4844784111741383" y2="1.6305909242328704" stroke="black" stroke-width="0.013880393065181266" stroke-linecap="round"/><line x1="1.4844784111741383" y1="1.6305909242328704" x2="0.2642684819467378" y2="-1.1100454486949323" stroke="black" stroke-width="0.013880393065181266" stroke-linecap="round"/><line x1="0.2642684819467378" y1="-1.1100454486949323" x2="0.8378449182977838" y2="-1.9291974929839242" stroke="black" stroke-width="0.013880393065181266" stroke-linecap="round"/><line x1="0.8378449182977838" y1="-1.9291974929839242" x2="2.832973018817432" y2="-1.7896845454956736" stroke="black" stroke-width="0.013880393065181266" stroke-linecap="round"/><line x1="2.832973018817432" y1="-1.7896845454956736" x2="4.194944518036072" y2="0.8833350270694298" stroke="black" stroke-width="0.013880393065181266" stroke-linecap="round"/><line x1="4.194944518036072" y1="0.8833350270694298" x2="3.6650252538028676" y2="1.7313831232258559" stroke="black" stroke-width="0.013880393065181266" stroke-linecap="round"/><line x1="3.6650252538028676" y1="1.7313831232258559" x2="1.665329863490085" y2="1.6964783103512895" stroke="black" stroke-width="0.013880393065181266" stroke-linecap="round"/><line x1="1.665329863490085" y1="1.6964783103512895" x2="0.16532986349008372" y2="-0.9015979010020256" stroke="black" stroke-width="0.013880393065181266" stroke-linecap="round"/><line x1="0.16532986349008372" y1="-0.9015979010020256" x2="0.6501394837364207" y2="-1.7762176081414214" stroke="black" stroke-width="0.013880393065181266" stroke-linecap="round"/><line x1="0.6501394837364207" y1="-1.7762176081414214" x2="2.6489211377746122" y2="-1.8460166015464234" stroke="black" stroke-width="0.013880393065181266" stroke-linecap="round"/><line x1="2.6489211377746122" y1="-1.8460166015464234" x2="4.282838242819693" y2="0.6699951022898492" stroke="black" stroke-width="0.013880393065181266" stroke-linecap="round"/><line x1="4.282838242819693" y1="0.6699951022898492" x2="3.844467096030616" y2="1.5687891485890164" stroke="black" stroke-width="0.013880393065181266" stroke-linecap="round"/><line x1="3.844467096030616" y1="1.5687891485890164" x2="1.8520776998471251" y2="1.743100634084333" stroke="black" stroke-width="0.013880393065181266" stroke-linecap="round"/><line x1="1.8520776998471251" y1="1.743100634084333" x2="0.08872194296970504" y2="-0.683950349040509" stroke="black" stroke-width="0.013880393065181266" stroke-linecap="round"/><line x1="0.08872194296970504" y1="-0.683950349040509" x2="0.47945307145897875" y2="-1.6044552024929493" stroke="black" stroke-width="0.013880393065181266" stroke-linecap="round"/><line x1="0.47945307145897875" y1="-1.6044552024929493" x2="2.4599892089421194" y2="-1.8828014044130805" stroke="black" stroke-width="0.013880393065181266" stroke-linecap="round"/><line x1="2.4599892089421194" y1="-1.8828014044130805" x2="4.347950382091632" y2="0.4486364799578313" stroke="black" stroke-width="0.013880393065181266" stroke-linecap="round"/><line x1="4.347950382091632" y1="0.4486364799578313" x2="4.005930238765964" y2="1.3883291007437397" stroke="black" stroke-width="0.013880393065181266" stroke-linecap="round"/><line x1="4.005930238765964" y1="1.3883291007437397" x2="2.042675871870636" y2="1.7699470914968307" stroke="black" stroke-width="0.013880393065181266" stroke-linecap="round"/><line x1="2.042675871870636" y1="1.7699470914968307" x2="0.03528405279406188" y2="-0.45948738493535224" stroke="black" stroke-width="0.013880393065181266" stroke-linecap="round"/><line x1="0.03528405279406188" y1="-0.45948738493535224" x2="0.32765575751679865" y2="-1.4157921408983878" stroke="black" stroke-width="0.013880393065181266" stroke-linecap="round"/><line x1="0.32765575751679865" y1="-1.4157921408983878" x2="2.2682472100687914" y2="-1.8996359320977236" stroke="black" stroke-width="0.013880393065181266" stroke-linecap="round"/><line x1="2.2682472100687914" y1="-1.8996359320977236" x2="4.389567553628434" y2="0.22168441146191875" stroke="black" stroke-width="0.013880393065181266" stroke-linecap="round"/><line x1="4.389567553628434" y1="0.22168441146191875" x2="4.147645658028766" y2="1.1919801377379153" stroke="black" stroke-width="0.013880393065181266" stroke-linecap="round"/><line x1="4.147645658028766" y1="1.1919801377379153" x2="2.2350361461026957" y2="1.7767235471833895" stroke="black" stroke-width="0.013880393065181266" stroke-linecap="round"/><line x1="2.2350361461026957" y1="1.7767235471833895" x2="0.0056016696705119" y2="-0.23066827189318384" stroke="black" stroke-width="0.013880393065181266" stroke-linecap="round"/><line x1="0.0056016696705119" y1="-0.23066827189318384" x2="0.1964106650470567" y2="-1.2122954553408478" stroke="black" stroke-width="0.013880393065181266" stroke-linecap="round"/><line x1="0.1964106650470567" y1="-1.2122954553408478" x2="2.075795906618873" y2="-1.8963357419921856" stroke="black" stroke-width="0.013880393065181266" stroke-linecap="round"/><line x1="2.075795906618873" y1="-1.8963357419921856" x2="4.407233790989786" y2="-0.008374568842673735" stroke="black" stroke-width="0.013880393065181266" stroke-linecap="round"/><line x1="4.407233790989786" y1="-0.008374568842673735" x2="4.268060690029721" y2="0.9818934998988965" stroke="black" stroke-width="0.013880393065181266" stroke-linecap="round"/><line x1="4.268060690029721" y1="0.9818934998988965" x2="2.42705098312484" y2="1.763355756877444" stroke="black" stroke-width="0.013880393065181266" stroke-linecap="round"/><line x1="2.42705098312484" y1="1.763355756877444" x2="-2.6645352591003757e-15" y2="2.531308496145357e-14" stroke="black" stroke-width="0.013880393065181266" stroke-linecap="round"/></svg>