<?xml version="1.0" encoding="UTF-8"?><svg viewBox="-0.4449306155254278 -2.8300241051883392 7.079345358433434 7.152893971436414" xmlns="http://www.w3.org/2000/svg"><line x1="0" y1="0" x2="0.08715574274765817" y2="-0.9961946980917455" stroke="black" stroke-width="0.021037923445401216" stroke-linecap="round"/><line x1="0.08715574274765817" y1="-0.9961946980917455" x2="1.8847438353459922" y2="-1.8729369916699006" stroke="black" stroke-width="0.021037923445401216" stroke-linecap="round"/><line x1="1.8847438353459922" y1="-1.8729369916699006" x2="4.400755539182264" y2="-0.2390198866248192" stroke="black" stroke-width="0.021037923445401216" stroke-linecap="round"/><line x1="4.400755539182264" y1="-0.2390198866248192" x2="4.261157552372261" y2="3.758543421451564" stroke="black" stroke-width="0.021037923445401216" stroke-linecap="round"/><line x1="4.261157552372261" y1="3.758543421451564" x2="3.3865378452328647" y2="4.243353041697901" stroke="black" stroke-width="0.021037923445401216" stroke-linecap="round"/><line x1="3.3865378452328647" y1="4.243353041697901" x2="1.6544870376639875" y2="3.243353041697901" stroke="black" stroke-width="0.021037923445401216" stroke-linecap="round"/><line x1="1.6544870376639875" y1="3.243353041697901" x2="1.6021298183521342" y2="0.24380995622872703" stroke="black" stroke-width="0.021037923445401216" stroke-linecap="round"/><line x1="1.6021298183521342" y1="0.24380995622872703" x2="4.9943222029778385" y2="-1.8758671007040926" stroke="black" stroke-width="0.021037923445401216" stroke-linecap="round"/><line x1="4.9943222029778385" y1="-1.8758671007040926" x2="5.885328727166207" y2="-1.4218766009645458" stroke="black" stroke-width="0.021037923445401216" stroke-linecap="round"/><line x1="5.885328727166207" y1="-1.4218766009645458" x2="6.024841674654458" y2="0.5732514995551026" stroke="black" stroke-width="0.021037923445401216" stroke-linecap="round"/><line x1="6.024841674654458" y1="0.5732514995551026" x2="3.567385541787483" y2="2.2939808086082416" stroke="black" stroke-width="0.021037923445401216" stroke-linecap="round"/><line x1="3.567385541787483" y1="2.2939808086082416" x2="-0.0867962887829199" y2="0.6670342363050394" stroke="black" stroke-width="0.021037923445401216" stroke-linecap="round"/><line x1="-0.0867962887829199" y1="0.6670342363050394" x2="-0.208665632188068" y2="-0.32551191533628254" stroke="black" stroke-width="0.021037923445401216" stroke-linecap="round"/><line x1="-0.208665632188068" y1="-0.32551191533628254" x2="1.367355875025376" y2="-1.5568348659875992" stroke="black" stroke-width="0.021037923445401216" stroke-linecap="round"/><line x1="1.367355875025376" y1="-1.5568348659875992" x2="4.168097154516982" y2="-0.48173101735169843" stroke="black" stroke-width="0.021037923445401216" stroke-linecap="round"/><line x1="4.168097154516982" y1="-0.48173101735169843" x2="4.862689865184703" y2="3.457499994697134" stroke="black" stroke-width="0.021037923445401216" stroke-linecap="round"/><line x1="4.862689865184703" y1="3.457499994697134" x2="4.107980284961931" y2="4.113559023687642" stroke="black" stroke-width="0.021037923445401216" stroke-linecap="round"/><line x1="4.107980284961931" y1="4.113559023687642" x2="2.2058672523716236" y2="3.495525034937747" stroke="black" stroke-width="0.021037923445401216" stroke-linecap="round"/><line x1="2.2058672523716236" y1="3.495525034937747" x2="1.5310140893400277" y2="0.572414840582042" stroke="black" stroke-width="0.021037923445401216" stroke-linecap="round"/><line x1="1.5310140893400277" y1="0.572414840582042" x2="4.408373290694632" y2="-2.2062186412539475" stroke="black" stroke-width="0.021037923445401216" stroke-linecap="round"/><line x1="4.408373290694632" y1="-2.2062186412539475" x2="5.374299116983701" y2="-1.9473995961514268" stroke="black" stroke-width="0.021037923445401216" stroke-linecap="round"/><line x1="5.374299116983701" y1="-1.9473995961514268" x2="5.9255738286177" y2="-0.024876204274789426" stroke="black" stroke-width="0.021037923445401216" stroke-linecap="round"/><line x1="5.9255738286177" y1="-0.024876204274789426" x2="3.8795787484302044" y2="2.169184900582722" stroke="black" stroke-width="0.021037923445401216" stroke-linecap="round"/><line x1="3.8795787484302044" y1="2.169184900582722" x2="-0.03301165450501875" y2="1.337538137311688" stroke="black" stroke-width="0.021037923445401216" stroke-linecap="round"/><line x1="-0.03301165450501875" y1="1.337538137311688" x2="-0.3585798089621763" y2="0.3920195617123714" stroke="black" stroke-width="0.021037923445401216" stroke-linecap="round"/><line x1="-0.3585798089621763" y1="0.3920195617123714" x2="0.9269954104109022" y2="-1.1400693245255846" stroke="black" stroke-width="0.021037923445401216" stroke-linecap="round"/><line x1="0.9269954104109022" y1="-1.1400693245255846" x2="3.8900604321963153" y2="-0.6707659294048915" stroke="black" stroke-width="0.021037923445401216" stroke-linecap="round"/><line x1="3.8900604321963153" y1="-0.6707659294048915" x2="5.388486805859964" y2="3.0379694888622577" stroke="black" stroke-width="0.021037923445401216" stroke-linecap="round"/><line x1="5.388486805859964" y1="3.0379694888622577" x2="4.786671782707916" y2="3.836604998909551" stroke="black" stroke-width="0.021037923445401216" stroke-linecap="round"/><line x1="4.786671782707916" y1="3.836604998909551" x2="2.7976279919713694" y2="3.627548072374245" stroke="black" stroke-width="0.021037923445401216" stroke-linecap="round"/><line x1="2.7976279919713694" y1="3.627548072374245" x2="1.5297732067492693" y2="0.9086247112642956" stroke="black" stroke-width="0.021037923445401216" stroke-linecap="round"/><line x1="1.5297732067492693" y1="0.9086247112642956" x2="3.766544820632257" y2="-2.407525578955871" stroke="black" stroke-width="0.021037923445401216" stroke-linecap="round"/><line x1="3.766544820632257" y1="-2.407525578955871" x2="4.765174355386831" y2="-2.355189622712927" stroke="black" stroke-width="0.021037923445401216" stroke-linecap="round"/><line x1="4.765174355386831" y1="-2.355189622712927" x2="5.7041174809586135" y2="-0.5892944369950737" stroke="black" stroke-width="0.021037923445401216" stroke-linecap="round"/><line x1="5.7041174809586135" y1="-0.5892944369950737" x2="4.159003256228451" y2="1.9822074651112631" stroke="black" stroke-width="0.021037923445401216" stroke-linecap="round"/><line x1="4.159003256228451" y1="1.9822074651112631" x2="0.15900325622845113" y2="1.9822074651112638" stroke="black" stroke-width="0.021037923445401216" stroke-linecap="round"/><line x1="0.15900325622845113" y1="1.9822074651112638" x2="-0.35603481868160336" y2="1.1250401644091517" stroke="black" stroke-width="0.021037923445401216" stroke-linecap="round"/><line x1="-0.35603481868160336" y1="1.1250401644091517" x2="0.5829083068901783" y2="-0.6408550213087023" stroke="black" stroke-width="0.021037923445401216" stroke-linecap="round"/><line x1="0.5829083068901783" y1="-0.6408550213087023" x2="3.5787969111539" y2="-0.7978628900375342" stroke="black" stroke-width="0.021037923445401216" stroke-linecap="round"/><line x1="3.5787969111539" y1="-0.7978628900375342" x2="5.815568525036888" y2="2.5182874001826323" stroke="black" stroke-width="0.021037923445401216" stroke-linecap="round"/><line x1="5.815568525036888" y1="2.5182874001826323" x2="5.392950263296188" y2="3.4245951872192824" stroke="black" stroke-width="0.021037923445401216" stroke-linecap="round"/><line x1="5.392950263296188" y1="3.4245951872192824" x2="3.4039064725596413" y2="3.633652113754589" stroke="black" stroke-width="0.021037923445401216" stroke-linecap="round"/><line x1="3.4039064725596413" y1="3.633652113754589" x2="1.5984614031034965" y2="1.2377455836127105" stroke="black" stroke-width="0.021037923445401216" stroke-linecap="round"/><line x1="1.5984614031034965" y1="1.2377455836127105" x2="3.0968877767671446" y2="-2.470989834654439" stroke="black" stroke-width="0.021037923445401216" stroke-linecap="round"/><line x1="3.0968877767671446" y1="-2.470989834654439" x2="4.084576117362282" y2="-2.62742429969467" stroke="black" stroke-width="0.021037923445401216" stroke-linecap="round"/><line x1="4.084576117362282" y1="-2.62742429969467" x2="5.370151336735361" y2="-1.0953354134567141" stroke="black" stroke-width="0.021037923445401216" stroke-linecap="round"/><line x1="5.370151336735361" y1="-1.0953354134567141" x2="4.3934468733638905" y2="1.7412203133412363" stroke="black" stroke-width="0.021037923445401216" stroke-linecap="round"/><line x1="4.3934468733638905" y1="1.7412203133412363" x2="0.4808564704286682" y2="2.572867076612275" stroke="black" stroke-width="0.021037923445401216" stroke-linecap="round"/><line x1="0.4808564704286682" y1="2.572867076612275" x2="-0.20114188963383006" y2="1.8415133749931045" stroke="black" stroke-width="0.021037923445401216" stroke-linecap="round"/><line x1="-0.20114188963383006" y1="1.8415133749931045" x2="0.35013282200016826" y2="-0.08101001688353326" stroke="black" stroke-width="0.021037923445401216" stroke-linecap="round"/><line x1="0.35013282200016826" y1="-0.08101001688353326" x2="3.2479103008673733" y2="-0.8574671521910955" stroke="black" stroke-width="0.021037923445401216" stroke-linecap="round"/><line x1="3.2479103008673733" y1="-0.8574671521910955" x2="6.125269502221979" y2="1.9211663296448926" stroke="black" stroke-width="0.021037923445401216" stroke-linecap="round"/><line x1="6.125269502221979" y1="1.9211663296448926" x2="5.900318447878114" y2="2.895536394430128" stroke="black" stroke-width="0.021037923445401216" stroke-linecap="round"/><line x1="5.900318447878114" y1="2.895536394430128" x2="3.9982054152878064" y2="3.5135703831800233" stroke="black" stroke-width="0.021037923445401216" stroke-linecap="round"/><line x1="3.9982054152878064" y1="3.5135703831800233" x2="1.73407667461949" y2="1.5453932962085022" stroke="black" stroke-width="0.021037923445401216" stroke-linecap="round"/><line x1="1.73407667461949" y1="1.5453932962085022" x2="2.428669385287211" y2="-2.3938377158403297" stroke="black" stroke-width="0.021037923445401216" stroke-linecap="round"/><line x1="2.428669385287211" y1="-2.3938377158403297" x2="3.362249811784413" y2="-2.75220566538563" stroke="black" stroke-width="0.021037923445401216" stroke-linecap="round"/><line x1="3.362249811784413" y1="-2.75220566538563" x2="4.938271318997857" y2="-1.5208827147343136" stroke="black" stroke-width="0.021037923445401216" stroke-linecap="round"/><line x1="4.938271318997857" y1="-1.5208827147343136" x2="4.5726632887824135" y2="1.4567557401896523" stroke="black" stroke-width="0.021037923445401216" stroke-linecap="round"/><line x1="4.5726632887824135" y1="1.4567557401896523" x2="0.9184814582120095" y2="3.0837023124928526" stroke="black" stroke-width="0.021037923445401216" stroke-linecap="round"/><line x1="0.9184814582120095" y1="3.0837023124928526" x2="0.09932941392301775" y2="2.5101258761418066" stroke="black" stroke-width="0.021037923445401216" stroke-linecap="round"/><line x1="0.09932941392301775" y1="2.5101258761418066" x2="0.23884236141126836" y2="0.5149977756221582" stroke="black" stroke-width="0.021037923445401216" stroke-linecap="round"/><line x1="0.23884236141126836" y1="0.5149977756221582" x2="2.911861933976372" y2="-0.8469737235964825" stroke="black" stroke-width="0.021037923445401216" stroke-linecap="round"/><line x1="2.911861933976372" y1="-0.8469737235964825" x2="6.304054318602076" y2="1.2727033333363367" stroke="black" stroke-width="0.021037923445401216" stroke-linecap="round"/><line x1="6.304054318602076" y1="1.2727033333363367" x2="6.286601912164793" y2="2.272551028492728" stroke="black" stroke-width="0.021037923445401216" stroke-linecap="round"/><line x1="6.286601912164793" y1="2.272551028492728" x2="4.554551104595916" y2="3.272551028492729" stroke="black" stroke-width="0.021037923445401216" stroke-linecap="round"/><line x1="4.554551104595916" y1="3.272551028492729" x2="1.9306919831777276" y2="1.8181221677537196" stroke="black" stroke-width="0.021037923445401216" stroke-linecap="round"/><line x1="1.9306919831777276" y1="1.8181221677537196" x2="1.7910939963677244" y2="-2.1794411403226635" stroke="black" stroke-width="0.021037923445401216" stroke-linecap="round"/><line x1="1.7910939963677244" y1="-2.1794411403226635" x2="2.6297645643131484" y2="-2.724080175337691" stroke="black" stroke-width="0.021037923445401216" stroke-linecap="round"/><line x1="2.6297645643131484" y1="-2.724080175337691" x2="4.4273526569114825" y2="-1.8473378817595358" stroke="black" stroke-width="0.021037923445401216" stroke-linecap="round"/><line x1="4.4273526569114825" y1="-1.8473378817595358" x2="4.688819885154459" y2="1.141246212515701" stroke="black" stroke-width="0.021037923445401216" stroke-linecap="round"/><line x1="4.688819885154459" y1="1.141246212515701" x2="1.4527519076546693" y2="3.4923872216855942" stroke="black" stroke-width="0.021037923445401216" stroke-linecap="round"/><line x1="1.4527519076546693" y1="3.4923872216855942" x2="0.5322470542022288" y2="3.1016560931963206" stroke="black" stroke-width="0.021037923445401216" stroke-linecap="round"/><line x1="0.5322470542022288" y1="3.1016560931963206" x2="0.2539008522820971" y2="1.1211199557131801" stroke="black" stroke-width="0.021037923445401216" stroke-linecap="round"/><line x1="0.2539008522820971" y1="1.1211199557131801" x2="2.5853387366530094" y2="-0.7668412174363324" stroke="black" stroke-width="0.021037923445401216" stroke-linecap="round"/><line x1="2.5853387366530094" y1="-0.7668412174363324" x2="6.344109219796643" y2="0.6012393558663425" stroke="black" stroke-width="0.021037923445401216" stroke-linecap="round"/><line x1="6.344109219796643" y1="0.6012393558663425" x2="6.534918215173188" y2="1.5828665393140064" stroke="black" stroke-width="0.021037923445401216" stroke-linecap="round"/><line x1="6.534918215173188" y1="1.5828665393140064" x2="5.0486285642184" y2="2.9211277520317234" stroke="black" stroke-width="0.021037923445401216" stroke-linecap="round"/><line x1="5.0486285642184" y1="2.9211277520317234" x2="2.1797142963292937" y2="2.0440126378635135" stroke="black" stroke-width="0.021037923445401216" stroke-linecap="round"/><line x1="2.1797142963292937" y1="2.0440126378635135" x2="1.2120267139306222" y2="-1.8371702672404724" stroke="black" stroke-width="0.021037923445401216" stroke-linecap="round"/><line x1="1.2120267139306222" y1="-1.8371702672404724" x2="1.9191334951171697" y2="-2.54427704842702" stroke="black" stroke-width="0.021037923445401216" stroke-linecap="round"/><line x1="1.9191334951171697" y1="-2.54427704842702" x2="3.8597249476691626" y2="-2.0604332572276842" stroke="black" stroke-width="0.021037923445401216" stroke-linecap="round"/><line x1="3.8597249476691626" y1="-2.0604332572276842" x2="4.736840061837373" y2="0.808481010661422" stroke="black" stroke-width="0.021037923445401216" stroke-linecap="round"/><line x1="4.736840061837373" y1="0.808481010661422" x2="2.0603176364019404" y2="3.781060312570999" stroke="black" stroke-width="0.021037923445401216" stroke-linecap="round"/><line x1="2.0603176364019404" y1="3.781060312570999" x2="1.0786904529542762" y2="3.5902513171944546" stroke="black" stroke-width="0.021037923445401216" stroke-linecap="round"/><line x1="1.0786904529542762" y1="3.5902513171944546" x2="0.39465016630293903" y2="1.7108660756226377" stroke="black" stroke-width="0.021037923445401216" stroke-linecap="round"/><line x1="0.39465016630293903" y1="1.7108660756226377" x2="2.282611339452451" y2="-0.620571808748275" stroke="black" stroke-width="0.021037923445401216" stroke-linecap="round"/><line x1="2.282611339452451" y1="-0.620571808748275" x2="6.243683614418733" y2="-0.06387940490801358" stroke="black" stroke-width="0.021037923445401216" stroke-linecap="round"/><line x1="6.243683614418733" y1="-0.06387940490801358" x2="6.634414742908007" y2="0.8566254485444266" stroke="black" stroke-width="0.021037923445401216" stroke-linecap="round"/><line x1="6.634414742908007" y1="0.8566254485444266" x2="5.458844238323061" y2="2.4746594372943216" stroke="black" stroke-width="0.021037923445401216" stroke-linecap="round"/><line x1="5.458844238323061" y1="2.4746594372943216" x2="2.470260144047824" y2="2.213192209051348" stroke="black" stroke-width="0.021037923445401216" stroke-linecap="round"/><line x1="2.470260144047824" y1="2.213192209051348" x2="0.716775556891516" y2="-1.3819839761453205" stroke="black" stroke-width="0.021037923445401216" stroke-linecap="round"/><line x1="0.716775556891516" y1="-1.3819839761453205" x2="1.2614145919065431" y2="-2.2206545440907446" stroke="black" stroke-width="0.021037923445401216" stroke-linecap="round"/><line x1="1.2614145919065431" y1="-2.2206545440907446" x2="3.2601962459447345" y2="-2.150855550685743" stroke="black" stroke-width="0.021037923445401216" stroke-linecap="round"/><line x1="3.2601962459447345" y1="-2.150855550685743" x2="4.714625106683746" y2="0.4730035707324438" stroke="black" stroke-width="0.021037923445401216" stroke-linecap="round"/><line x1="4.714625106683746" y1="0.4730035707324438" x2="2.7146251066837457" y2="3.937105185870198" stroke="black" stroke-width="0.021037923445401216" stroke-linecap="round"/><line x1="2.7146251066837457" y1="3.937105185870198" x2="1.7147774115273544" y2="3.9545575923074816" stroke="black" stroke-width="0.021037923445401216" stroke-linecap="round"/><line x1="1.7147774115273544" y1="3.9545575923074816" x2="0.6549388830609428" y2="2.258461399994631" stroke="black" stroke-width="0.021037923445401216" stroke-linecap="round"/><line x1="0.6549388830609428" y1="2.258461399994631" x2="2.0169103822795833" y2="-0.414558172570473" stroke="black" stroke-width="0.021037923445401216" stroke-linecap="round"/><line x1="2.0169103822795833" y1="-0.414558172570473" x2="6.00716658331888" y2="-0.6935840675469749" stroke="black" stroke-width="0.021037923445401216" stroke-linecap="round"/><line x1="6.00716658331888" y1="-0.6935840675469749" x2="6.580743019669926" y2="0.1255679767420167" stroke="black" stroke-width="0.021037923445401216" stroke-linecap="round"/><line x1="6.580743019669926" y1="0.1255679767420167" x2="5.767269733518327" y2="1.9526588920272188" stroke="black" stroke-width="0.021037923445401216" stroke-linecap="round"/><line x1="5.767269733518327" y1="1.9526588920272188" x2="2.7896312785943604" y2="2.3182669222426604" stroke="black" stroke-width="0.021037923445401216" stroke-linecap="round"/><line x1="2.7896312785943604" y1="2.3182669222426604" x2="0.32698537729172505" y2="-0.8337760921842259" stroke="black" stroke-width="0.021037923445401216" stroke-linecap="round"/><line x1="0.32698537729172505" y1="-0.8337760921842259" x2="0.6853533268370253" y2="-1.7673565186814275" stroke="black" stroke-width="0.021037923445401216" stroke-linecap="round"/><line x1="0.6853533268370253" y1="-1.7673565186814275" x2="2.6549688328614414" y2="-2.114652874015288" stroke="black" stroke-width="0.021037923445401216" stroke-linecap="round"/><line x1="2.6549688328614414" y1="-2.114652874015288" x2="4.623145919832963" y2="0.1494758666530278" stroke="black" stroke-width="0.021037923445401216" stroke-linecap="round"/><line x1="4.623145919832963" y1="0.1494758666530278" x2="3.387077942333172" y2="3.953701931833642" stroke="black" stroke-width="0.021037923445401216" stroke-linecap="round"/><line x1="3.387077942333172" y1="3.953701931833642" x2="2.4127078775479367" y2="4.178652986177507" stroke="black" stroke-width="0.021037923445401216" stroke-linecap="round"/><line x1="2.4127078775479367" y1="4.178652986177507" x2="1.0233911366299415" y2="2.7399733855002055" stroke="black" stroke-width="0.021037923445401216" stroke-linecap="round"/><line x1="1.0233911366299415" y1="2.7399733855002055" x2="1.7998482719375037" y2="-0.15780409336699952" stroke="black" stroke-width="0.021037923445401216" stroke-linecap="round"/><line x1="1.7998482719375037" y1="-0.15780409336699952" x2="5.644895055690779" y2="-1.2603535166349962" stroke="black" stroke-width="0.021037923445401216" stroke-linecap="round"/><line x1="5.644895055690779" y1="-1.2603535166349962" x2="6.376248757309949" y2="-0.5783551565724978" stroke="black" stroke-width="0.021037923445401216" stroke-linecap="round"/><line x1="6.376248757309949" y1="-0.5783551565724978" x2="5.960425375674431" y2="1.3779400448951136" stroke="black" stroke-width="0.021037923445401216" stroke-linecap="round"/><line x1="5.960425375674431" y1="1.3779400448951136" x2="3.1238696488764806" y2="2.3546445082665834" stroke="black" stroke-width="0.021037923445401216" stroke-linecap="round"/><line x1="3.1238696488764806" y1="2.3546445082665834" x2="0.059691876400568056" y2="-0.21650593047957356" stroke="black" stroke-width="0.021037923445401216" stroke-linecap="round"/><line x1="0.059691876400568056" y1="-0.21650593047957356" x2="0.21612634144079892" y2="-1.2041942710747113" stroke="black" stroke-width="0.021037923445401216" stroke-linecap="round"/><line x1="0.21612634144079892" y1="-1.2041942710747113" x2="2.0704940505743736" y2="-1.9534074579065352" stroke="black" stroke-width="0.021037923445401216" stroke-linecap="round"/><line x1="2.0704940505743736" y1="-1.9534074579065352" x2="4.466400580716252" y2="-0.14796238845039023" stroke="black" stroke-width="0.021037923445401216" stroke-linecap="round"/><line x1="4.466400580716252" y1="-0.14796238845039023" x2="4.04828672764564" y2="3.8301251930227034" stroke="black" stroke-width="0.021037923445401216" stroke-linecap="round"/><line x1="4.04828672764564" y1="3.8301251930227034" x2="3.14197894060899" y2="4.2527434547634035" stroke="black" stroke-width="0.021037923445401216" stroke-linecap="round"/><line x1="3.14197894060899" y1="4.2527434547634035" x2="1.483903795498906" y2="3.1343576478219113" stroke="black" stroke-width="0.021037923445401216" stroke-linecap="round"/><line x1="1.483903795498906" y1="3.1343576478219113" x2="1.6409116642277375" y2="0.13846904355818968" stroke="black" stroke-width="0.021037923445401216" stroke-linecap="round"/><line x1="1.6409116642277375" y1="0.13846904355818968" x2="5.172702035663445" y2="-1.7394172075853738" stroke="black" stroke-width="0.021037923445401216" stroke-linecap="round"/><line x1="5.172702035663445" y1="-1.7394172075853738" x2="6.029869336365557" y2="-1.2243791326753195" stroke="black" stroke-width="0.021037923445401216" stroke-linecap="round"/><line x1="6.029869336365557" y1="-1.2243791326753195" x2="6.029869336365557" y2="0.7756208673246805" stroke="black" stroke-width="0.021037923445401216" stroke-linecap="round"/><line x1="6.029869336365557" y1="0.7756208673246805" x2="3.458367434259221" y2="2.3207350920548437" stroke="black" stroke-width="0.021037923445401216" stroke-linecap="round"/><line x1="3.458367434259221" y1="2.3207350920548437" x2="-0.0734229371764874" y2="0.44284884091128207" stroke="black" stroke-width="0.021037923445401216" stroke-linecap="round"/><line x1="-0.0734229371764874" y1="0.44284884091128207" x2="-0.12575889341943178" y2="-0.5557806938432918" stroke="black" stroke-width="0.021037923445401216" stroke-linecap="round"/><line x1="-0.12575889341943178" y1="-0.5557806938432918" x2="1.5323162516906517" y2="-1.6741665007847852" stroke="black" stroke-width="0.021037923445401216" stroke-linecap="round"/><line x1="1.5323162516906517" y1="-1.6741665007847852" x2="4.251239612800601" y2="-0.4063117155626872" stroke="black" stroke-width="0.021037923445401216" stroke-linecap="round"/><line x1="4.251239612800601" y1="-0.4063117155626872" x2="4.669353465871216" y2="3.571775865910406" stroke="black" stroke-width="0.021037923445401216" stroke-linecap="round"/><line x1="4.669353465871216" y1="3.571775865910406" x2="3.8707179558239235" y2="4.173590889062455" stroke="black" stroke-width="0.021037923445401216" stroke-linecap="round"/><line x1="3.8707179558239235" y1="4.173590889062455" x2="2.0163502466903487" y2="3.4243777022306308" stroke="black" stroke-width="0.021037923445401216" stroke-linecap="round"/><line x1="2.0163502466903487" y1="3.4243777022306308" x2="1.5470468515696554" y2="0.4613126804452179" stroke="black" stroke-width="0.021037923445401216" stroke-linecap="round"/><line x1="1.5470468515696554" y1="0.4613126804452179" x2="4.611224624045567" y2="-2.1098377583009396" stroke="black" stroke-width="0.021037923445401216" stroke-linecap="round"/><line x1="4.611224624045567" y1="-2.1098377583009396" x2="5.556743199644884" y2="-1.784269603843783" stroke="black" stroke-width="0.021037923445401216" stroke-linecap="round"/><line x1="5.556743199644884" y1="-1.784269603843783" x2="5.972566581280402" y2="0.1720255976238283" stroke="black" stroke-width="0.021037923445401216" stroke-linecap="round"/><line x1="5.972566581280402" y1="0.1720255976238283" x2="3.778505476422892" y2="2.218020677811325" stroke="black" stroke-width="0.021037923445401216" stroke-linecap="round"/><line x1="3.778505476422892" y1="2.218020677811325" x2="-0.06654130733038333" y2="1.1154712545433274" stroke="black" stroke-width="0.021037923445401216" stroke-linecap="round"/><line x1="-0.06654130733038333" y1="1.1154712545433274" x2="-0.325360352432904" y2="0.1495454282542591" stroke="black" stroke-width="0.021037923445401216" stroke-linecap="round"/><line x1="-0.325360352432904" y1="0.1495454282542591" x2="1.0639563884850904" y2="-1.2891341724230432" stroke="black" stroke-width="0.021037923445401216" stroke-linecap="round"/><line x1="1.0639563884850904" y1="-1.2891341724230432" x2="3.987066582840796" y2="-0.6142810093914488" stroke="black" stroke-width="0.021037923445401216" stroke-linecap="round"/><line x1="3.987066582840796" y1="-0.6142810093914488" x2="5.223134560340586" y2="3.189945055789165" stroke="black" stroke-width="0.021037923445401216" stroke-linecap="round"/><line x1="5.223134560340586" y1="3.189945055789165" x2="4.567075531350079" y2="3.944654636011937" stroke="black" stroke-width="0.021037923445401216" stroke-linecap="round"/><line x1="4.567075531350079" y1="3.944654636011937" x2="2.5974600253256623" y2="3.597358280678077" stroke="black" stroke-width="0.021037923445401216" stroke-linecap="round"/><line x1="2.5974600253256623" y1="3.597358280678077" x2="1.52235617668976" y2="0.7966170011864726" stroke="black" stroke-width="0.021037923445401216" stroke-linecap="round"/><line x1="1.52235617668976" y1="0.7966170011864726" x2="3.9850020779923927" y2="-2.3554260132404155" stroke="black" stroke-width="0.021037923445401216" stroke-linecap="round"/><line x1="3.9850020779923927" y1="-2.3554260132404155" x2="4.977548229633715" y2="-2.2335566698352682" stroke="black" stroke-width="0.021037923445401216" stroke-linecap="round"/><line x1="4.977548229633715" y1="-2.2335566698352682" x2="5.791021515785316" y2="-0.4064657545500667" stroke="black" stroke-width="0.021037923445401216" stroke-linecap="round"/><line x1="5.791021515785316" y1="-0.4064657545500667" x2="4.070292206732179" y2="2.0509903783169094" stroke="black" stroke-width="0.021037923445401216" stroke-linecap="round"/><line x1="4.070292206732179" y1="2.0509903783169094" x2="0.08003600569288194" y2="1.7719644833404087" stroke="black" stroke-width="0.021037923445401216" stroke-linecap="round"/><line x1="0.08003600569288194" y1="1.7719644833404087" x2="-0.37395449404666503" y2="0.8809579591520409" stroke="black" stroke-width="0.021037923445401216" stroke-linecap="round"/><line x1="-0.37395449404666503" y1="0.8809579591520409" x2="0.6858840344197448" y2="-0.815138233160811" stroke="black" stroke-width="0.021037923445401216" stroke-linecap="round"/><line x1="0.6858840344197448" y1="-0.815138233160811" x2="3.685427119888919" y2="-0.7627810138489606" stroke="black" stroke-width="0.021037923445401216" stroke-linecap="round"/><line x1="3.685427119888919" y1="-0.7627810138489606" x2="5.685427119888919" y2="2.7013206012887943" stroke="black" stroke-width="0.021037923445401216" stroke-linecap="round"/><line x1="5.685427119888919" y1="2.7013206012887943" x2="5.200617499642582" y2="3.57594030842819" stroke="black" stroke-width="0.021037923445401216" stroke-linecap="round"/><line x1="5.200617499642582" y1="3.57594030842819" x2="3.2018358456043905" y2="3.6457393018331934" stroke="black" stroke-width="0.021037923445401216" stroke-linecap="round"/><line x1="3.2018358456043905" y1="3.6457393018331934" x2="1.5679187405593096" y2="1.1297275979969212" stroke="black" stroke-width="0.021037923445401216" stroke-linecap="round"/><line x1="1.5679187405593096" y1="1.1297275979969212" x2="3.321403327715619" y2="-2.465448587199747" stroke="black" stroke-width="0.021037923445401216" stroke-linecap="round"/><line x1="3.321403327715619" y1="-2.465448587199747" x2="4.3175980258073645" y2="-2.552604329947405" stroke="black" stroke-width="0.021037923445401216" stroke-linecap="round"/><line x1="4.3175980258073645" y1="-2.552604329947405" x2="5.493168530392311" y2="-0.9345703411975104" stroke="black" stroke-width="0.021037923445401216" stroke-linecap="round"/><line x1="5.493168530392311" y1="-0.9345703411975104" x2="4.320975144924491" y2="1.8269442191598106" stroke="black" stroke-width="0.021037923445401216" stroke-linecap="round"/><line x1="4.320975144924491" y1="1.8269442191598106" x2="0.3599028699582094" y2="2.3836366230000703" stroke="black" stroke-width="0.021037923445401216" stroke-linecap="round"/><line x1="0.3599028699582094" y1="2.3836366230000703" x2="-0.2694175210916284" y2="1.6064906615430998" stroke="black" stroke-width="0.021037923445401216" stroke-linecap="round"/><line x1="-0.2694175210916284" y1="1.6064906615430998" x2="0.414622765559709" y2="-0.272894580028717" stroke="black" stroke-width="0.021037923445401216" stroke-linecap="round"/><line x1="0.414622765559709" y1="-0.272894580028717" x2="3.359504315902701" y2="-0.8453215661583517" stroke="black" stroke-width="0.021037923445401216" stroke-linecap="round"/><line x1="3.359504315902701" y1="-0.8453215661583517" x2="6.036026741338135" y2="2.1272577357512246" stroke="black" stroke-width="0.021037923445401216" stroke-linecap="round"/><line x1="6.036026741338135" y1="2.1272577357512246" x2="5.743655036615399" y2="3.08356249171426" stroke="black" stroke-width="0.021037923445401216" stroke-linecap="round"/><line x1="5.743655036615399" y1="3.08356249171426" x2="3.8030635840634064" y2="3.5674062829135957" stroke="black" stroke-width="0.021037923445401216" stroke-linecap="round"/><line x1="3.8030635840634064" y1="3.5674062829135957" x2="1.6817432405037636" y2="1.4460859393539538" stroke="black" stroke-width="0.021037923445401216" stroke-linecap="round"/><line x1="1.6817432405037636" y1="1.4460859393539538" x2="2.6494308229024344" y2="-2.435096965750032" stroke="black" stroke-width="0.021037923445401216" stroke-linecap="round"/><line x1="2.6494308229024344" y1="-2.435096965750032" x2="3.60573557886547" y2="-2.727468670472769" stroke="black" stroke-width="0.021037923445401216" stroke-linecap="round"/><line x1="3.60573557886547" y1="-2.727468670472769" x2="5.092025229820258" y2="-1.3892074577550524" stroke="black" stroke-width="0.021037923445401216" stroke-linecap="round"/><line x1="5.092025229820258" y1="-1.3892074577550524" x2="4.519598243690624" y2="1.5556740925879398" stroke="black" stroke-width="0.021037923445401216" stroke-linecap="round"/><line x1="4.519598243690624" y1="1.5556740925879398" x2="0.7608277605469915" y2="2.923754665890617" stroke="black" stroke-width="0.021037923445401216" stroke-linecap="round"/><line x1="0.7608277605469915" y1="2.923754665890617" x2="-0.016318200909979264" y2="2.2944342748407793" stroke="black" stroke-width="0.021037923445401216" stroke-linecap="round"/><line x1="-0.016318200909979264" y1="2.2944342748407793" x2="0.2620280010101516" y2="0.3138981373576386" stroke="black" stroke-width="0.021037923445401216" stroke-linecap="round"/><line x1="0.2620280010101516" y1="0.3138981373576386" x2="3.023542561367472" y2="-0.8582952481101831" stroke="black" stroke-width="0.021037923445401216" stroke-linecap="round"/><line x1="3.023542561367472" y1="-0.8582952481101831" x2="6.259610538867262" y2="1.492845761059709" stroke="black" stroke-width="0.021037923445401216" stroke-linecap="round"/><line x1="6.259610538867262" y1="1.492845761059709" x2="6.172454796119604" y2="2.4890404591514548" stroke="black" stroke-width="0.021037923445401216" stroke-linecap="round"/><line x1="6.172454796119604" y1="2.4890404591514548" x2="4.3748667035212705" y2="3.3657827527296105" stroke="black" stroke-width="0.021037923445401216" stroke-linecap="round"/><line x1="4.3748667035212705" y1="3.3657827527296105" x2="1.858854999684998" y2="1.7318656476845304" stroke="black" stroke-width="0.021037923445401216" stroke-linecap="round"/><line x1="1.858854999684998" y1="1.7318656476845304" x2="1.9984529864950018" y2="-2.2656976603918526" stroke="black" stroke-width="0.021037923445401216" stroke-linecap="round"/><line x1="1.9984529864950018" y1="-2.2656976603918526" x2="2.8730726936343975" y2="-2.75050728063819" stroke="black" stroke-width="0.021037923445401216" stroke-linecap="round"/><line x1="2.8730726936343975" y1="-2.75050728063819" x2="4.605123501203275" y2="-1.7505072806381903" stroke="black" stroke-width="0.021037923445401216" stroke-linecap="round"/><line x1="4.605123501203275" y1="-1.7505072806381903" x2="4.657480720515125" y2="1.2490358048309838" stroke="black" stroke-width="0.021037923445401216" stroke-linecap="round"/><line x1="4.657480720515125" y1="1.2490358048309838" x2="1.2652883358894216" y2="3.368712861763804" stroke="black" stroke-width="0.021037923445401216" stroke-linecap="round"/><line x1="1.2652883358894216" y1="3.368712861763804" x2="0.37428181170105357" y2="2.914722362024257" stroke="black" stroke-width="0.021037923445401216" stroke-linecap="round"/><line x1="0.37428181170105357" y1="2.914722362024257" x2="0.23476886421280405" y2="0.9195942615046084" stroke="black" stroke-width="0.021037923445401216" stroke-linecap="round"/><line x1="0.23476886421280405" y1="0.9195942615046084" x2="2.692224997079779" y2="-0.8011350475485297" stroke="black" stroke-width="0.021037923445401216" stroke-linecap="round"/><line x1="2.692224997079779" y1="-0.8011350475485297" x2="6.346406827650183" y2="0.8258115247546707" stroke="black" stroke-width="0.021037923445401216" stroke-linecap="round"/><line x1="6.346406827650183" y1="0.8258115247546707" x2="6.46827617105533" y2="1.8183576763959928" stroke="black" stroke-width="0.021037923445401216" stroke-linecap="round"/><line x1="6.46827617105533" y1="1.8183576763959928" x2="4.892254663841886" y2="3.0496806270473087" stroke="black" stroke-width="0.021037923445401216" stroke-linecap="round"/><line x1="4.892254663841886" y1="3.0496806270473087" x2="2.0915133843502796" y2="1.97457677841141" stroke="black" stroke-width="0.021037923445401216" stroke-linecap="round"/><line x1="2.0915133843502796" y1="1.97457677841141" x2="1.3969206736825543" y2="-1.9646542336374215" stroke="black" stroke-width="0.021037923445401216" stroke-linecap="round"/><line x1="1.3969206736825543" y1="-1.9646542336374215" x2="2.1516302539053265" y2="-2.6207132626279286" stroke="black" stroke-width="0.021037923445401216" stroke-linecap="round"/><line x1="2.1516302539053265" y1="-2.6207132626279286" x2="4.053743286495633" y2="-2.0026792738780337" stroke="black" stroke-width="0.021037923445401216" stroke-linecap="round"/><line x1="4.053743286495633" y1="-2.0026792738780337" x2="4.7285964495272275" y2="0.9204309204776719" stroke="black" stroke-width="0.021037923445401216" stroke-linecap="round"/><line x1="4.7285964495272275" y1="0.9204309204776719" x2="1.851237248172624" y2="3.699064402313662" stroke="black" stroke-width="0.021037923445401216" stroke-linecap="round"/><line x1="1.851237248172624" y1="3.699064402313662" x2="0.8853114218835558" y2="3.4402453572111407" stroke="black" stroke-width="0.021037923445401216" stroke-linecap="round"/><line x1="0.8853114218835558" y1="3.4402453572111407" x2="0.3340367102495563" y2="1.5177219653345033" stroke="black" stroke-width="0.021037923445401216" stroke-linecap="round"/><line x1="0.3340367102495563" y1="1.5177219653345033" x2="2.3800317904370516" y2="-0.6763391395230083" stroke="black" stroke-width="0.021037923445401216" stroke-linecap="round"/><line x1="2.3800317904370516" y1="-0.6763391395230083" x2="6.292622193372274" y2="0.1553076237480282" stroke="black" stroke-width="0.021037923445401216" stroke-linecap="round"/><line x1="6.292622193372274" y1="0.1553076237480282" x2="6.618190347829431" y2="1.100826199347345" stroke="black" stroke-width="0.021037923445401216" stroke-linecap="round"/><line x1="6.618190347829431" y1="1.100826199347345" x2="5.332615128456353" y2="2.632915085585301" stroke="black" stroke-width="0.021037923445401216" stroke-linecap="round"/><line x1="5.332615128456353" y1="2.632915085585301" x2="2.3695501066709395" y2="2.163611690464609" stroke="black" stroke-width="0.021037923445401216" stroke-linecap="round"/><line x1="2.3695501066709395" y1="2.163611690464609" x2="0.8711237330072901" y2="-1.5451237278025403" stroke="black" stroke-width="0.021037923445401216" stroke-linecap="round"/><line x1="0.8711237330072901" y1="-1.5451237278025403" x2="1.4729387561593383" y2="-2.343759237849833" stroke="black" stroke-width="0.021037923445401216" stroke-linecap="round"/><line x1="1.4729387561593383" y1="-2.343759237849833" x2="3.461982546895885" y2="-2.1347023113145265" stroke="black" stroke-width="0.021037923445401216" stroke-linecap="round"/><line x1="3.461982546895885" y1="-2.1347023113145265" x2="4.729837332117984" y2="0.5842210497954232" stroke="black" stroke-width="0.021037923445401216" stroke-linecap="round"/><line x1="4.729837332117984" y1="0.5842210497954232" x2="2.493065718234997" y2="3.9003713400155906" stroke="black" stroke-width="0.021037923445401216" stroke-linecap="round"/><line x1="2.493065718234997" y1="3.9003713400155906" x2="1.4944361834804232" y2="3.848035383772647" stroke="black" stroke-width="0.021037923445401216" stroke-linecap="round"/><line x1="1.4944361834804232" y1="3.848035383772647" x2="0.5554930579086416" y2="2.082140198054793" stroke="black" stroke-width="0.021037923445401216" stroke-linecap="round"/><line x1="0.5554930579086416" y1="2.082140198054793" x2="2.100607282638804" y2="-0.4893617040515439" stroke="black" stroke-width="0.021037923445401216" stroke-linecap="round"/><line x1="2.100607282638804" y1="-0.4893617040515439" x2="6.100607282638804" y2="-0.4893617040515441" stroke="black" stroke-width="0.021037923445401216" stroke-linecap="round"/><line x1="6.100607282638804" y1="-0.4893617040515441" x2="6.615645357548859" y2="0.3678055966505681" stroke="black" stroke-width="0.021037923445401216" stroke-linecap="round"/><line x1="6.615645357548859" y1="0.3678055966505681" x2="5.676702231977077" y2="2.1337007823684218" stroke="black" stroke-width="0.021037923445401216" stroke-linecap="round"/><line x1="5.676702231977077" y1="2.1337007823684218" x2="2.6808136277133556" y2="2.2907086510972547" stroke="black" stroke-width="0.021037923445401216" stroke-linecap="round"/><line x1="2.6808136277133556" y1="2.2907086510972547" x2="0.44404201383036623" y2="-1.0254416391229109" stroke="black" stroke-width="0.021037923445401216" stroke-linecap="round"/><line x1="0.44404201383036623" y1="-1.0254416391229109" x2="0.8666602755710657" y2="-1.931749426159561" stroke="black" stroke-width="0.021037923445401216" stroke-linecap="round"/><line x1="0.8666602755710657" y1="-1.931749426159561" x2="2.855704066307612" y2="-2.140806352694868" stroke="black" stroke-width="0.021037923445401216" stroke-linecap="round"/><line x1="2.855704066307612" y1="-2.140806352694868" x2="4.661149135763757" y2="0.25510017744701097" stroke="black" stroke-width="0.021037923445401216" stroke-linecap="round"/><line x1="4.661149135763757" y1="0.25510017744701097" x2="3.162722762100109" y2="3.9638355957141607" stroke="black" stroke-width="0.021037923445401216" stroke-linecap="round"/><line x1="3.162722762100109" y1="3.9638355957141607" x2="2.175034421504971" y2="4.120270060754391" stroke="black" stroke-width="0.021037923445401216" stroke-linecap="round"/><line x1="2.175034421504971" y1="4.120270060754391" x2="0.8894592021318919" y2="2.5881811745164356" stroke="black" stroke-width="0.021037923445401216" stroke-linecap="round"/><line x1="0.8894592021318919" y1="2.5881811745164356" x2="1.8661636655033618" y2="-0.24837455228151484" stroke="black" stroke-width="0.021037923445401216" stroke-linecap="round"/><line x1="1.8661636655033618" y1="-0.24837455228151484" x2="5.778754068438584" y2="-1.0800213155525527" stroke="black" stroke-width="0.021037923445401216" stroke-linecap="round"/><line x1="5.778754068438584" y1="-1.0800213155525527" x2="6.460752428501082" y2="-0.3486676139333822" stroke="black" stroke-width="0.021037923445401216" stroke-linecap="round"/><line x1="6.460752428501082" y1="-0.3486676139333822" x2="5.909477716867084" y2="1.5738557779432556" stroke="black" stroke-width="0.021037923445401216" stroke-linecap="round"/><line x1="5.909477716867084" y1="1.5738557779432556" x2="3.0117002379998787" y2="2.3503129132508174" stroke="black" stroke-width="0.021037923445401216" stroke-linecap="round"/><line x1="3.0117002379998787" y1="2.3503129132508174" x2="0.13434103664527175" y2="-0.428320568585169" stroke="black" stroke-width="0.021037923445401216" stroke-linecap="round"/><line x1="0.13434103664527175" y1="-0.428320568585169" x2="0.3592920909891367" y2="-1.4026906333704043" stroke="black" stroke-width="0.021037923445401216" stroke-linecap="round"/><line x1="0.3592920909891367" y1="-1.4026906333704043" x2="2.261405123579444" y2="-2.0207246221202992" stroke="black" stroke-width="0.021037923445401216" stroke-linecap="round"/><line x1="2.261405123579444" y1="-2.0207246221202992" x2="4.525533864247759" y2="-0.05254753514877675" stroke="black" stroke-width="0.021037923445401216" stroke-linecap="round"/><line x1="4.525533864247759" y1="-0.05254753514877675" x2="3.830941153580037" y2="3.886683476900055" stroke="black" stroke-width="0.021037923445401216" stroke-linecap="round"/><line x1="3.830941153580037" y1="3.886683476900055" x2="2.897360727082835" y2="4.245051426445356" stroke="black" stroke-width="0.021037923445401216" stroke-linecap="round"/><line x1="2.897360727082835" y1="4.245051426445356" x2="1.3213392198693916" y2="3.0137284757940384" stroke="black" stroke-width="0.021037923445401216" stroke-linecap="round"/><line x1="1.3213392198693916" y1="3.0137284757940384" x2="1.6869472500848341" y2="0.036090020870072514" stroke="black" stroke-width="0.021037923445401216" stroke-linecap="round"/><line x1="1.6869472500848341" y1="0.036090020870072514" x2="5.341129080655238" y2="-1.590856551433128" stroke="black" stroke-width="0.021037923445401216" stroke-linecap="round"/><line x1="5.341129080655238" y1="-1.590856551433128" x2="6.1602811249442295" y2="-1.0172801150820823" stroke="black" stroke-width="0.021037923445401216" stroke-linecap="round"/><line x1="6.1602811249442295" y1="-1.0172801150820823" x2="6.02076817745598" y2="0.9778479854375663" stroke="black" stroke-width="0.021037923445401216" stroke-linecap="round"/><line x1="6.02076817745598" y1="0.9778479854375663" x2="3.3477486048908767" y2="2.339819484656207" stroke="black" stroke-width="0.021037923445401216" stroke-linecap="round"/><line x1="3.3477486048908767" y1="2.339819484656207" x2="-0.044443779734827604" y2="0.22014242772338832" stroke="black" stroke-width="0.021037923445401216" stroke-linecap="round"/><line x1="-0.044443779734827604" y1="0.22014242772338832" x2="-0.026991373297544093" y2="-0.779705267433003" stroke="black" stroke-width="0.021037923445401216" stroke-linecap="round"/><line x1="-0.026991373297544093" y1="-0.779705267433003" x2="1.705059434271333" y2="-1.7797052674330032" stroke="black" stroke-width="0.021037923445401216" stroke-linecap="round"/><line x1="1.705059434271333" y1="-1.7797052674330032" x2="4.328918555689521" y2="-0.32527640669399216" stroke="black" stroke-width="0.021037923445401216" stroke-linecap="round"/><line x1="4.328918555689521" y1="-0.32527640669399216" x2="4.468516542499524" y2="3.6722869013823907" stroke="black" stroke-width="0.021037923445401216" stroke-linecap="round"/><line x1="4.468516542499524" y1="3.6722869013823907" x2="3.6298459745540996" y2="4.216925936397418" stroke="black" stroke-width="0.021037923445401216" stroke-linecap="round"/><line x1="3.6298459745540996" y1="4.216925936397418" x2="1.8322578819557656" y2="3.3401836428192633" stroke="black" stroke-width="0.021037923445401216" stroke-linecap="round"/><line x1="1.8322578819557656" y1="3.3401836428192633" x2="1.5707906537127907" y2="0.3515995485440264" stroke="black" stroke-width="0.021037923445401216" stroke-linecap="round"/><line x1="1.5707906537127907" y1="0.3515995485440264" x2="4.806858631212581" y2="-1.9995414606258661" stroke="black" stroke-width="0.021037923445401216" stroke-linecap="round"/><line x1="4.806858631212581" y1="-1.9995414606258661" x2="5.727363484665021" y2="-1.6088103321365925" stroke="black" stroke-width="0.021037923445401216" stroke-linecap="round"/><line x1="5.727363484665021" y1="-1.6088103321365925" x2="6.005709686585153" y2="0.371725805346548" stroke="black" stroke-width="0.021037923445401216" stroke-linecap="round"/><line x1="6.005709686585153" y1="0.371725805346548" x2="3.674271802214239" y2="2.259686978496059" stroke="black" stroke-width="0.021037923445401216" stroke-linecap="round"/><line x1="3.674271802214239" y1="2.259686978496059" x2="-0.08449868092939505" y2="0.8916064051933865" stroke="black" stroke-width="0.021037923445401216" stroke-linecap="round"/><line x1="-0.08449868092939505" y1="0.8916064051933865" x2="-0.2753076763059397" y2="-0.09002077825427746" stroke="black" stroke-width="0.021037923445401216" stroke-linecap="round"/><line x1="-0.2753076763059397" y1="-0.09002077825427746" x2="1.2109819746488488" y2="-1.428281990971994" stroke="black" stroke-width="0.021037923445401216" stroke-linecap="round"/><line x1="1.2109819746488488" y1="-1.428281990971994" x2="4.079896242537956" y2="-0.551166876803784" stroke="black" stroke-width="0.021037923445401216" stroke-linecap="round"/><line x1="4.079896242537956" y1="-0.551166876803784" x2="5.047583824936627" y2="3.330016028300202" stroke="black" stroke-width="0.021037923445401216" stroke-linecap="round"/><line x1="5.047583824936627" y1="3.330016028300202" x2="4.340477043750079" y2="4.03712280948675" stroke="black" stroke-width="0.021037923445401216" stroke-linecap="round"/><line x1="4.340477043750079" y1="4.03712280948675" x2="2.399885591198086" y2="3.553279018287415" stroke="black" stroke-width="0.021037923445401216" stroke-linecap="round"/><line x1="2.399885591198086" y1="3.553279018287415" x2="1.5227704770298771" y2="0.6843647503983079" stroke="black" stroke-width="0.021037923445401216" stroke-linecap="round"/><line x1="1.5227704770298771" y1="0.6843647503983079" x2="4.19929290246531" y2="-2.288214551511269" stroke="black" stroke-width="0.021037923445401216" stroke-linecap="round"/><line x1="4.19929290246531" y1="-2.288214551511269" x2="5.180920085912974" y2="-2.0974055561347242" stroke="black" stroke-width="0.021037923445401216" stroke-linecap="round"/><line x1="5.180920085912974" y1="-2.0974055561347242" x2="5.864960372564312" y2="-0.2180203145629076" stroke="black" stroke-width="0.021037923445401216" stroke-linecap="round"/><line x1="5.864960372564312" y1="-0.2180203145629076" x2="3.976999199414799" y2="2.1134175698080044" stroke="black" stroke-width="0.021037923445401216" stroke-linecap="round"/><line x1="3.976999199414799" y1="2.1134175698080044" x2="0.01592692444851762" y2="1.5567251659677426" stroke="black" stroke-width="0.021037923445401216" stroke-linecap="round"/><line x1="0.01592692444851762" y1="1.5567251659677426" x2="-0.3748042040407571" y2="0.6362203125153026" stroke="black" stroke-width="0.021037923445401216" stroke-linecap="round"/><line x1="-0.3748042040407571" y1="0.6362203125153026" x2="0.8007663005441892" y2="-0.9818136762345923" stroke="black" stroke-width="0.021037923445401216" stroke-linecap="round"/><line x1="0.8007663005441892" y1="-0.9818136762345923" x2="3.789350394819426" y2="-0.7203464479916175" stroke="black" stroke-width="0.021037923445401216" stroke-linecap="round"/><line x1="3.789350394819426" y1="-0.7203464479916175" x2="5.542834981975735" y2="2.874829737205051" stroke="black" stroke-width="0.021037923445401216" stroke-linecap="round"/><line x1="5.542834981975735" y1="2.874829737205051" x2="4.998195946960708" y2="3.713500305150475" stroke="black" stroke-width="0.021037923445401216" stroke-linecap="round"/><line x1="4.998195946960708" y1="3.713500305150475" x2="2.9994142929225163" y2="3.643701311745472" stroke="black" stroke-width="0.021037923445401216" stroke-linecap="round"/><line x1="2.9994142929225163" y1="3.643701311745472" x2="1.5449854321835055" y2="1.0198421903272847" stroke="black" stroke-width="0.021037923445401216" stroke-linecap="round"/><line x1="1.5449854321835055" y1="1.0198421903272847" x2="3.5449854321835055" y2="-2.44425942481047" stroke="black" stroke-width="0.021037923445401216" stroke-linecap="round"/><line x1="3.5449854321835055" y1="-2.44425942481047" x2="4.5448331273398965" y2="-2.4617118312477535" stroke="black" stroke-width="0.021037923445401216" stroke-linecap="round"/><line x1="4.5448331273398965" y1="-2.4617118312477535" x2="5.604671655806307" y2="-0.7656156389349016" stroke="black" stroke-width="0.021037923445401216" stroke-linecap="round"/><line x1="5.604671655806307" y1="-0.7656156389349016" x2="4.242700156587668" y2="1.9074039336302027" stroke="black" stroke-width="0.021037923445401216" stroke-linecap="round"/><line x1="4.242700156587668" y1="1.9074039336302027" x2="0.2524439555483715" y2="2.186429828606705" stroke="black" stroke-width="0.021037923445401216" stroke-linecap="round"/><line x1="0.2524439555483715" y1="2.186429828606705" x2="-0.321132480802675" y2="1.3672777843177135" stroke="black" stroke-width="0.021037923445401216" stroke-linecap="round"/><line x1="-0.321132480802675" y1="1.3672777843177135" x2="0.4923408053489253" y2="-0.4598131309674882" stroke="black" stroke-width="0.021037923445401216" stroke-linecap="round"/><line x1="0.4923408053489253" y1="-0.4598131309674882" x2="3.469979260272891" y2="-0.8254211611829307" stroke="black" stroke-width="0.021037923445401216" stroke-linecap="round"/><line x1="3.469979260272891" y1="-0.8254211611829307" x2="5.932625161575524" y2="2.3266218532439567" stroke="black" stroke-width="0.021037923445401216" stroke-linecap="round"/><line x1="5.932625161575524" y1="2.3266218532439567" x2="5.574257212030224" y2="3.2602022797411583" stroke="black" stroke-width="0.021037923445401216" stroke-linecap="round"/><line x1="5.574257212030224" y1="3.2602022797411583" x2="3.6046417060058076" y2="3.607498635075019" stroke="black" stroke-width="0.021037923445401216" stroke-linecap="round"/><line x1="3.6046417060058076" y1="3.607498635075019" x2="1.6364646190342853" y2="1.3433698944067034" stroke="black" stroke-width="0.021037923445401216" stroke-linecap="round"/><line x1="1.6364646190342853" y1="1.3433698944067034" x2="2.872532596534075" y2="-2.4608561707739107" stroke="black" stroke-width="0.021037923445401216" stroke-linecap="round"/><line x1="2.872532596534075" y1="-2.4608561707739107" x2="3.8469026613193105" y2="-2.6858072251177756" stroke="black" stroke-width="0.021037923445401216" stroke-linecap="round"/><line x1="3.8469026613193105" y1="-2.6858072251177756" x2="5.236219402237305" y2="-1.247127624440473" stroke="black" stroke-width="0.021037923445401216" stroke-linecap="round"/><line x1="5.236219402237305" y1="-1.247127624440473" x2="4.459762266929744" y2="1.650649854426732" stroke="black" stroke-width="0.021037923445401216" stroke-linecap="round"/><line x1="4.459762266929744" y1="1.650649854426732" x2="0.6147154831764681" y2="2.7531992776947276" stroke="black" stroke-width="0.021037923445401216" stroke-linecap="round"/><line x1="0.6147154831764681" y1="2.7531992776947276" x2="-0.11663821844270295" y2="2.0712009176322295" stroke="black" stroke-width="0.021037923445401216" stroke-linecap="round"/><line x1="-0.11663821844270295" y1="2.0712009176322295" x2="0.2991851631928157" y2="0.11490571616461809" stroke="black" stroke-width="0.021037923445401216" stroke-linecap="round"/><line x1="0.2991851631928157" y1="0.11490571616461809" x2="3.135740889990766" y2="-0.8617987472068522" stroke="black" stroke-width="0.021037923445401216" stroke-linecap="round"/><line x1="3.135740889990766" y1="-0.8617987472068522" x2="6.199918662466678" y2="1.7093516915393052" stroke="black" stroke-width="0.021037923445401216" stroke-linecap="round"/><line x1="6.199918662466678" y1="1.7093516915393052" x2="6.043484197426448" y2="2.697040032134443" stroke="black" stroke-width="0.021037923445401216" stroke-linecap="round"/><line x1="6.043484197426448" y1="2.697040032134443" x2="4.189116488292873" y2="3.446253218966268" stroke="black" stroke-width="0.021037923445401216" stroke-linecap="round"/><line x1="4.189116488292873" y1="3.446253218966268" x2="1.7932099581509942" y2="1.640808149510124" stroke="black" stroke-width="0.021037923445401216" stroke-linecap="round"/><line x1="1.7932099581509942" y1="1.640808149510124" x2="2.211323811221608" y2="-2.337279431962969" stroke="black" stroke-width="0.021037923445401216" stroke-linecap="round"/><line x1="2.211323811221608" y1="-2.337279431962969" x2="3.117631598258258" y2="-2.7598976937036683" stroke="black" stroke-width="0.021037923445401216" stroke-linecap="round"/><line x1="3.117631598258258" y1="-2.7598976937036683" x2="4.7757067433683416" y2="-1.641511886762175" stroke="black" stroke-width="0.021037923445401216" stroke-linecap="round"/><line x1="4.7757067433683416" y1="-1.641511886762175" x2="4.618698874639511" y2="1.3543767175015466" stroke="black" stroke-width="0.021037923445401216" stroke-linecap="round"/><line x1="4.618698874639511" y1="1.3543767175015466" x2="1.0869085032038033" y2="3.2322629686451094" stroke="black" stroke-width="0.021037923445401216" stroke-linecap="round"/><line x1="1.0869085032038033" y1="3.2322629686451094" x2="0.22974120250169094" y2="2.717224893735055" stroke="black" stroke-width="0.021037923445401216" stroke-linecap="round"/><line x1="0.22974120250169094" y1="2.717224893735055" x2="0.22974120250169094" y2="0.7172248937350552" stroke="black" stroke-width="0.021037923445401216" stroke-linecap="round"/><line x1="0.22974120250169094" y1="0.7172248937350552" x2="2.8012431046080275" y2="-0.8278893309951081" stroke="black" stroke-width="0.021037923445401216" stroke-linecap="round"/><line x1="2.8012431046080275" y1="-0.8278893309951081" x2="6.333033476043736" y2="1.049996920148454" stroke="black" stroke-width="0.021037923445401216" stroke-linecap="round"/><line x1="6.333033476043736" y1="1.049996920148454" x2="6.38536943228668" y2="2.0486264549030277" stroke="black" stroke-width="0.021037923445401216" stroke-linecap="round"/><line x1="6.38536943228668" y1="2.0486264549030277" x2="4.727294287176598" y2="3.1670122618445222" stroke="black" stroke-width="0.021037923445401216" stroke-linecap="round"/><line x1="4.727294287176598" y1="3.1670122618445222" x2="2.0083709260666485" y2="1.8991574766224235" stroke="black" stroke-width="0.021037923445401216" stroke-linecap="round"/><line x1="2.0083709260666485" y1="1.8991574766224235" x2="1.5902570729960348" y2="-2.0789301048506696" stroke="black" stroke-width="0.021037923445401216" stroke-linecap="round"/><line x1="1.5902570729960348" y1="-2.0789301048506696" x2="2.3888925830433276" y2="-2.680745128002718" stroke="black" stroke-width="0.021037923445401216" stroke-linecap="round"/><line x1="2.3888925830433276" y1="-2.680745128002718" x2="4.2432602921769025" y2="-1.931531941170894" stroke="black" stroke-width="0.021037923445401216" stroke-linecap="round"/><line x1="4.2432602921769025" y1="-1.931531941170894" x2="4.712563687297595" y2="1.0315330806145189" stroke="black" stroke-width="0.021037923445401216" stroke-linecap="round"/><line x1="4.712563687297595" y1="1.0315330806145189" x2="1.6483859148216835" y2="3.602683519360677" stroke="black" stroke-width="0.021037923445401216" stroke-linecap="round"/><line x1="1.6483859148216835" y1="3.602683519360677" x2="0.7028673392223665" y2="3.2771153649035205" stroke="black" stroke-width="0.021037923445401216" stroke-linecap="round"/><line x1="0.7028673392223665" y1="3.2771153649035205" x2="0.2870439575868468" y2="1.3208201634359094" stroke="black" stroke-width="0.021037923445401216" stroke-linecap="round"/><line x1="0.2870439575868468" y1="1.3208201634359094" x2="2.4811050624443585" y2="-0.725174916751586" stroke="black" stroke-width="0.021037923445401216" stroke-linecap="round"/><line x1="2.4811050624443585" y1="-0.725174916751586" x2="6.326151846197634" y2="0.37737450651641025" stroke="black" stroke-width="0.021037923445401216" stroke-linecap="round"/><line x1="6.326151846197634" y1="0.37737450651641025" x2="6.584970891300155" y2="1.3433003328054784" stroke="black" stroke-width="0.021037923445401216" stroke-linecap="round"/><line x1="6.584970891300155" y1="1.3433003328054784" x2="5.19565415038216" y2="2.7819799334827806" stroke="black" stroke-width="0.021037923445401216" stroke-linecap="round"/><line x1="5.19565415038216" y1="2.7819799334827806" x2="2.2725439560264546" y2="2.1071267704511856" stroke="black" stroke-width="0.021037923445401216" stroke-linecap="round"/><line x1="2.2725439560264546" y1="2.1071267704511856" x2="1.0364759785266642" y2="-1.6970992947294286" stroke="black" stroke-width="0.021037923445401216" stroke-linecap="round"/><line x1="1.0364759785266642" y1="-1.6970992947294286" x2="1.6925350075171712" y2="-2.4518088749522007" stroke="black" stroke-width="0.021037923445401216" stroke-linecap="round"/><line x1="1.6925350075171712" y1="-2.4518088749522007" x2="3.6621505135415875" y2="-2.10451251961834" stroke="black" stroke-width="0.021037923445401216" stroke-linecap="round"/><line x1="3.6621505135415875" y1="-2.10451251961834" x2="4.737254362177488" y2="0.6962287598732653" stroke="black" stroke-width="0.021037923445401216" stroke-linecap="round"/><line x1="4.737254362177488" y1="0.6962287598732653" x2="2.2746084608748567" y2="3.848271774300154" stroke="black" stroke-width="0.021037923445401216" stroke-linecap="round"/><line x1="2.2746084608748567" y1="3.848271774300154" x2="1.2820623092335346" y2="3.7264024308950066" stroke="black" stroke-width="0.021037923445401216" stroke-linecap="round"/><line x1="1.2820623092335346" y1="3.7264024308950066" x2="0.4685890230819343" y2="1.8993115156098046" stroke="black" stroke-width="0.021037923445401216" stroke-linecap="round"/><line x1="0.4685890230819343" y1="1.8993115156098046" x2="2.1893183321350724" y2="-0.5581446172571707" stroke="black" stroke-width="0.021037923445401216" stroke-linecap="round"/><line x1="2.1893183321350724" y1="-0.5581446172571707" x2="6.179574533174369" y2="-0.27911872228066936" stroke="black" stroke-width="0.021037923445401216" stroke-linecap="round"/><line x1="6.179574533174369" y1="-0.27911872228066936" x2="6.633565032913916" y2="0.6118878019076984" stroke="black" stroke-width="0.021037923445401216" stroke-linecap="round"/><line x1="6.633565032913916" y1="0.6118878019076984" x2="5.573726504447507" y2="2.3079839942205504" stroke="black" stroke-width="0.021037923445401216" stroke-linecap="round"/><line x1="5.573726504447507" y1="2.3079839942205504" x2="2.5741834189783326" y2="2.255626774908701" stroke="black" stroke-width="0.021037923445401216" stroke-linecap="round"/><line x1="2.5741834189783326" y1="2.255626774908701" x2="0.5741834189783308" y2="-1.2084748402290524" stroke="black" stroke-width="0.021037923445401216" stroke-linecap="round"/><line x1="0.5741834189783308" y1="-1.2084748402290524" x2="1.0589930392246678" y2="-2.0830945473684483" stroke="black" stroke-width="0.021037923445401216" stroke-linecap="round"/><line x1="1.0589930392246678" y1="-2.0830945473684483" x2="3.0577746932628593" y2="-2.1528935407734506" stroke="black" stroke-width="0.021037923445401216" stroke-linecap="round"/><line x1="3.0577746932628593" y1="-2.1528935407734506" x2="4.691691798307939" y2="0.36311816306282196" stroke="black" stroke-width="0.021037923445401216" stroke-linecap="round"/><line x1="4.691691798307939" y1="0.36311816306282196" x2="2.938207211151631" y2="3.9582943482594906" stroke="black" stroke-width="0.021037923445401216" stroke-linecap="round"/><line x1="2.938207211151631" y1="3.9582943482594906" x2="1.9420125130598855" y2="4.045450091007149" stroke="black" stroke-width="0.021037923445401216" stroke-linecap="round"/><line x1="1.9420125130598855" y1="4.045450091007149" x2="0.7664420084749388" y2="2.4274161022572542" stroke="black" stroke-width="0.021037923445401216" stroke-linecap="round"/><line x1="0.7664420084749388" y1="2.4274161022572542" x2="1.93863539394276" y2="-0.3340984581000668" stroke="black" stroke-width="0.021037923445401216" stroke-linecap="round"/><line x1="1.93863539394276" y1="-0.3340984581000668" x2="5.899707668909041" y2="-0.8907908619403295" stroke="black" stroke-width="0.021037923445401216" stroke-linecap="round"/><line x1="5.899707668909041" y1="-0.8907908619403295" x2="6.529028059958879" y2="-0.11364490048335885" stroke="black" stroke-width="0.021037923445401216" stroke-linecap="round"/><line x1="6.529028059958879" y1="-0.11364490048335885" x2="5.844987773307542" y2="1.765740341088458" stroke="black" stroke-width="0.021037923445401216" stroke-linecap="round"/><line x1="5.844987773307542" y1="1.765740341088458" x2="2.9001062229645505" y2="2.3381673272180943" stroke="black" stroke-width="0.021037923445401216" stroke-linecap="round"/><line x1="2.9001062229645505" y1="2.3381673272180943" x2="0.22358379752911794" y2="-0.6344119746914827" stroke="black" stroke-width="0.021037923445401216" stroke-linecap="round"/><line x1="0.22358379752911794" y1="-0.6344119746914827" x2="0.5159555022518547" y2="-1.5907167306545182" stroke="black" stroke-width="0.021037923445401216" stroke-linecap="round"/><line x1="0.5159555022518547" y1="-1.5907167306545182" x2="2.456546954803848" y2="-2.074560521853854" stroke="black" stroke-width="0.021037923445401216" stroke-linecap="round"/><line x1="2.456546954803848" y1="-2.074560521853854" x2="4.577867298363491" y2="0.04675982170578852" stroke="black" stroke-width="0.021037923445401216" stroke-linecap="round"/><line x1="4.577867298363491" y1="0.04675982170578852" x2="3.610179715964821" y2="3.927942726809775" stroke="black" stroke-width="0.021037923445401216" stroke-linecap="round"/><line x1="3.610179715964821" y1="3.927942726809775" x2="2.6538749600017857" y2="4.220314431532512" stroke="black" stroke-width="0.021037923445401216" stroke-linecap="round"/><line x1="2.6538749600017857" y1="4.220314431532512" x2="1.1675853090469965" y2="2.8820532188147965" stroke="black" stroke-width="0.021037923445401216" stroke-linecap="round"/><line x1="1.1675853090469965" y1="2.8820532188147965" x2="1.7400122951766308" y2="-0.06282833152819567" stroke="black" stroke-width="0.021037923445401216" stroke-linecap="round"/><line x1="1.7400122951766308" y1="-0.06282833152819567" x2="5.498782778320264" y2="-1.430908904830871" stroke="black" stroke-width="0.021037923445401216" stroke-linecap="round"/><line x1="5.498782778320264" y1="-1.430908904830871" x2="6.2759287397772345" y2="-0.8015885137810337" stroke="black" stroke-width="0.021037923445401216" stroke-linecap="round"/><line x1="6.2759287397772345" y1="-0.8015885137810337" x2="5.997582537857103" y2="1.1789476237021068" stroke="black" stroke-width="0.021037923445401216" stroke-linecap="round"/><line x1="5.997582537857103" y1="1.1789476237021068" x2="3.2360679774997827" y2="2.351141009169928" stroke="black" stroke-width="0.021037923445401216" stroke-linecap="round"/><line x1="3.2360679774997827" y1="2.351141009169928" x2="-7.549516567451064e-15" y2="3.6415315207705135e-14" stroke="black" stroke-width="0.021037923445401216" stroke-linecap="round"/></svg>