<?xml version="1.0" encoding="UTF-8"?><svg viewBox="-0.4591657349737731 -2.395749907627658 6.281169855910679 6.343359656464247" xmlns="http://www.w3.org/2000/svg"><line x1="0" y1="0" x2="0.08715574274765817" y2="-0.9961946980917455" stroke="black" stroke-width="0.018656940166071313" stroke-linecap="round"/><line x1="0.08715574274765817" y1="-0.9961946980917455" x2="1.966540984319475" y2="-0.3121544114404081" stroke="black" stroke-width="0.018656940166071313" stroke-linecap="round"/><line x1="1.966540984319475" y1="-0.3121544114404081" x2="0.24581167526633751" y2="2.145301721426568" stroke="black" stroke-width="0.018656940166071313" stroke-linecap="round"/><line x1="0.24581167526633751" y1="2.145301721426568" x2="-0.39697593442020207" y2="1.3792572783075903" stroke="black" stroke-width="0.018656940166071313" stroke-linecap="round"/><line x1="-0.39697593442020207" y1="1.3792572783075903" x2="1.4156396396530977" y2="0.5340207548261914" stroke="black" stroke-width="0.018656940166071313" stroke-linecap="round"/><line x1="1.4156396396530977" y1="0.5340207548261914" x2="1.9365841726538884" y2="3.488444013862815" stroke="black" stroke-width="0.018656940166071313" stroke-linecap="round"/><line x1="1.9365841726538884" y1="3.488444013862815" x2="0.9403894745621428" y2="3.4012882711151575" stroke="black" stroke-width="0.018656940166071313" stroke-linecap="round"/><line x1="0.9403894745621428" y1="3.4012882711151575" x2="1.6244297612134804" y2="1.5219030295433407" stroke="black" stroke-width="0.018656940166071313" stroke-linecap="round"/><line x1="1.6244297612134804" y1="1.5219030295433407" x2="4.0818858940804565" y2="3.2426323385964784" stroke="black" stroke-width="0.018656940166071313" stroke-linecap="round"/><line x1="4.0818858940804565" y1="3.2426323385964784" x2="3.3158414509614786" y2="3.885419948283018" stroke="black" stroke-width="0.018656940166071313" stroke-linecap="round"/><line x1="3.3158414509614786" y1="3.885419948283018" x2="2.4706049274800788" y2="2.072804374209719" stroke="black" stroke-width="0.018656940166071313" stroke-linecap="round"/><line x1="2.4706049274800788" y1="2.072804374209719" x2="5.425028186516703" y2="1.5518598412089277" stroke="black" stroke-width="0.018656940166071313" stroke-linecap="round"/><line x1="5.425028186516703" y1="1.5518598412089277" x2="5.337872443769045" y2="2.548054539300673" stroke="black" stroke-width="0.018656940166071313" stroke-linecap="round"/><line x1="5.337872443769045" y1="2.548054539300673" x2="3.4584872021972277" y2="1.8640142526493366" stroke="black" stroke-width="0.018656940166071313" stroke-linecap="round"/><line x1="3.4584872021972277" y1="1.8640142526493366" x2="5.179216511250366" y2="-0.5934418802176387" stroke="black" stroke-width="0.018656940166071313" stroke-linecap="round"/><line x1="5.179216511250366" y1="-0.5934418802176387" x2="5.822004120936906" y2="0.17260256290133924" stroke="black" stroke-width="0.018656940166071313" stroke-linecap="round"/><line x1="5.822004120936906" y1="0.17260256290133924" x2="4.009388546863606" y2="1.0178390863827391" stroke="black" stroke-width="0.018656940166071313" stroke-linecap="round"/><line x1="4.009388546863606" y1="1.0178390863827391" x2="3.4884440138628126" y2="-1.9365841726538844" stroke="black" stroke-width="0.018656940166071313" stroke-linecap="round"/><line x1="3.4884440138628126" y1="-1.9365841726538844" x2="4.484638711954558" y2="-1.8494284299062262" stroke="black" stroke-width="0.018656940166071313" stroke-linecap="round"/><line x1="4.484638711954558" y1="-1.8494284299062262" x2="3.8005984253032206" y2="0.02995681166559061" stroke="black" stroke-width="0.018656940166071313" stroke-linecap="round"/><line x1="3.8005984253032206" y1="0.02995681166559061" x2="1.3431422924362453" y2="-1.6907724973875475" stroke="black" stroke-width="0.018656940166071313" stroke-linecap="round"/><line x1="1.3431422924362453" y1="-1.6907724973875475" x2="2.109186735555223" y2="-2.333560107074087" stroke="black" stroke-width="0.018656940166071313" stroke-linecap="round"/><line x1="2.109186735555223" y1="-2.333560107074087" x2="2.954423259036622" y2="-0.5209445330007869" stroke="black" stroke-width="0.018656940166071313" stroke-linecap="round"/><line x1="2.954423259036622" y1="-0.5209445330007869" x2="-1.7763568394002505e-15" y2="4.107825191113079e-15" stroke="black" stroke-width="0.018656940166071313" stroke-linecap="round"/></svg>