<?xml version="1.0" encoding="UTF-8"?><svg viewBox="-2.2663155829886867 -4.327168387101484 5.694984785797133 5.574562216608932" xmlns="http://www.w3.org/2000/svg"><line x1="0" y1="0" x2="0.08715574274765817" y2="-0.9961946980917455" stroke="black" stroke-width="0.016395771225320387" stroke-linecap="round"/><line x1="0.08715574274765817" y1="-0.9961946980917455" x2="1.5965749031932017" y2="0.31592335988926945" stroke="black" stroke-width="0.016395771225320387" stroke-linecap="round"/><line x1="1.5965749031932017" y1="0.31592335988926945" x2="-1.3265352911625035" y2="0.9907765229208652" stroke="black" stroke-width="0.016395771225320387" stroke-linecap="round"/><line x1="-1.3265352911625035" y1="0.9907765229208652" x2="0.2363892227945914" y2="-2.6912428908888963" stroke="black" stroke-width="0.016395771225320387" stroke-linecap="round"/><line x1="0.2363892227945914" y1="-2.6912428908888963" x2="0.7514272977046458" y2="-1.8340755901867842" stroke="black" stroke-width="0.016395771225320387" stroke-linecap="round"/><line x1="0.7514272977046458" y1="-1.8340755901867842" x2="-1.2409620984788452" y2="-2.0083870756821" stroke="black" stroke-width="0.016395771225320387" stroke-linecap="round"/><line x1="-1.2409620984788452" y1="-2.0083870756821" x2="0.7272149884926762" y2="-4.272515816350416" stroke="black" stroke-width="0.016395771225320387" stroke-linecap="round"/><line x1="0.7272149884926762" y1="-4.272515816350416" x2="1.6270192058681352" y2="-0.375035557209475" stroke="black" stroke-width="0.016395771225320387" stroke-linecap="round"/><line x1="1.6270192058681352" y1="-0.375035557209475" x2="0.7065143524156947" y2="-0.7657666856987485" stroke="black" stroke-width="0.016395771225320387" stroke-linecap="round"/><line x1="0.7065143524156947" y1="-0.7657666856987485" x2="2.4208489538199194" y2="-1.7958428355188572" stroke="black" stroke-width="0.016395771225320387" stroke-linecap="round"/><line x1="2.4208489538199194" y1="-1.7958428355188572" x2="2.1593817255769454" y2="1.1927412587563797" stroke="black" stroke-width="0.016395771225320387" stroke-linecap="round"/><line x1="2.1593817255769454" y1="1.1927412587563797" x2="-0.8594565953141431" y2="-1.4314948572056485" stroke="black" stroke-width="0.016395771225320387" stroke-linecap="round"/><line x1="-0.8594565953141431" y1="-1.4314948572056485" x2="0.11491346947109216" y2="-1.6564459115495134" stroke="black" stroke-width="0.016395771225320387" stroke-linecap="round"/><line x1="0.11491346947109216" y1="-1.6564459115495134" x2="-0.6665487875074549" y2="0.18456379535536738" stroke="black" stroke-width="0.016395771225320387" stroke-linecap="round"/><line x1="-0.6665487875074549" y1="0.18456379535536738" x2="-2.2116630122376186" y2="-2.3869381067509687" stroke="black" stroke-width="0.016395771225320387" stroke-linecap="round"/><line x1="-2.2116630122376186" y1="-2.3869381067509687" x2="1.7731157801293636" y2="-2.0383151357603357" stroke="black" stroke-width="0.016395771225320387" stroke-linecap="round"/><line x1="1.7731157801293636" y1="-2.0383151357603357" x2="1.1170567511388563" y2="-1.2836055555375638" stroke="black" stroke-width="0.016395771225320387" stroke-linecap="round"/><line x1="1.1170567511388563" y1="-1.2836055555375638" x2="0.6671546424511257" y2="-3.232345685108034" stroke="black" stroke-width="0.016395771225320387" stroke-linecap="round"/><line x1="0.6671546424511257" y1="-3.232345685108034" x2="3.4286692028084467" y2="-2.060152299640213" stroke="black" stroke-width="0.016395771225320387" stroke-linecap="round"/><line x1="3.4286692028084467" y1="-2.060152299640213" x2="-1.7763568394002505e-15" y2="4.884981308350689e-15" stroke="black" stroke-width="0.016395771225320387" stroke-linecap="round"/></svg>