<?xml version="1.0" encoding="UTF-8"?><svg viewBox="-0.11351836821936662 -1.442605938599099 2.020006264044121 2.040006326064368" xmlns="http://www.w3.org/2000/svg"><line x1="0" y1="0" x2="0.08715574274765817" y2="-0.9961946980917455" stroke="black" stroke-width="0.0060000186060716705" stroke-linecap="round"/><line x1="0.08715574274765817" y1="-0.9961946980917455" x2="1.705189731497553" y2="0.1793758064932005" stroke="black" stroke-width="0.0060000186060716705" stroke-linecap="round"/><line x1="1.705189731497553" y1="0.1793758064932005" x2="0.7846848780451128" y2="0.5701069349824743" stroke="black" stroke-width="0.0060000186060716705" stroke-linecap="round"/><line x1="0.7846848780451128" y1="0.5701069349824743" x2="1.0630310799652436" y2="-1.4104292025006664" stroke="black" stroke-width="0.0060000186060716705" stroke-linecap="round"/><line x1="1.0630310799652436" y1="-1.4104292025006664" x2="1.8401770414222147" y2="-0.7811088114508291" stroke="black" stroke-width="0.0060000186060716705" stroke-linecap="round"/><line x1="1.8401770414222147" y1="-0.7811088114508291" x2="-0.03920820014960169" y2="-0.09706852479949035" stroke="black" stroke-width="0.0060000186060716705" stroke-linecap="round"/><line x1="-0.03920820014960169" y1="-0.09706852479949035" x2="0.1516007952269431" y2="-1.0786957082471544" stroke="black" stroke-width="0.0060000186060716705" stroke-linecap="round"/><line x1="0.1516007952269431" y1="-1.0786957082471544" x2="1.6378904461817316" y2="0.25956550447056204" stroke="black" stroke-width="0.0060000186060716705" stroke-linecap="round"/><line x1="1.6378904461817316" y1="0.25956550447056204" x2="0.6815856902186963" y2="0.5519372091932991" stroke="black" stroke-width="0.0060000186060716705" stroke-linecap="round"/><line x1="0.6815856902186963" y1="0.5519372091932991" x2="1.1654294814180317" y2="-1.388654243358694" stroke="black" stroke-width="0.0060000186060716705" stroke-linecap="round"/><line x1="1.1654294814180317" y1="-1.388654243358694" x2="1.8725362626045792" y2="-0.6815474621721465" stroke="black" stroke-width="0.0060000186060716705" stroke-linecap="round"/><line x1="1.8725362626045792" y1="-0.6815474621721465" x2="-0.06805518994741377" y2="-0.19770367097281089" stroke="black" stroke-width="0.0060000186060716705" stroke-linecap="round"/><line x1="-0.06805518994741377" y1="-0.19770367097281089" x2="0.224316514775323" y2="-1.1540084269358464" stroke="black" stroke-width="0.0060000186060716705" stroke-linecap="round"/><line x1="0.224316514775323" y1="-1.1540084269358464" x2="1.56257772749304" y2="0.3322812240189419" stroke="black" stroke-width="0.0060000186060716705" stroke-linecap="round"/><line x1="1.56257772749304" y1="0.3322812240189419" x2="0.580950544045376" y2="0.5230902193954874" stroke="black" stroke-width="0.0060000186060716705" stroke-linecap="round"/><line x1="0.580950544045376" y1="0.5230902193954874" x2="1.2649908306967135" y2="-1.3562950221763295" stroke="black" stroke-width="0.0060000186060716705" stroke-linecap="round"/><line x1="1.2649908306967135" y1="-1.3562950221763295" x2="1.8943112217465512" y2="-0.5791490607193588" stroke="black" stroke-width="0.0060000186060716705" stroke-linecap="round"/><line x1="1.8943112217465512" y1="-0.5791490607193588" x2="-0.08622491573658952" y2="-0.3008028587992289" stroke="black" stroke-width="0.0060000186060716705" stroke-linecap="round"/><line x1="-0.08622491573658952" y1="-0.3008028587992289" x2="0.3045062127526842" y2="-1.2213077122516693" stroke="black" stroke-width="0.0060000186060716705" stroke-linecap="round"/><line x1="0.3045062127526842" y1="-1.2213077122516693" x2="1.4800767173376306" y2="0.39672627649822534" stroke="black" stroke-width="0.0060000186060716705" stroke-linecap="round"/><line x1="1.4800767173376306" y1="0.39672627649822534" x2="0.48388201924588503" y2="0.4838820192458836" stroke="black" stroke-width="0.0060000186060716705" stroke-linecap="round"/><line x1="0.48388201924588503" y1="0.4838820192458836" x2="1.3606243128240398" y2="-1.3137060733524506" stroke="black" stroke-width="0.0060000186060716705" stroke-linecap="round"/><line x1="1.3606243128240398" y1="-1.3137060733524506" x2="1.9052633478390666" y2="-0.47503550540702644" stroke="black" stroke-width="0.0060000186060716705" stroke-linecap="round"/><line x1="1.9052633478390666" y1="-0.47503550540702644" x2="-0.09351830619912471" y2="-0.40523651200202315" stroke="black" stroke-width="0.0060000186060716705" stroke-linecap="round"/><line x1="-0.09351830619912471" y1="-0.40523651200202315" x2="0.39129131404721235" y2="-1.279856219141419" stroke="black" stroke-width="0.0060000186060716705" stroke-linecap="round"/><line x1="0.39129131404721235" y1="-1.279856219141419" x2="1.3912913140472123" y2="0.4521945884274585" stroke="black" stroke-width="0.0060000186060716705" stroke-linecap="round"/><line x1="1.3912913140472123" y1="0.4521945884274585" x2="0.391443618890821" y2="0.4347421819901754" stroke="black" stroke-width="0.0060000186060716705" stroke-linecap="round"/><line x1="0.391443618890821" y1="0.4347421819901754" x2="1.4512821473572308" y2="-1.2613540103226766" stroke="black" stroke-width="0.0060000186060716705" stroke-linecap="round"/><line x1="1.4512821473572308" y1="-1.2613540103226766" x2="1.9052726470967776" y2="-0.3703474861343088" stroke="black" stroke-width="0.0060000186060716705" stroke-linecap="round"/><line x1="1.9052726470967776" y1="-0.3703474861343088" x2="-0.08985545342287105" y2="-0.5098604336225592" stroke="black" stroke-width="0.0060000186060716705" stroke-linecap="round"/><line x1="-0.08985545342287105" y1="-0.5098604336225592" x2="0.483720982928175" y2="-1.3290124779115509" stroke="black" stroke-width="0.0060000186060716705" stroke-linecap="round"/><line x1="0.483720982928175" y1="-1.3290124779115509" x2="1.297194269079776" y2="0.49807843737365065" stroke="black" stroke-width="0.0060000186060716705" stroke-linecap="round"/><line x1="1.297194269079776" y1="0.49807843737365065" x2="0.304648117438454" y2="0.376209093968503" stroke="black" stroke-width="0.0060000186060716705" stroke-linecap="round"/><line x1="0.304648117438454" y1="0.376209093968503" x2="1.5359710680897702" y2="-1.199812413244941" stroke="black" stroke-width="0.0060000186060716705" stroke-linecap="round"/><line x1="1.5359710680897702" y1="-1.199812413244941" x2="1.8943390176350705" y2="-0.2662319867477393" stroke="black" stroke-width="0.0060000186060716705" stroke-linecap="round"/><line x1="1.8943390176350705" y1="-0.2662319867477393" x2="-0.07527648838934575" y2="-0.6135283420815992" stroke="black" stroke-width="0.0060000186060716705" stroke-linecap="round"/><line x1="-0.07527648838934575" y1="-0.6135283420815992" x2="0.5807825406011614" y2="-1.3682379223043712" stroke="black" stroke-width="0.0060000186060716705" stroke-linecap="round"/><line x1="0.5807825406011614" y1="-1.3682379223043712" x2="1.1988165293510564" y2="0.5338751102859358" stroke="black" stroke-width="0.0060000186060716705" stroke-linecap="round"/><line x1="1.1988165293510564" y1="0.5338751102859358" x2="0.22444646456582118" y2="0.3089240559420709" stroke="black" stroke-width="0.0060000186060716705" stroke-linecap="round"/><line x1="0.22444646456582118" y1="0.3089240559420709" x2="1.6137632054838158" y2="-1.1297555447352314" stroke="black" stroke-width="0.0060000186060716705" stroke-linecap="round"/><line x1="1.6137632054838158" y1="-1.1297555447352314" x2="1.8725822505863368" y2="-0.16382971844616323" stroke="black" stroke-width="0.0060000186060716705" stroke-linecap="round"/><line x1="1.8725822505863368" y1="-0.16382971844616323" x2="-0.049941141290300806" y2="-0.715104430080162" stroke="black" stroke-width="0.0060000186060716705" stroke-linecap="round"/><line x1="-0.049941141290300806" y1="-0.715104430080162" x2="0.6814125603288697" y2="-1.3971027901426605" stroke="black" stroke-width="0.0060000186060716705" stroke-linecap="round"/><line x1="0.6814125603288697" y1="-1.3971027901426605" x2="1.0972359419643882" y2="0.5591924113249509" stroke="black" stroke-width="0.0060000186060716705" stroke-linecap="round"/><line x1="1.0972359419643882" y1="0.5591924113249509" x2="0.15171736636507127" y2="0.2336242568677946" stroke="black" stroke-width="0.0060000186060716705" stroke-linecap="round"/><line x1="0.15171736636507127" y1="0.2336242568677946" x2="1.6838062526030273" y2="-1.051950962505284" stroke="black" stroke-width="0.0060000186060716705" stroke-linecap="round"/><line x1="1.6838062526030273" y1="-1.051950962505284" x2="1.8402407176432583" y2="-0.06426262191014642" stroke="black" stroke-width="0.0060000186060716705" stroke-linecap="round"/><line x1="1.8402407176432583" y1="-0.06426262191014642" x2="-0.014126991490316598" y2="-0.8134758087419703" stroke="black" stroke-width="0.0060000186060716705" stroke-linecap="round"/><line x1="-0.014126991490316598" y1="-0.8134758087419703" x2="0.7845085185569762" y2="-1.4152908318940187" stroke="black" stroke-width="0.0060000186060716705" stroke-linecap="round"/><line x1="0.7845085185569762" y1="-1.4152908318940187" x2="0.9935654450922837" y2="0.5737529588425279" stroke="black" stroke-width="0.0060000186060716705" stroke-linecap="round"/><line x1="0.9935654450922837" y1="0.5737529588425279" x2="0.0872576580556339" y2="0.15113469710182825" stroke="black" stroke-width="0.0060000186060716705" stroke-linecap="round"/><line x1="0.0872576580556339" y1="0.15113469710182825" x2="1.7453328031657174" y2="-0.9672511098396653" stroke="black" stroke-width="0.0060000186060716705" stroke-linecap="round"/><line x1="1.7453328031657174" y1="-0.9672511098396653" x2="1.797668759408661" y2="0.0313784249149085" stroke="black" stroke-width="0.0060000186060716705" stroke-linecap="round"/><line x1="1.797668759408661" y1="0.0313784249149085" x2="0.03177357369080691" y2="-0.9075647006568723" stroke="black" stroke-width="0.0060000186060716705" stroke-linecap="round"/><line x1="0.03177357369080691" y1="-0.9075647006568723" x2="0.8889408743929191" y2="-1.4226027755669266" stroke="black" stroke-width="0.0060000186060716705" stroke-linecap="round"/><line x1="0.8889408743929191" y1="-1.4226027755669266" x2="0.8889408743929194" y2="0.5773972244330734" stroke="black" stroke-width="0.0060000186060716705" stroke-linecap="round"/><line x1="0.8889408743929194" y1="0.5773972244330734" x2="0.03177357369080702" y2="0.06235914952301924" stroke="black" stroke-width="0.0060000186060716705" stroke-linecap="round"/><line x1="0.03177357369080702" y1="0.06235914952301924" x2="1.7976687594086607" y2="-0.8765839760487625" stroke="black" stroke-width="0.0060000186060716705" stroke-linecap="round"/><line x1="1.7976687594086607" y1="-0.8765839760487625" x2="1.7453328031657172" y2="0.12204555870581135" stroke="black" stroke-width="0.0060000186060716705" stroke-linecap="round"/><line x1="1.7453328031657172" y1="0.12204555870581135" x2="0.08725765805563301" y2="-0.9963402482356811" stroke="black" stroke-width="0.0060000186060716705" stroke-linecap="round"/><line x1="0.08725765805563301" y1="-0.9963402482356811" x2="0.993565445092283" y2="-1.4189585099763806" stroke="black" stroke-width="0.0060000186060716705" stroke-linecap="round"/><line x1="0.993565445092283" y1="-1.4189585099763806" x2="0.7845085185569769" y2="0.5700852807601662" stroke="black" stroke-width="0.0060000186060716705" stroke-linecap="round"/><line x1="0.7845085185569769" y1="0.5700852807601662" x2="-0.014126991490316154" y2="-0.031729742391881754" stroke="black" stroke-width="0.0060000186060716705" stroke-linecap="round"/><line x1="-0.014126991490316154" y1="-0.031729742391881754" x2="1.8402407176432587" y2="-0.7809429292237057" stroke="black" stroke-width="0.0060000186060716705" stroke-linecap="round"/><line x1="1.8402407176432587" y1="-0.7809429292237057" x2="1.683806252603028" y2="0.2067454113714321" stroke="black" stroke-width="0.0060000186060716705" stroke-linecap="round"/><line x1="1.683806252603028" y1="0.2067454113714321" x2="0.15171736636507172" y2="-1.0788298080016463" stroke="black" stroke-width="0.0060000186060716705" stroke-linecap="round"/><line x1="0.15171736636507172" y1="-1.0788298080016463" x2="1.0972359419643885" y2="-1.404397962458803" stroke="black" stroke-width="0.0060000186060716705" stroke-linecap="round"/><line x1="1.0972359419643885" y1="-1.404397962458803" x2="0.6814125603288703" y2="0.5518972390088084" stroke="black" stroke-width="0.0060000186060716705" stroke-linecap="round"/><line x1="0.6814125603288703" y1="0.5518972390088084" x2="-0.049941141290300695" y2="-0.13010112105368965" stroke="black" stroke-width="0.0060000186060716705" stroke-linecap="round"/><line x1="-0.049941141290300695" y1="-0.13010112105368965" x2="1.872582250586337" y2="-0.681375832687688" stroke="black" stroke-width="0.0060000186060716705" stroke-linecap="round"/><line x1="1.872582250586337" y1="-0.681375832687688" x2="1.6137632054838167" y2="0.28454999360138045" stroke="black" stroke-width="0.0060000186060716705" stroke-linecap="round"/><line x1="1.6137632054838167" y1="0.28454999360138045" x2="0.2244464645658215" y2="-1.1541296070759213" stroke="black" stroke-width="0.0060000186060716705" stroke-linecap="round"/><line x1="0.2244464645658215" y1="-1.1541296070759213" x2="1.1988165293510566" y2="-1.3790806614197861" stroke="black" stroke-width="0.0060000186060716705" stroke-linecap="round"/><line x1="1.1988165293510566" y1="-1.3790806614197861" x2="0.5807825406011612" y2="0.5230323711705209" stroke="black" stroke-width="0.0060000186060716705" stroke-linecap="round"/><line x1="0.5807825406011612" y1="0.5230323711705209" x2="-0.0752764883893462" y2="-0.23167720905225098" stroke="black" stroke-width="0.0060000186060716705" stroke-linecap="round"/><line x1="-0.0752764883893462" y1="-0.23167720905225098" x2="1.8943390176350698" y2="-0.5789735643861118" stroke="black" stroke-width="0.0060000186060716705" stroke-linecap="round"/><line x1="1.8943390176350698" y1="-0.5789735643861118" x2="1.5359710680897694" y2="0.35460686211108994" stroke="black" stroke-width="0.0060000186060716705" stroke-linecap="round"/><line x1="1.5359710680897694" y1="0.35460686211108994" x2="0.30464811743845166" y2="-1.221414645102353" stroke="black" stroke-width="0.0060000186060716705" stroke-linecap="round"/><line x1="0.30464811743845166" y1="-1.221414645102353" x2="1.2971942690797738" y2="-1.3432839885075005" stroke="black" stroke-width="0.0060000186060716705" stroke-linecap="round"/><line x1="1.2971942690797738" y1="-1.3432839885075005" x2="0.4837209829281741" y2="0.48380692677770165" stroke="black" stroke-width="0.0060000186060716705" stroke-linecap="round"/><line x1="0.4837209829281741" y1="0.48380692677770165" x2="-0.08985545342287238" y2="-0.3353451175112899" stroke="black" stroke-width="0.0060000186060716705" stroke-linecap="round"/><line x1="-0.08985545342287238" y1="-0.3353451175112899" x2="1.905272647096776" y2="-0.47485806499954086" stroke="black" stroke-width="0.0060000186060716705" stroke-linecap="round"/><line x1="1.905272647096776" y1="-0.47485806499954086" x2="1.4512821473572297" y2="0.41614845918882726" stroke="black" stroke-width="0.0060000186060716705" stroke-linecap="round"/><line x1="1.4512821473572297" y1="0.41614845918882726" x2="0.39144361889081813" y2="-1.2799477331240237" stroke="black" stroke-width="0.0060000186060716705" stroke-linecap="round"/><line x1="0.39144361889081813" y1="-1.2799477331240237" x2="1.3912913140472094" y2="-1.297400139561307" stroke="black" stroke-width="0.0060000186060716705" stroke-linecap="round"/><line x1="1.3912913140472094" y1="-1.297400139561307" x2="0.3912913140472092" y2="0.43465066800757013" stroke="black" stroke-width="0.0060000186060716705" stroke-linecap="round"/><line x1="0.3912913140472092" y1="0.43465066800757013" x2="-0.09351830619912771" y2="-0.4399690391318257" stroke="black" stroke-width="0.0060000186060716705" stroke-linecap="round"/><line x1="-0.09351830619912771" y1="-0.4399690391318257" x2="1.905263347839064" y2="-0.37017004572682427" stroke="black" stroke-width="0.0060000186060716705" stroke-linecap="round"/><line x1="1.905263347839064" y1="-0.37017004572682427" x2="1.360624312824037" y2="0.4685005222185998" stroke="black" stroke-width="0.0060000186060716705" stroke-linecap="round"/><line x1="1.360624312824037" y1="0.4685005222185998" x2="0.4838820192458829" y2="-1.3290875703797345" stroke="black" stroke-width="0.0060000186060716705" stroke-linecap="round"/><line x1="0.4838820192458829" y1="-1.3290875703797345" x2="1.4800767173376284" y2="-1.2419318276320763" stroke="black" stroke-width="0.0060000186060716705" stroke-linecap="round"/><line x1="1.4800767173376284" y1="-1.2419318276320763" x2="0.3045062127526823" y2="0.3761021611178186" stroke="black" stroke-width="0.0060000186060716705" stroke-linecap="round"/><line x1="0.3045062127526823" y1="0.3761021611178186" x2="-0.08622491573659241" y2="-0.5444026923346214" stroke="black" stroke-width="0.0060000186060716705" stroke-linecap="round"/><line x1="-0.08622491573659241" y1="-0.5444026923346214" x2="1.8943112217465483" y2="-0.26605649041449064" stroke="black" stroke-width="0.0060000186060716705" stroke-linecap="round"/><line x1="1.8943112217465483" y1="-0.26605649041449064" x2="1.2649908306967106" y2="0.5110894710424801" stroke="black" stroke-width="0.0060000186060716705" stroke-linecap="round"/><line x1="1.2649908306967106" y1="0.5110894710424801" x2="0.5809505440453734" y2="-1.3682957705293366" stroke="black" stroke-width="0.0060000186060716705" stroke-linecap="round"/><line x1="0.5809505440453734" y1="-1.3682957705293366" x2="1.5625777274930375" y2="-1.1774867751527918" stroke="black" stroke-width="0.0060000186060716705" stroke-linecap="round"/><line x1="1.5625777274930375" y1="-1.1774867751527918" x2="0.224316514775321" y2="0.3088028758019967" stroke="black" stroke-width="0.0060000186060716705" stroke-linecap="round"/><line x1="0.224316514775321" y1="0.3088028758019967" x2="-0.06805518994741527" y2="-0.6475018801610389" stroke="black" stroke-width="0.0060000186060716705" stroke-linecap="round"/><line x1="-0.06805518994741527" y1="-0.6475018801610389" x2="1.8725362626045776" y2="-0.16365808896170336" stroke="black" stroke-width="0.0060000186060716705" stroke-linecap="round"/><line x1="1.8725362626045776" y1="-0.16365808896170336" x2="1.1654294814180302" y2="0.5434486922248443" stroke="black" stroke-width="0.0060000186060716705" stroke-linecap="round"/><line x1="1.1654294814180302" y1="0.5434486922248443" x2="0.6815856902186944" y2="-1.3971427603271487" stroke="black" stroke-width="0.0060000186060716705" stroke-linecap="round"/><line x1="0.6815856902186944" y1="-1.3971427603271487" x2="1.6378904461817299" y2="-1.1047710556044121" stroke="black" stroke-width="0.0060000186060716705" stroke-linecap="round"/><line x1="1.6378904461817299" y1="-1.1047710556044121" x2="0.1516007952269418" y2="0.23349015711330479" stroke="black" stroke-width="0.0060000186060716705" stroke-linecap="round"/><line x1="0.1516007952269418" y1="0.23349015711330479" x2="-0.039208200149602856" y2="-0.7481370263343592" stroke="black" stroke-width="0.0060000186060716705" stroke-linecap="round"/><line x1="-0.039208200149602856" y1="-0.7481370263343592" x2="1.840177041422214" y2="-0.06409673968302176" stroke="black" stroke-width="0.0060000186060716705" stroke-linecap="round"/><line x1="1.840177041422214" y1="-0.06409673968302176" x2="1.063031079965243" y2="0.5652236513668153" stroke="black" stroke-width="0.0060000186060716705" stroke-linecap="round"/><line x1="1.063031079965243" y1="0.5652236513668153" x2="0.7846848780451112" y2="-1.415312486116325" stroke="black" stroke-width="0.0060000186060716705" stroke-linecap="round"/><line x1="0.7846848780451112" y1="-1.415312486116325" x2="1.7051897314975517" y2="-1.0245813576270515" stroke="black" stroke-width="0.0060000186060716705" stroke-linecap="round"/><line x1="1.7051897314975517" y1="-1.0245813576270515" x2="0.08715574274765703" y2="0.150989146957895" stroke="black" stroke-width="0.0060000186060716705" stroke-linecap="round"/><line x1="0.08715574274765703" y1="0.150989146957895" x2="-1.2906342661267445e-15" y2="-0.8452055511338505" stroke="black" stroke-width="0.0060000186060716705" stroke-linecap="round"/><line x1="-1.2906342661267445e-15" y1="-0.8452055511338505" x2="1.7975880925983325" y2="0.03153674244430449" stroke="black" stroke-width="0.0060000186060716705" stroke-linecap="round"/><line x1="1.7975880925983325" y1="0.03153674244430449" x2="0.9589175246529085" y2="0.5761757774593315" stroke="black" stroke-width="0.0060000186060716705" stroke-linecap="round"/><line x1="0.9589175246529085" y1="0.5761757774593315" x2="0.8891185312479069" y2="-1.42260587657886" stroke="black" stroke-width="0.0060000186060716705" stroke-linecap="round"/><line x1="0.8891185312479069" y1="-1.42260587657886" x2="1.7637382383873028" y2="-0.9377962563325231" stroke="black" stroke-width="0.0060000186060716705" stroke-linecap="round"/><line x1="1.7637382383873028" y1="-0.9377962563325231" x2="0.031687430818425844" y2="0.06220374366747783" stroke="black" stroke-width="0.0060000186060716705" stroke-linecap="round"/><line x1="0.031687430818425844" y1="0.06220374366747783" x2="0.049139837255709355" y2="-0.9376439514889134" stroke="black" stroke-width="0.0060000186060716705" stroke-linecap="round"/><line x1="0.049139837255709355" y1="-0.9376439514889134" x2="1.7452360295685614" y2="0.12219457697749614" stroke="black" stroke-width="0.0060000186060716705" stroke-linecap="round"/><line x1="1.7452360295685614" y1="0.12219457697749614" x2="0.8542295053801936" y2="0.5761850767170431" stroke="black" stroke-width="0.0060000186060716705" stroke-linecap="round"/><line x1="0.8542295053801936" y1="0.5761850767170431" x2="0.9937424528684442" y2="-1.4189430238026053" stroke="black" stroke-width="0.0060000186060716705" stroke-linecap="round"/><line x1="0.9937424528684442" y1="-1.4189430238026053" x2="1.8128944971574361" y2="-0.8453665874515595" stroke="black" stroke-width="0.0060000186060716705" stroke-linecap="round"/><line x1="1.8128944971574361" y1="-0.8453665874515595" x2="-0.014196418127765842" y2="-0.031893301299959265" stroke="black" stroke-width="0.0060000186060716705" stroke-linecap="round"/><line x1="-0.014196418127765842" y1="-0.031893301299959265" x2="0.10767292527738163" y2="-1.0244394529412812" stroke="black" stroke-width="0.0060000186060716705" stroke-linecap="round"/><line x1="0.10767292527738163" y1="-1.0244394529412812" x2="1.6836944324908256" y2="0.20688349771003534" stroke="black" stroke-width="0.0060000186060716705" stroke-linecap="round"/><line x1="1.6836944324908256" y1="0.20688349771003534" x2="0.750114005993624" y2="0.565251447255336" stroke="black" stroke-width="0.0060000186060716705" stroke-linecap="round"/><line x1="0.750114005993624" y1="0.565251447255336" x2="1.0974103613274846" y2="-1.40436405876908" stroke="black" stroke-width="0.0060000186060716705" stroke-linecap="round"/><line x1="1.0974103613274846" y1="-1.40436405876908" x2="1.8521199415502565" y2="-0.7483050297785725" stroke="black" stroke-width="0.0060000186060716705" stroke-linecap="round"/><line x1="1.8521199415502565" y1="-0.7483050297785725" x2="-0.049993091040050563" y2="-0.13027104102867737" stroke="black" stroke-width="0.0060000186060716705" stroke-linecap="round"/><line x1="-0.049993091040050563" y1="-0.13027104102867737" x2="0.17495796330381444" y2="-1.1046411058139127" stroke="black" stroke-width="0.0060000186060716705" stroke-linecap="round"/><line x1="0.17495796330381444" y1="-1.1046411058139127" x2="1.6136375639811174" y2="0.28467563510408134" stroke="black" stroke-width="0.0060000186060716705" stroke-linecap="round"/><line x1="1.6136375639811174" y1="0.28467563510408134" x2="0.647711737692049" y2="0.543494680206602" stroke="black" stroke-width="0.0060000186060716705" stroke-linecap="round"/><line x1="0.647711737692049" y1="0.543494680206602" x2="1.1989864493260474" y2="-1.3790287116700357" stroke="black" stroke-width="0.0060000186060716705" stroke-linecap="round"/><line x1="1.1989864493260474" y1="-1.3790287116700357" x2="1.8809848093885457" y2="-0.6476750100508653" stroke="black" stroke-width="0.0060000186060716705" stroke-linecap="round"/><line x1="1.8809848093885457" y1="-0.6476750100508653" x2="-0.07531039207906542" y2="-0.23185162841534568" stroke="black" stroke-width="0.0060000186060716705" stroke-linecap="round"/><line x1="-0.07531039207906542" y1="-0.23185162841534568" x2="0.2502577623780912" y2="-1.1773702040146625" stroke="black" stroke-width="0.0060000186060716705" stroke-linecap="round"/><line x1="0.2502577623780912" y1="-1.1773702040146625" x2="1.5358329817511702" y2="0.3547186822232933" stroke="black" stroke-width="0.0060000186060716705" stroke-linecap="round"/><line x1="1.5358329817511702" y1="0.3547186822232933" x2="0.5481446411560326" y2="0.5111531472635243" stroke="black" stroke-width="0.0060000186060716705" stroke-linecap="round"/><line x1="0.5481446411560326" y1="0.5111531472635243" x2="1.2973578279878566" y2="-1.3432145618700506" stroke="black" stroke-width="0.0060000186060716705" stroke-linecap="round"/><line x1="1.2973578279878566" y1="-1.3432145618700506" x2="1.8991728511399049" y2="-0.5445790518227577" stroke="black" stroke-width="0.0060000186060716705" stroke-linecap="round"/><line x1="1.8991728511399049" y1="-0.5445790518227577" x2="-0.08987093959664194" y2="-0.33552212528745096" stroke="black" stroke-width="0.0060000186060716705" stroke-linecap="round"/><line x1="-0.08987093959664194" y1="-0.33552212528745096" x2="0.3327473221440575" y2="-1.2418299123241008" stroke="black" stroke-width="0.0060000186060716705" stroke-linecap="round"/><line x1="0.3327473221440575" y1="-1.2418299123241008" x2="1.4511331290855514" y2="0.41624523278598247" stroke="black" stroke-width="0.0060000186060716705" stroke-linecap="round"/><line x1="1.4511331290855514" y1="0.41624523278598247" x2="0.45250359433097753" y2="0.46858118902892676" stroke="black" stroke-width="0.0060000186060716705" stroke-linecap="round"/><line x1="0.45250359433097753" y1="0.46858118902892676" x2="1.3914467199027591" y2="-1.2973139966889273" stroke="black" stroke-width="0.0060000186060716705" stroke-linecap="round"/><line x1="1.3914467199027591" y1="-1.2973139966889273" x2="1.9064847948128136" y2="-0.4401466959868151" stroke="black" stroke-width="0.0060000186060716705" stroke-linecap="round"/><line x1="1.9064847948128136" y1="-0.4401466959868151" x2="-0.09351520518718637" y2="-0.4401466959868147" stroke="black" stroke-width="0.0060000186060716705" stroke-linecap="round"/><line x1="-0.09351520518718637" y1="-0.4401466959868147" x2="0.4215228697228678" y2="-1.297313996688927" stroke="black" stroke-width="0.0060000186060716705" stroke-linecap="round"/><line x1="0.4215228697228678" y1="-1.297313996688927" x2="1.3604659952946498" y2="0.4685811890289264" stroke="black" stroke-width="0.0060000186060716705" stroke-linecap="round"/><line x1="1.3604659952946498" y1="0.4685811890289264" x2="0.361836460540076" y2="0.41624523278598247" stroke="black" stroke-width="0.0060000186060716705" stroke-linecap="round"/><line x1="0.361836460540076" y1="0.41624523278598247" x2="1.4802222674815697" y2="-1.2418299123241008" stroke="black" stroke-width="0.0060000186060716705" stroke-linecap="round"/><line x1="1.4802222674815697" y1="-1.2418299123241008" x2="1.9028405292222692" y2="-0.33552212528745085" stroke="black" stroke-width="0.0060000186060716705" stroke-linecap="round"/><line x1="1.9028405292222692" y1="-0.33552212528745085" x2="-0.0862032615142776" y2="-0.5445790518227568" stroke="black" stroke-width="0.0060000186060716705" stroke-linecap="round"/><line x1="-0.0862032615142776" y1="-0.5445790518227568" x2="0.5156117616377707" y2="-1.3432145618700497" stroke="black" stroke-width="0.0060000186060716705" stroke-linecap="round"/><line x1="0.5156117616377707" y1="-1.3432145618700497" x2="1.2648249484695953" y2="0.5111531472635249" stroke="black" stroke-width="0.0060000186060716705" stroke-linecap="round"/><line x1="1.2648249484695953" y1="0.5111531472635249" x2="0.2771366078744575" y2="0.3547186822232942" stroke="black" stroke-width="0.0060000186060716705" stroke-linecap="round"/><line x1="0.2771366078744575" y1="0.3547186822232942" x2="1.562711827247536" y2="-1.1773702040146619" stroke="black" stroke-width="0.0060000186060716705" stroke-linecap="round"/><line x1="1.562711827247536" y1="-1.1773702040146619" x2="1.888279981704693" y2="-0.23185162841534512" stroke="black" stroke-width="0.0060000186060716705" stroke-linecap="round"/><line x1="1.888279981704693" y1="-0.23185162841534512" x2="-0.06801521976291869" y2="-0.6476750100508623" stroke="black" stroke-width="0.0060000186060716705" stroke-linecap="round"/><line x1="-0.06801521976291869" y1="-0.6476750100508623" x2="0.6139831402995798" y2="-1.3790287116700328" stroke="black" stroke-width="0.0060000186060716705" stroke-linecap="round"/><line x1="0.6139831402995798" y1="-1.3790287116700328" x2="1.1652578519335792" y2="0.5434946802066045" stroke="black" stroke-width="0.0060000186060716705" stroke-linecap="round"/><line x1="1.1652578519335792" y1="0.5434946802066045" x2="0.19933202564451102" y2="0.2846756351040834" stroke="black" stroke-width="0.0060000186060716705" stroke-linecap="round"/><line x1="0.19933202564451102" y1="0.2846756351040834" x2="1.6380116263218132" y2="-1.1046411058139114" stroke="black" stroke-width="0.0060000186060716705" stroke-linecap="round"/><line x1="1.6380116263218132" y1="-1.1046411058139114" x2="1.862962680665678" y2="-0.13027104102867615" stroke="black" stroke-width="0.0060000186060716705" stroke-linecap="round"/><line x1="1.862962680665678" y1="-0.13027104102867615" x2="-0.039150351924629234" y2="-0.7483050297785706" stroke="black" stroke-width="0.0060000186060716705" stroke-linecap="round"/><line x1="-0.039150351924629234" y1="-0.7483050297785706" x2="0.7155592282981428" y2="-1.4043640587690778" stroke="black" stroke-width="0.0060000186060716705" stroke-linecap="round"/><line x1="0.7155592282981428" y1="-1.4043640587690778" x2="1.0628555836320033" y2="0.5652514472553383" stroke="black" stroke-width="0.0060000186060716705" stroke-linecap="round"/><line x1="1.0628555836320033" y1="0.5652514472553383" x2="0.1292751571348012" y2="0.20688349771003872" stroke="black" stroke-width="0.0060000186060716705" stroke-linecap="round"/><line x1="0.1292751571348012" y1="0.20688349771003872" x2="1.7052966643482452" y2="-1.024439452941278" stroke="black" stroke-width="0.0060000186060716705" stroke-linecap="round"/><line x1="1.7052966643482452" y1="-1.024439452941278" x2="1.8271660077533927" y2="-0.031893301299955934" stroke="black" stroke-width="0.0060000186060716705" stroke-linecap="round"/><line x1="1.8271660077533927" y1="-0.031893301299955934" x2="0.00007509246819115134" y2="-0.845366587451557" stroke="black" stroke-width="0.0060000186060716705" stroke-linecap="round"/><line x1="0.00007509246819115134" y1="-0.845366587451557" x2="0.819227136757183" y2="-1.418943023802603" stroke="black" stroke-width="0.0060000186060716705" stroke-linecap="round"/><line x1="0.819227136757183" y1="-1.418943023802603" x2="0.958740084245434" y2="0.5761850767170453" stroke="black" stroke-width="0.0060000186060716705" stroke-linecap="round"/><line x1="0.958740084245434" y1="0.5761850767170453" x2="0.06773356005706599" y2="0.12219457697749869" stroke="black" stroke-width="0.0060000186060716705" stroke-linecap="round"/><line x1="0.06773356005706599" y1="0.12219457697749869" x2="1.7638297523699182" y2="-0.9376439514889111" stroke="black" stroke-width="0.0060000186060716705" stroke-linecap="round"/><line x1="1.7638297523699182" y1="-0.9376439514889111" x2="1.7812821588072016" y2="0.06220374366748016" stroke="black" stroke-width="0.0060000186060716705" stroke-linecap="round"/><line x1="1.7812821588072016" y1="0.06220374366748016" x2="0.04923135123832445" y2="-0.9377962563325201" stroke="black" stroke-width="0.0060000186060716705" stroke-linecap="round"/><line x1="0.04923135123832445" y1="-0.9377962563325201" x2="0.9238510583777202" y2="-1.4226058765788572" stroke="black" stroke-width="0.0060000186060716705" stroke-linecap="round"/><line x1="0.9238510583777202" y1="-1.4226058765788572" x2="0.8540520649727183" y2="0.5761757774593343" stroke="black" stroke-width="0.0060000186060716705" stroke-linecap="round"/><line x1="0.8540520649727183" y1="0.5761757774593343" x2="0.015381497027294078" y2="0.03153674244430771" stroke="black" stroke-width="0.0060000186060716705" stroke-linecap="round"/><line x1="0.015381497027294078" y1="0.03153674244430771" x2="1.8129695896256282" y2="-0.8452055511338472" stroke="black" stroke-width="0.0060000186060716705" stroke-linecap="round"/><line x1="1.8129695896256282" y1="-0.8452055511338472" x2="1.7258138468779702" y2="0.15098914695789833" stroke="black" stroke-width="0.0060000186060716705" stroke-linecap="round"/><line x1="1.7258138468779702" y1="0.15098914695789833" x2="0.10777985812807511" y2="-1.0245813576270475" stroke="black" stroke-width="0.0060000186060716705" stroke-linecap="round"/><line x1="0.10777985812807511" y1="-1.0245813576270475" x2="1.0282847115805154" y2="-1.4153124861163215" stroke="black" stroke-width="0.0060000186060716705" stroke-linecap="round"/><line x1="1.0282847115805154" y1="-1.4153124861163215" x2="0.7499385096603843" y2="0.565223651366819" stroke="black" stroke-width="0.0060000186060716705" stroke-linecap="round"/><line x1="0.7499385096603843" y1="0.565223651366819" x2="-0.027207451796586457" y2="-0.06409673968301854" stroke="black" stroke-width="0.0060000186060716705" stroke-linecap="round"/><line x1="-0.027207451796586457" y1="-0.06409673968301854" x2="1.8521777897752303" y2="-0.7481370263343562" stroke="black" stroke-width="0.0060000186060716705" stroke-linecap="round"/><line x1="1.8521777897752303" y1="-0.7481370263343562" x2="1.6613687943986855" y2="0.23349015711330778" stroke="black" stroke-width="0.0060000186060716705" stroke-linecap="round"/><line x1="1.6613687943986855" y1="0.23349015711330778" x2="0.1750791434438963" y2="-1.1047710556044077" stroke="black" stroke-width="0.0060000186060716705" stroke-linecap="round"/><line x1="0.1750791434438963" y1="-1.1047710556044077" x2="1.1313838994069316" y2="-1.3971427603271445" stroke="black" stroke-width="0.0060000186060716705" stroke-linecap="round"/><line x1="1.1313838994069316" y1="-1.3971427603271445" x2="0.6475401082075967" y2="0.5434486922248487" stroke="black" stroke-width="0.0060000186060716705" stroke-linecap="round"/><line x1="0.6475401082075967" y1="0.5434486922248487" x2="-0.05956667297895102" y2="-0.16365808896169864" stroke="black" stroke-width="0.0060000186060716705" stroke-linecap="round"/><line x1="-0.05956667297895102" y1="-0.16365808896169864" x2="1.881024779573042" y2="-0.6475018801610344" stroke="black" stroke-width="0.0060000186060716705" stroke-linecap="round"/><line x1="1.881024779573042" y1="-0.6475018801610344" x2="1.5886530748503056" y2="0.30880287580200116" stroke="black" stroke-width="0.0060000186060716705" stroke-linecap="round"/><line x1="1.5886530748503056" y1="0.30880287580200116" x2="0.25039186213258935" y2="-1.1774867751527873" stroke="black" stroke-width="0.0060000186060716705" stroke-linecap="round"/><line x1="0.25039186213258935" y1="-1.1774867751527873" x2="1.2320190455802533" y2="-1.3682957705293322" stroke="black" stroke-width="0.0060000186060716705" stroke-linecap="round"/><line x1="1.2320190455802533" y1="-1.3682957705293322" x2="0.547978758928916" y2="0.5110894710424847" stroke="black" stroke-width="0.0060000186060716705" stroke-linecap="round"/><line x1="0.547978758928916" y1="0.5110894710424847" x2="-0.08134163212092183" y2="-0.26605649041448587" stroke="black" stroke-width="0.0060000186060716705" stroke-linecap="round"/><line x1="-0.08134163212092183" y1="-0.26605649041448587" x2="1.8991945053622188" y2="-0.5444026923346172" stroke="black" stroke-width="0.0060000186060716705" stroke-linecap="round"/><line x1="1.8991945053622188" y1="-0.5444026923346172" x2="1.5084633768729452" y2="0.37610216111782313" stroke="black" stroke-width="0.0060000186060716705" stroke-linecap="round"/><line x1="1.5084633768729452" y1="0.37610216111782313" x2="0.33289287228799846" y2="-1.2419318276320714" stroke="black" stroke-width="0.0060000186060716705" stroke-linecap="round"/><line x1="0.33289287228799846" y1="-1.2419318276320714" x2="1.329087570379744" y2="-1.3290875703797296" stroke="black" stroke-width="0.0060000186060716705" stroke-linecap="round"/><line x1="1.329087570379744" y1="-1.3290875703797296" x2="0.45234527680158987" y2="0.4685005222186047" stroke="black" stroke-width="0.0060000186060716705" stroke-linecap="round"/><line x1="0.45234527680158987" y1="0.4685005222186047" x2="-0.0922937582134371" y2="-0.37017004572681933" stroke="black" stroke-width="0.0060000186060716705" stroke-linecap="round"/><line x1="-0.0922937582134371" y1="-0.37017004572681933" x2="1.9064878958247544" y2="-0.4399690391318215" stroke="black" stroke-width="0.0060000186060716705" stroke-linecap="round"/><line x1="1.9064878958247544" y1="-0.4399690391318215" x2="1.4216782755784174" y2="0.43465066800757435" stroke="black" stroke-width="0.0060000186060716705" stroke-linecap="round"/><line x1="1.4216782755784174" y1="0.43465066800757435" x2="0.42167827557841653" y2="-1.2974001395613024" stroke="black" stroke-width="0.0060000186060716705" stroke-linecap="round"/><line x1="0.42167827557841653" y1="-1.2974001395613024" x2="1.4215259707348078" y2="-1.279947733124019" stroke="black" stroke-width="0.0060000186060716705" stroke-linecap="round"/><line x1="1.4215259707348078" y1="-1.279947733124019" x2="0.3616874422683982" y2="0.41614845918883314" stroke="black" stroke-width="0.0060000186060716705" stroke-linecap="round"/><line x1="0.3616874422683982" y1="0.41614845918883314" x2="-0.09230305747114875" y2="-0.47485806499953465" stroke="black" stroke-width="0.0060000186060716705" stroke-linecap="round"/><line x1="-0.09230305747114875" y1="-0.47485806499953465" x2="1.9028250430484996" y2="-0.335345117511284" stroke="black" stroke-width="0.0060000186060716705" stroke-linecap="round"/><line x1="1.9028250430484996" y1="-0.335345117511284" x2="1.3292486066974538" y2="0.48380692677770804" stroke="black" stroke-width="0.0060000186060716705" stroke-linecap="round"/><line x1="1.3292486066974538" y1="0.48380692677770804" x2="0.5157753205458535" y2="-1.3432839885074939" stroke="black" stroke-width="0.0060000186060716705" stroke-linecap="round"/><line x1="0.5157753205458535" y1="-1.3432839885074939" x2="1.5083214721871756" y2="-1.2214146451023464" stroke="black" stroke-width="0.0060000186060716705" stroke-linecap="round"/><line x1="1.5083214721871756" y1="-1.2214146451023464" x2="0.2769985215358599" y2="0.35460686211109804" stroke="black" stroke-width="0.0060000186060716705" stroke-linecap="round"/><line x1="0.2769985215358599" y1="0.35460686211109804" x2="-0.08136942800944086" y2="-0.5789735643861035" stroke="black" stroke-width="0.0060000186060716705" stroke-linecap="round"/><line x1="-0.08136942800944086" y1="-0.5789735643861035" x2="1.8882460780149752" y2="-0.23167720905224287" stroke="black" stroke-width="0.0060000186060716705" stroke-linecap="round"/><line x1="1.8882460780149752" y1="-0.23167720905224287" x2="1.2321870490244677" y2="0.523032371170529" stroke="black" stroke-width="0.0060000186060716705" stroke-linecap="round"/><line x1="1.2321870490244677" y1="0.523032371170529" x2="0.6141530602745725" y2="-1.3790806614197781" stroke="black" stroke-width="0.0060000186060716705" stroke-linecap="round"/><line x1="0.6141530602745725" y1="-1.3790806614197781" x2="1.5885231250598078" y2="-1.1541296070759133" stroke="black" stroke-width="0.0060000186060716705" stroke-linecap="round"/><line x1="1.5885231250598078" y1="-1.1541296070759133" x2="0.19920638414181302" y2="0.2845499936013889" stroke="black" stroke-width="0.0060000186060716705" stroke-linecap="round"/><line x1="0.19920638414181302" y1="0.2845499936013889" x2="-0.059612660960707664" y2="-0.6813758326876794" stroke="black" stroke-width="0.0060000186060716705" stroke-linecap="round"/><line x1="-0.059612660960707664" y1="-0.6813758326876794" x2="1.86291073091593" y2="-0.13010112105368132" stroke="black" stroke-width="0.0060000186060716705" stroke-linecap="round"/><line x1="1.86291073091593" y1="-0.13010112105368132" x2="1.13155702929676" y2="0.5518972390088176" stroke="black" stroke-width="0.0060000186060716705" stroke-linecap="round"/><line x1="1.13155702929676" y1="0.5518972390088176" x2="0.7157336476612404" y2="-1.4043979624587934" stroke="black" stroke-width="0.0060000186060716705" stroke-linecap="round"/><line x1="0.7157336476612404" y1="-1.4043979624587934" x2="1.6612522232605573" y2="-1.078829808001637" stroke="black" stroke-width="0.0060000186060716705" stroke-linecap="round"/><line x1="1.6612522232605573" y1="-1.078829808001637" x2="0.12916333702260152" y2="0.20674541137144198" stroke="black" stroke-width="0.0060000186060716705" stroke-linecap="round"/><line x1="0.12916333702260152" y1="0.20674541137144198" x2="-0.027271128017629598" y2="-0.7809429292236957" stroke="black" stroke-width="0.0060000186060716705" stroke-linecap="round"/><line x1="-0.027271128017629598" y1="-0.7809429292236957" x2="1.8270965811159452" y2="-0.03172974239187154" stroke="black" stroke-width="0.0060000186060716705" stroke-linecap="round"/><line x1="1.8270965811159452" y1="-0.03172974239187154" x2="1.0284610710686524" y2="0.5700852807601767" stroke="black" stroke-width="0.0060000186060716705" stroke-linecap="round"/><line x1="1.0284610710686524" y1="0.5700852807601767" x2="0.8194041445333455" y2="-1.41895850997637" stroke="black" stroke-width="0.0060000186060716705" stroke-linecap="round"/><line x1="0.8194041445333455" y1="-1.41895850997637" x2="1.7257119315699956" y2="-0.9963402482356707" stroke="black" stroke-width="0.0060000186060716705" stroke-linecap="round"/><line x1="1.7257119315699956" y1="-0.9963402482356707" x2="0.06763678645991278" y2="0.12204555870582379" stroke="black" stroke-width="0.0060000186060716705" stroke-linecap="round"/><line x1="0.06763678645991278" y1="0.12204555870582379" x2="0.01530083021696841" y2="-0.87658397604875" stroke="black" stroke-width="0.0060000186060716705" stroke-linecap="round"/><line x1="0.01530083021696841" y1="-0.87658397604875" x2="1.7811960159348226" y2="0.06235914952303101" stroke="black" stroke-width="0.0060000186060716705" stroke-linecap="round"/><line x1="1.7811960159348226" y1="0.06235914952303101" x2="0.9240287152327105" y2="0.5773972244330855" stroke="black" stroke-width="0.0060000186060716705" stroke-linecap="round"/><line x1="0.9240287152327105" y1="0.5773972244330855" x2="0.9240287152327105" y2="-1.4226027755669146" stroke="black" stroke-width="0.0060000186060716705" stroke-linecap="round"/><line x1="0.9240287152327105" y1="-1.4226027755669146" x2="1.7811960159348228" y2="-0.9075647006568603" stroke="black" stroke-width="0.0060000186060716705" stroke-linecap="round"/><line x1="1.7811960159348228" y1="-0.9075647006568603" x2="0.01530083021696882" y2="0.031378424914921155" stroke="black" stroke-width="0.0060000186060716705" stroke-linecap="round"/><line x1="0.01530083021696882" y1="0.031378424914921155" x2="0.06763678645991264" y2="-0.9672511098396527" stroke="black" stroke-width="0.0060000186060716705" stroke-linecap="round"/><line x1="0.06763678645991264" y1="-0.9672511098396527" x2="1.725711931569996" y2="0.1511346971018407" stroke="black" stroke-width="0.0060000186060716705" stroke-linecap="round"/><line x1="1.725711931569996" y1="0.1511346971018407" x2="0.8194041445333463" y2="0.5737529588425406" stroke="black" stroke-width="0.0060000186060716705" stroke-linecap="round"/><line x1="0.8194041445333463" y1="0.5737529588425406" x2="1.0284610710686533" y2="-1.4152908318940058" stroke="black" stroke-width="0.0060000186060716705" stroke-linecap="round"/><line x1="1.0284610710686533" y1="-1.4152908318940058" x2="1.827096581115946" y2="-0.8134758087419575" stroke="black" stroke-width="0.0060000186060716705" stroke-linecap="round"/><line x1="1.827096581115946" y1="-0.8134758087419575" x2="-0.027271128017628543" y2="-0.06426262191013288" stroke="black" stroke-width="0.0060000186060716705" stroke-linecap="round"/><line x1="-0.027271128017628543" y1="-0.06426262191013288" x2="0.12916333702260233" y2="-1.0519509625052708" stroke="black" stroke-width="0.0060000186060716705" stroke-linecap="round"/><line x1="0.12916333702260233" y1="-1.0519509625052708" x2="1.6612522232605584" y2="0.23362425686780797" stroke="black" stroke-width="0.0060000186060716705" stroke-linecap="round"/><line x1="1.6612522232605584" y1="0.23362425686780797" x2="0.7157336476612416" y2="0.5591924113249647" stroke="black" stroke-width="0.0060000186060716705" stroke-linecap="round"/><line x1="0.7157336476612416" y1="0.5591924113249647" x2="1.1315570292967603" y2="-1.3971027901426467" stroke="black" stroke-width="0.0060000186060716705" stroke-linecap="round"/><line x1="1.1315570292967603" y1="-1.3971027901426467" x2="1.8629107309159307" y2="-0.7151044300801483" stroke="black" stroke-width="0.0060000186060716705" stroke-linecap="round"/><line x1="1.8629107309159307" y1="-0.7151044300801483" x2="-0.05961266096070705" y2="-0.16382971844615057" stroke="black" stroke-width="0.0060000186060716705" stroke-linecap="round"/><line x1="-0.05961266096070705" y1="-0.16382971844615057" x2="0.19920638414181369" y2="-1.129755544735219" stroke="black" stroke-width="0.0060000186060716705" stroke-linecap="round"/><line x1="0.19920638414181369" y1="-1.129755544735219" x2="1.588523125059808" y2="0.3089240559420836" stroke="black" stroke-width="0.0060000186060716705" stroke-linecap="round"/><line x1="1.588523125059808" y1="0.3089240559420836" x2="0.6141530602745728" y2="0.5338751102859489" stroke="black" stroke-width="0.0060000186060716705" stroke-linecap="round"/><line x1="0.6141530602745728" y1="0.5338751102859489" x2="1.2321870490244677" y2="-1.3682379223043581" stroke="black" stroke-width="0.0060000186060716705" stroke-linecap="round"/><line x1="1.2321870490244677" y1="-1.3682379223043581" x2="1.888246078014975" y2="-0.6135283420815861" stroke="black" stroke-width="0.0060000186060716705" stroke-linecap="round"/><line x1="1.888246078014975" y1="-0.6135283420815861" x2="-0.08136942800944102" y2="-0.26623198674772547" stroke="black" stroke-width="0.0060000186060716705" stroke-linecap="round"/><line x1="-0.08136942800944102" y1="-0.26623198674772547" x2="0.27699852153585924" y2="-1.1998124132449273" stroke="black" stroke-width="0.0060000186060716705" stroke-linecap="round"/><line x1="0.27699852153585924" y1="-1.1998124132449273" x2="1.508321472187176" y2="0.37620909396851654" stroke="black" stroke-width="0.0060000186060716705" stroke-linecap="round"/><line x1="1.508321472187176" y1="0.37620909396851654" x2="0.515775320545854" y2="0.4980784373736637" stroke="black" stroke-width="0.0060000186060716705" stroke-linecap="round"/><line x1="0.515775320545854" y1="0.4980784373736637" x2="1.3292486066974543" y2="-1.329012477911538" stroke="black" stroke-width="0.0060000186060716705" stroke-linecap="round"/><line x1="1.3292486066974543" y1="-1.329012477911538" x2="1.9028250430485008" y2="-0.5098604336225464" stroke="black" stroke-width="0.0060000186060716705" stroke-linecap="round"/><line x1="1.9028250430485008" y1="-0.5098604336225464" x2="-0.09230305747114764" y2="-0.37034748613429525" stroke="black" stroke-width="0.0060000186060716705" stroke-linecap="round"/><line x1="-0.09230305747114764" y1="-0.37034748613429525" x2="0.36168744226839916" y2="-1.261354010322663" stroke="black" stroke-width="0.0060000186060716705" stroke-linecap="round"/><line x1="0.36168744226839916" y1="-1.261354010322663" x2="1.421525970734809" y2="0.4347421819901889" stroke="black" stroke-width="0.0060000186060716705" stroke-linecap="round"/><line x1="1.421525970734809" y1="0.4347421819901889" x2="0.42167827557841764" y2="0.4521945884274724" stroke="black" stroke-width="0.0060000186060716705" stroke-linecap="round"/><line x1="0.42167827557841764" y1="0.4521945884274724" x2="1.4216782755784174" y2="-1.2798562191414051" stroke="black" stroke-width="0.0060000186060716705" stroke-linecap="round"/><line x1="1.4216782755784174" y1="-1.2798562191414051" x2="1.9064878958247546" y2="-0.4052365120020094" stroke="black" stroke-width="0.0060000186060716705" stroke-linecap="round"/><line x1="1.9064878958247546" y1="-0.4052365120020094" x2="-0.09229375821343688" y2="-0.47503550540701195" stroke="black" stroke-width="0.0060000186060716705" stroke-linecap="round"/><line x1="-0.09229375821343688" y1="-0.47503550540701195" x2="0.4523452768015902" y2="-1.313706073352436" stroke="black" stroke-width="0.0060000186060716705" stroke-linecap="round"/><line x1="0.4523452768015902" y1="-1.313706073352436" x2="1.3290875703797447" y2="0.48388201924589813" stroke="black" stroke-width="0.0060000186060716705" stroke-linecap="round"/><line x1="1.3290875703797447" y1="0.48388201924589813" x2="0.33289287228799913" y2="0.3967262764982402" stroke="black" stroke-width="0.0060000186060716705" stroke-linecap="round"/><line x1="0.33289287228799913" y1="0.3967262764982402" x2="1.5084633768729454" y2="-1.2213077122516547" stroke="black" stroke-width="0.0060000186060716705" stroke-linecap="round"/><line x1="1.5084633768729454" y1="-1.2213077122516547" x2="1.8991945053622197" y2="-0.30080285879921453" stroke="black" stroke-width="0.0060000186060716705" stroke-linecap="round"/><line x1="1.8991945053622197" y1="-0.30080285879921453" x2="-0.08134163212092105" y2="-0.5791490607193455" stroke="black" stroke-width="0.0060000186060716705" stroke-linecap="round"/><line x1="-0.08134163212092105" y1="-0.5791490607193455" x2="0.5479787589289163" y2="-1.3562950221763164" stroke="black" stroke-width="0.0060000186060716705" stroke-linecap="round"/><line x1="0.5479787589289163" y1="-1.3562950221763164" x2="1.232019045580254" y2="0.5230902193955003" stroke="black" stroke-width="0.0060000186060716705" stroke-linecap="round"/><line x1="1.232019045580254" y1="0.5230902193955003" x2="0.2503918621325899" y2="0.332281224018956" stroke="black" stroke-width="0.0060000186060716705" stroke-linecap="round"/><line x1="0.2503918621325899" y1="0.332281224018956" x2="1.5886530748503063" y2="-1.1540084269358326" stroke="black" stroke-width="0.0060000186060716705" stroke-linecap="round"/><line x1="1.5886530748503063" y1="-1.1540084269358326" x2="1.8810247795730433" y2="-0.19770367097279717" stroke="black" stroke-width="0.0060000186060716705" stroke-linecap="round"/><line x1="1.8810247795730433" y1="-0.19770367097279717" x2="-0.05956667297894991" y2="-0.681547462172132" stroke="black" stroke-width="0.0060000186060716705" stroke-linecap="round"/><line x1="-0.05956667297894991" y1="-0.681547462172132" x2="0.6475401082075976" y2="-1.3886542433586797" stroke="black" stroke-width="0.0060000186060716705" stroke-linecap="round"/><line x1="0.6475401082075976" y1="-1.3886542433586797" x2="1.131383899406933" y2="0.5519372091933132" stroke="black" stroke-width="0.0060000186060716705" stroke-linecap="round"/><line x1="1.131383899406933" y1="0.5519372091933132" x2="0.17507914344389752" y2="0.2595655044705765" stroke="black" stroke-width="0.0060000186060716705" stroke-linecap="round"/><line x1="0.17507914344389752" y1="0.2595655044705765" x2="1.661368794398686" y2="-1.07869570824714" stroke="black" stroke-width="0.0060000186060716705" stroke-linecap="round"/><line x1="1.661368794398686" y1="-1.07869570824714" x2="1.852177789775231" y2="-0.09706852479947603" stroke="black" stroke-width="0.0060000186060716705" stroke-linecap="round"/><line x1="1.852177789775231" y1="-0.09706852479947603" x2="-0.027207451796586124" y2="-0.7811088114508123" stroke="black" stroke-width="0.0060000186060716705" stroke-linecap="round"/><line x1="-0.027207451796586124" y1="-0.7811088114508123" x2="0.7499385096603847" y2="-1.4104292025006497" stroke="black" stroke-width="0.0060000186060716705" stroke-linecap="round"/><line x1="0.7499385096603847" y1="-1.4104292025006497" x2="1.028284711580516" y2="0.5701069349824908" stroke="black" stroke-width="0.0060000186060716705" stroke-linecap="round"/><line x1="1.028284711580516" y1="0.5701069349824908" x2="0.10777985812807556" y2="0.17937580649321727" stroke="black" stroke-width="0.0060000186060716705" stroke-linecap="round"/><line x1="0.10777985812807556" y1="0.17937580649321727" x2="1.7258138468779705" y2="-0.996194698091729" stroke="black" stroke-width="0.0060000186060716705" stroke-linecap="round"/><line x1="1.7258138468779705" y1="-0.996194698091729" x2="1.812969589625629" y2="1.6542323066914832e-14" stroke="black" stroke-width="0.0060000186060716705" stroke-linecap="round"/><line x1="1.812969589625629" y1="1.6542323066914832e-14" x2="0.015381497027294966" y2="-0.8767422935781383" stroke="black" stroke-width="0.0060000186060716705" stroke-linecap="round"/><line x1="0.015381497027294966" y1="-0.8767422935781383" x2="0.8540520649727189" y2="-1.4213813285931653" stroke="black" stroke-width="0.0060000186060716705" stroke-linecap="round"/><line x1="0.8540520649727189" y1="-1.4213813285931653" x2="0.9238510583777203" y2="0.5774003254450262" stroke="black" stroke-width="0.0060000186060716705" stroke-linecap="round"/><line x1="0.9238510583777203" y1="0.5774003254450262" x2="0.04923135123832423" y2="0.09259070519868967" stroke="black" stroke-width="0.0060000186060716705" stroke-linecap="round"/><line x1="0.04923135123832423" y1="0.09259070519868967" x2="1.7812821588072014" y2="-0.9074092948013106" stroke="black" stroke-width="0.0060000186060716705" stroke-linecap="round"/><line x1="1.7812821588072014" y1="-0.9074092948013106" x2="1.7638297523699182" y2="0.09243840035508066" stroke="black" stroke-width="0.0060000186060716705" stroke-linecap="round"/><line x1="1.7638297523699182" y1="0.09243840035508066" x2="0.0677335600570661" y2="-0.9674001281113287" stroke="black" stroke-width="0.0060000186060716705" stroke-linecap="round"/><line x1="0.0677335600570661" y1="-0.9674001281113287" x2="0.9587400842454339" y2="-1.4213906278508754" stroke="black" stroke-width="0.0060000186060716705" stroke-linecap="round"/><line x1="0.9587400842454339" y1="-1.4213906278508754" x2="0.8192271367571842" y2="0.5737374726687732" stroke="black" stroke-width="0.0060000186060716705" stroke-linecap="round"/><line x1="0.8192271367571842" y1="0.5737374726687732" x2="0.00007509246819237259" y2="0.00016103631772712568" stroke="black" stroke-width="0.0060000186060716705" stroke-linecap="round"/><line x1="0.00007509246819237259" y1="0.00016103631772712568" x2="1.827166007753394" y2="-0.8133122498338732" stroke="black" stroke-width="0.0060000186060716705" stroke-linecap="round"/><line x1="1.827166007753394" y1="-0.8133122498338732" x2="1.7052966643482463" y2="0.1792339018074488" stroke="black" stroke-width="0.0060000186060716705" stroke-linecap="round"/><line x1="1.7052966643482463" y1="0.1792339018074488" x2="0.12927515713480275" y2="-1.0520890488438681" stroke="black" stroke-width="0.0060000186060716705" stroke-linecap="round"/><line x1="0.12927515713480275" y1="-1.0520890488438681" x2="1.0628555836320044" y2="-1.4104569983891686" stroke="black" stroke-width="0.0060000186060716705" stroke-linecap="round"/><line x1="1.0628555836320044" y1="-1.4104569983891686" x2="0.7155592282981434" y2="0.5591585076352474" stroke="black" stroke-width="0.0060000186060716705" stroke-linecap="round"/><line x1="0.7155592282981434" y1="0.5591585076352474" x2="-0.03915035192462868" y2="-0.09690052135525962" stroke="black" stroke-width="0.0060000186060716705" stroke-linecap="round"/><line x1="-0.03915035192462868" y1="-0.09690052135525962" x2="1.8629626806656785" y2="-0.7149345101051545" stroke="black" stroke-width="0.0060000186060716705" stroke-linecap="round"/><line x1="1.8629626806656785" y1="-0.7149345101051545" x2="1.6380116263218136" y2="0.2594355546800807" stroke="black" stroke-width="0.0060000186060716705" stroke-linecap="round"/><line x1="1.6380116263218136" y1="0.2594355546800807" x2="0.19933202564451014" y2="-1.1298811862379123" stroke="black" stroke-width="0.0060000186060716705" stroke-linecap="round"/><line x1="0.19933202564451014" y1="-1.1298811862379123" x2="1.1652578519335783" y2="-1.388700231340433" stroke="black" stroke-width="0.0060000186060716705" stroke-linecap="round"/><line x1="1.1652578519335783" y1="-1.388700231340433" x2="0.6139831402995803" y2="0.5338231605362047" stroke="black" stroke-width="0.0060000186060716705" stroke-linecap="round"/><line x1="0.6139831402995803" y1="0.5338231605362047" x2="-0.06801521976291791" y2="-0.19753054108296597" stroke="black" stroke-width="0.0060000186060716705" stroke-linecap="round"/><line x1="-0.06801521976291791" y1="-0.19753054108296597" x2="1.8882799817046934" y2="-0.6133539227184849" stroke="black" stroke-width="0.0060000186060716705" stroke-linecap="round"/><line x1="1.8882799817046934" y1="-0.6133539227184849" x2="1.5627118272475367" y2="0.33216465288083186" stroke="black" stroke-width="0.0060000186060716705" stroke-linecap="round"/><line x1="1.5627118272475367" y1="0.33216465288083186" x2="0.2771366078744575" y2="-1.1999242333571236" stroke="black" stroke-width="0.0060000186060716705" stroke-linecap="round"/><line x1="0.2771366078744575" y1="-1.1999242333571236" x2="1.2648249484695953" y2="-1.3563586983973546" stroke="black" stroke-width="0.0060000186060716705" stroke-linecap="round"/><line x1="1.2648249484695953" y1="-1.3563586983973546" x2="0.5156117616377712" y2="0.4980090107362203" stroke="black" stroke-width="0.0060000186060716705" stroke-linecap="round"/><line x1="0.5156117616377712" y1="0.4980090107362203" x2="-0.08620326151427704" y2="-0.30062649931107255" stroke="black" stroke-width="0.0060000186060716705" stroke-linecap="round"/><line x1="-0.08620326151427704" y1="-0.30062649931107255" x2="1.9028405292222694" y2="-0.5096834258463795" stroke="black" stroke-width="0.0060000186060716705" stroke-linecap="round"/><line x1="1.9028405292222694" y1="-0.5096834258463795" x2="1.4802222674815702" y2="0.39662436119027056" stroke="black" stroke-width="0.0060000186060716705" stroke-linecap="round"/><line x1="1.4802222674815702" y1="0.39662436119027056" x2="0.36183646054007546" y2="-1.2614507839198121" stroke="black" stroke-width="0.0060000186060716705" stroke-linecap="round"/><line x1="0.36183646054007546" y1="-1.2614507839198121" x2="1.3604659952946494" y2="-1.313786740162756" stroke="black" stroke-width="0.0060000186060716705" stroke-linecap="round"/><line x1="1.3604659952946494" y1="-1.313786740162756" x2="0.4215228697228677" y2="0.45210844555509766" stroke="black" stroke-width="0.0060000186060716705" stroke-linecap="round"/><line x1="0.4215228697228677" y1="0.45210844555509766" x2="-0.09351520518718681" y2="-0.40505885514701445" stroke="black" stroke-width="0.0060000186060716705" stroke-linecap="round"/><line x1="-0.09351520518718681" y1="-0.40505885514701445" x2="1.9064847948128132" y2="-0.40505885514701456" stroke="black" stroke-width="0.0060000186060716705" stroke-linecap="round"/><line x1="1.9064847948128132" y1="-0.40505885514701456" x2="1.391446719902759" y2="0.45210844555509777" stroke="black" stroke-width="0.0060000186060716705" stroke-linecap="round"/><line x1="1.391446719902759" y1="0.45210844555509777" x2="0.4525035943309773" y2="-1.3137867401627563" stroke="black" stroke-width="0.0060000186060716705" stroke-linecap="round"/><line x1="0.4525035943309773" y1="-1.3137867401627563" x2="1.4511331290855511" y2="-1.2614507839198128" stroke="black" stroke-width="0.0060000186060716705" stroke-linecap="round"/><line x1="1.4511331290855511" y1="-1.2614507839198128" x2="0.3327473221440578" y2="0.3966243611902709" stroke="black" stroke-width="0.0060000186060716705" stroke-linecap="round"/><line x1="0.3327473221440578" y1="0.3966243611902709" x2="-0.08987093959664222" y2="-0.5096834258463788" stroke="black" stroke-width="0.0060000186060716705" stroke-linecap="round"/><line x1="-0.08987093959664222" y1="-0.5096834258463788" x2="1.8991728511399046" y2="-0.30062649931107216" stroke="black" stroke-width="0.0060000186060716705" stroke-linecap="round"/><line x1="1.8991728511399046" y1="-0.30062649931107216" x2="1.2973578279878566" y2="0.4980090107362209" stroke="black" stroke-width="0.0060000186060716705" stroke-linecap="round"/><line x1="1.2973578279878566" y1="0.4980090107362209" x2="0.5481446411560319" y2="-1.3563586983973537" stroke="black" stroke-width="0.0060000186060716705" stroke-linecap="round"/><line x1="0.5481446411560319" y1="-1.3563586983973537" x2="1.5358329817511696" y2="-1.1999242333571227" stroke="black" stroke-width="0.0060000186060716705" stroke-linecap="round"/><line x1="1.5358329817511696" y1="-1.1999242333571227" x2="0.25025776237809105" y2="0.3321646528808335" stroke="black" stroke-width="0.0060000186060716705" stroke-linecap="round"/><line x1="0.25025776237809105" y1="0.3321646528808335" x2="-0.07531039207906648" y2="-0.613353922718483" stroke="black" stroke-width="0.0060000186060716705" stroke-linecap="round"/><line x1="-0.07531039207906648" y1="-0.613353922718483" x2="1.8809848093885448" y2="-0.19753054108296475" stroke="black" stroke-width="0.0060000186060716705" stroke-linecap="round"/><line x1="1.8809848093885448" y1="-0.19753054108296475" x2="1.1989864493260465" y2="0.5338231605362058" stroke="black" stroke-width="0.0060000186060716705" stroke-linecap="round"/><line x1="1.1989864493260465" y1="0.5338231605362058" x2="0.6477117376920469" y2="-1.3887002313404315" stroke="black" stroke-width="0.0060000186060716705" stroke-linecap="round"/><line x1="0.6477117376920469" y1="-1.3887002313404315" x2="1.6136375639811154" y2="-1.1298811862379106" stroke="black" stroke-width="0.0060000186060716705" stroke-linecap="round"/><line x1="1.6136375639811154" y1="-1.1298811862379106" x2="0.17495796330381364" y2="0.2594355546800844" stroke="black" stroke-width="0.0060000186060716705" stroke-linecap="round"/><line x1="0.17495796330381364" y1="0.2594355546800844" x2="-0.0499930910400517" y2="-0.7149345101051507" stroke="black" stroke-width="0.0060000186060716705" stroke-linecap="round"/><line x1="-0.0499930910400517" y1="-0.7149345101051507" x2="1.8521199415502556" y2="-0.09690052135525606" stroke="black" stroke-width="0.0060000186060716705" stroke-linecap="round"/><line x1="1.8521199415502556" y1="-0.09690052135525606" x2="1.097410361327484" y2="0.5591585076352517" stroke="black" stroke-width="0.0060000186060716705" stroke-linecap="round"/><line x1="1.097410361327484" y1="0.5591585076352517" x2="0.7501140059936213" y2="-1.4104569983891642" stroke="black" stroke-width="0.0060000186060716705" stroke-linecap="round"/><line x1="0.7501140059936213" y1="-1.4104569983891642" x2="1.6836944324908232" y2="-1.052089048843864" stroke="black" stroke-width="0.0060000186060716705" stroke-linecap="round"/><line x1="1.6836944324908232" y1="-1.052089048843864" x2="0.10767292527737893" y2="0.17923390180745224" stroke="black" stroke-width="0.0060000186060716705" stroke-linecap="round"/><line x1="0.10767292527737893" y1="0.17923390180745224" x2="-0.014196418127769186" y2="-0.8133122498338697" stroke="black" stroke-width="0.0060000186060716705" stroke-linecap="round"/><line x1="-0.014196418127769186" y1="-0.8133122498338697" x2="1.8128944971574328" y2="0.00016103631773045635" stroke="black" stroke-width="0.0060000186060716705" stroke-linecap="round"/><line x1="1.8128944971574328" y1="0.00016103631773045635" x2="0.9937424528684412" y2="0.5737374726687768" stroke="black" stroke-width="0.0060000186060716705" stroke-linecap="round"/><line x1="0.9937424528684412" y1="0.5737374726687768" x2="0.8542295053801917" y2="-1.421390627850872" stroke="black" stroke-width="0.0060000186060716705" stroke-linecap="round"/><line x1="0.8542295053801917" y1="-1.421390627850872" x2="1.7452360295685596" y2="-0.9674001281113251" stroke="black" stroke-width="0.0060000186060716705" stroke-linecap="round"/><line x1="1.7452360295685596" y1="-0.9674001281113251" x2="0.0491398372557077" y2="0.09243840035508488" stroke="black" stroke-width="0.0060000186060716705" stroke-linecap="round"/><line x1="0.0491398372557077" y1="0.09243840035508488" x2="0.03168743081842325" y2="-0.9074092948013064" stroke="black" stroke-width="0.0060000186060716705" stroke-linecap="round"/><line x1="0.03168743081842325" y1="-0.9074092948013064" x2="1.7637382383873006" y2="0.09259070519869317" stroke="black" stroke-width="0.0060000186060716705" stroke-linecap="round"/><line x1="1.7637382383873006" y1="0.09259070519869317" x2="0.8891185312479047" y2="0.57740032544503" stroke="black" stroke-width="0.0060000186060716705" stroke-linecap="round"/><line x1="0.8891185312479047" y1="0.57740032544503" x2="0.9589175246529067" y2="-1.4213813285931616" stroke="black" stroke-width="0.0060000186060716705" stroke-linecap="round"/><line x1="0.9589175246529067" y1="-1.4213813285931616" x2="1.7975880925983307" y2="-0.8767422935781345" stroke="black" stroke-width="0.0060000186060716705" stroke-linecap="round"/><line x1="1.7975880925983307" y1="-0.8767422935781345" x2="-2.886579864025407e-15" y2="2.098321516541546e-14" stroke="black" stroke-width="0.0060000186060716705" stroke-linecap="round"/></svg>