<?xml version="1.0" encoding="UTF-8"?><svg viewBox="-0.07685187339660343 -2.4923907015120474 7.447611806920246 7.83889108645346" xmlns="http://www.w3.org/2000/svg"><line x1="0" y1="0" x2="0.08715574274765817" y2="-0.9961946980917455" stroke="black" stroke-width="0.023055562018980763" stroke-linecap="round"/><line x1="0.08715574274765817" y1="-0.9961946980917455" x2="2.035895872318129" y2="-1.4460968067794755" stroke="black" stroke-width="0.023055562018980763" stroke-linecap="round"/><line x1="2.035895872318129" y1="-1.4460968067794755" x2="3.581010097048292" y2="1.1254050953268613" stroke="black" stroke-width="0.023055562018980763" stroke-linecap="round"/><line x1="3.581010097048292" y1="1.1254050953268613" x2="0.9567739810862625" y2="4.1442434162179485" stroke="black" stroke-width="0.023055562018980763" stroke-linecap="round"/><line x1="0.9567739810862625" y1="4.1442434162179485" x2="0.03626912763382206" y2="3.753512287728675" stroke="black" stroke-width="0.023055562018980763" stroke-linecap="round"/><line x1="0.03626912763382206" y1="3.753512287728675" x2="0.2105806131291384" y2="1.7611228915451838" stroke="black" stroke-width="0.023055562018980763" stroke-linecap="round"/><line x1="0.2105806131291384" y1="1.7611228915451838" x2="3.133690807484844" y2="1.086269728513589" stroke="black" stroke-width="0.023055562018980763" stroke-linecap="round"/><line x1="3.133690807484844" y1="1.086269728513589" x2="5.193843107125062" y2="4.514938931322038" stroke="black" stroke-width="0.023055562018980763" stroke-linecap="round"/><line x1="5.193843107125062" y1="4.514938931322038" x2="4.537784078134554" y2="5.26964851154481" stroke="black" stroke-width="0.023055562018980763" stroke-linecap="round"/><line x1="4.537784078134554" y1="5.26964851154481" x2="2.6967743712296732" y2="4.488186254566263" stroke="black" stroke-width="0.023055562018980763" stroke-linecap="round"/><line x1="2.6967743712296732" y1="4.488186254566263" x2="2.9582415994726476" y2="1.499602160291026" stroke="black" stroke-width="0.023055562018980763" stroke-linecap="round"/><line x1="2.9582415994726476" y1="1.499602160291026" x2="6.855721858613588" y2="0.5997979429155664" stroke="black" stroke-width="0.023055562018980763" stroke-linecap="round"/><line x1="6.855721858613588" y1="0.5997979429155664" x2="7.370759933523643" y2="1.4569652436176788" stroke="black" stroke-width="0.023055562018980763" stroke-linecap="round"/><line x1="7.370759933523643" y1="1.4569652436176788" x2="6.058641875542628" y2="2.9663844040632226" stroke="black" stroke-width="0.023055562018980763" stroke-linecap="round"/><line x1="6.058641875542628" y1="2.9663844040632226" x2="3.297127315185307" y2="1.7941910185954022" stroke="black" stroke-width="0.023055562018980763" stroke-linecap="round"/><line x1="3.297127315185307" y1="1.7941910185954022" x2="3.6457502861759394" y2="-2.19058777377158" stroke="black" stroke-width="0.023055562018980763" stroke-linecap="round"/><line x1="3.6457502861759394" y1="-2.19058777377158" x2="4.620120350961175" y2="-2.415538828115445" stroke="black" stroke-width="0.023055562018980763" stroke-linecap="round"/><line x1="4.620120350961175" y1="-2.415538828115445" x2="5.650196500781283" y2="-0.7012042267112204" stroke="black" stroke-width="0.023055562018980763" stroke-linecap="round"/><line x1="5.650196500781283" y1="-0.7012042267112204" x2="3.682019413809761" y2="1.562924513957095" stroke="black" stroke-width="0.023055562018980763" stroke-linecap="round"/><line x1="3.682019413809761" y1="1.562924513957095" x2="-8.881784197001252e-16" y2="1.1102230246251565e-15" stroke="black" stroke-width="0.023055562018980763" stroke-linecap="round"/></svg>