<?xml version="1.0" encoding="UTF-8"?><svg viewBox="-0.11269404637612343 -1.4489810976510107 2.0339985707839032 2.0541371704946454" xmlns="http://www.w3.org/2000/svg"><line x1="0" y1="0" x2="0.08715574274765817" y2="-0.9961946980917455" stroke="black" stroke-width="0.006041579913219546" stroke-linecap="round"/><line x1="0.08715574274765817" y1="-0.9961946980917455" x2="1.8530509284655123" y2="-0.05725157251996449" stroke="black" stroke-width="0.006041579913219546" stroke-linecap="round"/><line x1="1.8530509284655123" y1="-0.05725157251996449" x2="1.0759049670085412" y2="0.5720688185298726" stroke="black" stroke-width="0.006041579913219546" stroke-linecap="round"/><line x1="1.0759049670085412" y1="0.5720688185298726" x2="0.5246302553745417" y2="-1.3504545733467648" stroke="black" stroke-width="0.006041579913219546" stroke-linecap="round"/><line x1="0.5246302553745417" y1="-1.3504545733467648" x2="1.5171764070158638" y2="-1.2285852299416173" stroke="black" stroke-width="0.006041579913219546" stroke-linecap="round"/><line x1="1.5171764070158638" y1="-1.2285852299416173" x2="0.5171764070158635" y2="0.5034655776272599" stroke="black" stroke-width="0.006041579913219546" stroke-linecap="round"/><line x1="0.5171764070158635" y1="0.5034655776272599" x2="-0.08463861613618473" y2="-0.295169932420033" stroke="black" stroke-width="0.006041579913219546" stroke-linecap="round"/><line x1="-0.08463861613618473" y1="-0.295169932420033" x2="1.8559528364158082" y2="-0.7790137236193688" stroke="black" stroke-width="0.006041579913219546" stroke-linecap="round"/><line x1="1.8559528364158082" y1="-0.7790137236193688" x2="1.6995183713755775" y2="0.20867461697576895" stroke="black" stroke-width="0.006041579913219546" stroke-linecap="round"/><line x1="1.6995183713755775" y1="0.20867461697576895" x2="0.00342217906272535" y2="-0.8511639114906404" stroke="black" stroke-width="0.006041579913219546" stroke-linecap="round"/><line x1="0.00342217906272535" y1="-0.8511639114906404" x2="0.8225742233517171" y2="-1.4247403478416865" stroke="black" stroke-width="0.006041579913219546" stroke-linecap="round"/><line x1="0.8225742233517171" y1="-1.4247403478416865" x2="1.2383976049872358" y2="0.5315548536259249" stroke="black" stroke-width="0.006041579913219546" stroke-linecap="round"/><line x1="1.2383976049872358" y1="0.5315548536259249" x2="0.25677042153957175" y2="0.34074585824938064" stroke="black" stroke-width="0.006041579913219546" stroke-linecap="round"/><line x1="0.25677042153957175" y1="0.34074585824938064" x2="1.3751562284810657" y2="-1.3173292868607027" stroke="black" stroke-width="0.006041579913219546" stroke-linecap="round"/><line x1="1.3751562284810657" y1="-1.3173292868607027" x2="1.9197952634960926" y2="-0.47865871891527856" stroke="black" stroke-width="0.006041579913219546" stroke-linecap="round"/><line x1="1.9197952634960926" y1="-0.47865871891527856" x2="-0.0498202425283234" y2="-0.1313623635814179" stroke="black" stroke-width="0.006041579913219546" stroke-linecap="round"/><line x1="-0.0498202425283234" y1="-0.1313623635814179" x2="0.1751308118155416" y2="-1.1057324283666532" stroke="black" stroke-width="0.006041579913219546" stroke-linecap="round"/><line x1="0.1751308118155416" y1="-1.1057324283666532" x2="1.7931648005654366" y2="0.06983807621829285" stroke="black" stroke-width="0.006041579913219546" stroke-linecap="round"/><line x1="1.7931648005654366" y1="0.06983807621829285" x2="0.9359974998633245" y2="0.5848761511283473" stroke="black" stroke-width="0.006041579913219546" stroke-linecap="round"/><line x1="0.9359974998633245" y1="0.5848761511283473" x2="0.6576512979431928" y2="-1.3956599863547932" stroke="black" stroke-width="0.006041579913219546" stroke-linecap="round"/><line x1="0.6576512979431928" y1="-1.3956599863547932" x2="1.623577124232261" y2="-1.1368409412522724" stroke="black" stroke-width="0.006041579913219546" stroke-linecap="round"/><line x1="1.623577124232261" y1="-1.1368409412522724" x2="0.3922541735809453" y2="0.43918056596117205" stroke="black" stroke-width="0.006041579913219546" stroke-linecap="round"/><line x1="0.3922541735809453" y1="0.43918056596117205" x2="-0.09255544666539162" y2="-0.4354391411782238" stroke="black" stroke-width="0.006041579913219546" stroke-linecap="round"/><line x1="-0.09255544666539162" y1="-0.4354391411782238" x2="1.8964883440711549" y2="-0.6444960677135307" stroke="black" stroke-width="0.006041579913219546" stroke-linecap="round"/><line x1="1.8964883440711549" y1="-0.6444960677135307" x2="1.6041166393484185" y2="0.3118086882495048" stroke="black" stroke-width="0.006041579913219546" stroke-linecap="round"/><line x1="1.6041166393484185" y1="0.3118086882495048" x2="0.07202775311046228" y2="-0.9737665311235737" stroke="black" stroke-width="0.006041579913219546" stroke-linecap="round"/><line x1="0.07202775311046228" y1="-0.9737665311235737" x2="0.9630342772988301" y2="-1.4277570308631207" stroke="black" stroke-width="0.006041579913219546" stroke-linecap="round"/><line x1="0.9630342772988301" y1="-1.4277570308631207" x2="1.1025472247870811" y2="0.5673710696565277" stroke="black" stroke-width="0.006041579913219546" stroke-linecap="round"/><line x1="1.1025472247870811" y1="0.5673710696565277" x2="0.15702864918776416" y2="0.24180291519937142" stroke="black" stroke-width="0.006041579913219546" stroke-linecap="round"/><line x1="0.15702864918776416" y1="0.24180291519937142" x2="1.4952898619054806" y2="-1.244486735755417" stroke="black" stroke-width="0.006041579913219546" stroke-linecap="round"/><line x1="1.4952898619054806" y1="-1.244486735755417" x2="1.9179081236461801" y2="-0.3381789487187671" stroke="black" stroke-width="0.006041579913219546" stroke-linecap="round"/><line x1="1.9179081236461801" y1="-0.3381789487187671" x2="-0.08087353039201117" y2="-0.2683799553137638" stroke="black" stroke-width="0.006041579913219546" stroke-linecap="round"/><line x1="-0.08087353039201117" y1="-0.2683799553137638" x2="0.2774944191532891" y2="-1.2019603818109657" stroke="black" stroke-width="0.006041579913219546" stroke-linecap="round"/><line x1="0.2774944191532891" y1="-1.2019603818109657" x2="1.716174019830592" y2="0.18735635910702841" stroke="black" stroke-width="0.006041579913219546" stroke-linecap="round"/><line x1="1.716174019830592" y1="0.18735635910702841" x2="0.7956691663781517" y2="0.5780874875963022" stroke="black" stroke-width="0.006041579913219546" stroke-linecap="round"/><line x1="0.7956691663781517" y1="0.5780874875963022" x2="0.7956691663781517" y2="-1.4219125124036978" stroke="black" stroke-width="0.006041579913219546" stroke-linecap="round"/><line x1="0.7956691663781517" y1="-1.4219125124036978" x2="1.716174019830592" y2="-1.0311813839144242" stroke="black" stroke-width="0.006041579913219546" stroke-linecap="round"/><line x1="1.716174019830592" y1="-1.0311813839144242" x2="0.2774944191532902" y2="0.3581353570035708" stroke="black" stroke-width="0.006041579913219546" stroke-linecap="round"/><line x1="0.2774944191532902" y1="0.3581353570035708" x2="-0.08087353039201056" y2="-0.5754450694936307" stroke="black" stroke-width="0.006041579913219546" stroke-linecap="round"/><line x1="-0.08087353039201056" y1="-0.5754450694936307" x2="1.917908123646181" y2="-0.5056460760886292" stroke="black" stroke-width="0.006041579913219546" stroke-linecap="round"/><line x1="1.917908123646181" y1="-0.5056460760886292" x2="1.4952898619054817" y2="0.40066171094802083" stroke="black" stroke-width="0.006041579913219546" stroke-linecap="round"/><line x1="1.4952898619054817" y1="0.40066171094802083" x2="0.1570286491877655" y2="-1.0856279400067677" stroke="black" stroke-width="0.006041579913219546" stroke-linecap="round"/><line x1="0.1570286491877655" y1="-1.0856279400067677" x2="1.1025472247870822" y2="-1.4111960944639244" stroke="black" stroke-width="0.006041579913219546" stroke-linecap="round"/><line x1="1.1025472247870822" y1="-1.4111960944639244" x2="0.9630342772988325" y2="0.5839320060557243" stroke="black" stroke-width="0.006041579913219546" stroke-linecap="round"/><line x1="0.9630342772988325" y1="0.5839320060557243" x2="0.0720277531104645" y2="0.12994150631617762" stroke="black" stroke-width="0.006041579913219546" stroke-linecap="round"/><line x1="0.0720277531104645" y1="0.12994150631617762" x2="1.6041166393484205" y2="-1.155633713056901" stroke="black" stroke-width="0.006041579913219546" stroke-linecap="round"/><line x1="1.6041166393484205" y1="-1.155633713056901" x2="1.8964883440711575" y2="-0.19932895709386556" stroke="black" stroke-width="0.006041579913219546" stroke-linecap="round"/><line x1="1.8964883440711575" y1="-0.19932895709386556" x2="-0.09255544666538928" y2="-0.4083858836291715" stroke="black" stroke-width="0.006041579913219546" stroke-linecap="round"/><line x1="-0.09255544666538928" y1="-0.4083858836291715" x2="0.3922541735809478" y2="-1.2830055907685671" stroke="black" stroke-width="0.006041579913219546" stroke-linecap="round"/><line x1="0.3922541735809478" y1="-1.2830055907685671" x2="1.6235771242322645" y2="0.2930159164448767" stroke="black" stroke-width="0.006041579913219546" stroke-linecap="round"/><line x1="1.6235771242322645" y1="0.2930159164448767" x2="0.6576512979431962" y2="0.5518349615473973" stroke="black" stroke-width="0.006041579913219546" stroke-linecap="round"/><line x1="0.6576512979431962" y1="0.5518349615473973" x2="0.9359974998633271" y2="-1.4287011759357435" stroke="black" stroke-width="0.006041579913219546" stroke-linecap="round"/><line x1="0.9359974998633271" y1="-1.4287011759357435" x2="1.7931648005654395" y2="-0.9136631010256893" stroke="black" stroke-width="0.006041579913219546" stroke-linecap="round"/><line x1="1.7931648005654395" y1="-0.9136631010256893" x2="0.1751308118155448" y2="0.26190740355925723" stroke="black" stroke-width="0.006041579913219546" stroke-linecap="round"/><line x1="0.1751308118155448" y1="0.26190740355925723" x2="-0.04982024252832054" y2="-0.7124626612259779" stroke="black" stroke-width="0.006041579913219546" stroke-linecap="round"/><line x1="-0.04982024252832054" y1="-0.7124626612259779" x2="1.9197952634960955" y2="-0.3651663058921173" stroke="black" stroke-width="0.006041579913219546" stroke-linecap="round"/><line x1="1.9197952634960955" y1="-0.3651663058921173" x2="1.3751562284810683" y2="0.47350426205330676" stroke="black" stroke-width="0.006041579913219546" stroke-linecap="round"/><line x1="1.3751562284810683" y1="0.47350426205330676" x2="0.25677042153957363" y2="-1.184570883056776" stroke="black" stroke-width="0.006041579913219546" stroke-linecap="round"/><line x1="0.25677042153957363" y1="-1.184570883056776" x2="1.2383976049872376" y2="-1.3753798784333209" stroke="black" stroke-width="0.006041579913219546" stroke-linecap="round"/><line x1="1.2383976049872376" y1="-1.3753798784333209" x2="0.8225742233517195" y2="0.5809153230342905" stroke="black" stroke-width="0.006041579913219546" stroke-linecap="round"/><line x1="0.8225742233517195" y1="0.5809153230342905" x2="0.0034221790627276816" y2="0.00733888668324445" stroke="black" stroke-width="0.006041579913219546" stroke-linecap="round"/><line x1="0.0034221790627276816" y1="0.00733888668324445" x2="1.69951837137558" y2="-1.0524996417831654" stroke="black" stroke-width="0.006041579913219546" stroke-linecap="round"/><line x1="1.69951837137558" y1="-1.0524996417831654" x2="1.8559528364158109" y2="-0.06481130118802769" stroke="black" stroke-width="0.006041579913219546" stroke-linecap="round"/><line x1="1.8559528364158109" y1="-0.06481130118802769" x2="-0.08463861613618229" y2="-0.5486550923873625" stroke="black" stroke-width="0.006041579913219546" stroke-linecap="round"/><line x1="-0.08463861613618229" y1="-0.5486550923873625" x2="0.517176407015866" y2="-1.3472906024346554" stroke="black" stroke-width="0.006041579913219546" stroke-linecap="round"/><line x1="0.517176407015866" y1="-1.3472906024346554" x2="1.517176407015866" y2="0.38476020513422204" stroke="black" stroke-width="0.006041579913219546" stroke-linecap="round"/><line x1="1.517176407015866" y1="0.38476020513422204" x2="0.5246302553745439" y2="0.5066295485393693" stroke="black" stroke-width="0.006041579913219546" stroke-linecap="round"/><line x1="0.5246302553745439" y1="0.5066295485393693" x2="1.075904967008542" y2="-1.4158938433372685" stroke="black" stroke-width="0.006041579913219546" stroke-linecap="round"/><line x1="1.075904967008542" y1="-1.4158938433372685" x2="1.853050928465513" y2="-0.7865734522874313" stroke="black" stroke-width="0.006041579913219546" stroke-linecap="round"/><line x1="1.853050928465513" y1="-0.7865734522874313" x2="0.08715574274765903" y2="0.15236967328435025" stroke="black" stroke-width="0.006041579913219546" stroke-linecap="round"/><line x1="0.08715574274765903" y1="0.15236967328435025" x2="7.077671781985373e-16" y2="-0.8438250248073953" stroke="black" stroke-width="0.006041579913219546" stroke-linecap="round"/><line x1="7.077671781985373e-16" y1="-0.8438250248073953" x2="1.902113032590308" y2="-0.22579103605750062" stroke="black" stroke-width="0.006041579913219546" stroke-linecap="round"/><line x1="1.902113032590308" y1="-0.22579103605750062" x2="1.2460540035998005" y2="0.5289185441652713" stroke="black" stroke-width="0.006041579913219546" stroke-linecap="round"/><line x1="1.2460540035998005" y1="0.5289185441652713" x2="0.3693117100216464" y2="-1.268669548433063" stroke="black" stroke-width="0.006041579913219546" stroke-linecap="round"/><line x1="0.3693117100216464" y1="-1.268669548433063" x2="1.3679412447762203" y2="-1.321005504676007" stroke="black" stroke-width="0.006041579913219546" stroke-linecap="round"/><line x1="1.3679412447762203" y1="-1.321005504676007" x2="0.6839009581248829" y2="0.5583797368958099" stroke="black" stroke-width="0.006041579913219546" stroke-linecap="round"/><line x1="0.6839009581248829" y1="0.5583797368958099" x2="-0.047452743494288074" y2="-0.12361862316668815" stroke="black" stroke-width="0.006041579913219546" stroke-linecap="round"/><line x1="-0.047452743494288074" y1="-0.12361862316668815" x2="1.7796381717909138" y2="-0.9370919093182885" stroke="black" stroke-width="0.006041579913219546" stroke-linecap="round"/><line x1="1.7796381717909138" y1="-0.9370919093182885" x2="1.7970905782281972" y2="0.06275578583810282" stroke="black" stroke-width="0.006041579913219546" stroke-linecap="round"/><line x1="1.7970905782281972" y1="0.06275578583810282" x2="-0.05727713090537767" y2="-0.6864574009937211" stroke="black" stroke-width="0.006041579913219546" stroke-linecap="round"/><line x1="-0.05727713090537767" y1="-0.6864574009937211" x2="0.6498296502811698" y2="-1.3935641821802687" stroke="black" stroke-width="0.006041579913219546" stroke-linecap="round"/><line x1="0.6498296502811698" y1="-1.3935641821802687" x2="1.3990428371129942" y2="0.46080352695330595" stroke="black" stroke-width="0.006041579913219546" stroke-linecap="round"/><line x1="1.3990428371129942" y1="0.46080352695330595" x2="0.3991951419566029" y2="0.4433511205160228" stroke="black" stroke-width="0.006041579913219546" stroke-linecap="round"/><line x1="0.3991951419566029" y1="0.4433511205160228" x2="1.2126684281082032" y2="-1.383739794769179" stroke="black" stroke-width="0.006041579913219546" stroke-linecap="round"/><line x1="1.2126684281082032" y1="-1.383739794769179" x2="1.8946667881707016" y2="-0.6523860931500085" stroke="black" stroke-width="0.006041579913219546" stroke-linecap="round"/><line x1="1.8946667881707016" y1="-0.6523860931500085" x2="0.015281546598885143" y2="0.03165419350133025" stroke="black" stroke-width="0.006041579913219546" stroke-linecap="round"/><line x1="0.015281546598885143" y1="0.03165419350133025" x2="0.06761750284182896" y2="-0.9669753412532436" stroke="black" stroke-width="0.006041579913219546" stroke-linecap="round"/><line x1="0.06761750284182896" y1="-0.9669753412532436" x2="1.8652055954401627" y2="-0.09023304767508855" stroke="black" stroke-width="0.006041579913219546" stroke-linecap="round"/><line x1="1.8652055954401627" y1="-0.09023304767508855" x2="1.110496015217391" y2="0.5658259813154192" stroke="black" stroke-width="0.006041579913219546" stroke-linecap="round"/><line x1="1.110496015217391" y1="0.5658259813154192" x2="0.4924620264674958" y2="-1.336287051274888" stroke="black" stroke-width="0.006041579913219546" stroke-linecap="round"/><line x1="0.4924620264674958" y1="-1.336287051274888" x2="1.4886567245592413" y2="-1.2491313085272298" stroke="black" stroke-width="0.006041579913219546" stroke-linecap="round"/><line x1="1.4886567245592413" y1="-1.2491313085272298" x2="0.5497135989874595" y2="0.516763877190624" stroke="black" stroke-width="0.006041579913219546" stroke-linecap="round"/><line x1="0.5497135989874595" y1="0.516763877190624" x2="-0.0796067920623783" y2="-0.26038208426634657" stroke="black" stroke-width="0.006041579913219546" stroke-linecap="round"/><line x1="-0.0796067920623783" y1="-0.26038208426634657" x2="1.8429165998142594" y2="-0.8116567959003449" stroke="black" stroke-width="0.006041579913219546" stroke-linecap="round"/><line x1="1.8429165998142594" y1="-0.8116567959003449" x2="1.7210472564091117" y2="0.1808893557409771" stroke="black" stroke-width="0.006041579913219546" stroke-linecap="round"/><line x1="1.7210472564091117" y1="0.1808893557409771" x2="-0.011003551159765479" y2="-0.8191106442590231" stroke="black" stroke-width="0.006041579913219546" stroke-linecap="round"/><line x1="-0.011003551159765479" y1="-0.8191106442590231" x2="0.7876319588875274" y2="-1.4209256674110715" stroke="black" stroke-width="0.006041579913219546" stroke-linecap="round"/><line x1="0.7876319588875274" y1="-1.4209256674110715" x2="1.2714757500868628" y2="0.5196657851409214" stroke="black" stroke-width="0.006041579913219546" stroke-linecap="round"/><line x1="1.2714757500868628" y1="0.5196657851409214" x2="0.283787409491725" y2="0.36323132010069076" stroke="black" stroke-width="0.006041579913219546" stroke-linecap="round"/><line x1="0.283787409491725" y1="0.36323132010069076" x2="1.3436259379581348" y2="-1.3328648722121612" stroke="black" stroke-width="0.006041579913219546" stroke-linecap="round"/><line x1="1.3436259379581348" y1="-1.3328648722121612" x2="1.917202374309181" y2="-0.5137128279231696" stroke="black" stroke-width="0.006041579913219546" stroke-linecap="round"/><line x1="1.917202374309181" y1="-0.5137128279231696" x2="-0.0390928271584301" y2="-0.09788944628765006" stroke="black" stroke-width="0.006041579913219546" stroke-linecap="round"/><line x1="-0.0390928271584301" y1="-0.09788944628765006" x2="0.1517161682181147" y2="-1.079516629735314" stroke="black" stroke-width="0.006041579913219546" stroke-linecap="round"/><line x1="0.1517161682181147" y1="-1.079516629735314" x2="1.8097913133281982" y2="0.03886917720617933" stroke="black" stroke-width="0.006041579913219546" stroke-linecap="round"/><line x1="1.8097913133281982" y1="0.03886917720617933" x2="0.9711207453827742" y2="0.5835082122212063" stroke="black" stroke-width="0.006041579913219546" stroke-linecap="round"/><line x1="0.9711207453827742" y1="0.5835082122212063" x2="0.6238243900489115" y2="-1.3861072938032095" stroke="black" stroke-width="0.006041579913219546" stroke-linecap="round"/><line x1="0.6238243900489115" y1="-1.3861072938032095" x2="1.5981944548341467" y2="-1.1611562394593447" stroke="black" stroke-width="0.006041579913219546" stroke-linecap="round"/><line x1="1.5981944548341467" y1="-1.1611562394593447" x2="0.42262395024920063" y2="0.45687774929055025" stroke="black" stroke-width="0.006041579913219546" stroke-linecap="round"/><line x1="0.42262395024920063" y1="0.45687774929055025" x2="-0.09241412466085386" y2="-0.40028955141156186" stroke="black" stroke-width="0.006041579913219546" stroke-linecap="round"/><line x1="-0.09241412466085386" y1="-0.40028955141156186" x2="1.8881220128222866" y2="-0.6786357533316932" stroke="black" stroke-width="0.006041579913219546" stroke-linecap="round"/><line x1="1.8881220128222866" y1="-0.6786357533316932" x2="1.6293029677197663" y2="0.2872900729573752" stroke="black" stroke-width="0.006041579913219546" stroke-linecap="round"/><line x1="1.6293029677197663" y1="0.2872900729573752" x2="0.053281460506322764" y2="-0.9440328776939418" stroke="black" stroke-width="0.006041579913219546" stroke-linecap="round"/><line x1="0.053281460506322764" y1="-0.9440328776939418" x2="0.9279011676457185" y2="-1.428842497940279" stroke="black" stroke-width="0.006041579913219546" stroke-linecap="round"/><line x1="0.9279011676457185" y1="-1.428842497940279" x2="1.136958094181026" y2="0.5602012927962676" stroke="black" stroke-width="0.006041579913219546" stroke-linecap="round"/><line x1="1.136958094181026" y1="0.5602012927962676" x2="0.18065333821799057" y2="0.2678295880735309" stroke="black" stroke-width="0.006041579913219546" stroke-linecap="round"/><line x1="0.18065333821799057" y1="0.2678295880735309" x2="1.466228557591069" y2="-1.2642592981644252" stroke="black" stroke-width="0.006041579913219546" stroke-linecap="round"/><line x1="1.466228557591069" y1="-1.2642592981644252" x2="1.9202190573306157" y2="-0.3732527739760574" stroke="black" stroke-width="0.006041579913219546" stroke-linecap="round"/><line x1="1.9202190573306157" y1="-0.3732527739760574" x2="-0.07490904318903269" y2="-0.23373982648780622" stroke="black" stroke-width="0.006041579913219546" stroke-linecap="round"/><line x1="-0.07490904318903269" y1="-0.23373982648780622" x2="0.25065911126812396" y2="-1.179258402087123" stroke="black" stroke-width="0.006041579913219546" stroke-linecap="round"/><line x1="0.25065911126812396" y1="-1.179258402087123" x2="1.7369487622229125" y2="0.1590028106305934" stroke="black" stroke-width="0.006041579913219546" stroke-linecap="round"/><line x1="1.7369487622229125" y1="0.1590028106305934" x2="0.8306409751862628" y2="0.5816210723712933" stroke="black" stroke-width="0.006041579913219546" stroke-linecap="round"/><line x1="0.8306409751862628" y1="0.5816210723712933" x2="0.7608419817812612" y2="-1.4171605816668982" stroke="black" stroke-width="0.006041579913219546" stroke-linecap="round"/><line x1="0.7608419817812612" y1="-1.4171605816668982" x2="1.694422408278463" y2="-1.058792632121598" stroke="black" stroke-width="0.006041579913219546" stroke-linecap="round"/><line x1="1.694422408278463" y1="-1.058792632121598" x2="0.3051056673604682" y2="0.37988696855570425" stroke="black" stroke-width="0.006041579913219546" stroke-linecap="round"/><line x1="0.3051056673604682" y1="0.37988696855570425" x2="-0.08562546112880653" y2="-0.5406178848967357" stroke="black" stroke-width="0.006041579913219546" stroke-linecap="round"/><line x1="-0.08562546112880653" y1="-0.5406178848967357" x2="1.9143745388711935" y2="-0.5406178848967358" stroke="black" stroke-width="0.006041579913219546" stroke-linecap="round"/><line x1="1.9143745388711935" y1="-0.5406178848967358" x2="1.5236434103819199" y2="0.3798869685557046" stroke="black" stroke-width="0.006041579913219546" stroke-linecap="round"/><line x1="1.5236434103819199" y1="0.3798869685557046" x2="0.13432666946392469" y2="-1.0587926321215972" stroke="black" stroke-width="0.006041579913219546" stroke-linecap="round"/><line x1="0.13432666946392469" y1="-1.0587926321215972" x2="1.0679070959611265" y2="-1.4171605816668977" stroke="black" stroke-width="0.006041579913219546" stroke-linecap="round"/><line x1="1.0679070959611265" y1="-1.4171605816668977" x2="0.9981081025561247" y2="0.5816210723712938" stroke="black" stroke-width="0.006041579913219546" stroke-linecap="round"/><line x1="0.9981081025561247" y1="0.5816210723712938" x2="0.09180031551947487" y2="0.15900281063059418" stroke="black" stroke-width="0.006041579913219546" stroke-linecap="round"/><line x1="0.09180031551947487" y1="0.15900281063059418" x2="1.5780899664742634" y2="-1.1792584020871222" stroke="black" stroke-width="0.006041579913219546" stroke-linecap="round"/><line x1="1.5780899664742634" y1="-1.1792584020871222" x2="1.9036581209314203" y2="-0.23373982648780545" stroke="black" stroke-width="0.006041579913219546" stroke-linecap="round"/><line x1="1.9036581209314203" y1="-0.23373982648780545" x2="-0.09146997958822833" y2="-0.3732527739760559" stroke="black" stroke-width="0.006041579913219546" stroke-linecap="round"/><line x1="-0.09146997958822833" y1="-0.3732527739760559" x2="0.36252052015131847" y2="-1.2642592981644238" stroke="black" stroke-width="0.006041579913219546" stroke-linecap="round"/><line x1="0.36252052015131847" y1="-1.2642592981644238" x2="1.6480957395243974" y2="0.26782958807353197" stroke="black" stroke-width="0.006041579913219546" stroke-linecap="round"/><line x1="1.6480957395243974" y1="0.26782958807353197" x2="0.691790983561362" y2="0.5602012927962691" stroke="black" stroke-width="0.006041579913219546" stroke-linecap="round"/><line x1="0.691790983561362" y1="0.5602012927962691" x2="0.900847910096669" y2="-1.4288424979402774" stroke="black" stroke-width="0.006041579913219546" stroke-linecap="round"/><line x1="0.900847910096669" y1="-1.4288424979402774" x2="1.7754676172360648" y2="-0.9440328776939404" stroke="black" stroke-width="0.006041579913219546" stroke-linecap="round"/><line x1="1.7754676172360648" y1="-0.9440328776939404" x2="0.19944611002262058" y2="0.28729007295737574" stroke="black" stroke-width="0.006041579913219546" stroke-linecap="round"/><line x1="0.19944611002262058" y1="0.28729007295737574" x2="-0.0593729350799001" y2="-0.6786357533316926" stroke="black" stroke-width="0.006041579913219546" stroke-linecap="round"/><line x1="-0.0593729350799001" y1="-0.6786357533316926" x2="1.9211632024032406" y2="-0.40028955141156186" stroke="black" stroke-width="0.006041579913219546" stroke-linecap="round"/><line x1="1.9211632024032406" y1="-0.40028955141156186" x2="1.4061251274931865" y2="0.45687774929055047" stroke="black" stroke-width="0.006041579913219546" stroke-linecap="round"/><line x1="1.4061251274931865" y1="0.45687774929055047" x2="0.2305546229082398" y2="-1.1611562394593442" stroke="black" stroke-width="0.006041579913219546" stroke-linecap="round"/><line x1="0.2305546229082398" y1="-1.1611562394593442" x2="1.2049246876934752" y2="-1.386107293803209" stroke="black" stroke-width="0.006041579913219546" stroke-linecap="round"/><line x1="1.2049246876934752" y1="-1.386107293803209" x2="0.8576283323596142" y2="0.583508212221207" stroke="black" stroke-width="0.006041579913219546" stroke-linecap="round"/><line x1="0.8576283323596142" y1="0.583508212221207" x2="0.018957764414189948" y2="0.03886917720618033" stroke="black" stroke-width="0.006041579913219546" stroke-linecap="round"/><line x1="0.018957764414189948" y1="0.03886917720618033" x2="1.6770329095242733" y2="-1.0795166297353131" stroke="black" stroke-width="0.006041579913219546" stroke-linecap="round"/><line x1="1.6770329095242733" y1="-1.0795166297353131" x2="1.8678419049008184" y2="-0.09788944628764917" stroke="black" stroke-width="0.006041579913219546" stroke-linecap="round"/><line x1="1.8678419049008184" y1="-0.09788944628764917" x2="-0.08845329656679324" y2="-0.5137128279231663" stroke="black" stroke-width="0.006041579913219546" stroke-linecap="round"/><line x1="-0.08845329656679324" y1="-0.5137128279231663" x2="0.4851231397842528" y2="-1.332864872212158" stroke="black" stroke-width="0.006041579913219546" stroke-linecap="round"/><line x1="0.4851231397842528" y1="-1.332864872212158" x2="1.5449616682506626" y2="0.3632313201006938" stroke="black" stroke-width="0.006041579913219546" stroke-linecap="round"/><line x1="1.5449616682506626" y1="0.3632313201006938" x2="0.557273327655525" y2="0.5196657851409249" stroke="black" stroke-width="0.006041579913219546" stroke-linecap="round"/><line x1="0.557273327655525" y1="0.5196657851409249" x2="1.0411171188548605" y2="-1.4209256674110682" stroke="black" stroke-width="0.006041579913219546" stroke-linecap="round"/><line x1="1.0411171188548605" y1="-1.4209256674110682" x2="1.8397526289021533" y2="-0.8191106442590198" stroke="black" stroke-width="0.006041579913219546" stroke-linecap="round"/><line x1="1.8397526289021533" y1="-0.8191106442590198" x2="0.10770182133327633" y2="0.18088935574098108" stroke="black" stroke-width="0.006041579913219546" stroke-linecap="round"/><line x1="0.10770182133327633" y1="0.18088935574098108" x2="-0.014167522071871788" y2="-0.8116567959003409" stroke="black" stroke-width="0.006041579913219546" stroke-linecap="round"/><line x1="-0.014167522071871788" y1="-0.8116567959003409" x2="1.908355869804766" y2="-0.2603820842663428" stroke="black" stroke-width="0.006041579913219546" stroke-linecap="round"/><line x1="1.908355869804766" y1="-0.2603820842663428" x2="1.2790354787549285" y2="0.516763877190628" stroke="black" stroke-width="0.006041579913219546" stroke-linecap="round"/><line x1="1.2790354787549285" y1="0.516763877190628" x2="0.3400923531831469" y2="-1.249131308527226" stroke="black" stroke-width="0.006041579913219546" stroke-linecap="round"/><line x1="0.3400923531831469" y1="-1.249131308527226" x2="1.3362870512748923" y2="-1.3362870512748841" stroke="black" stroke-width="0.006041579913219546" stroke-linecap="round"/><line x1="1.3362870512748923" y1="-1.3362870512748841" x2="0.7182530625249969" y2="0.5658259813154229" stroke="black" stroke-width="0.006041579913219546" stroke-linecap="round"/><line x1="0.7182530625249969" y1="0.5658259813154229" x2="-0.03645651769777525" y2="-0.09023304767508411" stroke="black" stroke-width="0.006041579913219546" stroke-linecap="round"/><line x1="-0.03645651769777525" y1="-0.09023304767508411" x2="1.761131574900559" y2="-0.966975341253239" stroke="black" stroke-width="0.006041579913219546" stroke-linecap="round"/><line x1="1.761131574900559" y1="-0.966975341253239" x2="1.8134675311435027" y2="0.031654193501334804" stroke="black" stroke-width="0.006041579913219546" stroke-linecap="round"/><line x1="1.8134675311435027" y1="0.031654193501334804" x2="-0.0659177104283144" y2="-0.6523860931500015" stroke="black" stroke-width="0.006041579913219546" stroke-linecap="round"/><line x1="-0.0659177104283144" y1="-0.6523860931500015" x2="0.6160806496341841" y2="-1.383739794769172" stroke="black" stroke-width="0.006041579913219546" stroke-linecap="round"/><line x1="0.6160806496341841" y1="-1.383739794769172" x2="1.429553935785785" y2="0.44335112051602943" stroke="black" stroke-width="0.006041579913219546" stroke-linecap="round"/><line x1="1.429553935785785" y1="0.44335112051602943" x2="0.42970624062939367" y2="0.46080352695331295" stroke="black" stroke-width="0.006041579913219546" stroke-linecap="round"/><line x1="0.42970624062939367" y1="0.46080352695331295" x2="1.1789194274612176" y2="-1.393564182180262" stroke="black" stroke-width="0.006041579913219546" stroke-linecap="round"/><line x1="1.1789194274612176" y1="-1.393564182180262" x2="1.886026208647765" y2="-0.6864574009937146" stroke="black" stroke-width="0.006041579913219546" stroke-linecap="round"/><line x1="1.886026208647765" y1="-0.6864574009937146" x2="0.03165849951419042" y2="0.06275578583811003" stroke="black" stroke-width="0.006041579913219546" stroke-linecap="round"/><line x1="0.03165849951419042" y1="0.06275578583811003" x2="0.04911090595147393" y2="-0.9370919093182812" stroke="black" stroke-width="0.006041579913219546" stroke-linecap="round"/><line x1="0.04911090595147393" y1="-0.9370919093182812" x2="1.8762018212366758" y2="-0.12361862316668104" stroke="black" stroke-width="0.006041579913219546" stroke-linecap="round"/><line x1="1.8762018212366758" y1="-0.12361862316668104" x2="1.1448481196175058" y2="0.5583797368958179" stroke="black" stroke-width="0.006041579913219546" stroke-linecap="round"/><line x1="1.1448481196175058" y1="0.5583797368958179" x2="0.46080783296616856" y2="-1.321005504675999" stroke="black" stroke-width="0.006041579913219546" stroke-linecap="round"/><line x1="0.46080783296616856" y1="-1.321005504675999" x2="1.4594373677207424" y2="-1.2686695484330555" stroke="black" stroke-width="0.006041579913219546" stroke-linecap="round"/><line x1="1.4594373677207424" y1="-1.2686695484330555" x2="0.5826950741425883" y2="0.5289185441652788" stroke="black" stroke-width="0.006041579913219546" stroke-linecap="round"/><line x1="0.5826950741425883" y1="0.5289185441652788" x2="-0.07336395484791913" y2="-0.22579103605749307" stroke="black" stroke-width="0.006041579913219546" stroke-linecap="round"/><line x1="-0.07336395484791913" y1="-0.22579103605749307" x2="1.8287490777423878" y2="-0.843825024807388" stroke="black" stroke-width="0.006041579913219546" stroke-linecap="round"/><line x1="1.8287490777423878" y1="-0.843825024807388" x2="1.74159333499473" y2="0.15236967328435758" stroke="black" stroke-width="0.006041579913219546" stroke-linecap="round"/><line x1="1.74159333499473" y1="0.15236967328435758" x2="-0.024301850723124296" y2="-0.7865734522874233" stroke="black" stroke-width="0.006041579913219546" stroke-linecap="round"/><line x1="-0.024301850723124296" y1="-0.7865734522874233" x2="0.7528441107338465" y2="-1.4158938433372608" stroke="black" stroke-width="0.006041579913219546" stroke-linecap="round"/><line x1="0.7528441107338465" y1="-1.4158938433372608" x2="1.3041188223678457" y2="0.5066295485393766" stroke="black" stroke-width="0.006041579913219546" stroke-linecap="round"/><line x1="1.3041188223678457" y1="0.5066295485393766" x2="0.3115726707265237" y2="0.3847602051342289" stroke="black" stroke-width="0.006041579913219546" stroke-linecap="round"/><line x1="0.3115726707265237" y1="0.3847602051342289" x2="1.3115726707265236" y2="-1.3472906024346485" stroke="black" stroke-width="0.006041579913219546" stroke-linecap="round"/><line x1="1.3115726707265236" y1="-1.3472906024346485" x2="1.9133876938785717" y2="-0.5486550923873555" stroke="black" stroke-width="0.006041579913219546" stroke-linecap="round"/><line x1="1.9133876938785717" y1="-0.5486550923873555" x2="-0.027203758673421286" y2="-0.06481130118801998" stroke="black" stroke-width="0.006041579913219546" stroke-linecap="round"/><line x1="-0.027203758673421286" y1="-0.06481130118801998" x2="0.12923070636680958" y2="-1.0524996417831578" stroke="black" stroke-width="0.006041579913219546" stroke-linecap="round"/><line x1="0.12923070636680958" y1="-1.0524996417831578" x2="1.8253268986796618" y2="0.007338886683251777" stroke="black" stroke-width="0.006041579913219546" stroke-linecap="round"/><line x1="1.8253268986796618" y1="0.007338886683251777" x2="1.0061748543906703" y2="0.5809153230342982" stroke="black" stroke-width="0.006041579913219546" stroke-linecap="round"/><line x1="1.0061748543906703" y1="0.5809153230342982" x2="0.5903514727551507" y2="-1.3753798784333129" stroke="black" stroke-width="0.006041579913219546" stroke-linecap="round"/><line x1="0.5903514727551507" y1="-1.3753798784333129" x2="1.5719786562028146" y2="-1.184570883056768" stroke="black" stroke-width="0.006041579913219546" stroke-linecap="round"/><line x1="1.5719786562028146" y1="-1.184570883056768" x2="0.45359284926132126" y2="0.47350426205331564" stroke="black" stroke-width="0.006041579913219546" stroke-linecap="round"/><line x1="0.45359284926132126" y1="0.47350426205331564" x2="-0.09104618575370571" y2="-0.3651663058921084" stroke="black" stroke-width="0.006041579913219546" stroke-linecap="round"/><line x1="-0.09104618575370571" y1="-0.3651663058921084" x2="1.8785693202707103" y2="-0.7124626612259692" stroke="black" stroke-width="0.006041579913219546" stroke-linecap="round"/><line x1="1.8785693202707103" y1="-0.7124626612259692" x2="1.6536182659268452" y2="0.261907403559266" stroke="black" stroke-width="0.006041579913219546" stroke-linecap="round"/><line x1="1.6536182659268452" y1="0.261907403559266" x2="0.03558427717695012" y2="-0.9136631010256798" stroke="black" stroke-width="0.006041579913219546" stroke-linecap="round"/><line x1="0.03558427717695012" y1="-0.9136631010256798" x2="0.8927515778790623" y2="-1.4287011759357342" stroke="black" stroke-width="0.006041579913219546" stroke-linecap="round"/><line x1="0.8927515778790623" y1="-1.4287011759357342" x2="1.1710977797991937" y2="0.5518349615474063" stroke="black" stroke-width="0.006041579913219546" stroke-linecap="round"/><line x1="1.1710977797991937" y1="0.5518349615474063" x2="0.20517195351012552" y2="0.29301591644488517" stroke="black" stroke-width="0.006041579913219546" stroke-linecap="round"/><line x1="0.20517195351012552" y1="0.29301591644488517" x2="1.4364949041614419" y2="-1.283005590768559" stroke="black" stroke-width="0.006041579913219546" stroke-linecap="round"/><line x1="1.4364949041614419" y1="-1.283005590768559" x2="1.921304524407779" y2="-0.40838588362916317" stroke="black" stroke-width="0.006041579913219546" stroke-linecap="round"/><line x1="1.921304524407779" y1="-0.40838588362916317" x2="-0.0677392663287677" y2="-0.19932895709385645" stroke="black" stroke-width="0.006041579913219546" stroke-linecap="round"/><line x1="-0.0677392663287677" y1="-0.19932895709385645" x2="0.22463243839396907" y2="-1.1556337130568919" stroke="black" stroke-width="0.006041579913219546" stroke-linecap="round"/><line x1="0.22463243839396907" y1="-1.1556337130568919" x2="1.756721324631925" y2="0.12994150631618684" stroke="black" stroke-width="0.006041579913219546" stroke-linecap="round"/><line x1="1.756721324631925" y1="0.12994150631618684" x2="0.8657148004435573" y2="0.5839320060557338" stroke="black" stroke-width="0.006041579913219546" stroke-linecap="round"/><line x1="0.8657148004435573" y1="0.5839320060557338" x2="0.7262018529553078" y2="-1.4111960944639148" stroke="black" stroke-width="0.006041579913219546" stroke-linecap="round"/><line x1="0.7262018529553078" y1="-1.4111960944639148" x2="1.6717204285546248" y2="-1.0856279400067583" stroke="black" stroke-width="0.006041579913219546" stroke-linecap="round"/><line x1="1.6717204285546248" y1="-1.0856279400067583" x2="0.3334592158369083" y2="0.40066171094803016" stroke="black" stroke-width="0.006041579913219546" stroke-linecap="round"/><line x1="0.3334592158369083" y1="0.40066171094803016" x2="-0.0891590459037917" y2="-0.5056460760886196" stroke="black" stroke-width="0.006041579913219546" stroke-linecap="round"/><line x1="-0.0891590459037917" y1="-0.5056460760886196" x2="1.9096226081343999" y2="-0.5754450694936217" stroke="black" stroke-width="0.006041579913219546" stroke-linecap="round"/><line x1="1.9096226081343999" y1="-0.5754450694936217" x2="1.5512546585890994" y2="0.35813535700358" stroke="black" stroke-width="0.006041579913219546" stroke-linecap="round"/><line x1="1.5512546585890994" y1="0.35813535700358" x2="0.1125750579117959" y2="-1.0311813839144133" stroke="black" stroke-width="0.006041579913219546" stroke-linecap="round"/><line x1="0.1125750579117959" y1="-1.0311813839144133" x2="1.0330799113642362" y2="-1.4219125124036873" stroke="black" stroke-width="0.006041579913219546" stroke-linecap="round"/><line x1="1.0330799113642362" y1="-1.4219125124036873" x2="1.0330799113642364" y2="0.5780874875963127" stroke="black" stroke-width="0.006041579913219546" stroke-linecap="round"/><line x1="1.0330799113642364" y1="0.5780874875963127" x2="0.1125750579117959" y2="0.18735635910703918" stroke="black" stroke-width="0.006041579913219546" stroke-linecap="round"/><line x1="0.1125750579117959" y1="0.18735635910703918" x2="1.551254658589098" y2="-1.2019603818109554" stroke="black" stroke-width="0.006041579913219546" stroke-linecap="round"/><line x1="1.551254658589098" y1="-1.2019603818109554" x2="1.9096226081343983" y2="-0.2683799553137537" stroke="black" stroke-width="0.006041579913219546" stroke-linecap="round"/><line x1="1.9096226081343983" y1="-0.2683799553137537" x2="-0.0891590459037932" y2="-0.33817894871875626" stroke="black" stroke-width="0.006041579913219546" stroke-linecap="round"/><line x1="-0.0891590459037932" y1="-0.33817894871875626" x2="0.33345921583690624" y2="-1.2444867357554061" stroke="black" stroke-width="0.006041579913219546" stroke-linecap="round"/><line x1="0.33345921583690624" y1="-1.2444867357554061" x2="1.6717204285546232" y2="0.24180291519938213" stroke="black" stroke-width="0.006041579913219546" stroke-linecap="round"/><line x1="1.6717204285546232" y1="0.24180291519938213" x2="0.7262018529553064" y2="0.5673710696565388" stroke="black" stroke-width="0.006041579913219546" stroke-linecap="round"/><line x1="0.7262018529553064" y1="0.5673710696565388" x2="0.865714800443557" y2="-1.4277570308631096" stroke="black" stroke-width="0.006041579913219546" stroke-linecap="round"/><line x1="0.865714800443557" y1="-1.4277570308631096" x2="1.7567213246319249" y2="-0.9737665311235628" stroke="black" stroke-width="0.006041579913219546" stroke-linecap="round"/><line x1="1.7567213246319249" y1="-0.9737665311235628" x2="0.22463243839396907" y2="0.31180868824951613" stroke="black" stroke-width="0.006041579913219546" stroke-linecap="round"/><line x1="0.22463243839396907" y1="0.31180868824951613" x2="-0.0677392663287672" y2="-0.6444960677135195" stroke="black" stroke-width="0.006041579913219546" stroke-linecap="round"/><line x1="-0.0677392663287672" y1="-0.6444960677135195" x2="1.9213045244077795" y2="-0.43543914117821286" stroke="black" stroke-width="0.006041579913219546" stroke-linecap="round"/><line x1="1.9213045244077795" y1="-0.43543914117821286" x2="1.4364949041614425" y2="0.439180565961183" stroke="black" stroke-width="0.006041579913219546" stroke-linecap="round"/><line x1="1.4364949041614425" y1="0.439180565961183" x2="0.20517195351012485" y2="-1.1368409412522602" stroke="black" stroke-width="0.006041579913219546" stroke-linecap="round"/><line x1="0.20517195351012485" y1="-1.1368409412522602" x2="1.1710977797991933" y2="-1.395659986354781" stroke="black" stroke-width="0.006041579913219546" stroke-linecap="round"/><line x1="1.1710977797991933" y1="-1.395659986354781" x2="0.8927515778790622" y2="0.5848761511283596" stroke="black" stroke-width="0.006041579913219546" stroke-linecap="round"/><line x1="0.8927515778790622" y1="0.5848761511283596" x2="0.0355842771769499" y2="0.0698380762183054" stroke="black" stroke-width="0.006041579913219546" stroke-linecap="round"/><line x1="0.0355842771769499" y1="0.0698380762183054" x2="1.6536182659268448" y2="-1.105732428366641" stroke="black" stroke-width="0.006041579913219546" stroke-linecap="round"/><line x1="1.6536182659268448" y1="-1.105732428366641" x2="1.8785693202707097" y2="-0.13136236358140574" stroke="black" stroke-width="0.006041579913219546" stroke-linecap="round"/><line x1="1.8785693202707097" y1="-0.13136236358140574" x2="-0.0910461857537066" y2="-0.4786587189152657" stroke="black" stroke-width="0.006041579913219546" stroke-linecap="round"/><line x1="-0.0910461857537066" y1="-0.4786587189152657" x2="0.4535928492613205" y2="-1.3173292868606898" stroke="black" stroke-width="0.006041579913219546" stroke-linecap="round"/><line x1="0.4535928492613205" y1="-1.3173292868606898" x2="1.5719786562028144" y2="0.3407458582493934" stroke="black" stroke-width="0.006041579913219546" stroke-linecap="round"/><line x1="1.5719786562028144" y1="0.3407458582493934" x2="0.5903514727551505" y2="0.5315548536259389" stroke="black" stroke-width="0.006041579913219546" stroke-linecap="round"/><line x1="0.5903514727551505" y1="0.5315548536259389" x2="1.0061748543906692" y2="-1.4247403478416725" stroke="black" stroke-width="0.006041579913219546" stroke-linecap="round"/><line x1="1.0061748543906692" y1="-1.4247403478416725" x2="1.8253268986796614" y2="-0.8511639114906266" stroke="black" stroke-width="0.006041579913219546" stroke-linecap="round"/><line x1="1.8253268986796614" y1="-0.8511639114906266" x2="0.12923070636680944" y2="0.20867461697578338" stroke="black" stroke-width="0.006041579913219546" stroke-linecap="round"/><line x1="0.12923070636680944" y1="0.20867461697578338" x2="-0.027203758673421674" y2="-0.7790137236193543" stroke="black" stroke-width="0.006041579913219546" stroke-linecap="round"/><line x1="-0.027203758673421674" y1="-0.7790137236193543" x2="1.9133876938785712" y2="-0.2951699324200187" stroke="black" stroke-width="0.006041579913219546" stroke-linecap="round"/><line x1="1.9133876938785712" y1="-0.2951699324200187" x2="1.3115726707265232" y2="0.5034655776272743" stroke="black" stroke-width="0.006041579913219546" stroke-linecap="round"/><line x1="1.3115726707265232" y1="0.5034655776272743" x2="0.3115726707265223" y2="-1.2285852299416025" stroke="black" stroke-width="0.006041579913219546" stroke-linecap="round"/><line x1="0.3115726707265223" y1="-1.2285852299416025" x2="1.3041188223678444" y2="-1.35045457334675" stroke="black" stroke-width="0.006041579913219546" stroke-linecap="round"/><line x1="1.3041188223678444" y1="-1.35045457334675" x2="0.7528441107338464" y2="0.5720688185298879" stroke="black" stroke-width="0.006041579913219546" stroke-linecap="round"/><line x1="0.7528441107338464" y1="0.5720688185298879" x2="-0.024301850723124407" y2="-0.05725157251994961" stroke="black" stroke-width="0.006041579913219546" stroke-linecap="round"/><line x1="-0.024301850723124407" y1="-0.05725157251994961" x2="1.7415933349947292" y2="-0.9961946980917313" stroke="black" stroke-width="0.006041579913219546" stroke-linecap="round"/><line x1="1.7415933349947292" y1="-0.9961946980917313" x2="1.8287490777423878" y2="1.4210854715202004e-14" stroke="black" stroke-width="0.006041579913219546" stroke-linecap="round"/><line x1="1.8287490777423878" y1="1.4210854715202004e-14" x2="-0.07336395484791947" y2="-0.6180339887498802" stroke="black" stroke-width="0.006041579913219546" stroke-linecap="round"/><line x1="-0.07336395484791947" y1="-0.6180339887498802" x2="0.5826950741425877" y2="-1.3727435689726524" stroke="black" stroke-width="0.006041579913219546" stroke-linecap="round"/><line x1="0.5826950741425877" y1="-1.3727435689726524" x2="1.4594373677207422" y2="0.4248445236256817" stroke="black" stroke-width="0.006041579913219546" stroke-linecap="round"/><line x1="1.4594373677207422" y1="0.4248445236256817" x2="0.46080783296616834" y2="0.477180479868626" stroke="black" stroke-width="0.006041579913219546" stroke-linecap="round"/><line x1="0.46080783296616834" y1="0.477180479868626" x2="1.1448481196175058" y2="-1.402204761703191" stroke="black" stroke-width="0.006041579913219546" stroke-linecap="round"/><line x1="1.1448481196175058" y1="-1.402204761703191" x2="1.8762018212366764" y2="-0.7202064016406926" stroke="black" stroke-width="0.006041579913219546" stroke-linecap="round"/><line x1="1.8762018212366764" y1="-0.7202064016406926" x2="0.04911090595147449" y2="0.09326688451090759" stroke="black" stroke-width="0.006041579913219546" stroke-linecap="round"/><line x1="0.04911090595147449" y1="0.09326688451090759" x2="0.031658499514190044" y2="-0.9065808106454837" stroke="black" stroke-width="0.006041579913219546" stroke-linecap="round"/><line x1="0.031658499514190044" y1="-0.9065808106454837" x2="1.8860262086477648" y2="-0.15736762381365954" stroke="black" stroke-width="0.006041579913219546" stroke-linecap="round"/><line x1="1.8860262086477648" y1="-0.15736762381365954" x2="1.1789194274612174" y2="0.5497391573728881" stroke="black" stroke-width="0.006041579913219546" stroke-linecap="round"/><line x1="1.1789194274612174" y1="0.5497391573728881" x2="0.42970624062939267" y2="-1.3046285517606866" stroke="black" stroke-width="0.006041579913219546" stroke-linecap="round"/><line x1="0.42970624062939267" y1="-1.3046285517606866" x2="1.4295539357857838" y2="-1.2871761453234032" stroke="black" stroke-width="0.006041579913219546" stroke-linecap="round"/><line x1="1.4295539357857838" y1="-1.2871761453234032" x2="0.6160806496341842" y2="0.539914769961799" stroke="black" stroke-width="0.006041579913219546" stroke-linecap="round"/><line x1="0.6160806496341842" y1="0.539914769961799" x2="-0.06591771042831407" y2="-0.1914389316573717" stroke="black" stroke-width="0.006041579913219546" stroke-linecap="round"/><line x1="-0.06591771042831407" y1="-0.1914389316573717" x2="1.8134675311435027" y2="-0.8754792183087093" stroke="black" stroke-width="0.006041579913219546" stroke-linecap="round"/><line x1="1.8134675311435027" y1="-0.8754792183087093" x2="1.7611315749005592" y2="0.1231503164458645" stroke="black" stroke-width="0.006041579913219546" stroke-linecap="round"/><line x1="1.7611315749005592" y1="0.1231503164458645" x2="-0.036456517697774915" y2="-0.7535919771322903" stroke="black" stroke-width="0.006041579913219546" stroke-linecap="round"/><line x1="-0.036456517697774915" y1="-0.7535919771322903" x2="0.7182530625249971" y2="-1.4096510061227976" stroke="black" stroke-width="0.006041579913219546" stroke-linecap="round"/><line x1="0.7182530625249971" y1="-1.4096510061227976" x2="1.3362870512748921" y2="0.4924620264675095" stroke="black" stroke-width="0.006041579913219546" stroke-linecap="round"/><line x1="1.3362870512748921" y1="0.4924620264675095" x2="0.34009235318314657" y2="0.40530628371985156" stroke="black" stroke-width="0.006041579913219546" stroke-linecap="round"/><line x1="0.34009235318314657" y1="0.40530628371985156" x2="1.279035478754928" y2="-1.3605889019980024" stroke="black" stroke-width="0.006041579913219546" stroke-linecap="round"/><line x1="1.279035478754928" y1="-1.3605889019980024" x2="1.9083558698047658" y2="-0.5834429405410317" stroke="black" stroke-width="0.006041579913219546" stroke-linecap="round"/><line x1="1.9083558698047658" y1="-0.5834429405410317" x2="-0.014167522071871996" y2="-0.03216822890703397" stroke="black" stroke-width="0.006041579913219546" stroke-linecap="round"/><line x1="-0.014167522071871996" y1="-0.03216822890703397" x2="0.10770182133327548" y2="-1.0247143805483558" stroke="black" stroke-width="0.006041579913219546" stroke-linecap="round"/><line x1="0.10770182133327548" y1="-1.0247143805483558" x2="1.8397526289021529" y2="-0.024714380548356285" stroke="black" stroke-width="0.006041579913219546" stroke-linecap="round"/><line x1="1.8397526289021529" y1="-0.024714380548356285" x2="1.04111711885486" y2="0.577100642603692" stroke="black" stroke-width="0.006041579913219546" stroke-linecap="round"/><line x1="1.04111711885486" y1="0.577100642603692" x2="0.5572733276555243" y2="-1.363490809948301" stroke="black" stroke-width="0.006041579913219546" stroke-linecap="round"/><line x1="0.5572733276555243" y1="-1.363490809948301" x2="1.544961668250662" y2="-1.20705634490807" stroke="black" stroke-width="0.006041579913219546" stroke-linecap="round"/><line x1="1.544961668250662" y1="-1.20705634490807" x2="0.48512313978425237" y2="0.4890398474047821" stroke="black" stroke-width="0.006041579913219546" stroke-linecap="round"/><line x1="0.48512313978425237" y1="0.4890398474047821" x2="-0.08845329656679413" y2="-0.33011219688420945" stroke="black" stroke-width="0.006041579913219546" stroke-linecap="round"/><line x1="-0.08845329656679413" y1="-0.33011219688420945" x2="1.867841904900817" y2="-0.7459355785197284" stroke="black" stroke-width="0.006041579913219546" stroke-linecap="round"/><line x1="1.867841904900817" y1="-0.7459355785197284" x2="1.6770329095242724" y2="0.23569160492793562" stroke="black" stroke-width="0.006041579913219546" stroke-linecap="round"/><line x1="1.6770329095242724" y1="0.23569160492793562" x2="0.018957764414188283" y2="-0.8826942020135569" stroke="black" stroke-width="0.006041579913219546" stroke-linecap="round"/><line x1="0.018957764414188283" y1="-0.8826942020135569" x2="0.8576283323596122" y2="-1.427333237028584" stroke="black" stroke-width="0.006041579913219546" stroke-linecap="round"/><line x1="0.8576283323596122" y1="-1.427333237028584" x2="1.2049246876934727" y2="0.542282268995832" stroke="black" stroke-width="0.006041579913219546" stroke-linecap="round"/><line x1="1.2049246876934727" y1="0.542282268995832" x2="0.23055462290823747" y2="0.31733121465196706" stroke="black" stroke-width="0.006041579913219546" stroke-linecap="round"/><line x1="0.23055462290823747" y1="0.31733121465196706" x2="1.4061251274931839" y2="-1.3007027740979278" stroke="black" stroke-width="0.006041579913219546" stroke-linecap="round"/><line x1="1.4061251274931839" y1="-1.3007027740979278" x2="1.9211632024032381" y2="-0.44353547339581556" stroke="black" stroke-width="0.006041579913219546" stroke-linecap="round"/><line x1="1.9211632024032381" y1="-0.44353547339581556" x2="-0.0593729350799026" y2="-0.16518927147568568" stroke="black" stroke-width="0.006041579913219546" stroke-linecap="round"/><line x1="-0.0593729350799026" y1="-0.16518927147568568" x2="0.19944611002261814" y2="-1.131115097764754" stroke="black" stroke-width="0.006041579913219546" stroke-linecap="round"/><line x1="0.19944611002261814" y1="-1.131115097764754" x2="1.7754676172360622" y2="0.10020785288656264" stroke="black" stroke-width="0.006041579913219546" stroke-linecap="round"/><line x1="1.7754676172360622" y1="0.10020785288656264" x2="0.9008479100966663" y2="0.5850174731328994" stroke="black" stroke-width="0.006041579913219546" stroke-linecap="round"/><line x1="0.9008479100966663" y1="0.5850174731328994" x2="0.6917909835613595" y2="-1.4040263176036472" stroke="black" stroke-width="0.006041579913219546" stroke-linecap="round"/><line x1="0.6917909835613595" y1="-1.4040263176036472" x2="1.6480957395243951" y2="-1.1116546128809106" stroke="black" stroke-width="0.006041579913219546" stroke-linecap="round"/><line x1="1.6480957395243951" y1="-1.1116546128809106" x2="0.36252052015131664" y2="0.42043427335704564" stroke="black" stroke-width="0.006041579913219546" stroke-linecap="round"/><line x1="0.36252052015131664" y1="0.42043427335704564" x2="-0.09146997958823033" y2="-0.47057225083132215" stroke="black" stroke-width="0.006041579913219546" stroke-linecap="round"/><line x1="-0.09146997958823033" y1="-0.47057225083132215" x2="1.903658120931418" y2="-0.6100851983195731" stroke="black" stroke-width="0.006041579913219546" stroke-linecap="round"/><line x1="1.903658120931418" y1="-0.6100851983195731" x2="1.5780899664742614" y2="0.33543337727974365" stroke="black" stroke-width="0.006041579913219546" stroke-linecap="round"/><line x1="1.5780899664742614" y1="0.33543337727974365" x2="0.09180031551947221" y2="-1.002827835437972" stroke="black" stroke-width="0.006041579913219546" stroke-linecap="round"/><line x1="0.09180031551947221" y1="-1.002827835437972" x2="0.9981081025561221" y2="-1.4254460971786715" stroke="black" stroke-width="0.006041579913219546" stroke-linecap="round"/><line x1="0.9981081025561221" y1="-1.4254460971786715" x2="1.0679070959611234" y2="0.57333555685952" stroke="black" stroke-width="0.006041579913219546" stroke-linecap="round"/><line x1="1.0679070959611234" y1="0.57333555685952" x2="0.13432666946392136" y2="0.21496760731422043" stroke="black" stroke-width="0.006041579913219546" stroke-linecap="round"/><line x1="0.13432666946392136" y1="0.21496760731422043" x2="1.5236434103819159" y2="-1.223711993363082" stroke="black" stroke-width="0.006041579913219546" stroke-linecap="round"/><line x1="1.5236434103819159" y1="-1.223711993363082" x2="1.91437453887119" y2="-0.30320713991064185" stroke="black" stroke-width="0.006041579913219546" stroke-linecap="round"/><line x1="1.91437453887119" y1="-0.30320713991064185" x2="-0.08562546112881009" y2="-0.30320713991064147" stroke="black" stroke-width="0.006041579913219546" stroke-linecap="round"/><line x1="-0.08562546112881009" y1="-0.30320713991064147" x2="0.30510566736046363" y2="-1.2237119933630818" stroke="black" stroke-width="0.006041579913219546" stroke-linecap="round"/><line x1="0.30510566736046363" y1="-1.2237119933630818" x2="1.694422408278458" y2="0.21496760731422082" stroke="black" stroke-width="0.006041579913219546" stroke-linecap="round"/><line x1="1.694422408278458" y1="0.21496760731422082" x2="0.7608419817812564" y2="0.5733355568595215" stroke="black" stroke-width="0.006041579913219546" stroke-linecap="round"/><line x1="0.7608419817812564" y1="0.5733355568595215" x2="0.8306409751862583" y2="-1.42544609717867" stroke="black" stroke-width="0.006041579913219546" stroke-linecap="round"/><line x1="0.8306409751862583" y1="-1.42544609717867" x2="1.7369487622229083" y2="-1.0028278354379707" stroke="black" stroke-width="0.006041579913219546" stroke-linecap="round"/><line x1="1.7369487622229083" y1="-1.0028278354379707" x2="0.25065911126812024" y2="0.3354333772797462" stroke="black" stroke-width="0.006041579913219546" stroke-linecap="round"/><line x1="0.25065911126812024" y1="0.3354333772797462" x2="-0.0749090431890373" y2="-0.6100851983195703" stroke="black" stroke-width="0.006041579913219546" stroke-linecap="round"/><line x1="-0.0749090431890373" y1="-0.6100851983195703" x2="1.920219057330611" y2="-0.47057225083131965" stroke="black" stroke-width="0.006041579913219546" stroke-linecap="round"/><line x1="1.920219057330611" y1="-0.47057225083131965" x2="1.4662285575910647" y2="0.42043427335704847" stroke="black" stroke-width="0.006041579913219546" stroke-linecap="round"/><line x1="1.4662285575910647" y1="0.42043427335704847" x2="0.18065333821798557" y2="-1.111654612880907" stroke="black" stroke-width="0.006041579913219546" stroke-linecap="round"/><line x1="0.18065333821798557" y1="-1.111654612880907" x2="1.1369580941810211" y2="-1.4040263176036438" stroke="black" stroke-width="0.006041579913219546" stroke-linecap="round"/><line x1="1.1369580941810211" y1="-1.4040263176036438" x2="0.927901167645715" y2="0.585017473132903" stroke="black" stroke-width="0.006041579913219546" stroke-linecap="round"/><line x1="0.927901167645715" y1="0.585017473132903" x2="0.05328146050631888" y2="0.10020785288656647" stroke="black" stroke-width="0.006041579913219546" stroke-linecap="round"/><line x1="0.05328146050631888" y1="0.10020785288656647" x2="1.629302967719763" y2="-1.1311150977647502" stroke="black" stroke-width="0.006041579913219546" stroke-linecap="round"/><line x1="1.629302967719763" y1="-1.1311150977647502" x2="1.888122012822284" y2="-0.16518927147568196" stroke="black" stroke-width="0.006041579913219546" stroke-linecap="round"/><line x1="1.888122012822284" y1="-0.16518927147568196" x2="-0.09241412466085674" y2="-0.4435354733958129" stroke="black" stroke-width="0.006041579913219546" stroke-linecap="round"/><line x1="-0.09241412466085674" y1="-0.4435354733958129" x2="0.4226239502491974" y2="-1.3007027740979251" stroke="black" stroke-width="0.006041579913219546" stroke-linecap="round"/><line x1="0.4226239502491974" y1="-1.3007027740979251" x2="1.598194454834144" y2="0.31733121465196956" stroke="black" stroke-width="0.006041579913219546" stroke-linecap="round"/><line x1="1.598194454834144" y1="0.31733121465196956" x2="0.6238243900489089" y2="0.5422822689958349" stroke="black" stroke-width="0.006041579913219546" stroke-linecap="round"/><line x1="0.6238243900489089" y1="0.5422822689958349" x2="0.9711207453827695" y2="-1.4273332370285812" stroke="black" stroke-width="0.006041579913219546" stroke-linecap="round"/><line x1="0.9711207453827695" y1="-1.4273332370285812" x2="1.8097913133281935" y2="-0.8826942020135541" stroke="black" stroke-width="0.006041579913219546" stroke-linecap="round"/><line x1="1.8097913133281935" y1="-0.8826942020135541" x2="0.15171616821811074" y2="0.2356916049279404" stroke="black" stroke-width="0.006041579913219546" stroke-linecap="round"/><line x1="0.15171616821811074" y1="0.2356916049279404" x2="-0.03909282715843393" y2="-0.7459355785197236" stroke="black" stroke-width="0.006041579913219546" stroke-linecap="round"/><line x1="-0.03909282715843393" y1="-0.7459355785197236" x2="1.9172023743091775" y2="-0.33011219688420534" stroke="black" stroke-width="0.006041579913219546" stroke-linecap="round"/><line x1="1.9172023743091775" y1="-0.33011219688420534" x2="1.3436259379581317" y2="0.4890398474047867" stroke="black" stroke-width="0.006041579913219546" stroke-linecap="round"/><line x1="1.3436259379581317" y1="0.4890398474047867" x2="0.2837874094917201" y2="-1.207056344908064" stroke="black" stroke-width="0.006041579913219546" stroke-linecap="round"/><line x1="0.2837874094917201" y1="-1.207056344908064" x2="1.2714757500868579" y2="-1.363490809948295" stroke="black" stroke-width="0.006041579913219546" stroke-linecap="round"/><line x1="1.2714757500868579" y1="-1.363490809948295" x2="0.7876319588875229" y2="0.5771006426036982" stroke="black" stroke-width="0.006041579913219546" stroke-linecap="round"/><line x1="0.7876319588875229" y1="0.5771006426036982" x2="-0.011003551159770142" y2="-0.024714380548349735" stroke="black" stroke-width="0.006041579913219546" stroke-linecap="round"/><line x1="-0.011003551159770142" y1="-0.024714380548349735" x2="1.721047256409107" y2="-1.02471438054835" stroke="black" stroke-width="0.006041579913219546" stroke-linecap="round"/><line x1="1.721047256409107" y1="-1.02471438054835" x2="1.8429165998142545" y2="-0.032168228907028085" stroke="black" stroke-width="0.006041579913219546" stroke-linecap="round"/><line x1="1.8429165998142545" y1="-0.032168228907028085" x2="-0.07960679206238308" y2="-0.5834429405410269" stroke="black" stroke-width="0.006041579913219546" stroke-linecap="round"/><line x1="-0.07960679206238308" y1="-0.5834429405410269" x2="0.5497135989874543" y2="-1.3605889019979978" stroke="black" stroke-width="0.006041579913219546" stroke-linecap="round"/><line x1="0.5497135989874543" y1="-1.3605889019979978" x2="1.4886567245592364" y2="0.4053062837198558" stroke="black" stroke-width="0.006041579913219546" stroke-linecap="round"/><line x1="1.4886567245592364" y1="0.4053062837198558" x2="0.4924620264674908" y2="0.492462026467514" stroke="black" stroke-width="0.006041579913219546" stroke-linecap="round"/><line x1="0.4924620264674908" y1="0.492462026467514" x2="1.1104960152173855" y2="-1.4096510061227931" stroke="black" stroke-width="0.006041579913219546" stroke-linecap="round"/><line x1="1.1104960152173855" y1="-1.4096510061227931" x2="1.8652055954401572" y2="-0.7535919771322857" stroke="black" stroke-width="0.006041579913219546" stroke-linecap="round"/><line x1="1.8652055954401572" y1="-0.7535919771322857" x2="0.06761750284182355" y2="0.12315031644586982" stroke="black" stroke-width="0.006041579913219546" stroke-linecap="round"/><line x1="0.06761750284182355" y1="0.12315031644586982" x2="0.015281546598879182" y2="-0.875479218308704" stroke="black" stroke-width="0.006041579913219546" stroke-linecap="round"/><line x1="0.015281546598879182" y1="-0.875479218308704" x2="1.894666788170696" y2="-0.19143893165736658" stroke="black" stroke-width="0.006041579913219546" stroke-linecap="round"/><line x1="1.894666788170696" y1="-0.19143893165736658" x2="1.2126684281081976" y2="0.539914769961804" stroke="black" stroke-width="0.006041579913219546" stroke-linecap="round"/><line x1="1.2126684281081976" y1="0.539914769961804" x2="0.39919514195659733" y2="-1.2871761453233979" stroke="black" stroke-width="0.006041579913219546" stroke-linecap="round"/><line x1="0.39919514195659733" y1="-1.2871761453233979" x2="1.3990428371129886" y2="-1.3046285517606813" stroke="black" stroke-width="0.006041579913219546" stroke-linecap="round"/><line x1="1.3990428371129886" y1="-1.3046285517606813" x2="0.6498296502811646" y2="0.5497391573728936" stroke="black" stroke-width="0.006041579913219546" stroke-linecap="round"/><line x1="0.6498296502811646" y1="0.5497391573728936" x2="-0.05727713090538311" y2="-0.15736762381365377" stroke="black" stroke-width="0.006041579913219546" stroke-linecap="round"/><line x1="-0.05727713090538311" y1="-0.15736762381365377" x2="1.7970905782281918" y2="-0.9065808106454777" stroke="black" stroke-width="0.006041579913219546" stroke-linecap="round"/><line x1="1.7970905782281918" y1="-0.9065808106454777" x2="1.7796381717909087" y2="0.09326688451091358" stroke="black" stroke-width="0.006041579913219546" stroke-linecap="round"/><line x1="1.7796381717909087" y1="0.09326688451091358" x2="-0.04745274349429285" y2="-0.7202064016406875" stroke="black" stroke-width="0.006041579913219546" stroke-linecap="round"/><line x1="-0.04745274349429285" y1="-0.7202064016406875" x2="0.6839009581248776" y2="-1.402204761703186" stroke="black" stroke-width="0.006041579913219546" stroke-linecap="round"/><line x1="0.6839009581248776" y1="-1.402204761703186" x2="1.3679412447762154" y2="0.47718047986863055" stroke="black" stroke-width="0.006041579913219546" stroke-linecap="round"/><line x1="1.3679412447762154" y1="0.47718047986863055" x2="0.36931171002164154" y2="0.4248445236256866" stroke="black" stroke-width="0.006041579913219546" stroke-linecap="round"/><line x1="0.36931171002164154" y1="0.4248445236256866" x2="1.2460540035997965" y2="-1.3727435689726475" stroke="black" stroke-width="0.006041579913219546" stroke-linecap="round"/><line x1="1.2460540035997965" y1="-1.3727435689726475" x2="1.9021130325903037" y2="-0.6180339887498755" stroke="black" stroke-width="0.006041579913219546" stroke-linecap="round"/><line x1="1.9021130325903037" y1="-0.6180339887498755" x2="-3.3306690738754696e-15" y2="1.965094753586527e-14" stroke="black" stroke-width="0.006041579913219546" stroke-linecap="round"/></svg>