<?xml version="1.0" encoding="UTF-8"?><svg viewBox="-0.16786261488699541 -2.2939029860100977 4.43655169971917 4.49483607141523" xmlns="http://www.w3.org/2000/svg"><line x1="0" y1="0" x2="0.08715574274765817" y2="-0.9961946980917455" stroke="black" stroke-width="0.013220106092397736" stroke-linecap="round"/><line x1="0.08715574274765817" y1="-0.9961946980917455" x2="1.9543165957420616" y2="-1.7129305971823463" stroke="black" stroke-width="0.013220106092397736" stroke-linecap="round"/><line x1="1.9543165957420616" y1="-1.7129305971823463" x2="4.148377700599573" y2="0.333064483005149" stroke="black" stroke-width="0.013220106092397736" stroke-linecap="round"/><line x1="4.148377700599573" y1="0.333064483005149" x2="3.8560059958768367" y2="1.2893692389681846" stroke="black" stroke-width="0.013220106092397736" stroke-linecap="round"/><line x1="3.8560059958768367" y1="1.2893692389681846" x2="1.8806293146865614" y2="1.6022381690486467" stroke="black" stroke-width="0.013220106092397736" stroke-linecap="round"/><line x1="1.8806293146865614" y1="1.6022381690486467" x2="0.15990000563342188" y2="-0.8552179638183282" stroke="black" stroke-width="0.013220106092397736" stroke-linecap="round"/><line x1="0.15990000563342188" y1="-0.8552179638183282" x2="0.6447096258797589" y2="-1.729837670957724" stroke="black" stroke-width="0.013220106092397736" stroke-linecap="round"/><line x1="0.6447096258797589" y1="-1.729837670957724" x2="2.6419686953889068" y2="-1.6251657584718366" stroke="black" stroke-width="0.013220106092397736" stroke-linecap="round"/><line x1="2.6419686953889068" y1="-1.6251657584718366" x2="3.8141620808567294" y2="1.136348801885484" stroke="black" stroke-width="0.013220106092397736" stroke-linecap="round"/><line x1="3.8141620808567294" y1="1.136348801885484" x2="3.158103051866222" y2="1.8910583821082558" stroke="black" stroke-width="0.013220106092397736" stroke-linecap="round"/><line x1="3.158103051866222" y1="1.8910583821082558" x2="1.2262513992880857" y2="1.3734202919032135" stroke="black" stroke-width="0.013220106092397736" stroke-linecap="round"/><line x1="1.2262513992880857" y1="1.3734202919032135" x2="0.6538244131584516" y2="-1.5714612584397787" stroke="black" stroke-width="0.013220106092397736" stroke-linecap="round"/><line x1="0.6538244131584516" y1="-1.5714612584397787" x2="1.4524599232057445" y2="-2.173276281591827" stroke="black" stroke-width="0.013220106092397736" stroke-linecap="round"/><line x1="1.4524599232057445" y1="-2.173276281591827" x2="3.2344729715824805" y2="-1.2652952821127337" stroke="black" stroke-width="0.013220106092397736" stroke-linecap="round"/><line x1="3.2344729715824805" y1="-1.2652952821127337" x2="3.1821157522706307" y2="1.7342478033564404" stroke="black" stroke-width="0.013220106092397736" stroke-linecap="round"/><line x1="3.1821157522706307" y1="1.7342478033564404" x2="2.275807965233981" y2="2.15686606509714" stroke="black" stroke-width="0.013220106092397736" stroke-linecap="round"/><line x1="2.275807965233981" y1="2.15686606509714" x2="0.7215160423200395" y2="0.8982252829974651" stroke="black" stroke-width="0.013220106092397736" stroke-linecap="round"/><line x1="0.7215160423200395" y1="0.8982252829974651" x2="1.3963692053516346" y2="-2.0248849113582406" stroke="black" stroke-width="0.013220106092397736" stroke-linecap="round"/><line x1="1.3963692053516346" y1="-2.0248849113582406" x2="2.3707392701368697" y2="-2.2498359657021054" stroke="black" stroke-width="0.013220106092397736" stroke-linecap="round"/><line x1="2.3707392701368697" y1="-2.2498359657021054" x2="3.629380052236545" y2="-0.6955440427881641" stroke="black" stroke-width="0.013220106092397736" stroke-linecap="round"/><line x1="3.629380052236545" y1="-0.6955440427881641" x2="2.3615252670144473" y2="2.023379318321786" stroke="black" stroke-width="0.013220106092397736" stroke-linecap="round"/><line x1="2.3615252670144473" y1="2.023379318321786" x2="1.361677571858056" y2="2.0408317247590695" stroke="black" stroke-width="0.013220106092397736" stroke-linecap="round"/><line x1="1.361677571858056" y1="2.0408317247590695" x2="0.4536965723789621" y2="0.2588186763823339" stroke="black" stroke-width="0.013220106092397736" stroke-linecap="round"/><line x1="0.4536965723789621" y1="0.2588186763823339" x2="2.259141641835107" y2="-2.1370878537595446" stroke="black" stroke-width="0.013220106092397736" stroke-linecap="round"/><line x1="2.259141641835107" y1="-2.1370878537595446" x2="3.240768825282771" y2="-1.9462788583829997" stroke="black" stroke-width="0.013220106092397736" stroke-linecap="round"/><line x1="3.240768825282771" y1="-1.9462788583829997" x2="3.758406915487813" y2="-0.014427205804863341" stroke="black" stroke-width="0.013220106092397736" stroke-linecap="round"/><line x1="3.758406915487813" y1="-0.014427205804863341" x2="1.494278174819498" y2="1.9537498811666598" stroke="black" stroke-width="0.013220106092397736" stroke-linecap="round"/><line x1="1.494278174819498" y1="1.9537498811666598" x2="0.5737733213670575" y2="1.5630187526773862" stroke="black" stroke-width="0.013220106092397736" stroke-linecap="round"/><line x1="0.5737733213670575" y1="1.5630187526773862" x2="0.46910140888116875" y2="-0.43424031683176145" stroke="black" stroke-width="0.013220106092397736" stroke-linecap="round"/><line x1="0.46910140888116875" y1="-0.43424031683176145" x2="3.0929605302993557" y2="-1.8886691775707727" stroke="black" stroke-width="0.013220106092397736" stroke-linecap="round"/><line x1="3.0929605302993557" y1="-1.8886691775707727" x2="3.9121125745883476" y2="-1.3150927412197269" stroke="black" stroke-width="0.013220106092397736" stroke-linecap="round"/><line x1="3.9121125745883476" y1="-1.3150927412197269" x2="3.599243644507886" y2="0.6602839399705487" stroke="black" stroke-width="0.013220106092397736" stroke-linecap="round"/><line x1="3.599243644507886" y1="0.6602839399705487" x2="0.7303293766187804" y2="1.5373990541387599" stroke="black" stroke-width="0.013220106092397736" stroke-linecap="round"/><line x1="0.7303293766187804" y1="1.5373990541387599" x2="0.048331016556282136" y2="0.8060453525195892" stroke="black" stroke-width="0.013220106092397736" stroke-linecap="round"/><line x1="0.048331016556282136" y1="0.8060453525195892" x2="0.7650669156468827" y2="-1.0611155004748143" stroke="black" stroke-width="0.013220106092397736" stroke-linecap="round"/><line x1="0.7650669156468827" y1="-1.0611155004748143" x2="3.7536510099221196" y2="-1.3225827287177887" stroke="black" stroke-width="0.013220106092397736" stroke-linecap="round"/><line x1="3.7536510099221196" y1="-1.3225827287177887" x2="4.268689084832174" y2="-0.4654154280156765" stroke="black" stroke-width="0.013220106092397736" stroke-linecap="round"/><line x1="4.268689084832174" y1="-0.4654154280156765" x2="3.1794110148021204" y2="1.2119257078751717" stroke="black" stroke-width="0.013220106092397736" stroke-linecap="round"/><line x1="3.1794110148021204" y1="1.2119257078751717" x2="0.20177255987815457" y2="0.8463176776597287" stroke="black" stroke-width="0.013220106092397736" stroke-linecap="round"/><line x1="0.20177255987815457" y1="0.8463176776597287" x2="-0.12379559457900297" y2="-0.09920089793958786" stroke="black" stroke-width="0.013220106092397736" stroke-linecap="round"/><line x1="-0.12379559457900297" y1="-0.09920089793958786" x2="1.290417967794092" y2="-1.5134144603126831" stroke="black" stroke-width="0.013220106092397736" stroke-linecap="round"/><line x1="1.290417967794092" y1="-1.5134144603126831" x2="4.126973694592042" y2="-0.5367099969412139" stroke="black" stroke-width="0.013220106092397736" stroke-linecap="round"/><line x1="4.126973694592042" y1="-0.5367099969412139" x2="4.248843037997189" y2="0.4558361547001081" stroke="black" stroke-width="0.013220106092397736" stroke-linecap="round"/><line x1="4.248843037997189" y1="0.4558361547001081" x2="2.571501902106341" y2="1.545114224730162" stroke="black" stroke-width="0.013220106092397736" stroke-linecap="round"/><line x1="2.571501902106341" y1="1.545114224730162" x2="4.440892098500626e-15" y2="-4.440892098500626e-16" stroke="black" stroke-width="0.013220106092397736" stroke-linecap="round"/></svg>