<?xml version="1.0" encoding="UTF-8"?><svg viewBox="-0.6720064562890261 -2.6824262739767644 7.673445501591388 7.7224972331417865" xmlns="http://www.w3.org/2000/svg"><line x1="0" y1="0" x2="0.08715574274765817" y2="-0.9961946980917455" stroke="black" stroke-width="0.022713227156299372" stroke-linecap="round"/><line x1="0.08715574274765817" y1="-0.9961946980917455" x2="2.009679134624296" y2="-1.547469409725744" stroke="black" stroke-width="0.022713227156299372" stroke-linecap="round"/><line x1="2.009679134624296" y1="-1.547469409725744" x2="3.8151242040804405" y2="0.848437120416135" stroke="black" stroke-width="0.022713227156299372" stroke-linecap="round"/><line x1="3.8151242040804405" y1="0.848437120416135" x2="1.6954471471476213" y2="4.24062950504184" stroke="black" stroke-width="0.022713227156299372" stroke-linecap="round"/><line x1="1.6954471471476213" y1="4.24062950504184" x2="0.7138199636999573" y2="4.049820509665295" stroke="black" stroke-width="0.022713227156299372" stroke-linecap="round"/><line x1="0.7138199636999573" y1="4.049820509665295" x2="0.3665236083660947" y2="2.0802050036408795" stroke="black" stroke-width="0.022713227156299372" stroke-linecap="round"/><line x1="0.3665236083660947" y1="2.0802050036408795" x2="2.9380255104724315" y2="0.5350907789107162" stroke="black" stroke-width="0.022713227156299372" stroke-linecap="round"/><line x1="2.9380255104724315" y1="0.5350907789107162" x2="6.090068524899319" y2="2.9977366802133494" stroke="black" stroke-width="0.022713227156299372" stroke-linecap="round"/><line x1="6.090068524899319" y1="2.9977366802133494" x2="5.797696820176583" y2="3.954041436176385" stroke="black" stroke-width="0.022713227156299372" stroke-linecap="round"/><line x1="5.797696820176583" y1="3.954041436176385" x2="3.8025687196569344" y2="4.093554383664636" stroke="black" stroke-width="0.022713227156299372" stroke-linecap="round"/><line x1="3.8025687196569344" y1="4.093554383664636" x2="2.5347139344348344" y2="1.374631022554687" stroke="black" stroke-width="0.022713227156299372" stroke-linecap="round"/><line x1="2.5347139344348344" y1="1.374631022554687" x2="5.313347416270823" y2="-1.5027281787999178" stroke="black" stroke-width="0.022713227156299372" stroke-linecap="round"/><line x1="5.313347416270823" y1="-1.5027281787999178" x2="6.233852269723264" y2="-1.1119970503106442" stroke="black" stroke-width="0.022713227156299372" stroke-linecap="round"/><line x1="6.233852269723264" y1="-1.1119970503106442" x2="6.1640532763182625" y2="0.8867846037275473" stroke="black" stroke-width="0.022713227156299372" stroke-linecap="round"/><line x1="6.1640532763182625" y1="0.8867846037275473" x2="3.327497549520312" y2="1.8634890670990172" stroke="black" stroke-width="0.022713227156299372" stroke-linecap="round"/><line x1="3.327497549520312" y1="1.8634890670990172" x2="0.7563471107741537" y2="-1.200688705376894" stroke="black" stroke-width="0.022713227156299372" stroke-linecap="round"/><line x1="0.7563471107741537" y1="-1.200688705376894" x2="1.2411567310204907" y2="-2.0753084125162897" stroke="black" stroke-width="0.022713227156299372" stroke-linecap="round"/><line x1="1.2411567310204907" y1="-2.0753084125162897" x2="3.2216928685036317" y2="-1.796962210596159" stroke="black" stroke-width="0.022713227156299372" stroke-linecap="round"/><line x1="3.2216928685036317" y1="-1.796962210596159" x2="3.896546031535226" y2="1.1261479837595467" stroke="black" stroke-width="0.022713227156299372" stroke-linecap="round"/><line x1="3.896546031535226" y1="1.1261479837595467" x2="0.5803957413150602" y2="3.3629195976425357" stroke="black" stroke-width="0.022713227156299372" stroke-linecap="round"/><line x1="0.5803957413150602" y1="3.3629195976425357" x2="-0.23875630297393158" y2="2.7893431612914896" stroke="black" stroke-width="0.022713227156299372" stroke-linecap="round"/><line x1="-0.23875630297393158" y1="2.7893431612914896" x2="0.24508748822540388" y2="0.8487517087394967" stroke="black" stroke-width="0.022713227156299372" stroke-linecap="round"/><line x1="0.24508748822540388" y1="0.8487517087394967" x2="3.2227259431493698" y2="0.4831436785240542" stroke="black" stroke-width="0.022713227156299372" stroke-linecap="round"/><line x1="3.2227259431493698" y1="0.4831436785240542" x2="5.100612194292934" y2="4.014934049959761" stroke="black" stroke-width="0.022713227156299372" stroke-linecap="round"/><line x1="5.100612194292934" y1="4.014934049959761" x2="4.444553165302426" y2="4.769643630182533" stroke="black" stroke-width="0.022713227156299372" stroke-linecap="round"/><line x1="4.444553165302426" y1="4.769643630182533" x2="2.565167923730609" y2="4.085603343531197" stroke="black" stroke-width="0.022713227156299372" stroke-linecap="round"/><line x1="2.565167923730609" y1="4.085603343531197" x2="2.5128107044187558" y2="1.086060258062023" stroke="black" stroke-width="0.022713227156299372" stroke-linecap="round"/><line x1="2.5128107044187558" y1="1.086060258062023" x2="6.221546122685906" y2="-0.4123661156016247" stroke="black" stroke-width="0.022713227156299372" stroke-linecap="round"/><line x1="6.221546122685906" y1="-0.4123661156016247" x2="6.903544482748404" y2="0.31898758601754573" stroke="black" stroke-width="0.022713227156299372" stroke-linecap="round"/><line x1="6.903544482748404" y1="0.31898758601754573" x2="6.02680218917025" y2="2.11657567861588" stroke="black" stroke-width="0.022713227156299372" stroke-linecap="round"/><line x1="6.02680218917025" y1="2.11657567861588" x2="3.0382180948950133" y2="1.8551084503729065" stroke="black" stroke-width="0.022713227156299372" stroke-linecap="round"/><line x1="3.0382180948950133" y1="1.8551084503729065" x2="1.9356686716270142" y2="-1.9899383333803682" stroke="black" stroke-width="0.022713227156299372" stroke-linecap="round"/><line x1="1.9356686716270142" y1="-1.9899383333803682" x2="2.734304181674307" y2="-2.5917533565324167" stroke="black" stroke-width="0.022713227156299372" stroke-linecap="round"/><line x1="2.734304181674307" y1="-2.5917533565324167" x2="4.430400373987159" y2="-1.531914828066007" stroke="black" stroke-width="0.022713227156299372" stroke-linecap="round"/><line x1="4.430400373987159" y1="-1.531914828066007" x2="3.857973387857525" y2="1.412966722276985" stroke="black" stroke-width="0.022713227156299372" stroke-linecap="round"/><line x1="3.857973387857525" y1="1.412966722276985" x2="-0.081257624191307" y2="2.1075594329447065" stroke="black" stroke-width="0.022713227156299372" stroke-linecap="round"/><line x1="-0.081257624191307" y1="2.1075594329447065" x2="-0.5962956991013615" y2="1.2503921322425944" stroke="black" stroke-width="0.022713227156299372" stroke-linecap="round"/><line x1="-0.5962956991013615" y1="1.2503921322425944" x2="0.6350272515499549" y2="-0.32562937497084965" stroke="black" stroke-width="0.022713227156299372" stroke-linecap="round"/><line x1="0.6350272515499549" y1="-0.32562937497084965" x2="3.5039415194390617" y2="0.5514857391973603" stroke="black" stroke-width="0.022713227156299372" stroke-linecap="round"/><line x1="3.5039415194390617" y1="0.5514857391973603" x2="3.782967414415564" y2="4.5417419402366574" stroke="black" stroke-width="0.022713227156299372" stroke-linecap="round"/><line x1="3.782967414415564" y1="4.5417419402366574" x2="2.8766596273789142" y2="4.964360201977358" stroke="black" stroke-width="0.022713227156299372" stroke-linecap="round"/><line x1="2.8766596273789142" y1="4.964360201977358" x2="1.4379800267016107" y2="3.5750434610593644" stroke="black" stroke-width="0.022713227156299372" stroke-linecap="round"/><line x1="1.4379800267016107" y1="3.5750434610593644" x2="2.610173412169432" y2="0.8135289007020434" stroke="black" stroke-width="0.022713227156299372" stroke-linecap="round"/><line x1="2.610173412169432" y1="0.8135289007020434" x2="6.607736720245815" y2="0.9531268875120463" stroke="black" stroke-width="0.022713227156299372" stroke-linecap="round"/><line x1="6.607736720245815" y1="0.9531268875120463" x2="6.933304874702972" y2="1.8986454631113632" stroke="black" stroke-width="0.022713227156299372" stroke-linecap="round"/><line x1="6.933304874702972" y1="1.8986454631113632" x2="5.401215988465016" y2="3.184220682484442" stroke="black" stroke-width="0.022713227156299372" stroke-linecap="round"/><line x1="5.401215988465016" y1="3.184220682484442" x2="2.777356867046828" y2="1.7297918217454327" stroke="black" stroke-width="0.022713227156299372" stroke-linecap="round"/><line x1="2.777356867046828" y1="1.7297918217454327" x2="3.3340492708870895" y2="-2.231280453220849" stroke="black" stroke-width="0.022713227156299372" stroke-linecap="round"/><line x1="3.3340492708870895" y1="-2.231280453220849" x2="4.308419335672324" y2="-2.4562315075647136" stroke="black" stroke-width="0.022713227156299372" stroke-linecap="round"/><line x1="4.308419335672324" y1="-2.4562315075647136" x2="5.426805142613818" y2="-0.7981563624546304" stroke="black" stroke-width="0.022713227156299372" stroke-linecap="round"/><line x1="5.426805142613818" y1="-0.7981563624546304" x2="3.706075833560681" y2="1.6592997704123458" stroke="black" stroke-width="0.022713227156299372" stroke-linecap="round"/><line x1="3.706075833560681" y1="1.6592997704123458" x2="-0.17510707154330518" y2="0.691612188013676" stroke="black" stroke-width="0.022713227156299372" stroke-linecap="round"/><line x1="-0.17510707154330518" y1="0.691612188013676" x2="-0.2969764149484533" y2="-0.300933963627646" stroke="black" stroke-width="0.022713227156299372" stroke-linecap="round"/><line x1="-0.2969764149484533" y1="-0.300933963627646" x2="1.4689187707694005" y2="-1.2398770891994277" stroke="black" stroke-width="0.022713227156299372" stroke-linecap="round"/><line x1="1.4689187707694005" y1="-1.2398770891994277" x2="3.733047511437716" y2="0.7282999977720948" stroke="black" stroke-width="0.022713227156299372" stroke-linecap="round"/><line x1="3.733047511437716" y1="0.7282999977720948" x2="2.3649669381350416" y2="4.487070480915729" stroke="black" stroke-width="0.022713227156299372" stroke-linecap="round"/><line x1="2.3649669381350416" y1="4.487070480915729" x2="1.3651192429786503" y2="4.504522887353012" stroke="black" stroke-width="0.022713227156299372" stroke-linecap="round"/><line x1="1.3651192429786503" y1="4.504522887353012" x2="0.6159060561468256" y2="2.6501551782194372" stroke="black" stroke-width="0.022713227156299372" stroke-linecap="round"/><line x1="0.6159060561468256" y1="2.6501551782194372" x2="2.8099671610043373" y2="0.6041600980319419" stroke="black" stroke-width="0.022713227156299372" stroke-linecap="round"/><line x1="2.8099671610043373" y1="0.6041600980319419" x2="6.405143346201005" y2="2.357644685188252" stroke="black" stroke-width="0.022713227156299372" stroke-linecap="round"/><line x1="6.405143346201005" y1="2.357644685188252" x2="6.317987603453346" y2="3.3538393832799978" stroke="black" stroke-width="0.022713227156299372" stroke-linecap="round"/><line x1="6.317987603453346" y1="3.3538393832799978" x2="4.395464211576709" y2="3.9051140949139955" stroke="black" stroke-width="0.022713227156299372" stroke-linecap="round"/><line x1="4.395464211576709" y1="3.9051140949139955" x2="2.590019142120564" y2="1.509207564772117" stroke="black" stroke-width="0.022713227156299372" stroke-linecap="round"/><line x1="2.590019142120564" y1="1.509207564772117" x2="4.709696199053384" y2="-1.8829848198535868" stroke="black" stroke-width="0.022713227156299372" stroke-linecap="round"/><line x1="4.709696199053384" y1="-1.8829848198535868" x2="5.691323382501047" y2="-1.692175824477042" stroke="black" stroke-width="0.022713227156299372" stroke-linecap="round"/><line x1="5.691323382501047" y1="-1.692175824477042" x2="6.038619737834908" y2="0.2774396815473741" stroke="black" stroke-width="0.022713227156299372" stroke-linecap="round"/><line x1="6.038619737834908" y1="0.2774396815473741" x2="3.4671178357285712" y2="1.8225539062775375" stroke="black" stroke-width="0.022713227156299372" stroke-linecap="round"/><line x1="3.4671178357285712" y1="1.8225539062775375" x2="0.31507482130168407" y2="-0.6400919950250965" stroke="black" stroke-width="0.022713227156299372" stroke-linecap="round"/><line x1="0.31507482130168407" y1="-0.6400919950250965" x2="0.6074465260244208" y2="-1.596396750988132" stroke="black" stroke-width="0.022713227156299372" stroke-linecap="round"/><line x1="0.6074465260244208" y1="-1.596396750988132" x2="2.6025746265440692" y2="-1.7359096984763829" stroke="black" stroke-width="0.022713227156299372" stroke-linecap="round"/><line x1="2.6025746265440692" y1="-1.7359096984763829" x2="3.8704294117661675" y2="0.9830136626335668" stroke="black" stroke-width="0.022713227156299372" stroke-linecap="round"/><line x1="3.8704294117661675" y1="0.9830136626335668" x2="1.091795929930178" y2="3.860372863988171" stroke="black" stroke-width="0.022713227156299372" stroke-linecap="round"/><line x1="1.091795929930178" y1="3.860372863988171" x2="0.17129107647773756" y2="3.4696417354988975" stroke="black" stroke-width="0.022713227156299372" stroke-linecap="round"/><line x1="0.17129107647773756" y1="3.4696417354988975" x2="0.2410900698827395" y2="1.470860081460706" stroke="black" stroke-width="0.022713227156299372" stroke-linecap="round"/><line x1="0.2410900698827395" y1="1.470860081460706" x2="3.07764579668069" y2="0.4941556180892357" stroke="black" stroke-width="0.022713227156299372" stroke-linecap="round"/><line x1="3.07764579668069" y1="0.4941556180892357" x2="5.648796235426848" y2="3.5583333905651475" stroke="black" stroke-width="0.022713227156299372" stroke-linecap="round"/><line x1="5.648796235426848" y1="3.5583333905651475" x2="5.1639866151805105" y2="4.4329530977045435" stroke="black" stroke-width="0.022713227156299372" stroke-linecap="round"/><line x1="5.1639866151805105" y1="4.4329530977045435" x2="3.1834504776973698" y2="4.154606895784412" stroke="black" stroke-width="0.022713227156299372" stroke-linecap="round"/><line x1="3.1834504776973698" y1="4.154606895784412" x2="2.508597314665774" y2="1.231496701428707" stroke="black" stroke-width="0.022713227156299372" stroke-linecap="round"/><line x1="2.508597314665774" y1="1.231496701428707" x2="5.824747604885941" y2="-1.0052749124542801" stroke="black" stroke-width="0.022713227156299372" stroke-linecap="round"/><line x1="5.824747604885941" y1="-1.0052749124542801" x2="6.643899649174933" y2="-0.4316984761032343" stroke="black" stroke-width="0.022713227156299372" stroke-linecap="round"/><line x1="6.643899649174933" y1="-0.4316984761032343" x2="6.160055857975598" y2="1.5088929764487589" stroke="black" stroke-width="0.022713227156299372" stroke-linecap="round"/><line x1="6.160055857975598" y1="1.5088929764487589" x2="3.1824174030516317" y2="1.8745010066642003" stroke="black" stroke-width="0.022713227156299372" stroke-linecap="round"/><line x1="3.1824174030516317" y1="1.8745010066642003" x2="1.3045311519080685" y2="-1.6572893647715077" stroke="black" stroke-width="0.022713227156299372" stroke-linecap="round"/><line x1="1.3045311519080685" y1="-1.6572893647715077" x2="1.9605901808985755" y2="-2.41199894499428" stroke="black" stroke-width="0.022713227156299372" stroke-linecap="round"/><line x1="1.9605901808985755" y1="-2.41199894499428" x2="3.8399754224703924" y2="-1.7279586583429425" stroke="black" stroke-width="0.022713227156299372" stroke-linecap="round"/><line x1="3.8399754224703924" y1="-1.7279586583429425" x2="3.8923326417822426" y2="1.2715844271262315" stroke="black" stroke-width="0.022713227156299372" stroke-linecap="round"/><line x1="3.8923326417822426" y1="1.2715844271262315" x2="0.18359722351509333" y2="2.7700108007898807" stroke="black" stroke-width="0.022713227156299372" stroke-linecap="round"/><line x1="0.18359722351509333" y1="2.7700108007898807" x2="-0.4984011365474049" y2="2.03865709917071" stroke="black" stroke-width="0.022713227156299372" stroke-linecap="round"/><line x1="-0.4984011365474049" y1="2.03865709917071" x2="0.3783411570307499" y2="0.24106900657237595" stroke="black" stroke-width="0.022713227156299372" stroke-linecap="round"/><line x1="0.3783411570307499" y1="0.24106900657237595" x2="3.366925251305987" y2="0.5025362348153506" stroke="black" stroke-width="0.022713227156299372" stroke-linecap="round"/><line x1="3.366925251305987" y1="0.5025362348153506" x2="4.469474674573986" y2="4.347583018568625" stroke="black" stroke-width="0.022713227156299372" stroke-linecap="round"/><line x1="4.469474674573986" y1="4.347583018568625" x2="3.670839164526693" y2="4.9493980417206735" stroke="black" stroke-width="0.022713227156299372" stroke-linecap="round"/><line x1="3.670839164526693" y1="4.9493980417206735" x2="1.974742972213841" y2="3.889559513254264" stroke="black" stroke-width="0.022713227156299372" stroke-linecap="round"/><line x1="1.974742972213841" y1="3.889559513254264" x2="2.5471699583434755" y2="0.944677962911272" stroke="black" stroke-width="0.022713227156299372" stroke-linecap="round"/><line x1="2.5471699583434755" y1="0.944677962911272" x2="6.486400970392308" y2="0.2500852522435504" stroke="black" stroke-width="0.022713227156299372" stroke-linecap="round"/><line x1="6.486400970392308" y1="0.2500852522435504" x2="7.001439045302362" y2="1.1072525529456625" stroke="black" stroke-width="0.022713227156299372" stroke-linecap="round"/><line x1="7.001439045302362" y1="1.1072525529456625" x2="5.770116094651047" y2="2.683274060159107" stroke="black" stroke-width="0.022713227156299372" stroke-linecap="round"/><line x1="5.770116094651047" y1="2.683274060159107" x2="2.9012018267619406" y2="1.8061589459908969" stroke="black" stroke-width="0.022713227156299372" stroke-linecap="round"/><line x1="2.9012018267619406" y1="1.8061589459908969" x2="2.6221759317854416" y2="-2.1840972550484006" stroke="black" stroke-width="0.022713227156299372" stroke-linecap="round"/><line x1="2.6221759317854416" y1="-2.1840972550484006" x2="3.5284837188220917" y2="-2.6067155167891" stroke="black" stroke-width="0.022713227156299372" stroke-linecap="round"/><line x1="3.5284837188220917" y1="-2.6067155167891" x2="4.967163319499394" y2="-1.2173987758711058" stroke="black" stroke-width="0.022713227156299372" stroke-linecap="round"/><line x1="4.967163319499394" y1="-1.2173987758711058" x2="3.794969934031574" y2="1.5441157844862152" stroke="black" stroke-width="0.022713227156299372" stroke-linecap="round"/><line x1="3.794969934031574" y1="1.5441157844862152" x2="-0.20259337404480915" y2="1.4045177976762102" stroke="black" stroke-width="0.022713227156299372" stroke-linecap="round"/><line x1="-0.20259337404480915" y1="1.4045177976762102" x2="-0.5281615285019667" y2="0.4589992220768937" stroke="black" stroke-width="0.022713227156299372" stroke-linecap="round"/><line x1="-0.5281615285019667" y1="0.4589992220768937" x2="1.0039273577359893" y2="-0.826575997296185" stroke="black" stroke-width="0.022713227156299372" stroke-linecap="round"/><line x1="1.0039273577359893" y1="-0.826575997296185" x2="3.6277864791541767" y2="0.627852863442826" stroke="black" stroke-width="0.022713227156299372" stroke-linecap="round"/><line x1="3.6277864791541767" y1="0.627852863442826" x2="3.0710940753139147" y2="4.588925138409107" stroke="black" stroke-width="0.022713227156299372" stroke-linecap="round"/><line x1="3.0710940753139147" y1="4.588925138409107" x2="2.0967240105286793" y2="4.813876192752972" stroke="black" stroke-width="0.022713227156299372" stroke-linecap="round"/><line x1="2.0967240105286793" y1="4.813876192752972" x2="0.9783382035871846" y2="3.1558010476428895" stroke="black" stroke-width="0.022713227156299372" stroke-linecap="round"/><line x1="0.9783382035871846" y1="3.1558010476428895" x2="2.6990675126403225" y2="0.6983449147759142" stroke="black" stroke-width="0.022713227156299372" stroke-linecap="round"/><line x1="2.6990675126403225" y1="0.6983449147759142" x2="6.580250417744308" y2="1.6660324971745855" stroke="black" stroke-width="0.022713227156299372" stroke-linecap="round"/><line x1="6.580250417744308" y1="1.6660324971745855" x2="6.702119761149455" y2="2.6585786488159076" stroke="black" stroke-width="0.022713227156299372" stroke-linecap="round"/><line x1="6.702119761149455" y1="2.6585786488159076" x2="4.936224575431601" y2="3.597521774387689" stroke="black" stroke-width="0.022713227156299372" stroke-linecap="round"/><line x1="4.936224575431601" y1="3.597521774387689" x2="2.672095834763285" y2="1.629344687416168" stroke="black" stroke-width="0.022713227156299372" stroke-linecap="round"/><line x1="2.672095834763285" y1="1.629344687416168" x2="4.0401764080659595" y2="-2.1294257957274656" stroke="black" stroke-width="0.022713227156299372" stroke-linecap="round"/><line x1="4.0401764080659595" y1="-2.1294257957274656" x2="5.0400241032223505" y2="-2.146878202164749" stroke="black" stroke-width="0.022713227156299372" stroke-linecap="round"/><line x1="5.0400241032223505" y1="-2.146878202164749" x2="5.789237290054175" y2="-0.2925104930311744" stroke="black" stroke-width="0.022713227156299372" stroke-linecap="round"/><line x1="5.789237290054175" y1="-0.2925104930311744" x2="3.595176185196665" y2="1.7534845871563223" stroke="black" stroke-width="0.022713227156299372" stroke-linecap="round"/><line x1="3.595176185196665" y1="1.7534845871563223" x2="-3.1086244689504383e-15" y2="1.2656542480726785e-14" stroke="black" stroke-width="0.022713227156299372" stroke-linecap="round"/></svg>