<?xml version="1.0" encoding="UTF-8"?><svg viewBox="-2.1941273916970476 -3.17965968842648 4.212876928247015 4.255682206140339" xmlns="http://www.w3.org/2000/svg"><line x1="0" y1="0" x2="0.08715574274765817" y2="-0.9961946980917455" stroke="black" stroke-width="0.012516712371000995" stroke-linecap="round"/><line x1="0.08715574274765817" y1="-0.9961946980917455" x2="0.46877373350074814" y2="0.9670596688035824" stroke="black" stroke-width="0.012516712371000995" stroke-linecap="round"/><line x1="0.46877373350074814" y1="0.9670596688035824" x2="-0.8931977657178928" y2="-1.705959903761521" stroke="black" stroke-width="0.012516712371000995" stroke-linecap="round"/><line x1="-0.8931977657178928" y1="-1.705959903761521" x2="-0.2111994056553943" y2="-0.9746062021423505" stroke="black" stroke-width="0.012516712371000995" stroke-linecap="round"/><line x1="-0.2111994056553943" y1="-0.9746062021423505" x2="-1.925534007059619" y2="-2.004682351962459" stroke="black" stroke-width="0.012516712371000995" stroke-linecap="round"/><line x1="-1.925534007059619" y1="-2.004682351962459" x2="0.9722434718075861" y2="-1.2282252166548964" stroke="black" stroke-width="0.012516712371000995" stroke-linecap="round"/><line x1="0.9722434718075861" y1="-1.2282252166548964" x2="-0.02760422334880519" y2="-1.210772810217613" stroke="black" stroke-width="0.012516712371000995" stroke-linecap="round"/><line x1="-0.02760422334880519" y1="-1.210772810217613" x2="1.8850052885772657" y2="-1.7955162196630865" stroke="black" stroke-width="0.012516712371000995" stroke-linecap="round"/><line x1="1.8850052885772657" y1="-1.7955162196630865" x2="-0.6310064152590065" y2="-0.16159911461800558" stroke="black" stroke-width="0.012516712371000995" stroke-linecap="round"/><line x1="-0.6310064152590065" y1="-0.16159911461800558" x2="0.025052613731500695" y2="-0.9163086948407776" stroke="black" stroke-width="0.012516712371000995" stroke-linecap="round"/><line x1="0.025052613731500695" y1="-0.9163086948407776" x2="-0.8201839097498979" y2="0.8963068792325225" stroke="black" stroke-width="0.012516712371000995" stroke-linecap="round"/><line x1="-0.8201839097498979" y1="0.8963068792325225" x2="-0.3508805146292052" y2="-2.066758142552891" stroke="black" stroke-width="0.012516712371000995" stroke-linecap="round"/><line x1="-0.3508805146292052" y1="-2.066758142552891" x2="-0.22901117122405767" y2="-1.0742119909115688" stroke="black" stroke-width="0.012516712371000995" stroke-linecap="round"/><line x1="-0.22901117122405767" y1="-1.0742119909115688" x2="-1.010473428202607" y2="-2.915221697816449" stroke="black" stroke-width="0.012516712371000995" stroke-linecap="round"/><line x1="-1.010473428202607" y1="-2.915221697816449" x2="0.8774877449469061" y2="-0.5837838134455371" stroke="black" stroke-width="0.012516712371000995" stroke-linecap="round"/><line x1="0.8774877449469061" y1="-0.5837838134455371" x2="0.05833570065791427" y2="-1.1573602497965831" stroke="black" stroke-width="0.012516712371000995" stroke-linecap="round"/><line x1="0.05833570065791427" y1="-1.1573602497965831" x2="1.9493728518565479" y2="-0.5062239408822703" stroke="black" stroke-width="0.012516712371000995" stroke-linecap="round"/><line x1="1.9493728518565479" y1="-0.5062239408822703" x2="-1.0465157524071738" y2="-0.6632318096111021" stroke="black" stroke-width="0.012516712371000995" stroke-linecap="round"/><line x1="-1.0465157524071738" y1="-0.6632318096111021" x2="-0.07214568762193851" y2="-0.8881828639549669" stroke="black" stroke-width="0.012516712371000995" stroke-linecap="round"/><line x1="-0.07214568762193851" y1="-0.8881828639549669" x2="-1.8213851019007303" y2="0.08143637653770675" stroke="black" stroke-width="0.012516712371000995" stroke-linecap="round"/><line x1="-1.8213851019007303" y1="0.08143637653770675" x2="0.29993524165891206" y2="-2.039883967021936" stroke="black" stroke-width="0.012516712371000995" stroke-linecap="round"/><line x1="0.29993524165891206" y1="-2.039883967021936" x2="-0.1848743785874249" y2="-1.16526425988254" stroke="black" stroke-width="0.012516712371000995" stroke-linecap="round"/><line x1="-0.1848743785874249" y1="-1.16526425988254" x2="0.2650277301003051" y2="-3.1140043894530107" stroke="black" stroke-width="0.012516712371000995" stroke-linecap="round"/><line x1="0.2650277301003051" y1="-3.1140043894530107" x2="0.42203559882913655" y2="-0.11811578518928911" stroke="black" stroke-width="0.012516712371000995" stroke-linecap="round"/><line x1="0.42203559882913655" y1="-0.11811578518928911" x2="0.09646744437197902" y2="-1.0636343607886056" stroke="black" stroke-width="0.012516712371000995" stroke-linecap="round"/><line x1="0.09646744437197902" y1="-1.0636343607886056" x2="1.2436203170740718" y2="0.5746697277893775" stroke="black" stroke-width="0.012516712371000995" stroke-linecap="round"/><line x1="1.2436203170740718" y1="0.5746697277893775" x2="-1.0878175672968404" y2="-1.313291445360135" stroke="black" stroke-width="0.012516712371000995" stroke-linecap="round"/><line x1="-1.0878175672968404" y1="-1.313291445360135" x2="-0.16731271384440005" y2="-0.9225603168708614" stroke="black" stroke-width="0.012516712371000995" stroke-linecap="round"/><line x1="-0.16731271384440005" y1="-0.9225603168708614" x2="-2.152405017127044" y2="-1.1662990036811567" stroke="black" stroke-width="0.012516712371000995" stroke-linecap="round"/><line x1="-2.152405017127044" y1="-1.1662990036811567" x2="0.8106600046583692" y2="-1.6356023988018493" stroke="black" stroke-width="0.012516712371000995" stroke-linecap="round"/><line x1="0.8106600046583692" y1="-1.6356023988018493" x2="-0.09564778237828053" y2="-1.2129841370611494" stroke="black" stroke-width="0.012516712371000995" stroke-linecap="round"/><line x1="-0.09564778237828053" y1="-1.2129841370611494" x2="1.4137713780672634" y2="-2.525102195042164" stroke="black" stroke-width="0.012516712371000995" stroke-linecap="round"/><line x1="1.4137713780672634" y1="-2.525102195042164" x2="-0.22014572697781798" y2="-0.009090491205892004" stroke="black" stroke-width="0.012516712371000995" stroke-linecap="round"/><line x1="-0.22014572697781798" y1="-0.009090491205892004" x2="0.07222597774491879" y2="-0.9653952471689274" stroke="black" stroke-width="0.012516712371000995" stroke-linecap="round"/><line x1="0.07222597774491879" y1="-0.9653952471689274" x2="0.037321164870352405" y2="1.034300143143855" stroke="black" stroke-width="0.012516712371000995" stroke-linecap="round"/><line x1="0.037321164870352405" y1="1.034300143143855" x2="-0.7391359704372096" y2="-1.86347733572335" stroke="black" stroke-width="0.012516712371000995" stroke-linecap="round"/><line x1="-0.7391359704372096" y1="-1.86347733572335" x2="-0.2240978955271552" y2="-1.006310035021238" stroke="black" stroke-width="0.012516712371000995" stroke-linecap="round"/><line x1="-0.2240978955271552" y1="-1.006310035021238" x2="-1.6868052987654973" y2="-2.370306755146234" stroke="black" stroke-width="0.012516712371000995" stroke-linecap="round"/><line x1="-1.6868052987654973" y1="-2.370306755146234" x2="0.9862142737996065" y2="-1.0083352559275935" stroke="black" stroke-width="0.012516712371000995" stroke-linecap="round"/><line x1="0.9862142737996065" y1="-1.0083352559275935" x2="0.00458709035194238" y2="-1.1991442513041377" stroke="black" stroke-width="0.012516712371000995" stroke-linecap="round"/><line x1="0.00458709035194238" y1="-1.1991442513041377" x2="1.9969764865354334" y2="-1.373455736799454" stroke="black" stroke-width="0.012516712371000995" stroke-linecap="round"/><line x1="1.9969764865354334" y1="-1.373455736799454" x2="-0.8037647929561715" y2="-0.29835188816355185" stroke="black" stroke-width="0.012516712371000995" stroke-linecap="round"/><line x1="-0.8037647929561715" y1="-0.29835188816355185" x2="-0.005129282908878707" y2="-0.9001669113156002" stroke="black" stroke-width="0.012516712371000995" stroke-linecap="round"/><line x1="-0.005129282908878707" y1="-0.9001669113156002" x2="-1.2087593292129748" y2="0.6971041087789859" stroke="black" stroke-width="0.012516712371000995" stroke-linecap="round"/><line x1="-1.2087593292129748" y1="0.6971041087789859" x2="-0.133655480577074" y2="-2.1036371707126196" stroke="black" stroke-width="0.012516712371000995" stroke-linecap="round"/><line x1="-0.133655480577074" y1="-2.1036371707126196" x2="-0.22081122332473194" y2="-1.107442472620874" stroke="black" stroke-width="0.012516712371000995" stroke-linecap="round"/><line x1="-0.22081122332473194" y1="-1.107442472620874" x2="-0.6024292140778212" y2="-3.070696839516202" stroke="black" stroke-width="0.012516712371000995" stroke-linecap="round"/><line x1="-0.6024292140778212" y1="-3.070696839516202" x2="0.7595422851408195" y2="-0.39767726695109884" stroke="black" stroke-width="0.012516712371000995" stroke-linecap="round"/><line x1="0.7595422851408195" y1="-0.39767726695109884" x2="0.0775439250783212" y2="-1.1290309685702695" stroke="black" stroke-width="0.012516712371000995" stroke-linecap="round"/><line x1="0.0775439250783212" y1="-1.1290309685702695" x2="1.7918785264825459" y2="-0.09895481875016099" stroke="black" stroke-width="0.012516712371000995" stroke-linecap="round"/><line x1="1.7918785264825459" y1="-0.09895481875016099" x2="-1.1058989523846587" y2="-0.8754119540577243" stroke="black" stroke-width="0.012516712371000995" stroke-linecap="round"/><line x1="-1.1058989523846587" y1="-0.8754119540577243" x2="-0.10605125722826747" y2="-0.8928643604950077" stroke="black" stroke-width="0.012516712371000995" stroke-linecap="round"/><line x1="-0.10605125722826747" y1="-0.8928643604950077" x2="-2.018660769154338" y2="-0.3081209510495335" stroke="black" stroke-width="0.012516712371000995" stroke-linecap="round"/><line x1="-2.018660769154338" y1="-0.3081209510495335" x2="0.4973509346819336" y2="-1.942038056094615" stroke="black" stroke-width="0.012516712371000995" stroke-linecap="round"/><line x1="0.4973509346819336" y1="-1.942038056094615" x2="-0.1587080943085738" y2="-1.1873284758718432" stroke="black" stroke-width="0.012516712371000995" stroke-linecap="round"/><line x1="-0.1587080943085738" y1="-1.1873284758718432" x2="0.6865284291728251" y2="-2.9999440499451433" stroke="black" stroke-width="0.012516712371000995" stroke-linecap="round"/><line x1="0.6865284291728251" y1="-2.9999440499451433" x2="0.2172250340521329" y2="-0.03687902815972999" stroke="black" stroke-width="0.012516712371000995" stroke-linecap="round"/><line x1="0.2172250340521329" y1="-0.03687902815972999" x2="0.09535569064698478" y2="-1.029425179801052" stroke="black" stroke-width="0.012516712371000995" stroke-linecap="round"/><line x1="0.09535569064698478" y1="-1.029425179801052" x2="0.8768179476255331" y2="0.8115845271038282" stroke="black" stroke-width="0.012516712371000995" stroke-linecap="round"/><line x1="0.8768179476255331" y1="0.8115845271038282" x2="-1.0111432255239805" y2="-1.5198533572670836" stroke="black" stroke-width="0.012516712371000995" stroke-linecap="round"/><line x1="-1.0111432255239805" y1="-1.5198533572670836" x2="-0.19199118123498848" y2="-0.9462769209160378" stroke="black" stroke-width="0.012516712371000995" stroke-linecap="round"/><line x1="-0.19199118123498848" y1="-0.9462769209160378" x2="-2.0830283324336225" y2="-1.5974132298303503" stroke="black" stroke-width="0.012516712371000995" stroke-linecap="round"/><line x1="-2.0830283324336225" y1="-1.5974132298303503" x2="0.9128602718300991" y2="-1.4404053611015195" stroke="black" stroke-width="0.012516712371000995" stroke-linecap="round"/><line x1="0.9128602718300991" y1="-1.4404053611015195" x2="-0.06150979295513603" y2="-1.2154543067576542" stroke="black" stroke-width="0.012516712371000995" stroke-linecap="round"/><line x1="-0.06150979295513603" y1="-1.2154543067576542" x2="1.6877296213236554" y2="-2.1850735472503287" stroke="black" stroke-width="0.012516712371000995" stroke-linecap="round"/><line x1="1.6877296213236554" y1="-2.1850735472503287" x2="-0.43359072223598694" y2="-0.06375320369068582" stroke="black" stroke-width="0.012516712371000995" stroke-linecap="round"/><line x1="-0.43359072223598694" y1="-0.06375320369068582" x2="0.05121889801035012" y2="-0.9383729108300816" stroke="black" stroke-width="0.012516712371000995" stroke-linecap="round"/><line x1="0.05121889801035012" y1="-0.9383729108300816" x2="-0.39868321067737983" y2="1.010367218740389" stroke="black" stroke-width="0.012516712371000995" stroke-linecap="round"/><line x1="-0.39868321067737983" y1="1.010367218740389" x2="-0.5556910794062129" y2="-1.9855213855233327" stroke="black" stroke-width="0.012516712371000995" stroke-linecap="round"/><line x1="-0.5556910794062129" y1="-1.9855213855233327" x2="-0.2301229249490559" y2="-1.040002809924016" stroke="black" stroke-width="0.012516712371000995" stroke-linecap="round"/><line x1="-0.2301229249490559" y1="-1.040002809924016" x2="-1.377275797651149" y2="-2.678306898501999" stroke="black" stroke-width="0.012516712371000995" stroke-linecap="round"/><line x1="-1.377275797651149" y1="-2.678306898501999" x2="0.9541620867197642" y2="-0.7903457253524873" stroke="black" stroke-width="0.012516712371000995" stroke-linecap="round"/><line x1="0.9541620867197642" y1="-0.7903457253524873" x2="0.03365723326732373" y2="-1.1810768538417609" stroke="black" stroke-width="0.012516712371000995" stroke-linecap="round"/><line x1="0.03365723326732373" y1="-1.1810768538417609" x2="2.0187495365499677" y2="-0.9373381670314661" stroke="black" stroke-width="0.012516712371000995" stroke-linecap="round"/><line x1="2.0187495365499677" y1="-0.9373381670314661" x2="-0.9443154852354452" y2="-0.46803477191077303" stroke="black" stroke-width="0.012516712371000995" stroke-linecap="round"/><line x1="-0.9443154852354452" y1="-0.46803477191077303" x2="-0.03800769819879524" y2="-0.8906530336514724" stroke="black" stroke-width="0.012516712371000995" stroke-linecap="round"/><line x1="-0.03800769819879524" y1="-0.8906530336514724" x2="-1.5474268586443385" y2="0.421465024329543" stroke="black" stroke-width="0.012516712371000995" stroke-linecap="round"/><line x1="-1.5474268586443385" y1="0.421465024329543" x2="0.08649024640074288" y2="-2.0945466795067293" stroke="black" stroke-width="0.012516712371000995" stroke-linecap="round"/><line x1="0.08649024640074288" y1="-2.0945466795067293" x2="-0.2058814583219935" y2="-1.1382419235436938" stroke="black" stroke-width="0.012516712371000995" stroke-linecap="round"/><line x1="-0.2058814583219935" y1="-1.1382419235436938" x2="-0.17097664544742647" y2="-3.1379373138564763" stroke="black" stroke-width="0.012516712371000995" stroke-linecap="round"/><line x1="-0.17097664544742647" y1="-3.1379373138564763" x2="0.6054804898601367" y2="-0.24015983498927174" stroke="black" stroke-width="0.012516712371000995" stroke-linecap="round"/><line x1="0.6054804898601367" y1="-0.24015983498927174" x2="0.0904424149500822" y2="-1.0973271356913838" stroke="black" stroke-width="0.012516712371000995" stroke-linecap="round"/><line x1="0.0904424149500822" y1="-1.0973271356913838" x2="1.5531498181884233" y2="0.2666695844336129" stroke="black" stroke-width="0.012516712371000995" stroke-linecap="round"/><line x1="1.5531498181884233" y1="0.2666695844336129" x2="-1.1198697543766805" y2="-1.095301914785027" stroke="black" stroke-width="0.012516712371000995" stroke-linecap="round"/><line x1="-1.1198697543766805" y1="-1.095301914785027" x2="-0.13824257092901648" y2="-0.9044929194084821" stroke="black" stroke-width="0.012516712371000995" stroke-linecap="round"/><line x1="-0.13824257092901648" y1="-0.9044929194084821" x2="-2.1306319671125076" y2="-0.7301814339131656" stroke="black" stroke-width="0.012516712371000995" stroke-linecap="round"/><line x1="-2.1306319671125076" y1="-0.7301814339131656" x2="0.6701093123790978" y2="-1.8052852825490666" stroke="black" stroke-width="0.012516712371000995" stroke-linecap="round"/><line x1="0.6701093123790978" y1="-1.8052852825490666" x2="-0.12852619766819506" y2="-1.2034702593970183" stroke="black" stroke-width="0.012516712371000995" stroke-linecap="round"/><line x1="-0.12852619766819506" y1="-1.2034702593970183" x2="1.0751038486359015" y2="-2.800741279491604" stroke="black" stroke-width="0.012516712371000995" stroke-linecap="round"/><line x1="1.0751038486359015" y1="-2.800741279491604" x2="2.220446049250313e-16" y2="1.3322676295501878e-15" stroke="black" stroke-width="0.012516712371000995" stroke-linecap="round"/></svg>